<?xml version="1.0" standalone="no"?>
<!DOCTYPE svg PUBLIC "-//W3C//DTD SVG 20010904//EN"
 "http://www.w3.org/TR/2001/REC-SVG-20010904/DTD/svg10.dtd">
<svg version="1.0" xmlns="http://www.w3.org/2000/svg"
 width="346.000000pt" height="346.000000pt" viewBox="0 0 346.000000 346.000000"
 preserveAspectRatio="xMidYMid meet">
<metadata>
Created by potrace 1.11, written by Peter Selinger 2001-2013
</metadata>
<g transform="translate(0.000000,346.000000) scale(0.100000,-0.100000)"
fill="#000000" stroke="none">
<path d="M633 3167 c-17 -7 -35 -15 -39 -19 -4 -5 -16 -8 -26 -8 -10 0 -18 -7
-18 -15 0 -8 -6 -15 -13 -15 -12 0 -43 -66 -39 -83 1 -4 -5 -10 -14 -14 -12
-5 -13 -7 -2 -14 10 -6 10 -11 0 -21 -8 -8 -12 -47 -12 -121 0 -93 3 -116 24
-160 13 -29 26 -67 30 -86 8 -46 47 -94 93 -118 39 -20 52 -48 37 -81 -4 -9
-6 -20 -6 -24 1 -4 -9 -15 -22 -23 -14 -10 -27 -30 -30 -51 -4 -19 -16 -40
-26 -46 -14 -9 -16 -16 -8 -25 8 -9 7 -13 -2 -13 -8 0 -10 -8 -6 -24 4 -15 0
-30 -9 -39 -8 -8 -16 -30 -17 -47 -1 -18 -8 -35 -15 -37 -7 -3 -13 -13 -13
-23 0 -10 -6 -25 -13 -32 -8 -8 -13 -47 -14 -111 -1 -73 -6 -101 -17 -113 -20
-19 -20 -25 -1 -18 9 4 15 0 15 -10 0 -9 -6 -16 -12 -16 -10 0 -10 -2 0 -8 14
-9 9 -75 -9 -123 -6 -14 -12 -59 -13 -100 -2 -41 -6 -87 -10 -104 -4 -16 -7
-43 -6 -59 0 -16 -6 -39 -14 -51 -9 -14 -11 -26 -5 -32 5 -5 12 -44 15 -86 5
-68 3 -80 -16 -104 -11 -14 -17 -29 -13 -32 13 -9 8 -64 -5 -69 -16 -5 -15
-29 1 -36 6 -3 1 -4 -14 -1 -20 3 -29 -2 -43 -26 -16 -28 -17 -32 -2 -48 20
-22 20 -31 2 -31 -8 0 -16 -7 -20 -15 -4 -10 1 -15 14 -15 11 0 20 -4 20 -10
0 -5 -7 -10 -16 -10 -13 0 -14 -3 -5 -14 9 -10 9 -16 1 -21 -6 -4 -9 -14 -6
-22 8 -20 -47 -76 -102 -105 l-46 -23 31 -3 c37 -4 62 -26 39 -35 -10 -4 -13
-1 -9 9 6 17 -8 19 -24 3 -8 -8 -17 -8 -30 -1 -16 9 -22 7 -34 -10 -8 -11 -20
-26 -27 -34 -6 -7 -12 -18 -12 -24 0 -6 -7 -13 -16 -17 -8 -3 -13 -11 -10 -18
2 -7 -6 -18 -19 -25 -13 -7 -27 -26 -30 -41 -4 -16 -11 -31 -16 -34 -5 -4 -9
-20 -9 -37 0 -31 0 -31 17 -11 10 11 34 28 53 38 19 9 45 27 58 38 19 18 22
18 22 4 0 -9 -4 -17 -9 -17 -5 0 -8 -19 -6 -42 1 -30 -6 -61 -25 -101 -15 -32
-23 -60 -19 -63 15 -9 10 -40 -10 -62 -20 -24 -51 -28 -69 -10 -9 9 -12 -3
-12 -55 l0 -67 1730 0 1730 0 -1 158 -1 157 -34 38 c-34 37 -54 47 -54 26 0
-5 -5 -7 -11 -3 -6 3 -8 17 -5 30 5 20 -3 33 -45 72 -48 46 -50 49 -34 65 9
10 25 15 34 12 12 -3 17 1 17 15 0 11 -7 20 -15 20 -8 0 -23 8 -33 17 -15 13
-21 14 -31 4 -9 -9 -9 -14 3 -21 13 -9 13 -11 1 -19 -18 -12 -41 -3 -41 16 0
8 -7 21 -15 29 -8 9 -15 26 -15 39 0 13 -4 27 -10 30 -14 8 -13 55 1 55 6 0
-1 21 -16 46 l-27 47 26 -7 c14 -3 26 -3 26 1 0 5 -26 36 -59 69 -42 44 -60
72 -65 99 -4 21 -14 44 -21 52 -20 19 -5 55 31 72 l28 14 -22 15 c-17 11 -22
24 -22 58 0 23 -4 45 -9 48 -5 3 -11 23 -14 43 -11 80 -30 148 -44 160 -10 8
-11 13 -3 18 7 4 9 16 5 29 -15 50 -32 211 -25 242 4 19 4 34 -1 34 -4 0 -3
14 3 30 8 24 6 39 -6 70 -9 22 -16 53 -16 68 0 15 -4 32 -10 38 -5 5 -10 24
-12 41 -1 18 -8 35 -15 37 -7 3 -13 12 -13 19 0 16 -41 115 -65 159 -8 14 -15
34 -15 45 0 10 -7 27 -15 37 -8 11 -13 28 -9 38 3 11 -1 20 -10 24 -36 14 -2
84 39 84 8 0 15 9 15 19 0 10 16 36 35 57 19 22 35 49 35 61 0 12 4 24 9 27
17 11 33 130 35 261 1 91 -1 104 -26 145 -29 49 -83 111 -110 126 -23 12 -181
-1 -186 -15 -2 -6 -12 -11 -22 -11 -10 0 -22 -5 -25 -11 -4 -6 -15 -13 -25
-17 -37 -15 -170 -132 -170 -151 0 -5 -6 -11 -13 -14 -7 -2 -30 -39 -51 -81
-36 -70 -41 -76 -70 -76 -17 1 -49 8 -71 16 -22 9 -48 16 -57 16 -10 -1 -20 3
-23 9 -9 13 -49 11 -63 -3 -9 -9 -20 -9 -47 1 -26 9 -58 10 -113 5 -42 -4 -81
-7 -87 -5 -5 1 -41 5 -80 7 -38 3 -86 10 -105 15 -62 16 -150 10 -239 -16 -48
-14 -94 -30 -103 -35 -10 -6 -39 -10 -66 -10 l-47 0 -34 71 c-18 40 -44 84
-57 98 -13 14 -24 30 -24 36 0 12 -58 65 -71 65 -5 0 -9 4 -9 9 0 5 -8 11 -17
15 -20 6 -55 28 -63 38 -3 3 -19 10 -35 14 -17 4 -34 10 -40 14 -5 4 -28 10
-50 14 -22 3 -49 8 -60 10 -11 3 -34 0 -52 -7z m-23 -72 c0 -8 -7 -15 -15 -15
-13 0 -14 3 -3 15 16 18 18 18 18 0z m70 -55 c0 -5 -5 -10 -11 -10 -5 0 -7 5
-4 10 3 6 8 10 11 10 2 0 4 -4 4 -10z m71 -32 c24 -26 24 -28 -1 -28 -11 0
-20 7 -20 15 0 8 -4 15 -10 15 -5 0 -10 5 -10 10 0 17 22 11 41 -12z m54 -48
c3 -5 -1 -10 -10 -10 -9 0 -13 5 -10 10 3 6 8 10 10 10 2 0 7 -4 10 -10z
m1845 -80 c0 -5 -9 -10 -21 -10 -11 0 -17 5 -14 10 3 6 13 10 21 10 8 0 14 -4
14 -10z m-1755 -94 c20 -18 21 -23 8 -35 -11 -10 -18 -10 -26 -2 -8 8 -7 11 2
11 8 0 3 10 -13 25 -14 13 -26 28 -26 34 0 16 25 19 29 3 1 -8 13 -24 26 -36z
m55 -61 c0 -10 -10 -15 -27 -15 -26 0 -26 1 -7 15 25 19 34 19 34 0z m-315
-122 c-8 -35 -13 -39 -26 -26 -8 8 -7 17 3 32 18 30 31 26 23 -6z m-35 -44 c0
-14 -17 -10 -23 5 -4 10 -1 13 9 9 7 -3 14 -9 14 -14z m60 -13 c0 -2 -7 -9
-15 -16 -12 -10 -15 -10 -15 4 0 9 7 16 15 16 8 0 15 -2 15 -4z m2094 -5 c3
-5 -8 -11 -24 -13 -18 -3 -30 0 -30 7 0 13 47 18 54 6z m-740 -186 c-4 -8 -11
-15 -16 -15 -6 0 -5 6 2 15 7 8 14 15 16 15 2 0 1 -7 -2 -15z m-584 -47 c0 -4
-7 -5 -15 -2 -8 4 -15 18 -15 33 l1 26 14 -25 c8 -14 14 -28 15 -32z m-124 21
c3 -5 18 -9 35 -9 26 0 29 -3 29 -30 0 -36 -9 -37 -68 -8 -36 17 -48 19 -63
10 -10 -7 -24 -12 -30 -12 -14 0 -39 -25 -39 -39 0 -6 -13 -11 -30 -11 -23 0
-31 -5 -36 -25 -3 -14 -10 -25 -15 -25 -5 0 -9 -6 -9 -13 0 -7 -9 -18 -20 -25
-16 -10 -23 -10 -33 0 -11 10 -9 16 12 34 21 18 23 24 13 37 -11 12 -7 16 24
22 38 7 64 25 64 44 0 6 11 11 25 11 14 0 25 5 25 10 0 6 11 15 25 20 14 5 25
13 25 18 0 11 58 3 66 -9z m851 -5 c17 -8 37 -13 45 -11 7 2 10 2 6 0 -13 -7
-9 -25 7 -37 12 -9 11 -14 -6 -35 l-20 -24 -6 21 c-3 13 -13 22 -25 22 -10 0
-30 7 -43 16 -19 12 -37 14 -75 9 -27 -4 -52 -11 -56 -16 -9 -16 -44 -11 -38
6 4 8 12 15 20 15 8 0 14 5 14 10 0 6 9 10 20 10 11 0 20 4 20 8 0 29 79 32
137 6z m-1312 -3 c-3 -6 -14 -11 -23 -11 -15 1 -15 2 2 15 21 16 32 13 21 -4z
m565 -76 c0 -8 -9 -15 -20 -15 -11 0 -20 4 -20 10 0 5 7 7 15 4 8 -4 15 -1 15
5 0 6 2 11 5 11 3 0 5 -7 5 -15z m850 -50 c0 -8 -6 -15 -14 -15 -7 0 -19 7
-26 15 -11 13 -8 15 14 15 16 0 26 -5 26 -15z m-1630 -30 c0 -8 -7 -15 -15
-15 -8 0 -15 7 -15 15 0 8 7 15 15 15 8 0 15 -7 15 -15z m610 -116 c0 -5 -9
-9 -20 -9 -13 0 -18 5 -14 14 6 15 34 11 34 -5z m928 6 c-2 -5 -9 -9 -15 -9
-7 1 -13 -4 -13 -12 0 -23 37 -16 44 8 5 22 6 22 23 6 16 -16 15 -19 -7 -38
-13 -11 -31 -20 -42 -20 -10 0 -27 -6 -38 -12 -16 -10 -23 -10 -37 4 -9 10
-14 20 -11 23 3 3 13 -1 21 -10 23 -23 30 -18 23 16 -4 24 -2 35 11 45 20 15
46 14 41 -1z m-888 -5 c0 -23 -24 -57 -55 -78 -35 -22 -35 -22 -35 -2 0 11 -7
23 -15 26 -17 7 -21 44 -4 44 6 0 13 -9 16 -20 5 -20 43 -29 43 -10 0 6 7 10
15 10 8 0 15 9 15 20 0 11 5 20 10 20 6 0 10 -4 10 -10z m-584 -42 c-9 -12
-16 -33 -16 -45 0 -13 -4 -23 -10 -23 -5 0 -10 -7 -10 -15 0 -8 -7 -15 -15
-15 -14 0 -14 3 0 24 8 13 13 31 9 40 -3 9 -1 16 5 16 6 0 11 5 11 12 0 17 34
52 38 39 2 -6 -4 -21 -12 -33z m-96 0 c0 -12 -47 -78 -64 -90 -29 -20 -36 -5
-9 20 16 16 27 34 25 41 -2 7 4 19 14 26 23 18 34 19 34 3z m960 -49 c0 -9 -6
-22 -14 -28 -11 -10 -16 -8 -21 9 -4 12 -4 33 0 47 6 24 7 25 20 7 8 -11 15
-26 15 -35z m690 26 c0 -8 -3 -15 -7 -15 -5 0 -19 -3 -33 -6 l-25 -6 24 21
c28 25 41 27 41 6z m-1433 -9 c-3 -7 -2 -17 3 -22 5 -5 1 -19 -9 -33 -11 -14
-21 -20 -25 -13 -3 6 1 17 9 25 11 12 12 16 2 20 -9 3 -9 8 2 20 16 21 25 22
18 3z m478 4 c3 -5 -1 -10 -9 -10 -9 0 -16 5 -16 10 0 6 4 10 9 10 6 0 13 -4
16 -10z m594 -55 c0 -5 -4 -3 -9 5 -5 8 -9 22 -9 30 0 16 17 -16 18 -35z
m-679 6 c0 -5 8 -12 18 -14 9 -3 3 -5 -15 -6 -25 -1 -31 2 -27 14 7 16 24 21
24 6z m990 -11 c0 -5 -8 -10 -17 -10 -15 0 -16 2 -3 10 19 12 20 12 20 0z
m-233 -89 c-2 -13 -5 -11 -15 6 -7 12 -9 29 -5 39 5 15 8 14 15 -6 5 -13 7
-31 5 -39z m-1180 27 c-3 -8 -6 -5 -6 6 -1 11 2 17 5 13 3 -3 4 -12 1 -19z
m-237 -2 c0 -2 -7 -6 -15 -10 -8 -3 -15 -1 -15 4 0 6 7 10 15 10 8 0 15 -2 15
-4z m60 -1 c0 -3 -9 -14 -20 -25 -23 -23 -26 -19 -8 10 12 18 28 27 28 15z
m320 -10 c0 -8 -4 -15 -10 -15 -5 0 -7 7 -4 15 4 8 8 15 10 15 2 0 4 -7 4 -15z
m-60 -30 c0 -8 -7 -15 -16 -15 -14 0 -14 3 -4 15 7 8 14 15 16 15 2 0 4 -7 4
-15z m594 -34 c-13 -32 -20 -168 -10 -179 3 -2 16 9 30 24 l25 29 -2 -32 c-1
-18 -5 -33 -9 -33 -5 0 -8 -6 -8 -14 0 -8 -6 -21 -13 -28 -8 -7 -17 -27 -21
-43 -10 -44 -11 -49 -17 -60 -4 -5 -7 -27 -7 -49 -1 -21 -6 -44 -13 -52 -6 -7
-8 -26 -4 -43 3 -17 2 -32 -4 -36 -17 -10 -14 -85 4 -91 10 -4 15 -20 15 -49
0 -29 6 -47 20 -60 11 -10 17 -22 14 -26 -3 -5 2 -12 11 -15 10 -4 12 -10 6
-18 -5 -6 -6 -26 -4 -44 4 -23 12 -34 29 -38 13 -3 24 -10 24 -15 0 -5 7 -9
15 -9 8 0 15 7 15 15 0 20 24 19 40 0 10 -12 10 -19 2 -27 -16 -16 -121 -16
-134 0 -6 6 -19 12 -29 12 -9 0 -24 7 -33 15 -8 8 -18 15 -23 15 -21 1 -71 61
-102 123 -8 15 -17 27 -21 27 -4 0 -3 21 3 46 8 35 8 51 -2 66 -8 12 -9 23 -3
27 5 3 17 29 26 58 10 28 21 53 25 55 16 6 60 87 51 93 -5 3 -1 24 9 48 19 45
18 69 -4 61 -18 -7 -18 53 0 82 19 29 65 170 65 196 0 21 0 21 20 3 13 -11 18
-25 14 -34z m-831 7 c-5 -26 -33 -41 -33 -18 0 6 4 10 9 10 5 0 13 9 16 21 9
28 14 20 8 -13z m314 -8 c0 -16 -6 -31 -14 -34 -8 -3 -13 2 -13 13 0 11 -6 21
-12 24 -10 3 -10 7 0 20 19 23 39 11 39 -23z m1044 -63 c11 -12 17 -28 14 -38
-6 -19 11 -70 27 -80 6 -4 10 -31 10 -60 -1 -75 47 -219 72 -219 6 0 22 -20
35 -44 24 -43 24 -45 10 -136 -8 -55 -18 -94 -26 -97 -7 -3 -13 -17 -13 -32 0
-42 -106 -131 -156 -131 -7 0 -18 -8 -23 -17 -6 -10 -11 -13 -11 -7 0 6 -21
17 -47 24 -95 24 -87 20 -66 36 10 7 28 14 41 14 12 0 22 5 22 11 0 5 5 7 10
4 6 -4 8 -10 5 -15 -7 -12 12 -23 26 -14 8 4 7 9 -2 15 -10 6 -7 14 14 33 15
14 27 30 27 36 0 5 7 10 15 10 8 0 15 4 15 9 0 21 -32 82 -45 88 -23 8 -18 31
11 58 47 44 72 115 40 115 -8 0 -16 16 -20 43 -7 51 -22 136 -35 196 -5 24
-15 47 -22 51 -10 7 -10 19 -1 62 20 96 25 113 36 127 9 12 12 11 15 -4 1 -10
12 -27 22 -38z m-146 -13 c19 -46 19 -63 1 -44 -14 15 -32 80 -22 80 3 0 13
-16 21 -36z m756 -9 c1 -17 -18 -17 -25 0 -4 11 -1 15 10 13 8 -2 15 -7 15
-13z m3 -40 c3 -8 2 -15 -3 -15 -5 0 -14 7 -21 15 -10 12 -10 15 3 15 8 0 17
-7 21 -15z m-714 -36 c0 -6 -4 -7 -10 -4 -5 3 -10 11 -10 16 0 6 5 7 10 4 6
-3 10 -11 10 -16z m-231 -203 c23 -13 22 -13 -23 -14 -73 -2 -110 -28 -138
-97 l-12 -30 -4 29 c-2 16 5 46 15 67 15 32 25 40 58 48 57 13 77 12 104 -3z
m188 -12 c-3 -3 -12 -4 -19 -1 -8 3 -5 6 6 6 11 1 17 -2 13 -5z m-1127 -34 c0
-5 -5 -10 -11 -10 -5 0 -7 5 -4 10 3 6 8 10 11 10 2 0 4 -4 4 -10z m-256 -47
c-5 -5 -12 -12 -16 -18 -4 -6 -8 -2 -8 8 0 9 7 17 17 17 9 0 12 -3 7 -7z
m1192 -82 c-15 -14 -16 -14 -16 1 0 9 5 20 10 23 6 3 11 18 12 33 1 22 2 21 5
-7 3 -22 -1 -39 -11 -50z m-469 47 c-3 -8 -6 -5 -6 6 -1 11 2 17 5 13 3 -3 4
-12 1 -19z m-516 -56 c-6 -2 -18 -10 -26 -19 -13 -13 -15 -11 -15 15 0 20 7
32 23 39 19 9 23 7 25 -11 2 -11 -1 -22 -7 -24z m9 -52 c0 -5 -7 -10 -16 -10
-8 0 -12 5 -9 10 3 6 10 10 16 10 5 0 9 -4 9 -10z m556 -117 c-10 -10 -19 5
-10 18 6 11 8 11 12 0 2 -7 1 -15 -2 -18z m-636 -13 c0 -5 -4 -10 -10 -10 -5
0 -10 5 -10 10 0 6 5 10 10 10 6 0 10 -4 10 -10z m72 -52 c-6 -6 -15 -8 -19
-4 -4 4 -1 11 7 16 19 12 27 3 12 -12z m-52 -5 c0 -5 -5 -15 -10 -23 -8 -12
-10 -11 -10 8 0 12 5 22 10 22 6 0 10 -3 10 -7z m350 -45 c-1 -14 -24 -48 -33
-48 -3 0 0 14 6 30 11 30 27 41 27 18z m-380 -12 c0 -3 -4 -8 -10 -11 -5 -3
-10 -1 -10 4 0 6 5 11 10 11 6 0 10 -2 10 -4z m-213 -61 c-9 -19 -13 -21 -15
-9 -3 13 12 33 25 34 0 0 -4 -11 -10 -25z m523 2 c0 -2 -9 -14 -20 -27 l-20
-23 0 26 c0 20 5 27 20 27 11 0 20 -2 20 -3z m70 -37 c0 -5 -4 -10 -10 -10 -5
0 -10 5 -10 10 0 6 5 10 10 10 6 0 10 -4 10 -10z m934 -5 c-4 -8 -7 -15 -8
-15 -1 0 -26 -9 -55 -20 -30 -11 -56 -18 -59 -16 -2 3 1 13 7 24 12 22 64 39
69 23 5 -16 22 -13 22 4 0 8 7 15 15 15 9 0 12 -6 9 -15z m-273 -9 c14 0 34
-10 44 -20 19 -19 18 -19 -30 -12 -28 4 -51 12 -53 17 -2 5 -10 9 -18 9 -8 0
-14 5 -14 11 0 7 8 9 23 4 12 -4 34 -8 48 -9z m-737 -10 c-10 -8 -21 -12 -24
-10 -5 6 21 24 34 24 6 0 1 -6 -10 -14z m-346 -23 c-15 -15 -30 -24 -33 -21
-8 7 35 48 49 48 6 0 -2 -12 -16 -27z m368 -19 c-10 -14 -20 -23 -23 -20 -3 3
2 12 11 21 9 9 16 21 16 27 0 6 3 8 6 5 4 -4 -1 -18 -10 -33z m64 8 c0 -11 -9
-29 -20 -42 -24 -28 -26 -9 -3 31 20 34 23 35 23 11z m3 -104 c-2 -5 -11 -8
-19 -8 -17 0 -19 31 -1 49 10 10 13 7 18 -11 3 -13 4 -26 2 -30z m-421 -28
c-15 -36 -17 -37 -20 -15 -2 14 -10 25 -17 25 -9 0 -12 6 -9 15 4 8 12 15 20
15 8 0 14 5 14 11 0 8 4 8 14 0 12 -10 12 -18 -2 -51z m488 33 c0 -5 -8 -17
-17 -28 -14 -18 -15 -18 -9 -2 3 10 6 23 6 28 0 5 5 9 10 9 6 0 10 -3 10 -7z
m-443 -25 c-3 -8 -6 -5 -6 6 -1 11 2 17 5 13 3 -3 4 -12 1 -19z m-265 -28
c-12 -11 -26 -20 -31 -20 -16 0 -1 28 17 33 33 9 35 7 14 -13z m-62 1 c0 -5
-7 -11 -14 -14 -10 -4 -13 -1 -9 9 6 15 23 19 23 5z m850 -12 c0 -5 -4 -9 -10
-9 -5 0 -10 7 -10 16 0 8 5 12 10 9 6 -3 10 -10 10 -16z m-776 -37 c-28 -27
-54 -34 -54 -16 0 8 13 17 30 21 17 3 30 10 30 16 0 6 3 7 7 4 3 -4 -2 -15
-13 -25z m326 8 c0 -11 -4 -20 -10 -20 -5 0 -10 9 -10 20 0 11 5 20 10 20 6 0
10 -9 10 -20z m465 0 c3 -5 1 -10 -4 -10 -6 0 -11 5 -11 10 0 6 2 10 4 10 3 0
8 -4 11 -10z m65 0 c0 -5 -3 -10 -8 -10 -4 0 -15 -12 -24 -27 -13 -21 -18 -23
-18 -10 0 9 4 17 9 17 5 0 13 9 16 20 7 21 25 28 25 10z m-710 -20 c-13 -11
-25 -18 -28 -15 -8 8 19 35 36 35 11 0 9 -5 -8 -20z m77 -2 c-3 -8 -6 -5 -6 6
-1 11 2 17 5 13 3 -3 4 -12 1 -19z m49 13 c-3 -5 1 -12 10 -15 13 -5 14 -9 4
-21 -10 -12 -16 -13 -26 -4 -17 14 -18 36 -1 42 18 8 19 8 13 -2z m-427 -23
c11 -3 7 -11 -12 -30 -14 -14 -32 -28 -39 -31 -7 -2 -9 -8 -5 -13 4 -5 11 -4
15 2 4 6 19 14 33 17 14 4 31 18 37 32 13 27 32 34 32 10 0 -8 -5 -15 -11 -15
-6 0 -20 -11 -30 -24 -11 -14 -30 -28 -42 -32 -12 -4 -24 -10 -27 -15 -3 -4
-17 -10 -31 -14 -24 -6 -25 -4 -21 24 3 22 10 31 23 31 21 0 38 22 21 28 -17
5 -15 32 3 32 9 0 12 -6 9 -15 -4 -10 0 -15 11 -15 14 0 16 6 11 28 -4 15 -3
22 1 16 4 -6 14 -13 22 -16z m374 -35 c-3 -7 -9 -13 -14 -13 -5 0 -9 -10 -9
-22 -1 -23 -1 -23 -15 2 -8 14 -14 19 -15 11 0 -7 -11 -24 -25 -37 -14 -13
-25 -27 -25 -32 0 -6 -7 -12 -15 -16 -10 -3 -15 1 -15 13 0 10 7 24 15 31 8 7
15 17 15 22 0 6 16 26 35 45 19 19 35 40 35 45 0 6 8 0 19 -13 10 -13 16 -29
14 -36z m28 -36 c-7 -7 -7 -15 -1 -22 11 -13 -40 -75 -61 -75 -10 0 -10 3 -1
12 7 7 12 23 12 36 0 21 2 23 16 11 14 -11 15 -10 12 7 -4 27 25 85 30 59 2
-9 -1 -22 -7 -28z m-271 23 c0 -5 -4 -10 -10 -10 -5 0 -10 5 -10 10 0 6 5 10
10 10 6 0 10 -4 10 -10z m-61 -31 c-24 -15 -29 -10 -11 11 10 12 18 16 21 9 2
-6 -3 -15 -10 -20z m-55 -34 c-4 -8 -10 -12 -15 -9 -11 6 -2 24 11 24 5 0 7
-7 4 -15z m1311 -5 c3 -5 1 -10 -4 -10 -6 0 -11 5 -11 10 0 6 2 10 4 10 3 0 8
-4 11 -10z m-1265 -19 c0 -4 -11 -24 -24 -44 -15 -21 -20 -37 -14 -39 6 -2 9
-10 7 -17 -3 -9 -15 0 -33 23 -28 38 -29 76 0 76 10 0 13 -7 8 -25 -5 -20 -3
-24 10 -19 9 3 16 10 16 15 0 9 21 38 28 39 1 0 2 -4 2 -9z m1279 -38 c0 -21
-3 -32 -6 -25 -6 15 -40 16 -45 0 -3 -8 -6 -6 -10 4 -8 20 21 58 45 58 13 0
17 -8 16 -37z m-912 -18 c2 0 -4 -11 -13 -23 -21 -30 -37 -28 -32 3 5 22 2 25
-16 20 -16 -5 -18 -4 -6 4 12 8 55 6 67 -4z m83 5 c0 -5 -5 -10 -11 -10 -5 0
-7 5 -4 10 3 6 8 10 11 10 2 0 4 -4 4 -10z m-402 -12 c-3 -7 -15 -15 -27 -16
-20 -3 -22 -2 -10 12 17 18 42 21 37 4z m242 -22 c0 -16 -18 -31 -27 -22 -8 8
5 36 17 36 5 0 10 -6 10 -14z m134 -23 c-4 -16 -10 -30 -14 -33 -4 -3 -10 -14
-14 -25 -3 -11 -3 -3 -1 18 3 34 19 67 31 67 3 0 1 -12 -2 -27z m1363 -10 c-3
-10 -5 -4 -5 12 0 17 2 24 5 18 2 -7 2 -21 0 -30z m1358 27 c3 -5 1 -10 -4
-10 -6 0 -11 5 -11 10 0 6 2 10 4 10 3 0 8 -4 11 -10z m-2825 -29 c0 -5 -7
-11 -15 -15 -9 -3 -15 0 -15 9 0 8 7 15 15 15 8 0 15 -4 15 -9z m-75 -21 c-21
-23 -35 -26 -35 -6 0 15 14 24 39 25 11 1 10 -4 -4 -19z m2525 -59 c0 -9 -7
-3 -15 13 -19 36 -19 47 0 22 8 -11 15 -27 15 -35z m-2496 -57 c-17 -32 -64
-64 -64 -44 0 6 4 10 10 10 5 0 12 11 16 24 3 14 12 27 20 30 8 3 14 11 14 18
0 9 -3 9 -10 -2 -5 -8 -13 -11 -17 -6 -4 5 -2 11 5 13 7 3 18 11 25 18 20 22
21 -23 1 -61z m2486 -36 c0 -26 -17 -22 -24 5 -11 40 -7 53 9 31 8 -10 15 -27
15 -36z m-1140 -20 c0 -28 -3 -48 -6 -45 -8 8 -13 79 -7 90 10 16 13 5 13 -45z
m-230 -13 c0 -14 -4 -25 -9 -25 -4 0 -6 11 -3 25 2 14 6 25 8 25 2 0 4 -11 4
-25z m-1425 -64 c-3 -6 -11 -11 -17 -11 -6 0 -6 6 2 15 14 17 26 13 15 -4z"/>
<path d="M1960 1135 c0 -8 6 -15 14 -15 8 0 16 7 20 15 4 10 -1 15 -14 15 -11
0 -20 -7 -20 -15z"/>
<path d="M541 534 c0 -11 3 -14 6 -6 3 7 2 16 -1 19 -3 4 -6 -2 -5 -13z"/>
<path d="M121 2724 c0 -11 3 -14 6 -6 3 7 2 16 -1 19 -3 4 -6 -2 -5 -13z"/>
<path d="M3438 2691 c-22 -21 -23 -31 -4 -31 8 0 17 -8 19 -17 3 -10 5 1 6 25
0 23 0 42 -1 41 -2 0 -11 -8 -20 -18z"/>
<path d="M83 2684 c-3 -9 -15 -20 -27 -24 -14 -6 -8 -7 22 -3 35 5 42 3 42
-11 0 -9 7 -16 15 -16 8 0 15 7 15 15 0 9 -7 18 -15 21 -8 4 -15 12 -15 20 0
19 -29 18 -37 -2z"/>
<path d="M440 2235 c0 -9 -7 -18 -15 -21 -8 -4 -12 -10 -9 -15 2 -5 0 -18 -6
-29 -18 -33 22 -25 48 10 27 36 27 46 2 60 -16 9 -20 8 -20 -5z"/>
<path d="M3019 1659 c-8 -16 -13 -18 -19 -9 -5 8 -10 8 -14 2 -3 -5 3 -21 13
-33 15 -19 22 -21 32 -12 6 6 17 10 23 9 6 -2 8 -1 4 1 -5 3 -8 18 -8 34 0 34
-15 38 -31 8z"/>
<path d="M59 1099 c-11 -7 -12 -9 0 -9 10 0 12 -9 8 -34 -5 -31 6 -56 25 -56
12 0 10 38 -2 45 -7 4 -5 14 5 28 8 12 15 24 15 27 0 10 -35 9 -51 -1z"/>
<path d="M3365 1002 l-30 -16 30 -6 c35 -8 51 2 39 23 -8 14 -12 13 -39 -1z"/>
<path d="M260 730 c0 -5 -7 -10 -16 -10 -10 0 -14 -6 -10 -15 3 -9 0 -15 -9
-15 -8 0 -15 5 -15 10 0 6 -5 10 -11 10 -6 0 -8 -9 -4 -20 4 -13 2 -20 -6 -20
-7 0 -10 -2 -8 -5 9 -8 79 29 79 42 0 7 6 13 14 13 8 0 18 5 21 10 3 6 -3 10
-14 10 -12 0 -21 -4 -21 -10z"/>
<path d="M18 213 c7 -3 16 -2 19 1 4 3 -2 6 -13 5 -11 0 -14 -3 -6 -6z"/>
</g>
</svg>
