<?xml version="1.0" standalone="no"?>
<!DOCTYPE svg PUBLIC "-//W3C//DTD SVG 1.1//EN" "http://www.w3.org/Graphics/SVG/1.1/DTD/svg11.dtd" >
<svg xmlns="http://www.w3.org/2000/svg" xmlns:xlink="http://www.w3.org/1999/xlink" version="1.1">
<metadata>
Created by FontForge 20170731 at Mon Aug 20 20:30:38 2007
 By Aleksey,,,
(c) 1995, 2000 Adobe Systems Incorporated. All rights reserved.
</metadata>
<defs>
<font id="AJensonPro-Disp" horiz-adv-x="265" >
  <font-face 
    font-family="Adobe Jenson Pro Disp"
    font-weight="400"
    font-stretch="normal"
    units-per-em="1000"
    panose-1="2 10 5 3 6 2 1 3 2 3"
    ascent="720"
    descent="-280"
    x-height="363"
    cap-height="632"
    bbox="-144.154 -291 1236.57 866"
    underline-thickness="50"
    underline-position="-200"
    unicode-range="U+0020-FB04"
  />
<missing-glyph horiz-adv-x="500" 
d="M0 0v700h500v-700h-500zM250 395l170 255h-340zM280 350l170 -255v510zM80 50h340l-170 255zM50 605v-510l170 255z" />
    <glyph glyph-name="T_h" unicode="Th" horiz-adv-x="1012" 
d="M296 284v101q0 216 -4 219h-80q-94 0 -134 -20q-23 -13 -50 -72q-3 -6 -7 -2q-5 5 -5 12q34 75 47 146q2 2 7 -1q4 -3 4 -6q5 -25 14 -28q10 -6 43 -6q34 -2 161 -2q178 0 301 7q24 1 40 9t42 29q5 5 9 1q2 -3 2 -10q0 -24 -2 -105t-2 -142v-89q0 -3 1.5 -5.5t4.5 -1.5
q5 2 27.5 12.5t43 19.5t30.5 13q33 13 50 13q104 0 104 -150q0 -10 -1.5 -66.5t-1.5 -93.5q0 -24 5.5 -32.5t30.5 -19.5q9 -5 9 -7v-3q0 -5 -8 -5h-57q-19 0 -39.5 -1t-34 -2.5t-15.5 -1.5q-4 0 -5 4t2 7q15 10 26 16q10 6 14 13t6 24q4 34 4 123q0 62 -9.5 89.5t-27.5 41.5
q-25 18 -60 18q-47 0 -89 -26q-12 -7 -12 -28v-112q0 -78 6 -122q2 -12 9.5 -17t34.5 -13q5 -1 6 -7q-1 -5 -5 -5q-107 0 -144 -6q-11 -2 -12 2l-2 3v3q24 16 31.5 25.5t11 30.5t3.5 75l-1 396q0 42 -4.5 55t-18.5 15q-35 7 -136 7h-63q-17 0 -19 -24q-6 -54 -6 -203v-103
q0 -162 5 -205q3 -25 16 -36q17 -15 85 -25q6 -2 5 -5l-1 -3q-3 -5 -18 -5q-12 0 -59.5 1.5t-71.5 1.5q-22 0 -62.5 -3.5t-57.5 -3.5q-15 0 -16 7v5q32 5 56 14q34 10 39 41q5 28 5 224z" />
    <glyph glyph-name="f_f_j" unicode="ffj" horiz-adv-x="640" 
d="M196 4l-6 -6q-1 0 -34 1t-54 1q-19 0 -48.5 -1.5t-31.5 -1.5q-1 0 -3 5.5t-1 6.5q30 9 41 16.5t13 26.5q3 31 3 127q0 134 -2 140q-2 5 -38 12q-5 1 -6 5l-2 5q7 4 20.5 9.5t21 9.5t7.5 6q0 81 9.5 121t36.5 71q19 23 50 45t57 33q28 11 54 11q52 0 87 -35q25 23 70 46
q42 21 71 21q42 0 72 -27q8 -8 8 -18q0 -11 -8 -21q-15 -15 -31 -15q-8 0 -18 8q-35 37 -76 37q-30 0 -53 -31q-39 -51 -39 -238q0 -14 25 -14h63q94 0 130 15q5 3 7.5 1t1.5 -9q-6 -99 -6 -204v-202q0 -44 -20 -84q-27 -60 -66 -101.5t-70 -53.5q-18 -5 -30 -5
q-20 0 -32 14q-9 10 -1 21q20 25 29 27q7 1 14 -2q21 -12 37 -12q22 0 45 24q26 28 28 109q0 7 1 62.5t1 99.5v217q-1 37 -4 42q-12 14 -44 14h-91q-12 0 -15 -3.5t-5 -14.5q-2 -16 -2 -119q0 -110 3 -138q2 -23 10 -29.5t46 -18.5q1 -1 0.5 -3.5t-3 -5.5t-3.5 -3
q-7 0 -29 0.5t-34 0.5h-31q-20 0 -43 -2t-28 -2q-5 2 3 14q40 13 43 39q4 38 4 124v148q0 8 -3 10.5t-14 2.5h-117q-24 0 -25 -12q-5 -17 -5 -132q0 -70 3 -127q2 -22 7.5 -30t25.5 -14l21 -8q5 -2 3 -6zM153 362h134q9 0 11 2.5t2 10.5q0 134 33 199q-31 42 -91 42
q-26 0 -48 -17q-54 -45 -54 -224q0 -13 13 -13z" />
    <glyph glyph-name="f_j" unicode="fj" horiz-adv-x="415" 
d="M167 360h64q92 0 128 15q5 3 7.5 1t1.5 -10q-6 -93 -6 -203v-202q0 -44 -20 -84q-27 -60 -66 -101.5t-70 -53.5q-18 -5 -30 -5q-18 0 -32 14q-8 10 0 21q20 25 29 27q6 1 13 -2q22 -13 37 -13q22 0 45 24q26 26 28 110q0 7 1 62.5t1 99.5v144q0 113 -5 118q-10 10 -39 10
h-95q-7 0 -10 -0.5t-5 -3t-2.5 -5t-1.5 -10.5q-2 -13 -2 -117q0 -93 3 -126q1 -30 9.5 -38.5t51.5 -22.5q0 -4 -2.5 -8t-4.5 -4q-8 0 -30 1.5t-38 1.5h-15q-14 0 -45 -2t-37 -2q-2 0 -2.5 4.5t1.5 5.5q38 17 40 33q3 25 4 74q1 37 1.5 115t-0.5 95l-26 7q-8 2 -12 5
q1 6 32 26q9 6 9 14q1 92 10 133t33 72q39 47 109 82q37 18 55 18q42 0 72 -28q9 -11 9 -19q0 -9 -8 -19q-15 -15 -27 -15q-9 0 -17 8q-36 34 -79 34q-28 0 -54 -33q-38 -49 -38 -234q0 -8 5 -11t20 -3z" />
    <glyph glyph-name="longs_h" unicode="&#x17f;h" horiz-adv-x="687" 
d="M293 133v474q0 14 -9 23q-18 18 -53 18q-34 0 -53 -21q-40 -38 -40 -253v-279q0 -40 4 -53.5t17 -19.5q4 -2 32 -10q8 -2 8 -7q0 -6 -9 -6q-16 0 -45 0.5t-42 0.5q-11 0 -42 -2.5t-36 -2.5q-6 0 -5 5q4 8 9 9q33 12 38.5 28.5t5.5 99.5v174q0 18 -11 19l-29 5q-7 0 -5 5
l5 5q6 7 11 8q2 1 7 2.5t12 3.5t10 3l1 64q1 66 13 107t47 76q35 37 83 59q31 15 54 15q26 0 50 -15q5 5 23 15q7 4 13 0q3 -4 3 -11q0 -20 -1.5 -100t-1.5 -158v-89q0 -3 1.5 -5t4.5 -1q4 2 27 12.5t43.5 19.5t30.5 13q35 12 50 12q104 0 104 -150q0 -10 -1.5 -66.5
t-1.5 -93.5q0 -24 5.5 -32.5t30.5 -20.5q9 -4 9 -6v-3q0 -4 -8 -4h-57q-19 0 -39.5 -1.5t-34 -3t-15.5 -1.5q-4 0 -5 4t2 7q15 10 26 16q10 6 14 13t6 24q4 34 4 123q0 102 -36 131q-26 18 -61 18q-45 0 -89 -25q-12 -7 -12 -29v-112q0 -66 6 -122q2 -12 9.5 -17t34.5 -13
q5 -1 6 -7q-1 -5 -5 -5q-107 0 -144 -6q-11 -2 -12 2l-2 3q-1 1 -1 3q24 16 31.5 25.5t11 30.5t3.5 75z" />
    <glyph glyph-name="longs_i" unicode="&#x17f;i" horiz-adv-x="417" 
d="M138 373l1 -278q0 -41 4 -53.5t17 -17.5q7 -2 18.5 -5t13.5 -3q8 -2 8 -11q0 -5 -9 -5h-87q-11 0 -42.5 -2.5t-36.5 -2.5t-4 5q4 8 9 9q15 6 21.5 10t12.5 9.5t7.5 21.5t2 32.5t0.5 54.5v179q0 10 -15 13l-20 2q-2 0 -5 2.5t-2 5.5l5 5q8 8 11 9q11 4 26 9v27
q0 82 9.5 121t34.5 70q39 48 108 82q37 18 55 18q44 0 72 -28q9 -11 9 -19q0 -10 -8 -18q-14 -16 -27 -16q-8 0 -17 9q-36 32 -79 32q-28 0 -53 -33q-42 -53 -40 -234zM388 1l-60 -1q-21 0 -41 -1.5t-32 -2.5l-12 -2q-4 0 -5 6q-2 6 -2 8t5 4q19 4 26 10t11 24q7 28 7 152
q0 53 -3 110q-1 3 -36 17q-4 1 -2 7q3 6 7 7q49 17 98 42q6 3 6 -1q-9 -162 -9 -261q0 -68 1 -83q1 -14 10 -15h35q2 0 4.5 -3t1.5 -6l-3 -6q-1 -5 -7 -5z" />
    <glyph glyph-name="longs_l" unicode="&#x17f;l" horiz-adv-x="429" 
d="M139 374v-279q0 -41 3.5 -53.5t16.5 -16.5q4 -2 34 -9q7 -2 7 -10q0 -6 -13 -6h-83q-12 0 -43 -2.5t-36 -2.5t-4 4q4 9 9 10q15 6 21.5 10t12.5 9.5t7.5 21.5t2 32.5t0.5 54.5v173q0 18 -10 19l-30 5q-7 0 -5 5l5 6q5 7 11 8q9 3 29 9v64q0 63 12 105t47 79q31 32 86 58
q29 15 54 15q24 0 48 -15q8 4 13.5 7t10 5t6.5 3q5 4 9 0q4 -6 3 -10q-3 -85 -6 -225q-2 -144 -2 -292q0 -63 2.5 -91.5t6.5 -36t14 -8.5q29 -2 36 -4q5 0 3 -5q-1 -2 -2 -3.5t-1 -3.5q-1 -4 -7 -4q-114 0 -164 -8q-4 0 -4 4l1 4q0 3 4 5q10 5 25 11q17 6 18 33q7 165 7 411
v148q0 13 -10 22q-21 19 -53 19q-31 0 -50 -21q-22 -23 -32 -79t-10 -175z" />
    <glyph glyph-name="longs_longs" unicode="&#x17f;&#x17f;" horiz-adv-x="431" 
d="M198 3l-6 -5q-1 0 -38 1t-58 1q-19 0 -36 -0.5t-27.5 -1t-12.5 -0.5t-4 5t-1 6q32 11 42.5 18.5t13.5 25.5q3 20 3 125q0 136 -2 140q-2 2 -31 13q-6 3 -8 6l-1 5q8 6 19 11.5t17.5 9t6.5 5.5q0 87 10 127t40 73q37 43 108 74q27 11 51 11q50 0 82 -38q30 27 58 42
q40 24 68 24q35 0 60 -29q6 -6 6 -16t-18 -26q-9 -5 -17 -2q-2 1 -14.5 9t-20.5 13q-21 12 -44 12t-45 -22q-22 -23 -31 -75.5t-9 -170.5v-231q0 -53 2.5 -79t6 -33t10.5 -9q4 -1 17 -4.5t19 -5.5q6 -1 6 -6q0 -2 -4 -5t-6 -3q-18 0 -46 0.5t-39 0.5q-2 0 -82 -5q-6 0 -2 8
q3 5 8 6q24 8 32 15.5t10 25.5q3 20 3 262q0 10 -17 13l-34 5l-3 8q15 11 44 27q10 5 10 20q0 71 7 111.5t28 81.5q-15 23 -39.5 33t-44.5 10q-26 0 -48 -16q-32 -25 -44 -77.5t-13 -143.5l-2 -201q-1 -41 3 -128q2 -18 6 -24.5t17 -9.5l33 -9q6 -2 1 -8z" />
    <glyph glyph-name="f_f" unicode="ff" horiz-adv-x="459" 
d="M200 5l-6 -7q-3 0 -21.5 0.5t-44.5 1t-48 0.5h-51q-2 0 -4 2.5t-3 5.5t0 3q27 7 37.5 15.5t12.5 26.5q3 32 3 120q0 143 -2 147q-2 7 -38 13q-5 1 -6 4l-1 4q4 2 11.5 5.5t13 6t11.5 5.5t9 6.5t3 6.5q0 80 9.5 121t36.5 71q48 55 113 78q26 11 51 11q55 0 87 -32
q22 19 56 39q45 26 83 26q48 0 74 -32q7 -8 7 -18q0 -5 -12 -17l-10 -8q-11 -7 -22 1q-1 1 -7.5 6.5t-9.5 8t-10.5 7.5t-13 7.5t-13 5.5t-15.5 4.5t-17 1.5q-41 0 -67 -39q-34 -44 -31 -250q22 0 62.5 1.5t51.5 1.5q6 0 6 -7t-9 -20q-5 -5 -17 -5h-83q-12 0 -12 -13
q-3 -57 -3 -113v-60q0 -77 3.5 -97t18.5 -27q19 -8 49 -14q4 -1 4 -4q0 -2 -4 -5t-6 -3q-78 2 -102 2q-22 0 -45 -2.5t-27 -2.5q-5 0 -2 9q2 2 10 6q32 11 35 38q4 38 4 125v149q0 8 -7.5 10.5t-40.5 2.5h-85q-23 0 -25 -8q-5 -17 -5 -138q0 -70 3 -127q2 -22 7.5 -30
t24.5 -14l26 -8q5 -2 3 -5zM153 362h133q9 0 11 2.5t2 10.5q0 128 34 201q-28 46 -87 46q-32 0 -53 -19q-53 -45 -53 -228q0 -13 13 -13z" />
    <glyph glyph-name="f_f_i" unicode="ffi" horiz-adv-x="659" 
d="M196 4l-6 -6q-1 0 -34 1t-54 1q-19 0 -48.5 -1.5t-31.5 -1.5q-1 0 -3 5.5t-1 6.5q30 9 41 16.5t13 26.5q3 31 3 127q0 133 -2 138q-2 7 -38 14q-5 1 -6 5l-2 5q5 3 19.5 9t22 9.5t7.5 6.5q0 81 9.5 121t36.5 71q42 49 108 78q26 11 53 11q52 0 87 -35q25 24 71 46
q42 21 70 21q43 0 72 -27q8 -7 8 -18q0 -13 -7 -21q-15 -15 -31 -15q-10 0 -18 8q-37 37 -76 37q-31 0 -54 -31q-38 -51 -38 -238q0 -14 25 -14h63q94 0 130 15q5 3 7.5 1t1.5 -9q-7 -92 -7 -204q0 -48 2 -110q1 -20 7.5 -25.5t39.5 -14.5q4 -2 4 -6v-7q-46 0 -166 -4v8
q0 2 12 8q18 8 25.5 15.5t8.5 23.5q5 47 5 178q0 82 -6 90q-11 14 -44 14h-91q-6 0 -9.5 -0.5t-5.5 -3.5t-2.5 -5t-1.5 -9q-2 -17 -2 -119q0 -113 2 -138q2 -23 10 -30t46 -20q1 -1 0.5 -3t-2.5 -4.5t-4 -2.5q-7 0 -28.5 0.5t-34.5 0.5h-30q-21 0 -44 -2t-28 -2q-5 2 3 14
q40 13 44 39q3 28 3 124v146q0 9 -3 12t-14 3h-117q-24 0 -25 -12q-5 -17 -5 -132q0 -70 3 -127q2 -22 7.5 -30t25.5 -14l21 -8q5 -2 3 -6zM153 362h135q8 0 10 2.5t2 10.5q0 130 33 197q-30 43 -91 43q-29 0 -48 -16q-31 -25 -42.5 -79t-11.5 -145q0 -13 13 -13z" />
    <glyph glyph-name="f_f_l" unicode="ffl" horiz-adv-x="658" 
d="M32 335l-2 5q45 21 45 28q0 76 10 117.5t36 70.5q52 59 119 83q22 8 48 8q23 0 46.5 -10.5t34.5 -21.5q28 26 61 45q32 19 56 19q35 0 53 -14l21 11q20 11 28 13q3 1 6 -3q2 -2 1 -13q-4 -38 -8 -314q-2 -132 -2 -299q0 -30 12 -36q5 -2 18 -5.5t14 -3.5q11 -2 11 -5
q0 -7 -1 -10h-33q-53 0 -135 -7l-2 3l-3 6q0 4 7 5q17 6 24.5 10t13.5 13.5t7 24.5q6 62 6 199q0 47 -1 66q0 14 -18 14h-107q-24 0 -29 -10q-7 -13 -7 -202q0 -57 4.5 -75t16.5 -24q13 -5 35 -10q6 -3 6 -7q0 -2 -3.5 -5t-6.5 -3q-31 2 -97 2q-19 0 -40.5 -2t-25.5 -2
q-7 0 -3 7q1 3 6 6q21 10 30.5 17.5t11.5 21.5q4 38 4 118v152q0 10 -7.5 12.5t-40.5 2.5h-85q-20 0 -23 -6q-6 -11 -6 -138q0 -108 2 -127q2 -22 7 -30.5t23 -13.5l25 -8q5 -2 3 -6l-6 -6q-3 0 -20.5 0.5t-44 1t-48.5 0.5h-51q-1 0 -3 4.5t-1 5.5q44 12 48 43q3 21 3 121
q0 138 -2 144t-35 14q-5 2 -6 3zM375 361h138q11 0 11 2q0 15 0.5 73t1 95.5t-0.5 73.5q0 10 -10 20q-19 22 -55 22t-61 -31q-33 -43 -33 -246q0 -6 1.5 -7.5t7.5 -1.5zM153 362h134q9 0 11 2.5t2 10.5q0 142 33 199q-30 43 -89 43q-27 0 -47 -18q-57 -46 -57 -224
q0 -13 13 -13z" />
    <glyph glyph-name="f_i" unicode="fi" horiz-adv-x="435" 
d="M249 -4v8q0 1 10 7q20 9 27.5 16.5t8.5 23.5q6 46 6 181q0 82 -7 89q-9 12 -39 12h-96q-13 0 -15 -2.5t-4 -15.5t-2 -119q0 -93 3 -126q2 -30 10.5 -39t50.5 -23q0 -3 -2.5 -7t-4.5 -4q-8 0 -30 1.5t-38 1.5h-15q-14 0 -45 -2t-37 -2q-2 0 -2.5 4t1.5 5q37 17 40 34
q3 25 4 74q1 37 1.5 115.5t-0.5 95.5l-26 6q-8 2 -12 5q1 5 32 27q9 6 9 13q1 92 10 133t35 73q36 46 107 81q37 18 56 18q43 0 71 -28q9 -9 9 -19q0 -7 -7 -19q-15 -15 -27 -15q-9 0 -17 8q-37 35 -80 35q-28 0 -54 -33q-38 -49 -38 -237q0 -12 25 -12h64q93 0 129 15
q5 3 7.5 1t1.5 -10q-7 -87 -7 -197q0 -49 2 -121q1 -17 8.5 -22.5t40.5 -13.5q4 -2 4 -7v-5q-83 2 -168 -4z" />
    <glyph glyph-name="f_l" unicode="fl" horiz-adv-x="438" 
d="M272 332h-101q-25 0 -29 -8q-5 -15 -5 -181q0 -60 2 -90q2 -19 11 -26.5t38 -14.5q9 -1 9 -5q0 -7 -8 -7q-42 1 -101 1q-18 0 -36.5 -1t-20.5 -1q-6 0 -8 5q-3 5 1 6q28 10 35.5 18t9.5 27q4 42 4 99v158q0 12 -10 14l-29 6q-6 3 -1 10l7 4q3 2 17.5 7.5t17.5 7.5
q0 31 2 73q3 71 13.5 104t39.5 64q33 37 88 63q30 14 50 14q29 0 53 -14q4 1 22 10.5t24 11.5q3 1 5 -3q2 -2 0 -13q-7 -78 -10 -340v-96.5v-103.5v-74q0 -19 3 -26.5t13 -10.5q3 -1 27 -7q10 -2 11 -6q0 -5 -1 -7h-32q-91 0 -134 -5q-3 2 -5 8q0 2 6 4q23 8 33 17.5
t12 29.5q6 63 6 200q0 51 -1 64q-3 14 -28 14zM150 361h135q16 0 16 4q0 7 1 108t0 125q0 15 -8 23q-23 27 -60 27t-62 -34q-31 -44 -31 -244q0 -6 1.5 -7.5t7.5 -1.5z" />
    <glyph glyph-name="longs_t" unicode="&#x17f;t" horiz-adv-x="495" 
d="M187 0h-84q-11 0 -42.5 -2.5t-36.5 -2.5t-4 5q3 8 9 9q15 6 21.5 10t12.5 9.5t7.5 21.5t2 32.5t0.5 54.5v172q0 18 -11 19l-32 7q-7 0 -4 5l4 5q7 7 11 8q6 1 32 9v57q0 81 11.5 120t33.5 64q25 27 66 50.5t67 23.5q51 0 80 -29q33 -34 33 -95q0 -63 -4 -163v-31
q26 0 67.5 2.5t49.5 2.5t9.5 -1t1.5 -8q-2 -14 -5 -22t-17 -8q-66 -3 -102 -3q-6 0 -7 -12q-3 -55 -3 -216q0 -30 18 -47t45 -17q32 0 58 20q8 5 11 1q2 -4 2 -7q0 -4 -12 -12q-60 -44 -106 -44q-44 0 -67 31q-15 18 -14 70q1 22 3 109.5t3 110.5q1 5 -2.5 7.5t-13.5 2.5
l-31 2q-3 0 0 8l2 3q5 3 18 11t19 11q10 5 10 20q3 55 3 191q0 40 -19.5 62.5t-52.5 22.5q-47 0 -69 -48q-21 -41 -21 -186q0 -211 1 -321q0 -42 3.5 -54t17.5 -17q5 -2 11.5 -3.5t13 -2.5t8.5 -2q7 -2 7 -10q0 -6 -13 -6z" />
    <glyph glyph-name=".notdef" horiz-adv-x="500" 
d="M0 0v700h500v-700h-500zM250 395l170 255h-340zM280 350l170 -255v510zM80 50h340l-170 255zM50 605v-510l170 255z" />
    <glyph glyph-name=".null" horiz-adv-x="0" 
 />
    <glyph glyph-name="nonmarkingreturn" horiz-adv-x="333" 
 />
    <glyph glyph-name="space" unicode=" " horiz-adv-x="157" 
 />
    <glyph glyph-name="exclam" unicode="!" horiz-adv-x="205" 
d="M116 581q2 0 7 -6q16 -30 36 -46q6 -6 6 -11t-5 -16q-13 -42 -24 -117q-12 -77 -21 -179q0 -9 -4 -11t-10 -2q-3 0 -3 4q0 40 -11 165q-8 113 -25 142q-5 10 -5 14q0 3 3 6q34 32 44 52q3 5 12 5zM47 51q0 3 7 5q10 4 21 10q13 8 23 27q7 14 14 14q4 0 8 -11
q12 -28 31 -37q12 -6 13 -14q1 -3 -5 -7q-19 -9 -25.5 -17t-14.5 -29q-3 -6 -9 -5q-8 1 -19 22q-14 21 -33 30q-11 5 -11 12z" />
    <glyph glyph-name="quotedbl" unicode="&#x22;" horiz-adv-x="234" 
d="M83 665q11 0 11 -13q0 -18 -10.5 -68t-20.5 -81q-1 -6 -15 -12q-2 -1 -3 0t-1 5q-2 80 -13 147q0 5 16 12q30 10 36 10zM192 665q11 0 11 -13q0 -19 -10.5 -69t-20.5 -80q-3 -6 -14 -12q-6 -2 -6 5q0 63 -12 147q0 5 16 12q28 10 36 10z" />
    <glyph glyph-name="numbersign" unicode="#" horiz-adv-x="442" 
d="M150 397l-92 -1q-2 -1 -2 4q0 6 4 22q3 12 6 15t13 3l84 -2l29 140q1 5 7 5q9 0 23 -8l-31 -136l96 -1l29 140q16 0 24 -1q7 -2 4 -13l-28 -126l79 2q7 0 1 -24q-3 -14 -5.5 -17.5t-8.5 -3.5l-79 1l-25 -119h82q12 0 13 -5q0 -23 -5 -38l-101 1l-32 -162q-9 -2 -23 1
q-8 5 -7 15l32 147h-95l-33 -153q-25 -6 -26 -6q-5 0 -3 12l32 148h-73q-4 0 -5 33q0 9 7 9l83 -2zM178 397l-26 -120h96l27 120h-97z" />
    <glyph glyph-name="dollar" unicode="$" horiz-adv-x="442" 
d="M248 573l-14 -228q4 -2 25.5 -12t37.5 -17.5t36 -20.5t32 -25q41 -44 41 -101q0 -86 -70 -127q-46 -28 -124 -32q-2 -30 -5 -92q0 -8 -4 -12q-11 -6 -18 -6t-5 20q6 70 7 90q-24 1 -87 11q-12 3 -18 0q-12 -9 -15 -12q-5 -6 -8 -6q-4 0 -8 6q-2 6 -4 32q-3 44 -15 119
q0 8 2 9q1 2 5 2t7 -11q21 -50 27 -61q32 -60 116 -72q3 44 8.5 126.5t7.5 123.5q-35 18 -51 27t-36.5 24t-33.5 32q-29 39 -29 85q0 84 67 121q43 25 103 28q5 72 5 81q0 7 3 9q4 5 15 -10q7 -5 7 -20q-1 -10 -2.5 -30.5t-2.5 -29.5q49 -2 65 -5q23 -4 28 -3q6 1 22 17
q5 2 8 -1q-4 -66 7 -126q2 -7 0 -12q-2 -3 -6 -5q-4 0 -6 6q-14 51 -43 79q-29 25 -77 29zM113 473q0 -40 24 -67q25 -28 73 -50q11 161 14 219q-45 1 -78 -27.5t-33 -74.5zM343 154q0 42 -41 75q-25 21 -72 40q-3 -44 -9 -125t-8 -117q57 1 93.5 37t36.5 90z" />
    <glyph glyph-name="percent" unicode="%" horiz-adv-x="547" 
d="M259 463q0 -79 -50 -123q-34 -28 -72 -28q-44 0 -72.5 35.5t-28.5 97.5q0 78 45 117q42 36 79 36q51 0 75 -40.5t24 -94.5zM153 334q19 0 32 11q26 23 26 102q0 60 -18 95t-49 35q-21 0 -36 -17q-24 -24 -24 -104q0 -52 20 -87t49 -35zM454 614q10 0 18 -13
q-225 -337 -359 -559q-3 -7 -8 -7q-2 0 -9.5 7t-9.5 10q128 202 355 553q6 9 13 9zM395 51q-49 0 -76.5 37t-27.5 93q0 87 51 125q42 31 72 31q44 0 73 -36t29 -100q0 -76 -42 -116q-36 -34 -79 -34zM411 73q23 0 33 12q24 24 24 103q0 55 -17 91.5t-54 36.5q-28 0 -43 -33
t-15 -89q0 -59 22 -90t50 -31z" />
    <glyph glyph-name="ampersand" unicode="&#x26;" horiz-adv-x="675" 
d="M261 570q42 0 75 -33q31 -35 31 -80q0 -19 -7.5 -38.5t-13.5 -25.5q-19 -18 -41 -45q-7 -9 0 -11q58 -34 114 -130q7 -9 12 -3q44 62 77 133.5t34 94.5q0 17 -30 31q0 5 5 8q5 1 15 0q24 -7 58 -7q39 0 61 7l5 -5q2 -5 -1 -11q-17 -1 -27.5 -4.5t-14 -6.5t-10.5 -11
q-19 -22 -90 -139q-39 -63 -71 -109q-9 -13 -4 -21q23 -55 53 -88t76 -33q53 0 77 68q1 2 7 2q10 -5 4 -17q-15 -47 -47.5 -79.5t-77.5 -32.5q-46 0 -79.5 32t-65.5 90q-49 -65 -94 -96q-34 -22 -71 -22q-80 0 -128 48q-48 47 -48 117q0 62 38 102q15 15 84 66q7 4 -2 13
q-37 35 -37 82q0 53 34 92q20 24 54 46q26 16 46 16zM235 534q-28 0 -47 -18q-20 -20 -20 -52q0 -31 21 -56q16 -23 41.5 -37t44.5 -14q21 0 33 19q13 16 13 49q0 58 -29 83.5t-57 25.5zM198 313q-11 0 -24 -7q-27 -17 -46.5 -51.5t-19.5 -70.5q0 -58 26 -92q40 -51 105 -51
q44 0 81 25q36 25 52 53q4 6 -3 25q-31 86 -92 133q-48 36 -79 36z" />
    <glyph glyph-name="quotesingle" unicode="'" horiz-adv-x="126" 
d="M83 665q11 0 11 -13q0 -18 -10.5 -68t-20.5 -81q-1 -6 -15 -12q-2 -1 -3 0t-1 5q-2 80 -13 147q0 5 16 12q30 10 36 10z" />
    <glyph glyph-name="parenleft" unicode="(" horiz-adv-x="308" 
d="M272 671q0 -7 -15 -23q-151 -175 -151 -431q0 -221 126 -377q3 -3 8.5 -9t7.5 -9q6 -6 1 -14q-4 -6 -10 -14q-6 -7 -16 -1t-25.5 23t-41 57t-46.5 90q-46 108 -46 249q0 156 61 285q27 57 65 106t73 72q5 5 7 2q2 -2 2 -6z" />
    <glyph glyph-name="parenright" unicode=")" horiz-adv-x="308" 
d="M237 253q0 -143 -53 -269.5t-137 -191.5q-8 -6 -10 -4l-3 3l-1 2q0 6 12 20q55 64 91 142q60 130 60 296q0 222 -129 372q-16 19 -16 24q0 11 10 25q5 9 13 2q72 -50 117.5 -176.5t45.5 -244.5z" />
    <glyph glyph-name="asterisk" unicode="*" horiz-adv-x="304" 
d="M33 570q0 4 11 17t17 14q3 0 78 -55q2 -2 4.5 -1t2.5 3v105q0 6 11 6q16 2 29 -5q5 -3 5 -13q-1 -6 -10 -41t-12 -51q-1 -4 1 -5.5t5 -0.5q13 6 43 20.5t43 20.5q3 -5 17 -33q2 -10 -4 -11q-9 -2 -44 -8.5t-50 -10.5q-7 -2 -2 -8q7 -10 27.5 -36.5t30.5 -41.5
q9 -10 -4 -19q-12 -8 -30 -14q-4 8 -23.5 47.5t-30.5 58.5q-45 -61 -75 -93q-14 3 -26 23q-9 11 -1 16q5 4 36 27.5t45 35.5q4 3 0 6q-9 5 -44 19.5t-44 20.5q-6 6 -6 7z" />
    <glyph glyph-name="plus" unicode="+" horiz-adv-x="481" 
d="M220 187h-169q-2 29 0 35h169l1 164q0 10 6 10h26q6 0 7 -2t1 -10l-1 -162h160q10 0 10 -9v-19q0 -7 -21 -7h-149l1 -182q0 -9 -6 -9q-22 0 -34 9z" />
    <glyph glyph-name="comma" unicode="," horiz-adv-x="181" 
d="M94 105q14 0 27 -17.5t13 -39.5q0 -41 -25.5 -80.5t-61.5 -60.5q-14 -7 -20 -8q-5 0 -5 5q0 4 10 13q43 43 43 86q0 30 -29 49q-9 7 -2 12q15 8 40 36q4 5 10 5z" />
    <glyph glyph-name="hyphen" unicode="-" horiz-adv-x="249" 
d="M36 167q0 17 16 29q20 14 157 55q11 4 13 -1q3 -5 2 -10q-13 -42 -19 -44q-141 -31 -163 -37q-2 -1 -4 1t-2 7z" />
    <glyph glyph-name="period" unicode="." horiz-adv-x="181" 
d="M98 107q3 0 12 -21q7 -17 30 -30q10 -6 10 -12q0 -2 -5 -5q-20 -7 -26 -14t-17 -36q-2 -5 -7 -5q-7 0 -26 35q-4 10 -26 19q-11 5 -11 12q0 5 17 12q15 6 20.5 11t14.5 20q7 14 14 14z" />
    <glyph glyph-name="slash" unicode="/" horiz-adv-x="384" 
d="M320 663q12 0 22 -16q-55 -139 -146 -391.5t-121 -331.5q-7 -2 -16 1q-12 5 -10 20q46 122 130.5 354t126.5 344q7 20 14 20z" />
    <glyph glyph-name="zero" unicode="0" horiz-adv-x="442" 
d="M238 617q81 0 127 -72q49 -77 49 -219q0 -223 -86 -294q-53 -44 -116 -44q-90 0 -136 76q-48 77 -48 224q0 172 59 248q38 50 96 71q30 10 55 10zM211 595q-27 0 -49 -18q-24 -20 -43 -87.5t-19 -179.5q0 -100 19 -171.5t50 -102.5q26 -26 69 -24q30 1 51 20q20 19 36 81
t17 175q0 206 -57 272q-28 35 -74 35z" />
    <glyph glyph-name="one" unicode="1" horiz-adv-x="442" 
d="M201 274l-4 254q0 12 -13 10q-13 -1 -45.5 -6.5t-49.5 -7.5q-4 1 -4 5q0 3 8 7q81 24 171 81q1 3 3 1q3 -2 3 -6t-0.5 -69.5t-1 -156t-0.5 -156.5q0 -140 7 -178q2 -14 22.5 -22.5t76.5 -18.5q-2 -9 -10 -9h-101q-33 0 -93 -4t-74 -4q-6 0 -8.5 1t-1.5 3q3 7 10 8l68 17
q15 6 21.5 13t8.5 21q10 55 7 217z" />
    <glyph glyph-name="two" unicode="2" horiz-adv-x="442" 
d="M219 617q71 0 119 -51q44 -47 44 -128q1 -69 -58 -149q-67 -89 -202 -222q-4 -5 -2.5 -7.5t6.5 -2.5q172 0 242 5q18 1 27.5 11t24.5 49q1 4 5 2q5 -4 6 -6q4 -4 1 -15q-3 -10 -21 -51.5t-23 -48.5q-5 -8 -14 -8q-13 0 -211 4q-32 1 -125 1q-10 0 -6 8q20 29 36 39
q23 15 75 69.5t100 118.5q68 92 68 191q0 57 -31 96.5t-90 39.5q-52 0 -84 -28.5t-54 -84.5q-3 -6 -8 -4q-7 2 -5 12q16 60 54 102q19 22 54.5 40t71.5 18z" />
    <glyph glyph-name="three" unicode="3" horiz-adv-x="442" 
d="M44 0l3 4q16 -3 64 -3q125 0 181 93q22 33 22 83q0 57 -34 86q-38 33 -91 33q-19 0 -69 -14q-4 -1 -7 0.5t-2 4.5q6 19 41 31q66 23 97 54q37 40 37 87t-29 76t-74 29q-84 0 -129 -88q-1 -1 -5.5 4.5t-3.5 7.5q1 6 6 15q39 66 92 97q30 18 70 18q61 0 98 -40
q39 -39 39 -94q0 -41 -32 -75q-27 -29 -72 -60q-2 -2 -1.5 -5t2.5 -3q80 -19 116 -69q25 -35 25 -80q0 -118 -105 -179q-63 -38 -148 -38q-65 0 -89 17q-6 3 -2 8z" />
    <glyph glyph-name="four" unicode="4" horiz-adv-x="442" 
d="M339 196l-1 -200q0 -8 -13 -10q-1 0 -57 -5q-5 0 -5 7q0 3 3.5 94t3.5 104q0 7 -8 7q-2 0 -43.5 -1t-90.5 -2t-70 -1h-46q-5 1 -5 7q0 7 11 25q97 151 225 316q48 59 71 76q12 6 18 6q8 0 8 -50v-333q26 1 48.5 2t33 1.5t14.5 0.5q2 -4 1.5 -7.5t-3.5 -18.5t-12 -15
q-10 0 -44 -1.5t-39 -1.5zM281 540q0 3 -2 5t-4 0q-133 -170 -211 -309q-2 -4 1 -6.5t8 -2.5q89 0 197 5q1 21 6 140.5t5 167.5z" />
    <glyph glyph-name="five" unicode="5" horiz-adv-x="442" 
d="M399 207q0 -86 -57 -143t-145 -77q-50 -12 -82 -12q-29 0 -56 10q-7 3 -8 6q0 2 1 4q2 4 15 4q125 0 196 59q63 51 63 131q0 62 -41.5 94t-102.5 32q-58 0 -118 -23q-8 -3 -8 6q0 24 11 73q38 165 61 235q3 7 7 11q2 1 7 1q140 -21 181 -21q10 0 22 4q32 13 49 23
q3 3 7.5 3t5.5 -2t-2 -9q-8 -14 -34.5 -37t-46.5 -31q-8 -5 -25 -5q-88 -2 -141 3q-12 0 -15 -10q-35 -87 -58 -205q0 -3 4 -5.5t6 -1.5q113 39 141 39q56 0 104 -35q59 -40 59 -121z" />
    <glyph glyph-name="six" unicode="6" horiz-adv-x="442" 
d="M27 233q0 198 158 318q43 33 102.5 54.5t101.5 21.5q19 0 22 -8q1 -6 -7 -7q-61 -8 -123 -42t-105 -90q-57 -73 -68 -174q19 8 62.5 28.5t60.5 28.5q15 7 27 7q64 0 112 -51q46 -46 46 -126q0 -87 -70 -148q-27 -24 -64.5 -40.5t-70.5 -16.5q-59 0 -102 35
q-82 63 -82 210zM245 16q40 0 62 22q44 41 44 122q0 68 -34 113q-40 51 -99 51q-30 0 -63.5 -14t-47.5 -27q-5 -27 -5 -45q0 -109 47 -170q43 -52 96 -52z" />
    <glyph glyph-name="seven" unicode="7" horiz-adv-x="442" 
d="M139 -17q-19 0 -26 11q-7 7 1 28q3 8 95 190q124 245 153 314q5 8 -3 14q-10 7 -132 6q-99 -1 -127 -7t-42 -27q-14 -24 -19 -35q-3 -10 -8 -5q-7 7 -3 23q3 11 11 35.5t16 47t9 25.5q2 8 10 8q2 0 22 -4q16 -4 152 -4q106 0 166 3q4 0 6 -5q2 -6 -5 -21
q-162 -329 -224 -485q-31 -75 -34 -97q-3 -15 -18 -15z" />
    <glyph glyph-name="eight" unicode="8" horiz-adv-x="442" 
d="M241 621q61 0 102.5 -41.5t41.5 -103.5q0 -42 -37 -79q-22 -22 -79 -70q71 -37 105 -75t34 -94q0 -69 -49 -109q-27 -23 -70 -43t-83 -20q-75 0 -125 48q-45 45 -45 103q0 35 23 61q10 11 114 100q-55 32 -83.5 67t-28.5 83q0 58 34 97q30 36 75 59q36 17 71 17zM206 593
q-37 0 -59 -22q-31 -29 -31 -86q0 -51 29.5 -82.5t94.5 -62.5q12 -4 21 1q25 16 46.5 49t21.5 68q0 54 -29 91q-33 44 -94 44zM239 16q108 0 108 115q0 48 -36 83q-49 44 -112 71q-8 4 -16 -1q-84 -60 -84 -134q0 -57 40.5 -95.5t99.5 -38.5z" />
    <glyph glyph-name="nine" unicode="9" horiz-adv-x="442" 
d="M226 617q67 0 117 -50q69 -74 69 -218q0 -157 -89 -260q-54 -60 -118.5 -87t-118.5 -27q-16 0 -28 3q-7 1 -6 10q1 4 7 4q32 0 92 24.5t104 75.5q71 78 80 199q-24 -12 -79 -34.5t-64 -22.5q-40 0 -74 21q-85 48 -85 151q0 105 77 164q63 47 116 47zM201 590
q-38 0 -67 -27q-36 -36 -36 -117q0 -94 67 -143q34 -27 76 -27q22 0 47.5 9.5t37.5 18.5q13 11 13 34q0 68 -12 117q-14 59 -46.5 97t-79.5 38z" />
    <glyph glyph-name="colon" unicode=":" horiz-adv-x="181" 
d="M97 367q5 0 7 -7q8 -19 13.5 -25t27.5 -16q7 -5 6 -11q-1 -3 -9 -9q-19 -11 -25 -18t-16 -30q0 -5 -6 -5q-8 0 -12 11q-10 19 -16 26.5t-21 15.5q-12 4 -12 13q0 3 4 6q28 9 44 35q8 14 15 14zM98 107q3 0 12 -21q7 -17 30 -30q10 -6 10 -12q0 -2 -5 -5q-20 -7 -26 -14
t-17 -36q-2 -5 -7 -5q-7 0 -26 32q-6 10 -26 22q-11 5 -11 12q0 5 17 12q15 6 20.5 11t14.5 20q7 14 14 14z" />
    <glyph glyph-name="semicolon" unicode=";" horiz-adv-x="181" 
d="M97 363q5 0 6 -6q8 -20 13.5 -26t28.5 -16q7 -3 5 -9q-1 -3 -8 -8q-19 -13 -25.5 -20.5t-17.5 -29.5q0 -6 -5 -6q-6 0 -13 12q-8 18 -14.5 25.5t-22.5 15.5q-11 4 -11 12q0 3 5 5q28 12 43 37q9 14 16 14zM94 106q14 0 27 -18t13 -40q0 -41 -25.5 -80.5t-61.5 -60.5
q-14 -7 -20 -8q-5 0 -5 5q0 4 10 13q43 45 43 86q0 30 -29 49q-9 7 -2 12q17 10 40 36q4 6 10 6z" />
    <glyph glyph-name="less" unicode="&#x3c;" horiz-adv-x="446" 
d="M107 201l9 -7q17 -12 66.5 -40t116.5 -63.5t79 -42.5q8 -3 5 -13l-7 -20q-1 -10 -13 -4q-38 21 -137 78.5t-154 87.5q-19 13 -19 18q0 11 25 27q209 123 295 162q9 5 11 -2l10 -31q-143 -63 -287 -150z" />
    <glyph glyph-name="equal" unicode="=" horiz-adv-x="481" 
d="M56 267l-2 20q-2 9 4 9l369 1q0 -34 -8 -35q-7 -1 -46 -1h-304q-12 0 -13 6zM396 112h-330q-7 0 -8 5q-3 8 -3 30l373 1l-3 -26q-1 -6 -6 -8t-23 -2z" />
    <glyph glyph-name="greater" unicode="&#x3e;" horiz-adv-x="445" 
d="M54 357l8 20q5 12 11 8q107 -56 247 -139q5 -3 23.5 -13t41.5 -23q7 -5 5 -12q-3 -11 -54 -39q-41 -23 -133 -74t-141 -78q-2 7 -5 17t-4 14q0 7 6 9q3 2 279 150q-51 30 -149.5 83t-128.5 70q-6 6 -6 7z" />
    <glyph glyph-name="question" unicode="?" horiz-adv-x="278" 
d="M160 558q42 0 73 -43t31 -82q0 -55 -26 -118q-21 -47 -61 -50q-26 -4 -59 -4q-22 0 -28.5 -13.5t-5.5 -57.5q-4 -4 -7 -6q-6 -4 -6 2q-4 12 -11.5 47t-7.5 57q0 10 14.5 27t19.5 17q16 1 44 1q55 0 84.5 14.5t29.5 52.5q0 81 -108 82q-6 0 -15.5 7t-9.5 15q0 19 15 35.5
t34 16.5zM109 102q6 0 8.5 -2t8.5 -12q14 -19 24 -25q13 -6 14 -11q1 -8 -11 -17q-17 -12 -30 -35q-6 -12 -15 -12q-2 0 -7 11q-16 24 -26 30q-16 10 -19 15q-4 8 5 12q29 15 38 32q6 14 10 14z" />
    <glyph glyph-name="at" unicode="@" horiz-adv-x="660" 
d="M194 82q0 86 49 150q40 50 119 102q11 9 34 9q5 0 12.5 -1.5t14 -3.5t7.5 -2q18 7 35 7q-39 -133 -50 -282q-2 -29 4.5 -38.5t24.5 -9.5q62 0 108 64t46 147q1 106 -62.5 171t-161.5 65q-123 0 -202 -84q-91 -96 -91 -250q0 -118 67.5 -196.5t172.5 -78.5q79 0 142 36
q5 2 5 -3q0 -8 -8 -14q-22 -22 -64 -35.5t-84 -13.5q-119 0 -195.5 76.5t-76.5 219.5q0 98 46 180.5t124 132.5q87 56 176 56q103 0 172 -69t69 -181q0 -118 -73.5 -185t-154.5 -63q-34 2 -33 39q3 31 17 109q-3 -3 -37 -44.5t-62.5 -73t-33.5 -31.5q-17 0 -36.5 24
t-19.5 71zM273 51q16 0 51 38t48 66q17 38 36 136q-21 7 -41 7q-48 0 -81 -44q-43 -58 -41 -148q0 -55 28 -55z" />
    <glyph glyph-name="A" unicode="A" horiz-adv-x="665" 
d="M336 646q7 0 10 -14q19 -60 87 -234q71 -184 124 -299q2 -4 6.5 -14.5t6.5 -14.5t6.5 -12.5t7.5 -12.5t8 -10.5t10 -10t12 -7.5t15 -7t18 -5q1 -1 -0.5 -6t-2.5 -5q-31 0 -69 1.5t-50 1.5q-19 0 -49.5 -2t-33.5 -2q-4 0 -5 3q-1 2 -1 7q40 13 47 28.5t-6 51.5
q-33 93 -49 134q-7 20 -18 20q-115 2 -211 -5q-17 0 -22 -15q-50 -120 -51 -158q0 -17 12.5 -28t50.5 -24q2 -3 0.5 -6.5t-4.5 -4.5q-23 1 -51.5 2.5t-38.5 1.5q-15 0 -40 -2t-30 -2q-9 0 -9 3q-2 5 -1 8q32 10 45 25.5t39 73.5q19 41 86.5 203t107.5 264q15 39 21 57
q2 8 6 10q12 6 16 6zM220 265q1 0 11 -0.5t28.5 -0.5h39.5q50 0 94 2q16 0 11 14q-53 146 -92 238q-2 6 -5 7.5t-5 0t-4 -5.5q-56 -133 -97 -243q-5 -12 19 -12z" />
    <glyph glyph-name="B" unicode="B" horiz-adv-x="545" 
d="M99 240v151q0 143 -3 178q-2 17 -14 27t-50 20l4 9q29 0 70 4q101 7 137 7q78 0 137 -25q30 -12 55 -41t25 -70q0 -69 -49 -106q-17 -13 -51 -30q-4 -3 -2 -7t8 -5q56 -9 101 -54t45 -115q0 -123 -140 -172q-43 -15 -106 -15q-2 0 -60 2t-78 2q-24 0 -54 -2.5t-37 -2.5
q-7 4 -5 10q3 2 17.5 7.5t19.5 8.5q15 10 20 20.5t6 38.5q4 96 4 160zM380 479q0 59 -37 98t-101 39q-27 0 -49 -11q-10 -5 -15 -14q-4 -12 -4 -91q0 -83 2 -113q2 -18 8.5 -24t24.5 -7q24 -3 53 -3q41 0 64 14q54 33 54 112zM255 13q73 0 122.5 42.5t49.5 119.5
q0 76 -46 121q-40 40 -124 40q-69 0 -78 -14t-9 -63q0 -147 2.5 -177.5t17.5 -44.5q17 -15 28.5 -19.5t36.5 -4.5z" />
    <glyph glyph-name="C" unicode="C" horiz-adv-x="628" 
d="M34 309q0 135 81 227q60 66 169 94q61 16 137 16q67 0 131 -22q15 -5 40 11q2 2 5 -1q4 -2 3 -5q-25 -59 -16 -134q0 -4 -4 -5q-8 0 -10 7q-10 42 -20 57q-18 25 -35 37q-45 34 -130 34q-118 0 -193 -95q-67 -83 -67 -227q0 -34 8 -71.5t28.5 -78.5t51 -73t79.5 -53
t109 -21q80 0 142 54q24 22 48 68q3 4 7 0q4 -6 3 -14q-14 -63 -44 -107q-9 -10 -17 -10q-10 1 -63 -7t-92 -8q-72 0 -131.5 19.5t-99.5 51.5t-67.5 75t-40 88.5t-12.5 92.5z" />
    <glyph glyph-name="D" unicode="D" horiz-adv-x="710" 
d="M677 316q0 -48 -22.5 -104.5t-70.5 -101.5q-77 -72 -170 -98q-52 -16 -151 -16q-25 0 -87.5 2t-65.5 2q-49 0 -75 -2q-6 3 -3 10q41 14 52.5 25t13.5 34q2 33 2 271q0 194 -6 236q-1 19 -14 27.5t-44 15.5q-4 2 -2 9l2 2q28 0 118 3q116 4 133 4q181 0 282 -90
q108 -95 108 -229zM292 616q-28 0 -63.5 -6t-43.5 -12q-6 -5 -8 -21q-3 -35 -3 -328q0 -148 13 -201q4 -16 17 -20q36 -16 80 -16q92 0 175 56q61 41 92.5 109.5t31.5 147.5q0 138 -91 221q-79 70 -200 70z" />
    <glyph glyph-name="E" unicode="E" horiz-adv-x="549" 
d="M192 331h28q69 0 129 3q41 2 56 10.5t34 46.5q3 3 12 1q0 -8 -3.5 -38.5t-3.5 -47.5q0 -15 1.5 -30t3 -28t1.5 -17t-7 -4q-6 0 -8 7q-10 29 -16 39q-16 29 -65 33q-21 2 -106 2q-35 0 -55 -5q-5 -1 -8 -7q-9 -27 -9 -127q0 -101 8 -119q8 -16 30.5 -22t85.5 -6
q110 0 149.5 21t68.5 101q1 1 7 -3q2 -1 2 -5q-3 -68 -29 -131q-5 -8 -12 -8q-14 0 -46 1q-62 2 -162 2q-70 0 -238 -8q-4 2 -1 7q1 3 4 5q31 10 42.5 18.5t12.5 20.5q6 66 6 188v168q0 138 -5 185q-2 16 -14 23q-16 9 -48 13q-3 2 -3 6l1 2q0 3 13 3h28q12 0 51.5 -1.5
t71.5 -1.5h83q28 0 88.5 3t84.5 3q23 0 27 -6q4 -7 2 -16q-9 -58 -9 -112q-12 0 -14 8q-12 63 -29.5 81.5t-68.5 18.5h-79q-67 0 -95 -7q-7 -2 -9 -9t-2 -28q0 -39 0.5 -109.5t0.5 -104.5q0 -19 13 -19z" />
    <glyph glyph-name="F" unicode="F" horiz-adv-x="496" 
d="M40 7l20 5q29 8 31 41q7 110 7 236v97q0 138 -2 177q-1 30 -10 39.5t-44 18.5q-3 1 -3 6q1 4 12 4q10 0 42.5 -1.5t50.5 -1.5h164q123 0 146 7q5 1 7 -2.5t2 -11.5q0 -28 -0.5 -54.5t-1 -39.5t-0.5 -18q0 -4 -1 -5.5t-5 -0.5q-7 2 -8 9q-11 43 -21 60.5t-27 23.5
q-37 11 -130 11q-53 0 -76 -7q-13 -4 -16 -32q-6 -87 -6 -232q0 -14 7 -18q8 -2 44 -2q84 0 129 3q28 4 40 15t23 45q1 2 3.5 3.5t4.5 2t3 -0.5q0 -11 -0.5 -34.5t-0.5 -36.5q0 -15 3 -49t3 -44q-7 -5 -10 0q-19 46 -33 57q-20 16 -160 16q-23 0 -49 -2q-10 -1 -10 -45v-80
q0 -45 4 -101q3 -27 22.5 -38t66.5 -18q5 -2 3 -7l-2 -3q-5 -2 -27 -2q-23 0 -53.5 2.5t-45.5 2.5q-23 0 -55 -3.5t-36 -3.5t-6 5q0 6 1 7z" />
    <glyph glyph-name="G" unicode="G" horiz-adv-x="703" 
d="M34 319q0 142 95 229q52 49 154 78q69 19 144 19q72 0 130 -19q16 -5 17 -2l10 18q1 4 5 3l2 -1q5 -1 5 -19q0 -23 13 -117q3 -20 1 -28q-2 -5 -5 -5h-3q-2 0 -4 10q-33 139 -217 139q-87 0 -162 -65q-41 -36 -69.5 -98.5t-28.5 -146.5q0 -127 82 -209q51 -51 118 -74.5
t118 -23.5q24 0 47.5 8.5t34.5 18.5q26 22 26 134q0 75 -6.5 94.5t-34.5 24.5q-39 9 -43 10q-15 4 -16 7q-2 3 -2 7q0 2 4 2q84 -7 127 -7q11 0 91 5q3 -3 -5 -15q-18 -2 -34 -14q-8 -24 -8 -252q0 -13 -12 -25q-9 -8 -32 -8q-33 0 -65 -3q-70 -6 -98 -6q-181 0 -284 97
q-95 88 -95 234z" />
    <glyph glyph-name="H" unicode="H" horiz-adv-x="780" 
d="M196 335h265h118q8 1 10.5 7t2.5 24v90q0 88 -2 107q-3 26 -15 36.5t-53 19.5q-2 8 5 10q14 0 42 -0.5t41 -0.5q4 0 64 3q30 3 44 3q11 0 13 -4q2 -2 2 -6q-37 -8 -48 -19.5t-13 -42.5q-6 -48 -6 -148v-189q0 -123 6 -159q3 -25 14.5 -35.5t50.5 -20.5q3 -8 -7 -11
q-14 0 -42.5 0.5t-42.5 0.5q-35 0 -74 -2t-40 -2q-5 2 -5 3v7q46 16 56 34q10 28 10 150v93q0 15 -7 19q-10 5 -118 5h-130q-87 0 -147 -3q-9 -2 -12 -7.5t-3 -23.5q0 -134 1 -180q2 -38 9 -53q8 -18 56 -30q9 -3 10 -6q0 -8 -6 -8q-11 0 -52.5 2.5t-68.5 2.5
q-20 0 -45.5 -2t-32.5 -2t-8 1q-2 2 -2.5 5t0.5 4q31 11 44 22.5t15 29.5q6 45 6 218v168q0 99 -3 126q-3 19 -14.5 28.5t-46.5 22.5q-1 1 1 7q2 1 7 1q17 0 44.5 -1t41.5 -1q21 0 53 2q8 0 25 2t26 2q2 -1 2.5 -4t-1.5 -5q-28 -10 -39 -18.5t-15 -25.5q-7 -35 -7 -184
q0 -45 3 -53.5t18 -8.5z" />
    <glyph glyph-name="I" unicode="I" horiz-adv-x="303" 
d="M266 629l1 -6q-41 -9 -56 -19t-17 -26q-7 -35 -7 -174v-155q0 -156 6 -195q3 -13 7 -19t15 -11q16 -7 41 -14q4 -1 4 -4q0 -1 -1 -3t-2.5 -3.5t-1.5 -2.5q-74 5 -119 3q-21 -1 -55 -4t-36 -3q-6 0 -10 4q-1 4 -1 7q65 17 71 43q8 30 8 198v170q0 129 -3 156t-20 34
q-18 10 -43 14q-6 1 -6 4q1 1 1 2t1 2q1 3 6 3q7 1 26 1q9 0 33 -1.5t45 -1.5l60 2.5t43 1.5q8 0 10 -3z" />
    <glyph glyph-name="J" unicode="J" horiz-adv-x="274" 
d="M243 624l-28 -6q-18 -5 -23.5 -14t-7.5 -34q-4 -58 -4 -177v-90q0 -221 -3 -284q-1 -38 -18 -73q-27 -54 -72 -92.5t-77 -50.5q-21 -9 -44 -9q-25 0 -43 12q-12 8 -12 19q0 6 5 11q13 13 31 29q9 4 19 -2q31 -22 58 -22q24 0 41 14q13 11 25 38t12 63q4 120 4 244v172
q0 130 -1 165q-2 49 -13.5 61t-60.5 22q-3 2 0 6q3 5 20 5q10 0 35 -1.5t44 -1.5q16 0 50 3t50 3q11 0 12 -5z" />
    <glyph glyph-name="K" unicode="K" horiz-adv-x="670" 
d="M99 166v240q0 120 -3 151.5t-14 40.5q-10 10 -47 21q0 9 5 11q77 -2 92 -2q27 0 48 1t31 2t13 1q8 0 10 -4t2 -7q-34 -7 -46 -18q-11 -7 -14.5 -31t-3.5 -95v-135q0 -14 2 -17t9 0q16 7 56 41q58 48 128.5 112.5t100.5 97.5q20 22 0 29q-14 6 -40 13v3q0 8 5 8
q50 -2 72.5 -1t58.5 3t55 2q4 0 5 -0.5t0 -3.5q-2 -7 -4 -7q-10 -2 -19.5 -4.5t-18 -6t-14.5 -5.5t-14.5 -7t-11.5 -6t-12 -7.5t-10 -7t-11 -8.5l-10 -7q-65 -48 -240 -207q-8 -6 -3 -15q20 -22 69 -67.5t112.5 -101.5t68.5 -61q73 -65 98 -82q17 -11 58 -19q4 -1 2 -10
l-3 -2q-103 2 -211 -1l-2 10q1 1 5.5 2.5t12.5 4t16 5.5q12 6 0 20q-61 53 -163.5 146.5t-111.5 101.5q-22 20 -29 20q-6 0 -6 -16v-86q0 -154 11 -170q6 -12 56 -25q4 -1 5 -6l-3 -7q-6 0 -36.5 1.5t-65.5 1.5q-12 0 -46.5 -1.5t-53.5 -1.5q-2 2 -2 6t2 5q33 12 39 15
q12 7 16.5 32t4.5 111z" />
    <glyph glyph-name="L" unicode="L" horiz-adv-x="526" 
d="M502 139q3 0 8 -7q2 -6 -1 -15q-20 -59 -28 -103q-2 -14 -15 -17q-10 -1 -61 -1q-11 0 -39 1t-82 2t-122 1q-15 0 -105 -6q-10 -1 -19 -1q-3 5 -2 9q20 6 30.5 10t22 15t14.5 27q6 32 6 151v216q0 115 -4 159q-1 16 -11.5 23.5t-48.5 17.5q-4 1 -2 5v1q3 3 9 3
q11 0 35.5 -1t40.5 -1q18 0 60 3t64 3q4 -6 3 -10q-40 -9 -52.5 -20t-14.5 -35q-6 -47 -6 -186v-121q0 -166 4 -208q2 -20 19 -26q20 -7 88 -7q74 0 110.5 7.5t57.5 31.5q24 26 37 75q1 3 1.5 4t2.5 0z" />
    <glyph glyph-name="M" unicode="M" horiz-adv-x="857" 
d="M217 -2l-1 -5q-73 7 -168 5q-10 0 -13 4q-3 5 -1 7q36 8 51 22t19 50q11 90 15 252l6 207q1 47 -13 61t-67 22q-1 2 1 6q6 3 9 3t37.5 -2t47.5 -2q8 0 25 0.5t27 0.5q2 -30 12 -49q39 -86 233 -453q2 -4 6 -4.5t5 2.5q170 327 233 460q9 17 9 43q22 0 67.5 1.5t81.5 2.5
q4 -5 -2 -11q-46 -7 -62.5 -18t-18.5 -32q-4 -32 -4 -238q-1 -160 2 -230q2 -48 12 -63.5t46 -24.5q12 -3 12 -8t-12 -5h-58q-66 0 -133 -8v4q-1 7 7 10q31 12 38.5 22.5t9.5 44.5q2 30 8 455q0 12 -7 2q-7 -15 -36 -76t-69.5 -145.5t-61.5 -129.5q-22 -45 -39.5 -83.5
t-24.5 -54t-10 -20.5q-17 -34 -21 -34q-3 0 -11 15q-11 18 -42 87q-90 197 -216 448q-5 -115 -5 -321q0 -126 8 -169q3 -16 15 -25t41 -16q10 -3 12 -10z" />
    <glyph glyph-name="N" unicode="N" horiz-adv-x="752" 
d="M21 625v7q10 0 50 -2t67 -2q12 0 17 -4q2 -3 4.5 -8t4.5 -8q7 -19 62 -79q56 -63 393 -398q5 64 3 206q-2 156 -7 211q-2 26 -7.5 38.5t-21.5 18.5q-20 10 -45 14q-5 2 -6 8v3q14 0 43 -1t44 -1q20 0 51 3.5t40 3.5t10 -4l2 -5q-34 -11 -50 -23q-13 -9 -18.5 -44
t-8.5 -136q-4 -186 -4 -292q0 -31 2.5 -79.5t2.5 -55.5q0 -9 -11 -16q-4 -1 -9 6q-17 28 -47.5 65t-54 62t-72.5 75.5t-68 70.5q-167 172 -248 253q-4 -18 -4 -155q0 -264 12 -304q5 -17 21 -25.5t59 -20.5l2 -5q2 -6 -4 -6q-24 0 -61.5 2t-53.5 2q-15 0 -29 -1t-26 -3
t-16 -2q-5 6 -4 10q40 15 51.5 27t15.5 41q10 68 10 259l1 125q0 105 -18 129q-20 26 -67 33q-7 1 -7 7z" />
    <glyph glyph-name="O" unicode="O" horiz-adv-x="731" 
d="M369 646q130 0 229.5 -93t99.5 -225q0 -150 -110 -260q-46 -44 -102.5 -65t-99.5 -21q-167 0 -272 116q-37 43 -59 102t-22 117q0 146 110 239q104 90 226 90zM345 624q-89 0 -151 -68q-69 -73 -69 -222q0 -67 23 -131t63 -107q85 -90 189 -90q95 0 152.5 71.5
t57.5 213.5q0 151 -91 256q-68 77 -174 77z" />
    <glyph glyph-name="P" unicode="P" horiz-adv-x="543" 
d="M35 -3l-1 6q36 10 48.5 21.5t16.5 36.5q5 28 5 162v169q0 164 -8 189q-4 14 -16 22.5t-44 16.5q-5 1 -5 5q0 3 5 6q5 0 38.5 -1.5t53.5 -1.5q10 0 63.5 1.5t62.5 1.5q111 0 187 -56q37 -27 53.5 -66.5t16.5 -68.5q0 -78 -65 -140q-38 -38 -100 -56t-124 -18h-40
q-9 0 -9 -15q0 -69 5 -124q3 -46 32 -59q17 -9 53 -18q8 -2 8 -6q0 -5 -3 -5q-33 0 -74.5 0.5t-54.5 0.5q-27 0 -96 -6q-6 0 -8 3zM423 431q0 18 -2 35t-11.5 46t-27 49.5t-52.5 36.5t-82 16q-38 0 -58 -14q-8 -6 -9 -25q-6 -70 -6 -301q0 -13 12 -19q22 -11 52 -11
q39 0 76 15q44 19 76 64t32 108z" />
    <glyph glyph-name="Q" unicode="Q" horiz-adv-x="732" 
d="M377 646q57 0 121.5 -24t114.5 -72q44 -43 65 -106t21 -121q0 -70 -31.5 -141.5t-92.5 -115.5q-56 -41 -122 -69q-11 -6 -4 -20q21 -50 62 -89t88 -57q64 -25 129 -25q16 0 38 1l21 1q10 0 12 -2q2 -4 -7 -9q-60 -20 -133 -20q-52 0 -103 14q-71 20 -126 68
q-44 41 -91 115q-3 6 -19 10q-38 7 -93 30.5t-87 51.5q-42 37 -74.5 98.5t-32.5 141.5q0 158 125 261q40 33 100.5 56t118.5 23zM353 623q-79 0 -135 -51q-92 -86 -92 -260q0 -52 15 -109.5t44 -97.5q41 -57 98 -83t98 -26q27 0 69.5 18t74.5 54q85 93 85 241q0 131 -70 218
q-76 96 -187 96z" />
    <glyph glyph-name="R" unicode="R" horiz-adv-x="616" 
d="M36 614l-2 8q1 3 6 4q98 2 129 6q54 5 88 5q99 0 162 -44q69 -48 69 -128q0 -29 -10 -53t-30 -42.5t-33 -27.5t-37 -23q-13 -8 -10 -17q9 -38 73 -137q43 -65 80.5 -104.5t89.5 -63.5q11 -4 8 -12q-2 -3 -14 -2q-102 9 -179 82q-53 49 -110 160q-19 35 -34.5 46.5
t-51.5 11.5t-47 -3q-12 -4 -12 -15q0 -123 5 -201q1 -23 11 -31q14 -13 55 -28q0 -1 -1 -2q-2 -2 -2 -3q-1 -2 -8 -2q-5 0 -45 1t-61 1q-22 0 -46 -2t-33 -2q-11 0 -12 2q-3 3 -2 6q3 2 13.5 6.5t17 7t14 8t10.5 10.5q12 16 12 121v90q0 129 -4 317q-1 23 -10.5 32t-48.5 18
zM403 464q0 63 -41.5 109t-114.5 46q-40 0 -60 -13q-9 -4 -12 -19q-3 -29 -3 -213q0 -68 7 -72q12 -3 28 -3q119 0 158 51q38 49 38 114z" />
    <glyph glyph-name="S" unicode="S" horiz-adv-x="488" 
d="M66 -23q-4 0 -8 6q-5 9 -6 42q-3 73 -13 117q-2 16 -1 17q3 2 8 2t7 -11q6 -36 30 -70q23 -34 64 -55.5t94 -21.5q60 0 100 43t40 104q0 46 -44 82q-30 22 -110 58q-102 46 -138 91q-32 39 -32 100q0 88 78 131q19 11 55 21.5t71 10.5q51 0 88 -8q25 -5 34 -5q6 1 23 22
q4 1 9 -2q-3 -84 8 -133q1 -10 -1 -13q-2 -4 -6 -4q-1 -1 -1.5 0t-2.5 4q-15 46 -43 74q-45 45 -128 45q-51 0 -83.5 -35t-32.5 -83q0 -45 25 -76q24 -29 117 -71q41 -18 61 -27t42.5 -23.5t38.5 -30.5q46 -45 46 -110q0 -100 -84 -147q-29 -18 -74 -28t-73 -10
q-40 0 -115 14q-9 3 -17 -3q-3 -1 -15 -11q-6 -6 -11 -6z" />
    <glyph glyph-name="T" unicode="T" horiz-adv-x="674" 
d="M194 0v6q32 5 56 14q34 10 39 41q5 27 5 225v101q0 217 -4 220h-80q-95 0 -131 -18q-24 -14 -52 -74q-2 -6 -6 -2q-5 4 -5 12q35 85 46 146q3 2 7 -1q4 -1 5 -6q4 -25 13 -28q10 -6 43 -6q35 -2 157 -2q147 0 263 4q43 1 57 8q17 5 27 27q3 4 5 4q3 0 5 -7q3 -3 -1 -11
q-17 -49 -24 -132q0 -7 -3 -7q-4 0 -6 2q-4 2 -4 10q-4 39 -6 48q-3 16 -15 22q-26 13 -128 13h-63q-18 0 -20 -24q-5 -90 -5 -206v-102q0 -161 5 -206q3 -23 16 -35q17 -16 86 -26q5 -2 4 -4l-1 -3q-3 -6 -17 -6q-13 0 -60.5 1.5t-71.5 1.5q-22 0 -62.5 -3.5t-57.5 -3.5
q-15 0 -16 7z" />
    <glyph glyph-name="U" unicode="U" horiz-adv-x="695" 
d="M683 630l-4 -7q-26 -6 -35 -12q-22 -10 -24 -37q-4 -40 -9 -247q-3 -84 -14 -139t-45 -103t-94.5 -75.5t-123.5 -27.5q-108 0 -176 61q-69 64 -71 198q-2 76 2 204q3 88 2 114.5t-8 38.5q-13 16 -52 24l1 4q2 6 18 6q9 0 41.5 -2.5t43.5 -1.5q16 1 53 3.5t50 2.5
q6 0 6 -3q0 -6 -3 -9q-36 -7 -49 -16t-18 -26q-7 -28 -8 -105q-4 -220 -4 -229q0 -120 73 -181q48 -40 138 -42q108 -1 165 76q46 63 46 242q2 177 -4 220q-4 29 -22 40.5t-57 16.5q-5 1 -7.5 2t-2.5 2v2q1 0 1 2t1 2q4 6 17 4q50 -4 75 -4q12 0 31.5 1t39 3t23.5 2
q5 0 4 -4z" />
    <glyph glyph-name="V" unicode="V" horiz-adv-x="685" 
d="M678 618l-19 -4q-19 -5 -33 -21t-59 -111q-6 -13 -180 -412q-3 -7 -17 -34q-2 -3 -12 -20.5t-15 -27.5q-3 -6 -8 -6t-8 7l-5 11q-5 11 -13.5 31t-17.5 44q-83 208 -191 454q-24 54 -37 68.5t-46 21.5l-2 2q-1 5 3.5 7.5t12.5 2.5q28 0 60.5 -1.5t41.5 -1.5q17 0 41 1.5
t33 1.5q6 -1 4 -7q-2 -4 -10 -6q-26 -10 -32.5 -19t-2.5 -25q20 -59 71 -177q118 -275 125 -290q8 -14 13 -3q45 77 136 312q42 107 54 143q9 30 0 41.5t-33 15.5l-18 4q-6 1 -4 6q4 6 18 6q9 0 34 -2t41 -2t38 1.5t28 1.5q13 0 16 -7q1 -2 -1 -3.5t-6 -2.5z" />
    <glyph glyph-name="W" unicode="W" horiz-adv-x="980" 
d="M314 -7q-2 6 -9.5 24.5t-19.5 50t-24 61.5q-80 211 -154 391q-26 61 -38.5 77.5t-42.5 22.5q-6 2 -6 4q0 4 2 4q3 3 15 3q9 0 37 -1.5t41 -1.5q12 0 40.5 1t44.5 1q10 0 10 -7q0 -4 -13 -6q-19 -6 -27 -11t-7 -13q1 -14 15 -50q64 -186 172 -432q1 -4 4.5 -4.5t4.5 2.5
q41 85 126 312q4 11 -1 24q-31 84 -52 134q-7 17 -19 25t-41 17q-3 2 -2 4q2 6 11 6q10 0 40 -1.5t45 -1.5q16 0 46 1.5t43 1.5q3 -1 3.5 -5t-1.5 -5q-36 -11 -44.5 -18.5t-1.5 -26.5q75 -214 176 -462q2 -6 6 -6.5t5 2.5q37 82 94 237.5t78 228.5q4 16 0 23t-18 13
q-6 3 -33 11q-9 3 -7 6q0 5 12 5t37.5 -2.5t32.5 -2.5q17 0 42 1t29 1q13 0 15 -6v-3q0 -1 -4 -2q-35 -7 -49.5 -24t-39.5 -77q-84 -199 -177 -446q-18 -44 -38 -75q-7 -13 -12 -13q-7 0 -14 19q-4 12 -14 40.5t-18 51.5q-13 36 -113 301q-23 -60 -63.5 -161.5t-60.5 -151.5
q-14 -35 -39 -83q-7 -16 -11 -18q-2 -1 -5 -1q-5 0 -8 11z" />
    <glyph glyph-name="X" unicode="X" horiz-adv-x="676" 
d="M466 624l-1 5q3 0 26 -0.5t43.5 -0.5h45.5q2 0 24.5 1.5t33.5 1.5q13 0 15 -7q0 -4 -8 -5q-39 -7 -58.5 -19.5t-50.5 -48.5q-39 -46 -78.5 -95t-61 -76.5t-24.5 -30.5q-6 -8 5 -23q128 -186 174 -244q29 -37 46.5 -50t60.5 -24l-1 -5q-1 -7 -15 -7q-8 0 -50 1.5t-63 1.5
q-24 0 -51 -1.5t-28 -1.5q-14 0 -16 4q0 1 -1 4l-1 2q0 3 5 4q20 3 35 10q20 7 8 24q-15 26 -77 116t-87 124q-41 -49 -137 -182q-32 -44 -32 -60q0 -13 12.5 -20t38.5 -14q6 -1 8 -6q2 -4 -3 -6q-14 0 -52.5 2t-50.5 2q-14 0 -41.5 -2t-32.5 -2q-14 0 -15 4q-1 3 1 7
q33 6 49.5 16.5t40.5 35.5q66 68 195 237q7 8 0 19q-3 5 -42 63t-80 115t-69 92q-20 27 -66 34q-7 2 -7 6q0 7 18 7q10 0 40 -2t45 -2q18 0 48 3t40 3q12 0 15 -5l1 -3q1 -2 -1 -4t-7 -3l-23 -5q-14 -2 -16.5 -7t4.5 -18q34 -59 157 -229q110 143 135 179q28 40 28 54
q0 12 -43 23q-8 3 -8 8z" />
    <glyph glyph-name="Y" unicode="Y" horiz-adv-x="602" 
d="M227 632q0 -6 -5 -9q-4 -1 -18 -5.5t-25 -7.5q-19 -6 -10 -21q16 -30 38.5 -68.5t40 -67t32.5 -53t16 -26.5q3 -4 9 -12.5t9 -12.5q6 -8 14 3q74 99 127 180q28 39 28 59q0 17 -63 31l1 4q1 4 13 4q1 0 26 -1t46 0q17 0 34.5 1t28.5 1.5t15 0.5q13 0 16 -4q2 -5 0 -6
q-33 -7 -50 -20t-49 -51q-117 -144 -158 -219q-13 -20 -13 -63v-77q0 -76 3 -122q3 -33 16 -42.5t74 -22.5q2 -3 0 -7q-3 -4 -20 -4q-10 0 -53.5 3t-73.5 3q-18 0 -48.5 -2.5t-47.5 -2.5q-8 0 -10 2q-2 4 -2 5q0 3 3 3q64 10 74 33q10 20 10 131v114q0 17 -21 55
q-118 206 -159 255q-17 20 -54 29q-8 2 -8 4q0 3 2 5q4 2 13 2q18 0 54.5 -2t47.5 -2q9 0 54 3q19 3 37 3q6 0 6 -3z" />
    <glyph glyph-name="Z" unicode="Z" horiz-adv-x="677" 
d="M372 0h-122q-53 0 -96.5 -1t-66 -2t-25.5 -1q-14 0 -22 8q-4 4 2 10q78 91 103 122q52 63 177 222t176 227q4 5 1.5 11t-8.5 7q-37 4 -155 4t-166 -5q-46 -7 -75 -44q-14 -16 -40 -67l-4 1q-7 0 -4 15q4 21 27 78.5t28 74.5q3 7 7 7t6 -1q5 -33 12 -34q17 -4 140 -4h145
q66 0 186 5q13 1 22 1q6 0 3 -8q-2 -8 -26 -37q-94 -110 -232 -287q-183 -237 -206 -270q22 -11 200 -11q108 0 152.5 9t64.5 30q30 36 48 83q4 7 9 7q6 0 5 -7q-20 -91 -41 -150q-6 -21 -9 -21q-4 -2 -9 -2q-6 27 -9 27q-21 3 -198 3z" />
    <glyph glyph-name="bracketleft" unicode="[" horiz-adv-x="308" 
d="M261 -179q0 -10 -10 -12q-24 -3 -68.5 -4t-61.5 1q-14 2 -14 16q-2 25 -2 350q0 339 8 433q2 34 11 40q8 5 49 10t87 5q8 0 11 -8q1 -6 -7 -7q-56 -8 -81 -14q-22 -7 -24 -21q-10 -85 -13 -430q-1 -286 7 -330q5 -15 20 -18q36 -5 83 -4q5 0 5 -7z" />
    <glyph glyph-name="backslash" unicode="\" horiz-adv-x="309" 
d="M242 -66q-9 0 -20 43q-125 462 -189 665q10 15 22 19q7 3 10 -7q97 -358 203 -712q-2 -1 -7 -3t-10 -3.5t-9 -1.5z" />
    <glyph glyph-name="bracketright" unicode="]" horiz-adv-x="308" 
d="M50 639q0 9 9 11q72 9 128 2q12 -1 14 -18q1 -19 1 -358q0 -344 -7 -423q-3 -37 -17 -42q-36 -12 -130 -12q-8 0 -9 6q-2 5 3 8q66 10 83 14q23 8 25 21q11 90 12 443q1 262 -6 318q-3 16 -22 19q-46 5 -79 4q-5 0 -5 7z" />
    <glyph glyph-name="asciicircum" unicode="^" horiz-adv-x="461" 
d="M233 633q2 0 9 -9q76 -153 160 -316q8 -17 0 -21q-18 -10 -32 -10q-100 206 -143 290q-134 -271 -143 -290q-3 -2 -13 2.5t-15 8.5q-9 9 -4 18q3 7 40 77.5t78 148t44 84.5q3 5 7 9t7.5 6t4.5 2z" />
    <glyph glyph-name="underscore" unicode="_" horiz-adv-x="500" 
d="M500 -75v-50h-500v50h500z" />
    <glyph glyph-name="grave" unicode="`" horiz-adv-x="400" 
d="M167 569q4 0 9 -8q14 -30 49 -126q2 -5 -9 -10q-43 53 -85 116q-4 6 1 11q23 17 35 17z" />
    <glyph glyph-name="a" unicode="a" horiz-adv-x="365" 
d="M102 282l-44 -17q-9 -3 -15 -3q-11 0 -11 8q0 6 8 17q12 18 48 43t60 35q31 14 52 14q45 0 75 -34q17 -20 17 -46q0 -33 -1 -100.5t-1 -102.5q0 -73 22 -73q14 0 46 13q2 1 4.5 -2t2.5 -6l-2 -10q0 -4 -7 -8q-10 -6 -41 -14.5t-53 -8.5q-34 0 -39 50q-29 -14 -72.5 -31.5
t-49.5 -17.5q-28 0 -50 19q-27 23 -27 68q0 26 38 48q55 30 163 49q1 17 1 82q0 54 -14 70q-16 16 -60 16q-23 0 -35 -7q-10 -3 -10 -39q0 -10 -5 -12zM146 28q22 0 61 18q15 7 16 22q2 22 2 73q0 13 -7 13q-83 -15 -109 -35q-11 -9 -11 -32q0 -59 48 -59z" />
    <glyph glyph-name="b" unicode="b" horiz-adv-x="437" 
d="M412 213q0 -73 -35.5 -120.5t-102.5 -82.5q-33 -17 -67 -17q-10 0 -34.5 1t-29.5 1q-33 3 -60 -1q-12 -3 -17 3q-10 11 -12 40t-2 129v26l1 200q0 159 -1 183q-1 14 -31 45q-6 6 0 11q15 10 53.5 32.5t43.5 22.5t5 -33q0 -2 -3 -103t-2 -212q0 -8 8 -6q109 46 126 46
q20 0 48.5 -11t49.5 -30q62 -60 62 -124zM345 173q0 60 -40 106q-47 55 -110 55q-45 0 -71 -20q-7 -7 -8 -18q-3 -51 -3 -152q0 -67 32 -96q35 -33 77 -33q38 0 68 25q55 45 55 133z" />
    <glyph glyph-name="c" unicode="c" horiz-adv-x="346" 
d="M241 381q53 0 87 -31q5 -5 5 -12q0 -11 -23 -28q-10 -6 -20 -2q-7 2 -23 13q-35 24 -71 24q-38 0 -67 -29q-34 -33 -34 -119q0 -84 36 -122q41 -44 87 -44q48 0 104 40q2 2 4.5 1.5t2.5 -2.5q0 -8 -12 -20q-11 -10 -38.5 -26.5t-48.5 -23.5q-29 -9 -51 -9q-23 0 -52 10.5
t-48 26.5q-20 16 -36.5 50t-16.5 77q0 88 56 144q29 29 84 58q46 24 75 24z" />
    <glyph glyph-name="d" unicode="d" horiz-adv-x="446" 
d="M26 158q0 83 67 146q31 29 75.5 49.5t67.5 20.5q36 0 66 -10q2 -1 5.5 1t4.5 6q2 28 2 76q1 95 -4 142q-1 10 -7 15t-27 13q-10 3 -10 5l-1 3q-1 1 3 4q53 21 104 58q3 1 6 0q3 -3 3 -18q-5 -220 -5 -390v-127q0 -81 7 -119q3 -15 10 -15q10 0 42 12q7 2 9 -3q3 -7 3 -12
q0 -3 -9 -6q-85 -18 -110 -27q-5 -1 -9 3.5t-5 11.5q-2 9 -2 50q-113 -55 -140 -55q-24 0 -50.5 13t-43.5 30q-52 49 -52 123zM196 338q-44 0 -72 -28q-32 -30 -32 -98q0 -95 52 -141q37 -33 84 -33q39 0 71 19q10 4 10 16q4 39 4 112.5t-4 99.5q-1 13 -15 25q-36 28 -98 28
z" />
    <glyph glyph-name="e" unicode="e" horiz-adv-x="351" 
d="M202 375q40 0 73 -31q27 -27 37 -66q26 11 32 8q5 -5 3 -11q-7 -15 -19 -19q-31 -7 -117.5 -24.5t-107.5 -23.5q-6 -2 -6 -19q1 -77 33 -114t81 -37q75 0 119 46q6 6 6 0q0 -18 -10 -25q-46 -41 -110 -64q-16 -5 -35 -5q-62 0 -115 53q-41 44 -41 120q0 113 97 182
q41 30 80 30zM247 268q0 27 -24.5 54.5t-52.5 27.5q-14 0 -23 -8q-21 -16 -34 -49t-13 -69q33 7 138 34q9 2 9 10z" />
    <glyph glyph-name="f" unicode="f" horiz-adv-x="245" 
d="M248 328h-23q-4 0 -29 0.5t-48 0.5q-9 0 -9 -45v-181q0 -52 4 -66.5t21 -18.5q5 -1 38 -6q7 -1 7 -8q0 -5 -12 -5q-15 0 -46 0.5t-47 0.5q-12 0 -43.5 -2.5t-36.5 -2.5t-4 5q2 4 9 7q15 6 21.5 10t13 10t8 23t2 34.5t0.5 58.5v170q0 12 -4 14t-21 4l-24 2q-7 0 -5 6l2 2
q10 8 13 9q2 0 17 5t22 7v56q0 65 11.5 105.5t44.5 75.5q41 45 95 69q27 12 49 12q35 0 60 -29q6 -7 6 -16q0 -7 -18 -25q-9 -5 -17 -2q-4 2 -16.5 9.5t-19.5 11.5q-20 12 -48 12q-24 0 -44 -23q-20 -22 -28 -73.5t-8 -170.5q0 -12 11 -12q13 0 34.5 1t37.5 2t17 1
q4 0 9 -3.5t6 -6.5q3 -8 3 -21q0 -7 -11 -7z" />
    <glyph glyph-name="g" unicode="g" horiz-adv-x="384" 
d="M205 383q34 0 66 -20q14 -9 20 -7q6 0 38.5 7.5t44.5 7.5q11 0 15 -11q4 -5 4 -31q0 -8 -16 -9q-9 0 -76 4q30 -43 30 -95q0 -51 -31.5 -92t-89.5 -67q-67 -31 -81 -40q-9 -4 -9 -10q0 -32 50 -32q5 0 41 1t40 1q73 0 112 -29q28 -21 28 -65q0 -25 -7.5 -41.5
t-28.5 -43.5q-54 -63 -124 -88q-37 -14 -88 -14q-72 0 -106.5 28.5t-34.5 64.5q0 46 30 68q42 32 81 56q-34 17 -49.5 30.5t-15.5 31.5q0 11 7 19q11 12 102 55q-50 9 -87 41q-44 38 -44 103q0 79 77 135q57 42 102 42zM274 191q0 66 -28 111q-28 46 -80 47q-33 0 -53 -19
q-25 -25 -25 -80q0 -79 43 -122q38 -37 74 -37q25 0 47 25.5t22 74.5zM186 -249q77 0 126 38q31 23 31 69q0 37 -23 52q-28 19 -82 19q-75 0 -108 -11q-17 -6 -37 -25q-32 -31 -32 -68q0 -26 28.5 -50t96.5 -24z" />
    <glyph glyph-name="h" unicode="h" horiz-adv-x="459" 
d="M23 -4l-2 3v3q24 16 31.5 25.5t11 30.5t3.5 75l-1 396q0 45 -4 57t-26 27q-13 7 -3 15q27 21 89 54q6 3 10 -1q2 -3 2 -10q0 -24 -2 -110t-2 -147v-89q0 -3 1.5 -5.5t4.5 -1.5q5 2 27.5 12.5t43 19.5t30.5 13q33 13 50 13q104 0 104 -150q0 -10 -1.5 -66.5t-1.5 -93.5
q0 -24 5.5 -32.5t30.5 -19.5q9 -5 9 -7v-3q0 -5 -8 -5h-57q-19 0 -39.5 -1t-34 -2.5t-15.5 -1.5q-4 0 -5 4t2 7q15 10 26 16q10 6 14 13t6 24q4 34 4 123q0 62 -9.5 89.5t-27.5 41.5q-25 18 -60 18q-47 0 -89 -26q-12 -7 -12 -28v-112q0 -78 6 -122q2 -12 9.5 -17t34.5 -13
q5 -1 6 -7q-1 -5 -5 -5q-107 0 -144 -6q-11 -2 -12 2z" />
    <glyph glyph-name="i" unicode="i" horiz-adv-x="207" 
d="M132 574q12 0 21 -10t9 -25q0 -17 -11 -28t-25 -11q-13 0 -23.5 9.5t-10.5 24.5q0 19 12.5 29.5t27.5 10.5zM77 197l-3 110q-1 3 -35 18q-3 1 -3 6q1 2 7 5q34 11 98 43q4 2 5 2t1 -3q-9 -162 -9 -260q0 -68 1 -83q1 -11 11 -15q8 -2 16.5 -4t13.5 -3.5t6 -1.5q6 0 4 -5
l-2 -4q-3 -4 -8 -4q-8 0 -30 1t-37 1q-18 0 -36.5 -1.5t-29.5 -3t-12 -1.5q-3 0 -5 3v1q-1 2 -1 3q0 3 4 4q19 7 26 14t11 26q10 41 7 152z" />
    <glyph glyph-name="j" unicode="j" horiz-adv-x="190" 
d="M117 576q15 0 25 -12.5t10 -25.5q0 -15 -11 -26t-25 -11q-11 0 -23 11.5t-12 23.5q0 18 9.5 29t26.5 11zM138 156v-207q0 -44 -19 -84q-23 -54 -62.5 -92t-71.5 -51q-18 -5 -31 -5q-20 0 -34 14q-8 10 0 21q20 26 27 27q6 1 13 -2q22 -13 37 -13q29 0 47 17q26 24 28 105
q0 13 0.5 72t0.5 102v94q0 98 -3 118q-1 13 -3 17.5t-8.5 11t-25.5 17.5q-5 4 1 8q16 7 38 19t38.5 22t18.5 11q5 3 8 3q6 0 6 -9q0 -3 -2.5 -82t-2.5 -134z" />
    <glyph glyph-name="k" unicode="k" horiz-adv-x="439" 
d="M14 -1l1 4q2 3 8 6q35 12 39 31q7 35 7 261q0 241 -1 276q-1 21 -8 28q-15 15 -19 20q-7 7 -4 11t42 24t50 24q2 1 3 1t2 -2t1 -5v-10v-144l-4 -317q0 -14 3 -11q10 0 29 16q97 90 116 113q16 21 -16 22q-2 0 -5.5 0.5t-5.5 1.5q-6 0 -4 4l3 6q3 6 8 6q89 0 144 5
q3 0 3 -4v-3q0 -3 -9 -5q-47 -11 -78 -34q-26 -20 -111 -95q-8 -8 1 -19q7 -8 127 -132q36 -36 52 -47.5t46 -18.5q6 -2 6 -10q0 -4 -8 -4q-31 0 -65 1q-18 0 -45 -1t-37 -1q-5 0 -7 5l-2 3q0 2 3 3q28 9 15 23q-25 26 -68.5 70t-63.5 65q-16 16 -25 16q-7 0 -7 -9
q-1 -15 0 -91q0 -58 9 -60q7 -5 31 -9q6 -1 6 -4q0 -4 -3 -7q-4 -4 -8 -4q-1 0 -19.5 1t-35.5 1q-18 0 -50 -2t-40 -2t-6 3z" />
    <glyph glyph-name="l" unicode="l" horiz-adv-x="206" 
d="M18 -6l1 5q0 2 4 4q9 3 25 11q16 9 17 36q7 165 7 410v123q0 15 -7 21.5t-32 14.5q-4 2 -3 6q2 3 9 7q6 3 41.5 20.5t57.5 29.5q2 1 4 1t2 -7q-11 -179 -11 -525q0 -86 4 -108.5t18 -24.5q5 -1 13 -2t13.5 -1.5t8.5 -1.5q5 0 4 -4q-1 -1 -3 -5q-1 -4 -7 -4
q-114 0 -162 -8q-4 0 -4 2z" />
    <glyph glyph-name="m" unicode="m" horiz-adv-x="690" 
d="M430 9v-9q-104 0 -156 -5q-3 2 -3 3v4q0 4 6 5q20 11 26.5 17t7.5 17q5 43 5 179q0 57 -13 74q-21 27 -68 27q-41 0 -79 -30q-16 -12 -17 -25q-2 -34 -2 -132q0 -76 6 -94.5t34 -26.5q8 -2 8 -6q0 -6 -3 -6t-32.5 -0.5t-39.5 -0.5q-11 0 -41.5 -3.5t-31.5 -3.5q-4 0 -4 8
q2 1 12.5 7.5t16.5 11.5q10 7 11 18q4 24 4 130q0 99 -3 116q-1 8 -4 11t-14 7q-14 4 -17 8q-3 5 -1 7q18 13 37 26.5t30.5 21t14.5 10.5q9 5 14 5q3 0 3 -9l-1 -76q10 6 49.5 34t55.5 36q18 8 31 8q66 0 101 -72q62 40 99 56q25 11 50 11q34 0 59 -21q35 -31 37 -122v-140
q0 -42 4 -49q5 -10 51 -25q4 -1 4 -4q0 -2 -2 -5t-4 -3h-48q-25 0 -91 -7q-6 0 -6 3l-1 1l-2 2q0 3 3 4q20 11 24 30q7 38 7 150q0 82 -23 113q-21 25 -65 25q-41 0 -83 -27q-8 -6 -8 -20q1 -34 0.5 -77.5t0 -91t2.5 -62.5q2 -12 9 -17t34 -12q6 0 6 -4z" />
    <glyph glyph-name="n" unicode="n" horiz-adv-x="458" 
d="M29 -1l1 5q23 12 31 20.5t10 26.5q6 64 6 146q0 60 -2 94q0 11 -6 16t-31 17q-2 1 -2 4q1 5 8 8q17 7 35.5 16.5t32.5 17.5t15 9l7 3q6 0 6 -9q0 -3 -2 -58q1 -5 3 -5q17 10 37 21.5t32 18t23 12.5q22 12 45 12q37 0 68 -25q37 -30 42 -90v-19v-31v-36q0 -41 -0.5 -82.5
t-0.5 -50.5q0 -18 19 -21q13 -2 31 -4q5 -2 5 -3q0 -4 -5 -11q-2 -3 -7 -3q-47 0 -87.5 -3t-46.5 -3q-9 0 -11 3l-1 4q31 18 35 46q6 36 6 177q0 56 -28 81q-25 23 -62 23q-48 0 -84 -26q-10 -5 -11 -23q-2 -22 -2 -110.5t2 -124.5q1 -9 7.5 -13.5t32.5 -14.5q7 -5 4 -9
l-4 -5h-48q-32 0 -63 -3t-38 -3q-3 0 -2 5z" />
    <glyph glyph-name="o" unicode="o" horiz-adv-x="424" 
d="M228 377q60 0 115.5 -51.5t55.5 -139.5q0 -42 -16.5 -79t-31.5 -53t-26 -22q-71 -42 -120 -42q-30 0 -72 18.5t-67 50.5q-40 52 -40 121q0 65 37 111q29 36 63 53q64 33 102 33zM195 350q-34 0 -57 -23q-37 -37 -37 -132q0 -80 47 -134q41 -46 90 -46q31 0 49 16
q41 43 41 119q0 50 -15 96t-42 72q-34 32 -76 32z" />
    <glyph glyph-name="p" unicode="p" horiz-adv-x="443" 
d="M14 -273l-3 5q29 12 37.5 21.5t11.5 33.5q8 104 8 268v116q0 99 -8 127q0 6 -33 17q-3 0 -7 7q27 16 92 68q12 8 15 5q2 -2 2 -11v-65q124 54 138 54q49 0 94 -39q57 -52 57 -131q0 -81 -70 -140q-50 -43 -118 -67q-15 -5 -28 -5q-38 0 -62 8q-2 1 -4.5 -2t-3.5 -7
q-3 -16 -3 -117q0 -56 2.5 -80.5t7.5 -31.5t19 -10q4 -1 15.5 -3.5t16.5 -4.5q4 -2 2 -5l-1 -2q-4 -4 -10 -5q-35 0 -94.5 -3.5t-68.5 -3.5q-2 0 -4 3zM354 166q0 68 -38 112q-46 53 -106 53q-41 0 -78 -28q-4 -3 -4 -26v-65q0 -51 6 -137q1 -12 14 -20q43 -27 96 -27
q34 0 66 26q44 38 44 112z" />
    <glyph glyph-name="q" unicode="q" horiz-adv-x="430" 
d="M388 375q4 0 2 -6q-16 -100 -16 -326v-97q0 -128 7 -177q1 -15 9 -15q28 0 36 -2q9 0 9 -3q0 -11 -7 -18q-100 0 -172 -13l-5 5q-3 4 1 5q18 8 40 15q12 4 13 13q6 54 6 171v91q0 2 -2.5 5t-4.5 2q-82 -37 -116 -37q-26 0 -57.5 14t-50.5 30q-55 52 -55 126q0 76 58 136
q16 16 56 40.5t70 34.5q21 7 34 7q51 0 82 -17q13 -7 24 -1q34 17 39 17zM203 342q-41 0 -70 -32q-36 -36 -36 -113q0 -87 53 -136q40 -35 94 -35q38 0 58 14q8 5 9 14q2 52 2 95q0 39 -0.5 80.5t-0.5 43.5q0 20 -12 33q-32 36 -97 36z" />
    <glyph glyph-name="r" unicode="r" horiz-adv-x="314" 
d="M37 -1l3 7q21 11 27 18.5t7 22.5q2 19 2 122v97q0 20 -4.5 27.5t-21.5 16.5q-11 6 -11 11q53 27 92 55q7 6 10 6t3 -11q-5 -67 -4 -86q6 3 94 74q14 12 23 12q17 0 30.5 -12.5t13.5 -25.5q0 -11 -24 -39q-10 -10 -15 -10q-4 0 -11 7q-16 18 -36 18q-13 0 -32 -12t-29 -22
q-9 -9 -11.5 -18t-2.5 -33v-100q0 -63 2 -83q3 -20 32 -21l32 -2q9 -2 9 -9l-6 -9q-21 1 -63 1q-29 0 -68 -3l-40 -3q-3 0 -1 4z" />
    <glyph glyph-name="s" unicode="s" horiz-adv-x="308" 
d="M283 96q0 -47 -48 -77q-42 -27 -90 -27q-11 0 -74 9q-18 5 -38 -2q-2 0 -3 2q-3 3 -2 10q6 44 1 98q0 5 4 8l1 1h2q14 -45 45 -78q32 -32 78 -32q22 0 41 18t19 51q0 14 -6 25.5t-17.5 20.5t-20 14.5t-24 12.5t-18.5 9q-59 32 -78 61q-15 23 -15 49q0 46 43 79
q36 27 84 27q8 0 25 -1.5t27 -1.5t18 2q3 2 6 -1q2 -2 2 -7q2 -47 16 -87q2 -9 -3 -9q-6 0 -16 16q-39 70 -96 70q-20 0 -34 -15t-14 -47q0 -17 5 -29t20.5 -23t21.5 -14l30 -15q1 -1 11 -5.5t16 -7.5t17.5 -10t19 -13t16.5 -15t14.5 -18.5t9.5 -22t4 -25.5z" />
    <glyph glyph-name="t" unicode="t" horiz-adv-x="275" 
d="M141 435q3 0 3 -5q0 -6 -1.5 -37t-1.5 -34q24 0 67.5 2.5t54.5 2.5q7 0 8.5 -1t0.5 -6q-2 -17 -5 -25q-4 -8 -16 -8q-25 -1 -107 -1q-5 0 -6 -12q-2 -37 -2 -215q0 -30 18 -47.5t45 -17.5q31 0 60 20q5 5 9 2q2 -4 2 -8t-12 -12q-68 -45 -108 -45q-41 0 -66 30
q-16 20 -13 71q1 28 2 121t1 105q1 3 -2 5.5t-6 2.5q-25 0 -32 1q-3 0 -5 1t-2 2.5t1 2.5q58 54 103 99q6 6 10 6z" />
    <glyph glyph-name="u" unicode="u" horiz-adv-x="448" 
d="M123 377q9 0 11 -16q2 -14 -1 -66q-5 -110 -5 -197q0 -30 25.5 -46.5t55.5 -16.5q54 2 86 29q12 10 13 22q7 35 7 127q0 93 -9 107q-11 13 -44 24q-7 2 -9 6q-1 1 -1 3t3 3t22 3t46 4.5t44 2.5q9 0 12 -10q2 -20 1 -42q0 -6 -2 -59t-2 -81v-61q0 -55 5 -80q1 -5 3 -7.5
t4 -1.5q3 0 10.5 2t17.5 5t15 4q3 0 5 -2.5t1 -4.5q-7 -17 -11 -17q-53 -7 -105 -23q-10 -1 -12 3q-5 7 -5 12l2 49q-13 -7 -41 -24.5t-41 -24.5q-25 -15 -59 -15q-59 0 -89 45q-12 20 -12 61q0 58 1 130t1 80q-2 14 -33 38q-5 2 -7 7q-2 4 5 5q80 23 92 23z" />
    <glyph glyph-name="v" unicode="v" horiz-adv-x="379" 
d="M169 359v-6q0 -1 -5 -4q-34 -13 -41 -20t0 -29q44 -146 77 -215q1 -2 4 -2t4 4q40 78 80 179q13 33 13 51q-1 12 -11.5 19t-36.5 14q-2 1 -2 7q2 3 7 3q13 0 50.5 1.5t57.5 1.5q6 0 8 -2l3 -6q0 -1 -0.5 -2t-3 -3t-4.5 -3q-18 -13 -50 -72t-67.5 -136t-39.5 -85
q-18 -37 -22 -51q-2 -8 -8 -11t-12 -3q-2 0 -9 20q-3 7 -16 44t-34 95.5t-42 110.5q-22 56 -30 69t-31 22q-3 2 -0.5 5.5t4.5 3.5q122 0 154 2q3 0 3 -2z" />
    <glyph glyph-name="w" unicode="w" horiz-adv-x="608" 
d="M162 359l1 -4q-29 -6 -35.5 -14t-0.5 -29q13 -46 80 -219q3 -9 8 -3q72 155 74 161q6 13 0 27q-12 38 -19 48.5t-30 22.5q0 3 2 7q1 3 10 3q77 -2 128 2q1 -9 -4 -13q-24 -11 -28.5 -20.5t2.5 -37.5q20 -62 74 -206q4 -8 8 -2q27 59 67 162q13 34 17 61q2 15 -8.5 26
t-40.5 20q-2 10 5 10q65 -3 101 1q7 1 18 1q6 0 6 -1v-2q0 -4 -2 -9q-19 -9 -29.5 -22t-25.5 -44q-6 -12 -23.5 -52t-37.5 -87t-27 -63q-10 -22 -34 -82q-4 -12 -18 -12q-6 0 -9 10q-38 111 -83 221q-1 3 -3 4.5t-3.5 1t-2.5 -2.5q-72 -151 -101 -225q-4 -9 -7 -9q-7 0 -9 1
q-4 1 -9 16q-54 153 -105 275q-16 40 -24 51.5t-26 17.5q-4 0 -2 3l2 4q2 4 5 4q26 -1 70 1t60 2q7 0 9 -5z" />
    <glyph glyph-name="x" unicode="x" horiz-adv-x="397" 
d="M22 354v4q0 4 3 4q48 -2 67 -2q12 0 40 1.5t45 1.5q1 -1 -0.5 -5t-3.5 -6q-23 -7 -28 -14t3 -23q20 -38 61 -98q20 21 48.5 59t28.5 51t-42 24q-2 5 5 10q47 0 86 3q21 1 48 1q4 0 3 -6q-3 -7 -10 -8q-28 -8 -58 -38q-45 -47 -94 -108q-4 -5 3 -18q29 -61 83 -127
q19 -24 31 -32.5t37 -17.5q6 -1 6 -4q-2 -4 -3 -7t-10 -3q-72 4 -89 4q-15 0 -41.5 -2t-30.5 -2q-6 6 -4 9q37 14 37 26q0 11 -25 54.5t-42 67.5q-3 -4 -14 -17.5t-19.5 -25t-19 -25.5t-16 -25t-5.5 -17q0 -19 38 -33q4 0 -1 -7q-1 -3 -7 -3q-53 0 -107 -4q-3 0 -5 2l-3 6
q-1 4 6 11q9 14 29 33q32 28 110 117q6 5 1 13q-13 21 -31.5 51.5t-25.5 42t-18.5 28.5t-18.5 23.5t-17 13.5t-22 12z" />
    <glyph glyph-name="y" unicode="y" horiz-adv-x="400" 
d="M261 355q0 5 4 5q64 0 90 1q17 1 28 1q10 0 12 -3q3 -3 3 -7q-16 -8 -28.5 -21.5t-19.5 -25.5t-26 -49q-31 -60 -56 -113t-49 -107t-32 -71q-51 -111 -73 -195q-5 -20 -5 -41q0 -8 -5 -11q-9 -5 -19 -5q-13 0 -25 11q-11 13 -2 30q3 7 51.5 106.5t51.5 108.5q3 7 -3 33
q-53 168 -99 295q-9 25 -16 34.5t-27 17.5q-8 3 -8 5q1 2 3 4q3 3 10 3q31 0 145 3q4 0 6 -3q3 -3 3 -7q-35 -15 -42 -25.5t0 -38.5q38 -141 74 -228q48 93 98 226q9 25 1.5 36t-40.5 25q-3 1 -5 6z" />
    <glyph glyph-name="z" unicode="z" horiz-adv-x="378" 
d="M275 310h-46q-126 0 -150 -3q-15 -1 -23.5 -12.5t-19.5 -41.5q-3 -10 -6 -10q-5 0 -8 7q-4 7 -1 14q60 125 65 135q1 0 7 -3q3 -3 3 -9v-21q0 -6 19 -6q160 0 228 4q12 1 20 1q9 0 11 -10q-2 -7 -57 -62q-88 -92 -195 -224q-9 -10 3 -14q24 -4 120 -4q60 0 82 7
q10 4 30 33q9 15 13 15q3 0 6 -12q1 -4 -2 -11q-21 -39 -59 -136q-7 2 -11 6q0 2 -0.5 4.5t-0.5 3.5q0 2 5 32q-30 8 -198 7q-22 0 -40 -1t-27.5 -2t-11.5 -1q-3 0 -6 2q-5 3 -7 9q147 140 266 288q11 15 -9 15z" />
    <glyph glyph-name="braceleft" unicode="{" horiz-adv-x="308" 
d="M251 -209q-65 0 -102 36.5t-37 108.5q0 19 11.5 92t11.5 97q0 44 -15.5 66.5t-51.5 36.5q-26 9 -26 20q0 5 4 6q89 22 89 95q0 18 -9 87.5t-9 79.5q0 83 62 125q50 33 86 33q6 0 6 -5q0 -3 -6 -9q-9 -7 -22 -9q-79 -17 -79 -112q0 -31 11.5 -90.5t11.5 -83.5
q0 -36 -28 -67.5t-76 -48.5q61 -29 82.5 -61t21.5 -78q0 -17 -5.5 -44.5t-12 -54.5t-7.5 -31q-6 -37 -6 -64q0 -43 34 -73.5t70 -34.5q11 -2 11 -8q0 -9 -20 -9z" />
    <glyph glyph-name="bar" unicode="|" horiz-adv-x="253" 
d="M100 749h53v-1000h-53v1000z" />
    <glyph glyph-name="braceright" unicode="}" horiz-adv-x="308" 
d="M57 674q64 0 101.5 -37t37.5 -108q0 -19 -11.5 -90.5t-11.5 -95.5q0 -45 14.5 -66t51.5 -35q27 -9 27 -21q0 -5 -4 -5q-89 -22 -89 -100q0 -18 9 -87.5t9 -79.5q0 -84 -61 -124q-50 -34 -87 -34q-6 0 -6 5q0 7 6 11q9 5 22 9q79 18 79 111q0 31 -11.5 90t-11.5 83
q0 38 27 70t76 52q-60 25 -81.5 57.5t-21.5 78.5q0 20 12.5 71t12.5 56q6 47 6 63q0 44 -33.5 74t-69.5 36q-12 2 -12 6q0 10 20 10z" />
    <glyph glyph-name="asciitilde" unicode="~" horiz-adv-x="451" 
d="M147 279q7 0 14 -1t14 -3.5t12 -4t12.5 -6.5t11 -7t11.5 -8.5t10 -8.5t10.5 -9.5t10.5 -8.5q46 -41 70 -41q41 0 41 93q1 1 4.5 1t12 -2.5t19.5 -6.5q0 -127 -85 -127q-33 0 -99 61q-43 39 -75 39q-55 0 -53 -89q-2 -5 -30 -5q-7 0 -7 5q0 52 23 90.5t73 38.5z" />
    <glyph glyph-name="uni00A0" unicode="&#xa0;" horiz-adv-x="157" 
 />
    <glyph glyph-name="exclamdown" unicode="&#xa1;" horiz-adv-x="205" 
d="M161 331q0 -3 -7 -5q-10 -4 -21 -10q-13 -8 -23 -27q-7 -14 -14 -14q-4 0 -8 11q-12 28 -31 37q-12 6 -13 14q-1 3 5 7q19 9 25.5 17t14.5 29q3 6 9 5q8 -1 19 -22q14 -21 33 -30q11 -5 11 -12zM94 -199q-4 0 -9 6q-16 30 -36 46q-6 6 -6 11t5 16q13 42 24 117
q12 77 21 179q0 9 4 11t10 2q3 0 3 -4q0 -40 11 -165q8 -113 25 -142q5 -10 5 -14q0 -3 -3 -6q-34 -32 -44 -52q-3 -5 -10 -5z" />
    <glyph glyph-name="cent" unicode="&#xa2;" horiz-adv-x="442" 
d="M268 492l-28 -316q82 -3 136 47q8 3 8 -3q0 -9 -10 -19q-59 -59 -138 -67l-9 -110q0 -3 -6.5 -6t-12.5 -3t-6 10l10 109q-74 8 -116 51q-43 46 -43 111q0 92 66 152q18 17 59 38t68 28l8 92q2 7 6 8t11 -5.5t7 -11.5l-7 -78q13 1 31 1q21 0 44.5 -9t31.5 -23
q7 -13 -3 -28t-17 -15t-22 15q-24 26 -68 32zM119 324q0 -52 25 -91t71 -51q4 55 13.5 157.5t13.5 152.5q-48 -6 -83 -41q-40 -40 -40 -127z" />
    <glyph glyph-name="sterling" unicode="&#xa3;" horiz-adv-x="442" 
d="M187 312l110 1q24 0 40 6q4 1 2 -8q-14 -33 -58 -33l-103 -1q2 -67 -20 -107.5t-76 -93.5q-3 -3 1 -4h3q72 12 121 -7q54 -21 92 -21q72 0 106 88q5 10 10 10q4 0 4 -12q0 -29 -27.5 -68t-53.5 -57q-37 -24 -79 -24q-41 0 -98 34q-50 28 -76 28q-30 0 -63 -42
q-10 -11 -15 -11q-3 0 -6.5 5.5t-3.5 11.5q0 13 40 48q69 62 69 148q0 48 -5 75l-95 2q-3 0 -4.5 2t0.5 5q15 11 36 17q18 5 59 6q-4 28 -4 68q0 52 28 99q39 61 112 109q40 26 74 26q21 0 41.5 -12.5t20.5 -32.5q0 -12 -13 -25q-8 -6 -12 -6l-9 7q-25 29 -69 29
q-45 0 -71 -42t-25 -117q0 -28 5 -88q1 -8 3 -10.5t9 -2.5z" />
    <glyph glyph-name="currency" unicode="&#xa4;" horiz-adv-x="449" 
d="M58 486q0 4 4 5q-2 2 20 21q5 -4 68 -73q39 25 86 25q44 0 80 -20q22 24 58 60q22 -18 16 -23q-39 -44 -51 -60q16 -15 28.5 -44t12.5 -62q0 -73 -49 -123q8 -10 29.5 -33t29.5 -33q5 -15 -25 -29q-4 5 -20 22t-28.5 30.5t-15.5 16.5q-38 -28 -90 -28q-51 0 -85 26
q-62 -62 -68 -67q-6 3 -12 10.5t-6 13.5q16 24 61 69q-16 15 -26 44t-10 56q0 76 56 127q-20 22 -59 61q-4 4 -4 8zM221 431q-42 0 -67 -23q-43 -36 -43 -108q0 -57 32.5 -92t80.5 -34q36 0 66 25q44 30 44 106q0 56 -30.5 91t-82.5 35z" />
    <glyph glyph-name="yen" unicode="&#xa5;" horiz-adv-x="442" 
d="M42 305l-2 8q-1 3 4 5.5t9 2.5l114 -2q-44 117 -118 239q-16 29 -51 38q-6 1 1 8q3 3 7 3q13 0 37 -1.5t35 -1.5q15 0 42.5 2.5t37.5 2.5q4 0 3.5 -5t-3.5 -7q-24 -9 -32 -16t-3 -19q10 -24 48.5 -105.5t53.5 -115.5q84 160 97 196q12 28 7 37t-43 22q4 9 6 9
q10 0 34 -1.5t34 -0.5q8 0 22.5 1t26 1.5t21.5 0.5q3 0 3.5 -4.5t-1.5 -5.5q-30 -7 -45.5 -19.5t-33.5 -45.5q-72 -120 -117 -212l127 2l-7 -19q-2 -5 -16 -5l-107 1v-77l127 3q1 0 3.5 -3t2.5 -4l-11 -20l-122 1q0 -94 3 -145q2 -16 12 -24t41 -16q16 -5 16 -9v-2
q0 -4 -6 -4q-1 0 -19.5 0.5t-42.5 1t-38 0.5q-13 0 -109 -6q-1 2 -1 7q2 4 6 4q36 11 50.5 19.5t17.5 20.5q5 26 5 152l-123 -1q-6 0 -7 6q-3 6 -1.5 12t4.5 6l128 1v77l-120 -1q-5 0 -7 8z" />
    <glyph glyph-name="brokenbar" unicode="&#xa6;" horiz-adv-x="253" 
d="M100 675h53v-350h-53v350zM100 -175v350h53v-350h-53z" />
    <glyph glyph-name="section" unicode="&#xa7;" horiz-adv-x="411" 
d="M213 541q20 0 40.5 -9t20.5 -22q0 -5 -5 -15t-11 -13q-5 -4 -16 2q-37 22 -62 22q-27 0 -41 -17t-14 -38q0 -17 15 -34q115 -123 139 -156q34 -49 34 -96q0 -62 -37 -119q-44 -67 -92 -105q-30 -24 -57 -24q-23 0 -42 10.5t-19 21.5q0 17 14 31q5 5 13 1q28 -23 56 -23
q41 0 59 29q7 8 7 23q0 13 -15 31q-3 3 -37 42.5t-57 64.5q-69 80 -69 142q0 50 51 121q-1 3 -1 14q-1 24 19 49.5t44 41.5q33 25 63 25zM277 118q0 57 -40 110q-31 44 -94 108q-36 38 -48 57q-20 -27 -20 -69q0 -27 16 -58.5t29.5 -48.5t38.5 -45q50 -54 67 -79.5t25 -54.5
q26 37 26 80z" />
    <glyph glyph-name="dieresis" unicode="&#xa8;" horiz-adv-x="400" 
d="M265 529h8q9 -16 25 -23q3 -2 2.5 -10t-2.5 -9q-15 -7 -23 -30q-1 -3 -10.5 -2t-10.5 6q-5 13 -25 23q-2 1 -2.5 9t1.5 9q17 7 26 26q1 1 11 1zM142 529q5 0 5 -1q13 -17 25 -21q3 0 2.5 -9t-2.5 -11q-14 -8 -24 -29q-1 -3 -8.5 -3t-9.5 3q-8 20 -24 21q-2 1 -3.5 9
t1.5 11q17 12 21 21l2 6t15 3z" />
    <glyph glyph-name="copyright" unicode="&#xa9;" horiz-adv-x="654" 
d="M328 614q126 0 208 -84.5t82 -209.5q0 -126 -84 -213.5t-207 -87.5q-129 0 -210 85.5t-81 210.5q0 128 84 213.5t208 85.5zM327 592q-117 0 -190.5 -79.5t-73.5 -196.5t75 -197t190 -80q113 0 188 80.5t75 196.5q0 118 -73.5 197t-190.5 79zM170 313q0 66 44 110
q30 30 88 47q30 8 57 8q21 0 61 -9q11 -2 26 3q7 4 11 0q3 -4 1 -7q-8 -17 -9 -42t1 -44q0 -4 -8 1q-2 1 -2 2q-9 37 -35 58t-63 21q-39 0 -75.5 -36.5t-36.5 -108.5q0 -53 29.5 -99t88.5 -46q61 0 104 69q7 -1 7 -10q-2 -15 -13 -42.5t-15 -27.5q-6 0 -33.5 -3t-47.5 -3
q-89 0 -134.5 48t-45.5 111z" />
    <glyph glyph-name="ordfeminine" unicode="&#xaa;" horiz-adv-x="245" 
d="M21 367q0 19 27 32q30 17 97 30q6 64 -7 79q-10 10 -30 10q-10 0 -18 -2q-4 -1 -4 -28q0 -6 -4 -7l-34 -10q-6 -2 -10 -2q-7 0 -7 8q0 7 7 14q7 10 30 25t37 20q20 7 30 7q23 0 41.5 -14.5t18.5 -38.5q0 -12 -2 -51t-1 -63q0 -41 15 -41q3 0 10.5 3t13.5 6l6 2
q2 0 4.5 -2.5t2.5 -3.5q0 -12 -3 -13q-7 -4 -32.5 -11t-40.5 -8q-20 0 -25 30q-63 -25 -70 -25q-20 0 -36 13t-16 41zM143 361l2 53q-41 -7 -63 -22q-6 -5 -6 -20q0 -13 8.5 -22.5t22.5 -9.5q21 0 36 21z" />
    <glyph glyph-name="guillemotleft" unicode="&#xab;" horiz-adv-x="380" 
d="M307 338q4 0 12.5 -8t10.5 -13q0 -4 -5 -11q-68 -72 -108 -122q18 -22 54.5 -64.5t47.5 -56.5q5 -5 1 -8q-20 -15 -26 -19q-62 72 -117 141q-3 5 10 22q18 21 55 66.5t57 68.5q3 4 8 4zM157 333q2 0 12 -6t13 -10q4 -3 -2 -9q-56 -66 -94 -119q48 -62 95 -117q5 -7 0 -12
l-14 -13q-9 -6 -16 1q-92 119 -102 134q-5 5 0 14q18 25 53 70.5t47 61.5q4 5 8 5z" />
    <glyph glyph-name="logicalnot" unicode="&#xac;" horiz-adv-x="481" 
d="M56 271l-1 13q-1 15 3 15l327 -1q40 0 40 -9l3 -231q0 -8 -7 -9l-34 -2l1 188q0 18 -8.5 22.5t-30.5 4.5l-282 -1q-9 0 -11 10z" />
    <glyph glyph-name="uni00AD" unicode="&#xad;" horiz-adv-x="249" 
d="M36 167q0 17 16 29q20 14 157 55q11 4 13 -1q3 -5 2 -10q-13 -42 -19 -44q-141 -31 -163 -37q-2 -1 -4 1t-2 7z" />
    <glyph glyph-name="registered" unicode="&#xae;" horiz-adv-x="146" 
d="M79 583q29 0 47.5 -17t18.5 -45q0 -27 -19.5 -45.5t-46.5 -18.5q-28 0 -46 18.5t-18 45.5q0 26 18.5 44t45.5 18zM79 572q-23 0 -37 -14t-14 -37t15 -38t37 -15t36.5 15t14.5 38q0 22 -15 36.5t-37 14.5zM50 492l-1 3q0 1 1 2q6 4 6 7q2 17 0 34q0 4 -4 6t-4 3v2q0 1 1 1
q6 0 12.5 0.5t7.5 0.5t4 0.5t5 0.5q26 0 26 -18q0 -7 -9 -14q6 -20 19 -26q1 -2 1 -4t-1 -2q-8 0 -12 2q-13 3 -20 20q-2 5 -11 5v-12q1 -3 7 -5q3 -1 1 -3l-1 -3h-14q-8 0 -12 -1q-2 0 -2 1zM88 535q0 3 -3.5 6.5t-7.5 3.5q-3 0 -4 -1q-2 0 -2 -2v-9v-11q9 0 13 3t4 10z
" />
    <glyph glyph-name="macron" unicode="&#xaf;" horiz-adv-x="400" 
d="M117 482l-3 20q0 5 6 5h162q3 -12 3 -26q0 -10 -11 -10h-145q-12 0 -12 11z" />
    <glyph glyph-name="degree" unicode="&#xb0;" horiz-adv-x="249" 
d="M133 623q34 0 59 -25t25 -62q0 -58 -47 -86q-24 -14 -52 -14q-37 0 -61 26t-24 63q0 36 19 59q31 39 81 39zM120 597q-23 0 -37 -17t-14 -43q0 -31 17.5 -53.5t44.5 -21.5q23 0 36.5 18.5t13.5 43.5q0 29 -16.5 51t-44.5 22z" />
    <glyph glyph-name="plusminus" unicode="&#xb1;" horiz-adv-x="481" 
d="M228 440h27q7 0 8 -2t1 -11l-2 -156h161q5 0 6 -10l1 -24q-3 -1 -56 -1h-112q0 -28 0.5 -85.5t0.5 -85.5q0 -5 -22 -1l-10 1q-8 3 -8 14l1 157h-165q-6 6 -6 29q0 6 6 6h165l-1 158q0 11 5 11zM51 -11l2 29q1 7 7 7l370 -1q2 -4 -5 -36z" />
    <glyph glyph-name="twosuperior" unicode="&#xb2;" 
d="M133 706q35 0 58 -25t23 -60q0 -39 -31 -77q-19 -23 -85 -79q-3 -2 -2.5 -4.5t4.5 -2.5q58 0 94 3q3 0 5.5 1t4.5 2t4 3l3.5 3.5t3.5 4.5t3.5 5t4 6t3.5 6q2 5 4 3q3 -1 5 -4.5t1 -5.5q-2 -7 -18 -39t-18 -32q-105 3 -167 3q-7 0 -3 8q5 10 15 20q42 26 81.5 73t39.5 88
q0 21 -14.5 39t-40.5 18q-37 0 -59 -39q-4 -4 -9 -4t-4 4q11 38 30 55q29 27 64 27z" />
    <glyph glyph-name="threesuperior" unicode="&#xb3;" 
d="M140 705q29 0 49 -19t19 -47q0 -31 -54 -69q73 -14 73 -71q0 -45 -56 -81q-38 -23 -85 -25q-29 0 -38 9q-4 3 -3 6q1 6 5 6q52 2 87.5 19.5t35.5 55.5q0 23 -16.5 34.5t-38.5 11.5q-24 0 -36 -3q-6 -2 -6 5q0 5 7 11.5t17 9.5q65 21 65 66q0 16 -12.5 29t-34.5 12
q-32 0 -66 -39q-6 2 -6 9q0 5 4 12q39 58 90 58z" />
    <glyph glyph-name="acute" unicode="&#xb4;" horiz-adv-x="400" 
d="M244 567q16 0 35 -17q6 -4 1 -9q-90 -98 -102 -111q-3 -3 -7 2l-5 4q4 6 14.5 26t18.5 35.5t18 33t17 27t10 9.5z" />
    <glyph glyph-name="mu" unicode="&#xb5;" horiz-adv-x="443" 
d="M178 -14q-49 0 -69 39q-6 -217 -11 -260q-1 -12 -21.5 -25t-30.5 -13q-6 0 -7 3.5t0 15.5q18 169 19 348q3 238 -2 264q25 18 66 18q8 0 8 -10q0 -16 -3 -70q-7 -75 -7 -166q0 -51 23 -71q20 -20 62 -20q21 0 48 14.5t39 36.5q12 25 12 100q0 78 -1 114q-2 59 7 64
q9 1 12.5 1.5t21 -1.5t25.5 -3q4 -2 0.5 -85.5t-3.5 -89.5v-76q0 -78 30 -78q23 0 42 43q10 -2 8 -9q-2 -28 -24.5 -57.5t-57.5 -30.5q-60 4 -69 86q-14 -17 -41 -41.5t-42 -32.5q-13 -8 -34 -8z" />
    <glyph glyph-name="paragraph" unicode="&#xb6;" horiz-adv-x="567" 
d="M35 301q0 119 67 198q87 102 264 102q32 0 75 -5q8 -3 0 -14q-10 -9 -32 -7q-31 2 -69 2q-10 0 -13 -14q-8 -50 -8 -474q0 -46 12 -49q10 -3 83 -3q25 0 25 -5q0 -8 -16 -12q-13 -5 -67 -5q-145 0 -224 66q-97 77 -97 220zM193 302q0 -184 35 -229q19 -23 49 -30
q12 -2 13 12q5 57 5 477q-2 41 -10 41q-19 -2 -34 -11q-26 -15 -37 -56q-21 -67 -21 -204z" />
    <glyph glyph-name="periodcentered" unicode="&#xb7;" horiz-adv-x="205" 
d="M106 258q3 0 12 -21q7 -17 30 -30q10 -6 10 -12q0 -3 -5 -5q-20 -7 -25.5 -13.5t-17.5 -35.5q-2 -6 -7 -6q-7 0 -26 35q-4 10 -26 19q-11 5 -11 12q0 5 17 12q15 6 20.5 11t14.5 20q7 14 14 14z" />
    <glyph glyph-name="cedilla" unicode="&#xb8;" horiz-adv-x="400" 
d="M216 1h21l-35 -50q51 -13 51 -44q0 -25 -32.5 -49.5t-53.5 -30.5l-12 10q19 9 37 25.5t18 26.5q0 11 -8.5 17t-31.5 11q-10 3 -10 6q0 7 4 12q1 1 11.5 14.5t22.5 28.5t18 23z" />
    <glyph glyph-name="onesuperior" unicode="&#xb9;" 
d="M173 436l39 -4q1 -3 -2 -9.5t-6 -6.5q-82 0 -136 -8q-9 0 -4 5q8 9 41 19q3 1 4.5 6.5t2.5 29.5t1 77q0 86 -2 98q0 9 -9 9q-4 0 -19.5 -1t-23.5 -1q-4 5 -4.5 5.5t1.5 2.5q27 8 59.5 23.5t41.5 22.5q3 2 6 0t2 -5q-5 -60 -5 -128q0 -86 6 -122q1 -13 7 -13z" />
    <glyph glyph-name="ordmasculine" unicode="&#xba;" horiz-adv-x="282" 
d="M149 537q40 0 74 -30.5t34 -82.5q0 -59 -51 -92q-38 -23 -72 -23q-52 0 -84 37q-25 32 -25 74q0 65 57 97q36 20 67 20zM130 518q-19 0 -34 -20.5t-15 -66.5q0 -54 27 -81q16 -20 45 -20q22 0 36 22.5t14 57.5q0 61 -28 88q-20 20 -45 20z" />
    <glyph glyph-name="guillemotright" unicode="&#xbb;" horiz-adv-x="379" 
d="M74 35q-4 0 -11.5 8t-10.5 13q0 4 4 10q83 94 106 123q-24 29 -61.5 73t-38.5 45q-5 8 -4 9q3 3 14.5 11.5t13.5 10.5q65 -76 117 -141q4 -6 -10 -22q-15 -18 -52.5 -65t-58.5 -71q-3 -4 -8 -4zM224 41q-3 0 -11.5 5.5t-11.5 9.5q-1 2 -1 5t1 4q63 77 93 119
q-87 108 -96 118q-1 1 -1.5 4.5t0.5 4.5l17 16q7 6 16 -1q6 -8 48 -62.5t54 -71.5q5 -6 0 -15q-17 -23 -51 -67.5t-49 -64.5q-4 -4 -8 -4z" />
    <glyph glyph-name="onequarter" unicode="&#xbc;" horiz-adv-x="576" 
d="M450 619q8 0 17 -13q-194 -296 -355 -569q-3 -4 -9 -1q-10 5 -12 17q114 187 346 557q6 9 13 9zM166 336l39 -2q1 -3 -2 -10t-6 -7q-73 0 -136 -8q-3 0 -4.5 2t0.5 4q8 9 41 18q3 1 4.5 6.5t2.5 29.5t1 76q0 86 -2 98q0 9 -9 9q-4 0 -19.5 -1.5t-23.5 -1.5q-5 8 -3 9
q27 8 59.5 23.5t41.5 22.5q3 2 6.5 0t2.5 -5q-6 -72 -6 -128q0 -86 6 -122q1 -13 7 -13zM414 142l-138 5q0 15 3 21q26 35 74 89t65 71q2 2 7 6.5t8.5 7t9 6t10 5.5t9.5 2q6 0 5 -48q0 -22 -0.5 -67t-1.5 -65q28 0 38 4t21 19l2 -2q2 -1 3.5 -3.5t1.5 -3.5q-4 -15 -6 -21.5
t-6 -14.5t-8 -10.5t-9 -2.5h-37q0 -41 2 -87q-5 -3 -25 -6t-25 -3q-7 0 -7 9zM316 174h100l5 131q-63 -68 -105 -131z" />
    <glyph glyph-name="onehalf" unicode="&#xbd;" horiz-adv-x="576" 
d="M451 619q7 0 16 -13q-194 -296 -355 -569q-3 -4 -9 -1q-10 5 -12 17q114 187 346 557q7 9 14 9zM164 336l39 -2q1 -3 -2 -10t-6 -7q-73 0 -136 -8q-3 0 -4.5 2t0.5 4q8 9 41 18q3 1 4.5 6.5t2.5 29.5t1 76q0 86 -2 98q0 9 -9 9q-4 0 -19.5 -1.5t-23.5 -1.5q-5 8 -3 9
q27 8 59.5 23.5t41.5 22.5q3 2 6.5 0t2.5 -5q-6 -72 -6 -128q0 -86 6 -122q1 -13 7 -13zM430 351q35 0 58 -25t23 -60q0 -39 -31 -77q-21 -26 -86 -78q-2 -2 -1.5 -4.5t4.5 -2.5q58 0 94 3q3 0 5.5 1t5.5 3l4.5 3t4 5t3.5 5.5l4 6t4 6.5q1 3 4 3q3 -1 5.5 -4.5t1.5 -5.5
q-2 -7 -18 -39.5t-18 -32.5q-86 2 -168 4q-6 0 -3 8q8 16 16 22q43 27 82 72.5t39 86.5q0 23 -14 40.5t-40 17.5q-37 0 -59 -40q-4 -4 -10 -4q-5 0 -4 4q11 40 30 55q29 27 64 27z" />
    <glyph glyph-name="threequarters" unicode="&#xbe;" horiz-adv-x="576" 
d="M454 619q10 0 16 -13q-212 -326 -354 -569q-3 -5 -10 -1q-8 4 -11 17q150 244 346 557q6 9 13 9zM142 605q29 0 49 -18t19 -47q0 -13 -8.5 -25.5t-16.5 -18.5t-30 -22q76 -16 76 -75q0 -49 -57 -83q-30 -21 -83 -23q-30 0 -43 10q-5 3 -4 7q0 6 5 6q54 -2 91 16t37 58
q0 25 -16 37.5t-38 12.5q-16 0 -36 -4q-7 -3 -7 4q0 16 26 23q61 23 61 63q0 15 -12.5 27.5t-33.5 11.5q-32 0 -65 -39q-8 2 -8 9q0 2 4 12q38 58 90 58zM416 142l-138 5q0 16 4 21q35 48 139 160q2 2 7 6.5t8.5 7t9 6t10 5.5t9.5 2q6 0 5 -49q-3 -128 -3 -131q29 0 38 4
t21 19l2 -2q2 -1 4 -3.5t2 -3.5q-14 -42 -23 -47q-3 -2 -7 -2h-37q0 -41 2 -87q-5 -3 -24.5 -6t-24.5 -3q-3 0 -5.5 3t-2.5 6zM318 174h101l5 131q-54 -57 -106 -131z" />
    <glyph glyph-name="questiondown" unicode="&#xbf;" horiz-adv-x="270" 
d="M183 264q-6 0 -8.5 2t-8.5 12q-14 19 -24 25q-13 6 -14 11q-1 8 11 17q17 12 30 35q6 12 15 12q2 0 8 -11q12 -22 25 -30q17 -11 19 -15q4 -8 -5 -12q-29 -15 -37 -32q-8 -14 -11 -14zM132 -193q-42 0 -73 43t-31 82q0 56 26 119q21 47 61 50q26 4 59 4q22 0 29 13.5
t6 58.5q1 1 3 2.5t3 2.5q6 4 6 -2q4 -12 11.5 -47t7.5 -57q0 -10 -14.5 -27t-19.5 -17q-16 -1 -43 -1q-56 0 -85.5 -14.5t-29.5 -53.5q0 -81 108 -82q6 0 15.5 -7t9.5 -15q0 -19 -15 -35.5t-34 -16.5z" />
    <glyph glyph-name="Agrave" unicode="&#xc0;" horiz-adv-x="665" 
d="M336 646q7 0 10 -14q19 -60 87 -234q71 -184 124 -299q2 -4 6.5 -14.5t6.5 -14.5t6.5 -12.5t7.5 -12.5t8 -10.5t10 -10t12 -7.5t15 -7t18 -5q1 -1 -0.5 -6t-2.5 -5q-31 0 -69 1.5t-50 1.5q-19 0 -49.5 -2t-33.5 -2q-4 0 -5 3q-1 2 -1 7q40 13 47 28.5t-6 51.5
q-33 93 -49 134q-7 20 -18 20q-115 2 -211 -5q-17 0 -22 -15q-50 -120 -51 -158q0 -17 12.5 -28t50.5 -24q2 -3 0.5 -6.5t-4.5 -4.5q-23 1 -51.5 2.5t-38.5 1.5q-15 0 -40 -2t-30 -2q-9 0 -9 3q-2 5 -1 8q32 10 45 25.5t39 73.5q19 41 86.5 203t107.5 264q15 39 21 57
q2 8 6 10q12 6 16 6zM220 265q1 0 11 -0.5t28.5 -0.5h39.5q50 0 94 2q16 0 11 14q-53 146 -92 238q-2 6 -5 7.5t-5 0t-4 -5.5q-56 -133 -97 -243q-5 -12 19 -12zM260 760q12 0 102 -85q1 -3 -2.5 -6t-6.5 -3q-19 6 -127 54q-4 2 -4 6.5t4 8.5q5 8 17 16.5t17 8.5z" />
    <glyph glyph-name="Aacute" unicode="&#xc1;" horiz-adv-x="665" 
d="M336 646q7 0 10 -14q19 -60 87 -234q71 -184 124 -299q2 -4 6.5 -14.5t6.5 -14.5t6.5 -12.5t7.5 -12.5t8 -10.5t10 -10t12 -7.5t15 -7t18 -5q1 -1 -0.5 -6t-2.5 -5q-31 0 -69 1.5t-50 1.5q-19 0 -49.5 -2t-33.5 -2q-4 0 -5 3q-1 2 -1 7q40 13 47 28.5t-6 51.5
q-33 93 -49 134q-7 20 -18 20q-115 2 -211 -5q-17 0 -22 -15q-50 -120 -51 -158q0 -17 12.5 -28t50.5 -24q2 -3 0.5 -6.5t-4.5 -4.5q-23 1 -51.5 2.5t-38.5 1.5q-15 0 -40 -2t-30 -2q-9 0 -9 3q-2 5 -1 8q32 10 45 25.5t39 73.5q19 41 86.5 203t107.5 264q15 39 21 57
q2 8 6 10q12 6 16 6zM220 265q1 0 11 -0.5t28.5 -0.5h39.5q50 0 94 2q16 0 11 14q-53 146 -92 238q-2 6 -5 7.5t-5 0t-4 -5.5q-56 -133 -97 -243q-5 -12 19 -12zM396 758q8 0 21.5 -9t19.5 -17q2 -2 1 -5t-4 -4q-7 -4 -70.5 -28t-69.5 -27q-3 1 -5.5 4t-2.5 5t1 3
q58 48 104 75z" />
    <glyph glyph-name="Acircumflex" unicode="&#xc2;" horiz-adv-x="665" 
d="M336 646q7 0 10 -14q19 -60 87 -234q71 -184 124 -299q2 -4 6.5 -14.5t6.5 -14.5t6.5 -12.5t7.5 -12.5t8 -10.5t10 -10t12 -7.5t15 -7t18 -5q1 -1 -0.5 -6t-2.5 -5q-31 0 -69 1.5t-50 1.5q-19 0 -49.5 -2t-33.5 -2q-4 0 -5 3q-1 2 -1 7q40 13 47 28.5t-6 51.5
q-33 93 -49 134q-7 20 -18 20q-115 2 -211 -5q-17 0 -22 -15q-50 -120 -51 -158q0 -17 12.5 -28t50.5 -24q2 -3 0.5 -6.5t-4.5 -4.5q-23 1 -51.5 2.5t-38.5 1.5q-15 0 -40 -2t-30 -2q-9 0 -9 3q-2 5 -1 8q32 10 45 25.5t39 73.5q19 41 86.5 203t107.5 264q15 39 21 57
q2 8 6 10q12 6 16 6zM220 265q1 0 11 -0.5t28.5 -0.5h39.5q50 0 94 2q16 0 11 14q-53 146 -92 238q-2 6 -5 7.5t-5 0t-4 -5.5q-56 -133 -97 -243q-5 -12 19 -12zM339 767q3 0 14.5 -11.5t33 -34t35.5 -35.5q5 -7 1 -10q-10 -7 -17 -8q-8 5 -36.5 27.5t-36.5 27.5
q-6 -3 -24 -16t-32.5 -23t-17.5 -10q-12 0 -24 5q-3 1 -3.5 4t1.5 4q30 27 80 63q20 17 26 17z" />
    <glyph glyph-name="Atilde" unicode="&#xc3;" horiz-adv-x="665" 
d="M336 646q5 0 10 -14q19 -60 87 -234q75 -196 123 -299q1 -3 6 -13t6 -13t5.5 -11.5t6.5 -11.5t7 -10t8.5 -10t9.5 -7.5t12 -7t13.5 -5.5t16.5 -5q1 -1 -0.5 -6t-2.5 -5q-32 0 -70 1.5t-50 1.5q-19 0 -49 -2t-33 -2q-4 0 -5 3q-1 2 -1 7q39 13 46.5 28.5t-5.5 51.5
q-8 24 -49 134q-7 20 -18 20q-116 2 -212 -5q-16 0 -21 -15q-50 -120 -51 -158q0 -17 12.5 -28t50.5 -24q4 -8 -4 -11q-23 1 -51.5 2.5t-38.5 1.5q-15 0 -40 -2t-30 -2q-9 0 -9 3q-3 3 -1 8q31 10 44 25t40 74q19 41 86.5 203t107.5 264q7 19 20 57q1 7 7 10q9 6 16 6z
M220 265q1 0 11 -0.5t28 -0.5h39q51 0 95 2q16 0 11 14q-68 180 -92 238q-8 17 -14 2q-56 -133 -97 -243q-5 -12 19 -12zM309 741q11 0 34 -5t35 -5q23 0 45 24q10 -7 8 -10q-2 -5 -23 -25t-28 -24q-13 -7 -41 -4q-42 7 -51 7q-21 0 -37 -22q-3 -3 -11 -3q-4 0 -3 4
q12 22 19 32t21.5 20.5t31.5 10.5z" />
    <glyph glyph-name="Adieresis" unicode="&#xc4;" horiz-adv-x="665" 
d="M336 646q7 0 10 -14q19 -60 87 -234q44 -115 123 -299q1 -3 6 -13t6 -13t5.5 -11.5t6.5 -11.5t7 -10t8.5 -10t9.5 -7.5t12 -7t13.5 -5.5t16.5 -5q1 -1 -0.5 -6t-2.5 -5q-31 0 -69 1.5t-50 1.5q-20 0 -50 -2t-33 -2q-4 0 -5 3q-1 2 -1 7q39 13 46.5 28.5t-5.5 51.5
q-8 24 -49 134q-7 20 -18 20q-116 2 -212 -5q-16 0 -21 -15q-50 -120 -51 -158q0 -17 12.5 -28t50.5 -24q4 -8 -4 -11q-23 1 -51.5 2.5t-38.5 1.5q-15 0 -40 -2t-30 -2q-9 0 -9 3q-3 3 -1 8q31 10 44 25t40 74q19 41 86.5 203t107.5 264q16 41 20 57q3 8 7 10q9 6 16 6z
M220 265q1 0 11 -0.5t28 -0.5h39q51 0 95 2q16 0 11 14q-53 146 -92 238q-2 6 -5 7.5t-5 0t-4 -5.5q-56 -133 -97 -243q-5 -12 19 -12zM407 752h9q8 -17 24 -23q3 -2 2.5 -10t-2.5 -9q-15 -7 -22 -30q-1 -3 -11 -2t-11 6q-3 11 -25 23q-2 1 -2.5 9t1.5 9q12 5 16.5 9t9.5 17
q1 1 11 1zM265 752q5 0 5 -1q10 -16 25 -22q3 0 2.5 -8.5t-2.5 -10.5q-14 -8 -24 -29q-1 -3 -9 -3t-9 3q-8 20 -24 21q-2 1 -3.5 9t1.5 11q7 4 9 5.5t5.5 5t5 7t3.5 9.5q2 3 15 3z" />
    <glyph glyph-name="Aring" unicode="&#xc5;" horiz-adv-x="665" 
d="M336 646q5 0 10 -14q19 -60 87 -234q75 -196 123 -299q2 -3 6 -13t5.5 -13.5t6 -11.5t6.5 -11.5t7 -10t8.5 -9.5t9.5 -7.5t11.5 -7t13 -5.5t16.5 -5q2 -1 0.5 -6t-3.5 -5q-31 0 -69 1.5t-50 1.5q-19 0 -49 -2t-33 -2q-4 0 -5 3q-2 4 -2 7q40 13 47.5 28.5t-5.5 51.5
q-8 24 -49 134q-8 20 -18 20q-116 2 -212 -5q-16 0 -21 -15q-50 -120 -51 -158q-1 -17 11.5 -28t51.5 -24q4 -8 -4 -11q-23 1 -52 2.5t-39 1.5q-15 0 -39.5 -2t-29.5 -2q-9 0 -9 3q-3 3 -1 8q31 10 44 25t40 74q19 41 86.5 203t107.5 264q16 41 20 57q3 8 7 10q9 6 16 6z
M220 265q1 0 11 -0.5t28 -0.5h39q49 0 95 2q16 0 11 14q-68 180 -92 238q-2 6 -5 7.5t-5 0t-4 -5.5q-63 -149 -97 -243q-5 -12 19 -12zM334 775q23 0 39 -16t16 -40q0 -33 -33 -52q-21 -11 -31 -11q-23 0 -39 15t-16 38q0 42 41 59q15 7 23 7zM327 754q-12 0 -21 -9.5
t-9 -23.5q0 -41 37 -43q15 -1 22 9t7 26q0 19 -11 30t-25 11z" />
    <glyph glyph-name="AE" unicode="&#xc6;" horiz-adv-x="904" 
d="M300 624l3 8q5 0 77.5 -2t137.5 -2h110q28 0 88.5 3t84.5 3q23 0 27 -6t3 -16q-10 -58 -10 -112q-5 0 -7 1q-6 1 -7 7q-13 61 -30 80.5t-67 19.5h-80q-74 0 -95 -7q-11 -4 -11 -37q0 -37 0.5 -112.5t0.5 -122.5q0 -19 13 -19h31q89 0 127 2q41 2 55.5 11.5t33.5 48.5
q4 2 6 2l6 -2q-10 -82 -1 -160q1 -2 -0.5 -3t-6.5 -1q-6 0 -8 7q-8 22 -16 38q-12 25 -65 29q-10 1 -105 1q-50 0 -62 -3q-10 -8 -10 -130q0 -83 8 -100q7 -16 30 -23t86 -6q114 0 152.5 21.5t63.5 101.5q5 1 8 -3q2 -1 2 -11q0 -20 -9.5 -62t-19.5 -63q-5 -8 -12 -8
q-14 0 -46 1q-62 2 -162 2q-43 0 -237 -7q-4 1 -2 8q1 2 3 4q33 11 44 18.5t12 19.5q7 58 7 222q0 11 -2 13.5t-10 3.5q-73 3 -166 -1q-16 0 -25 -13q-64 -105 -92 -173q-16 -38 -7 -56t56 -30q1 -3 -1 -7.5t-4 -4.5q-99 3 -110 3q-17 0 -42.5 -1.5t-26.5 -1.5q-7 0 -9 3v8
q35 10 59 31t52 69q194 330 265 455q12 22 9.5 30t-18.5 11q-18 4 -68 13q-8 2 -10 3.5t-1 3.5zM293 310h149q7 2 8 4.5t1 17.5l3 261q0 10 -10 4q-7 -6 -15 -17q-71 -108 -147 -254q-4 -8 -0.5 -12t11.5 -4z" />
    <glyph glyph-name="Ccedilla" unicode="&#xc7;" horiz-adv-x="628" 
d="M392 -18l-21 -31q51 -13 51 -44q0 -25 -32.5 -49.5t-53.5 -30.5l-12 10q19 8 37 25t18 27q0 11 -8.5 17t-31.5 12q-10 2 -10 6t4 11q24 32 37 48q-85 2 -152 32t-105.5 77.5t-58.5 102.5t-20 113q0 136 81 228q55 62 168 94q57 16 137 16q67 0 131 -22q16 -5 41 11
q1 1 3 0l2 -1q4 -4 3 -5q-27 -63 -16 -134q0 -4 -5 -5q-8 0 -10 6q-10 44 -20 58q-15 22 -35 36q-47 35 -130 35q-119 0 -192 -94q-67 -83 -67 -228q0 -34 8 -71.5t28.5 -78.5t50.5 -73t79 -53t110 -21q80 0 141 53q24 22 48 68q4 5 7 0q5 -5 4 -14q-15 -65 -45 -107
q-8 -10 -16 -10q-11 1 -61.5 -6.5t-86.5 -7.5z" />
    <glyph glyph-name="Egrave" unicode="&#xc8;" horiz-adv-x="549" 
d="M192 331h28q69 0 129 3q41 2 56 10.5t34 46.5q3 3 12 1q0 -8 -3.5 -38.5t-3.5 -47.5q0 -15 1.5 -30t3 -28t1.5 -17t-7 -4q-6 0 -8 7q-10 29 -16 39q-16 29 -65 33q-21 2 -106 2q-35 0 -55 -5q-5 -1 -8 -7q-9 -27 -9 -127q0 -101 8 -119q8 -16 30.5 -22t85.5 -6
q110 0 149.5 21t68.5 101q1 1 7 -3q2 -1 2 -5q-3 -68 -29 -131q-5 -8 -12 -8q-14 0 -46 1q-62 2 -162 2q-70 0 -238 -8q-4 2 -1 7q1 3 4 5q31 10 42.5 18.5t12.5 20.5q6 66 6 188v168q0 138 -5 185q-2 16 -14 23q-16 9 -48 13q-3 2 -3 6l1 2q0 3 13 3h28q12 0 51.5 -1.5
t71.5 -1.5h83q28 0 88.5 3t84.5 3q23 0 27 -6q4 -7 2 -16q-9 -58 -9 -112q-12 0 -14 8q-12 63 -29.5 81.5t-68.5 18.5h-79q-67 0 -95 -7q-7 -2 -9 -9t-2 -28q0 -39 0.5 -109.5t0.5 -104.5q0 -19 13 -19zM220 754q11 0 103 -85q0 -3 -3.5 -6t-6.5 -3q-16 6 -126 54
q-4 2 -4.5 6.5t3.5 8.5q6 8 18 16.5t16 8.5z" />
    <glyph glyph-name="Eacute" unicode="&#xc9;" horiz-adv-x="549" 
d="M192 331h28q69 0 129 3q41 2 56 10.5t34 46.5q3 3 12 1q0 -8 -3.5 -38.5t-3.5 -47.5q0 -15 1.5 -30t3 -28t1.5 -17t-7 -4q-6 0 -8 7q-10 29 -16 39q-16 29 -65 33q-21 2 -106 2q-35 0 -55 -5q-5 -1 -8 -7q-9 -27 -9 -127q0 -101 8 -119q8 -16 30.5 -22t85.5 -6
q110 0 149.5 21t68.5 101q1 1 7 -3q2 -1 2 -5q-3 -68 -29 -131q-5 -8 -12 -8q-14 0 -46 1q-62 2 -162 2q-70 0 -238 -8q-4 2 -1 7q1 3 4 5q31 10 42.5 18.5t12.5 20.5q6 66 6 188v168q0 138 -5 185q-2 16 -14 23q-16 9 -48 13q-3 2 -3 6l1 2q0 3 13 3h28q12 0 51.5 -1.5
t71.5 -1.5h83q28 0 88.5 3t84.5 3q23 0 27 -6q4 -7 2 -16q-9 -58 -9 -112q-12 0 -14 8q-12 63 -29.5 81.5t-68.5 18.5h-79q-67 0 -95 -7q-7 -2 -9 -9t-2 -28q0 -39 0.5 -109.5t0.5 -104.5q0 -19 13 -19zM347 758q9 0 22 -9t19 -17q6 -6 -2 -9q-6 -3 -69.5 -27t-71.5 -28
q-13 8 -7 12q58 48 104 75z" />
    <glyph glyph-name="Ecircumflex" unicode="&#xca;" horiz-adv-x="549" 
d="M192 331h28q69 0 129 3q41 2 56 10.5t34 46.5q3 3 12 1q0 -8 -3.5 -38.5t-3.5 -47.5q0 -15 1.5 -30t3 -28t1.5 -17t-7 -4q-6 0 -8 7q-10 29 -16 39q-16 29 -65 33q-21 2 -106 2q-35 0 -55 -5q-5 -1 -8 -7q-9 -27 -9 -127q0 -101 8 -119q8 -16 30.5 -22t85.5 -6
q110 0 149.5 21t68.5 101q1 1 7 -3q2 -1 2 -5q-3 -68 -29 -131q-5 -8 -12 -8q-14 0 -46 1q-62 2 -162 2q-70 0 -238 -8q-4 2 -1 7q1 3 4 5q31 10 42.5 18.5t12.5 20.5q6 66 6 188v168q0 138 -5 185q-2 16 -14 23q-16 9 -48 13q-3 2 -3 6l1 2q0 3 13 3h28q12 0 51.5 -1.5
t71.5 -1.5h83q28 0 88.5 3t84.5 3q23 0 27 -6q4 -7 2 -16q-9 -58 -9 -112q-12 0 -14 8q-12 63 -29.5 81.5t-68.5 18.5h-79q-67 0 -95 -7q-7 -2 -9 -9t-2 -28q0 -39 0.5 -109.5t0.5 -104.5q0 -19 13 -19zM293 767q3 0 14.5 -11.5t33 -34t35.5 -35.5q5 -7 2 -10q-15 -8 -18 -8
q-6 4 -34.5 26.5t-38.5 28.5q-6 -3 -24 -16t-32.5 -23t-17.5 -10q-12 0 -24 5q-3 1 -3.5 4t1.5 4q30 27 80 63q20 17 26 17z" />
    <glyph glyph-name="Edieresis" unicode="&#xcb;" horiz-adv-x="549" 
d="M191 331h28q69 0 130 3q40 2 55.5 11t33.5 46q4 4 12 1q0 -8 -3.5 -38.5t-3.5 -47.5q0 -15 1.5 -30t3 -28t1.5 -17q1 -2 -1 -3t-6 -1t-8 7q-4 16 -15 39q-16 29 -66 33q-20 2 -105 2q-35 0 -55 -5q-6 -2 -9 -7q-8 -48 -8 -127q0 -101 8 -119q7 -16 29.5 -22t86.5 -6
q110 0 148.5 21t68.5 101q3 1 7 -3q2 -1 2 -5q-3 -74 -29 -131q-5 -8 -12 -8q-14 0 -46 1q-62 2 -162 2q-69 0 -237 -8q-4 2 -1 7q1 3 4 5q31 10 42.5 18.5t12.5 20.5q6 66 6 188v168q0 138 -5 185q-2 16 -14 23q-16 9 -48 13q-3 2 -3 6l1 2q0 3 13 3h28q12 0 51.5 -1.5
t71.5 -1.5h83q28 0 88.5 3t83.5 3q22 0 27 -6q4 -6 3 -16q-10 -58 -10 -112q-11 0 -14 8q-12 63 -29 81.5t-68 18.5h-80q-67 0 -95 -7q-10 -4 -10 -37q0 -39 0.5 -109.5t0.5 -104.5q0 -19 12 -19zM355 746h9q7 -16 24 -23q4 -2 3.5 -10t-3.5 -9q-15 -7 -22 -30q-1 -3 -11 -2
t-11 6q-3 12 -25 23q-2 1 -2.5 9t1.5 9q12 5 16.5 9.5t9.5 16.5q1 1 11 1zM213 746q5 0 5 -1q10 -16 25 -22q3 0 2.5 -8.5t-2.5 -10.5q-14 -8 -24 -29q-1 -3 -9 -3t-9 3q-8 20 -23 21q-3 1 -4 9t2 11q8 6 11 8t6 7t5 12q2 3 15 3z" />
    <glyph glyph-name="Igrave" unicode="&#xcc;" horiz-adv-x="303" 
d="M266 629l1 -6q-41 -9 -56 -19t-17 -26q-7 -35 -7 -174v-155q0 -156 6 -195q3 -13 7 -19t15 -11q16 -7 41 -14q4 -1 4 -4q0 -1 -1 -3t-2.5 -3.5t-1.5 -2.5q-74 5 -119 3q-21 -1 -55 -4t-36 -3q-6 0 -10 4q-1 4 -1 7q65 17 71 43q8 30 8 198v170q0 129 -3 156t-20 34
q-18 10 -43 14q-6 1 -6 4q1 1 1 2t1 2q1 3 6 3q7 1 26 1q9 0 33 -1.5t45 -1.5l60 2.5t43 1.5q8 0 10 -3zM84 753q12 0 102 -85q1 -2 -2.5 -5.5t-6.5 -3.5q-44 16 -126 54q-4 2 -4.5 6.5t3.5 8.5q5 8 17 16.5t17 8.5z" />
    <glyph glyph-name="Iacute" unicode="&#xcd;" horiz-adv-x="303" 
d="M266 629l1 -6q-41 -9 -56 -19t-17 -26q-7 -35 -7 -174v-155q0 -156 6 -195q3 -13 7 -19t15 -11q16 -7 41 -14q4 -1 4 -4q0 -1 -1 -3t-2.5 -3.5t-1.5 -2.5q-74 5 -119 3q-21 -1 -55 -4t-36 -3q-6 0 -10 4q-1 4 -1 7q65 17 71 43q8 30 8 198v170q0 129 -3 156t-20 34
q-18 10 -43 14q-6 1 -6 4q1 1 1 2t1 2q1 3 6 3q7 1 26 1q9 0 33 -1.5t45 -1.5l60 2.5t43 1.5q8 0 10 -3zM228 752q8 0 21.5 -9t18.5 -17q8 -6 -2 -9q-7 -4 -71 -28.5t-70 -26.5q-4 2 -6 6.5t0 5.5q58 48 104 75q3 3 5 3z" />
    <glyph glyph-name="Icircumflex" unicode="&#xce;" horiz-adv-x="303" 
d="M266 629l1 -6q-41 -9 -56 -19t-17 -26q-7 -35 -7 -174v-155q0 -156 6 -195q3 -13 7 -19t15 -11q16 -7 41 -14q4 -1 4 -4q0 -1 -1 -3t-2.5 -3.5t-1.5 -2.5q-74 5 -119 3q-21 -1 -55 -4t-36 -3q-6 0 -10 4q-1 4 -1 7q65 17 71 43q8 30 8 198v170q0 129 -3 156t-20 34
q-18 10 -43 14q-6 1 -6 4q1 1 1 2t1 2q1 3 6 3q7 1 26 1q9 0 33 -1.5t45 -1.5l60 2.5t43 1.5q8 0 10 -3zM161 761q3 0 14.5 -11.5t33 -34t35.5 -35.5q5 -7 1 -10q-10 -7 -17 -8q-8 5 -36.5 27.5t-36.5 27.5q-6 -3 -24 -16t-32.5 -23t-17.5 -10q-12 0 -24 5q-3 1 -3.5 4
t1.5 4q30 27 80 63q20 17 26 17z" />
    <glyph glyph-name="Idieresis" unicode="&#xcf;" horiz-adv-x="303" 
d="M266 629l1 -6q-41 -9 -56 -19t-17 -26q-7 -35 -7 -174v-155q0 -156 6 -195q3 -13 7 -19t15 -11q16 -7 41 -14q4 -1 4 -4q0 -1 -1 -3t-2.5 -3.5t-1.5 -2.5q-74 5 -119 3q-21 -1 -55 -4t-36 -3q-6 0 -10 4q-1 4 -1 7q65 17 71 43q8 30 8 198v170q0 129 -3 156t-20 34
q-17 9 -42 14q-6 1 -6 4q0 1 0.5 2t0.5 2q1 3 6 3q7 1 27 1q8 0 32 -1.5t45 -1.5l60 2.5t43 1.5q8 0 10 -3zM225 754h9q9 -16 25 -23q3 -2 2.5 -10t-2.5 -9q-17 -8 -23 -30q-1 -3 -10.5 -2t-10.5 6q-5 13 -25 23q-2 2 -2.5 9.5t1.5 8.5q17 7 26 26q1 1 10 1zM83 754
q6 0 6 -1q10 -17 24 -22q4 0 3.5 -8.5t-3.5 -10.5q-15 -9 -23 -29q-1 -3 -8.5 -3t-9.5 3q-9 20 -24 21q-3 1 -4 9t2 11q18 11 23 27q1 3 14 3z" />
    <glyph glyph-name="Eth" unicode="&#xd0;" horiz-adv-x="723" 
d="M109 305h-64q-22 0 -26 5q-3 4 -4.5 14t1.5 11h93q0 229 -1 239q-2 18 -14 25t-43 15q-10 3 -7 11l4 3q28 0 117 3q116 4 134 4q183 0 283 -90q108 -95 108 -230q0 -47 -22.5 -104t-70.5 -101q-47 -44 -85 -64.5t-85 -33.5q-52 -16 -152 -16q-25 0 -87.5 2t-65.5 2
q-49 0 -75 -2q-6 3 -3 10q40 14 51 25t12 32q2 52 2 240zM183 335h156q27 0 31 -8q5 -11 3 -17q-7 -4 -92 -4h-98q2 -201 13 -259q2 -11 16 -18q37 -16 83 -16q91 0 176 57q61 41 93 108t32 142q0 77 -27 134.5t-66 90.5q-87 76 -200 72q-29 -1 -64.5 -7.5t-42.5 -12.5
q-4 -3 -6 -24q-7 -103 -7 -238z" />
    <glyph glyph-name="Ntilde" unicode="&#xd1;" horiz-adv-x="752" 
d="M21 625v7q10 0 50 -2t67 -2q12 0 17 -4q2 -3 4.5 -8t4.5 -8q7 -19 62 -79q56 -63 393 -398q5 64 3 206q-2 156 -7 211q-2 26 -7.5 38.5t-21.5 18.5q-20 10 -45 14q-5 2 -6 8v3q14 0 43 -1t44 -1q20 0 51 3.5t40 3.5t10 -4l2 -5q-34 -11 -50 -23q-13 -9 -18.5 -44
t-8.5 -136q-4 -186 -4 -292q0 -31 2.5 -79.5t2.5 -55.5q0 -9 -11 -16q-4 -1 -9 6q-17 28 -48 65.5t-53 60.5t-74.5 77t-67.5 70q-124 129 -247 253q-4 -18 -4 -155q0 -264 12 -304q5 -17 21 -25.5t59 -20.5l2 -5q2 -6 -4 -6q-24 0 -61.5 2t-53.5 2q-15 0 -29 -1t-26 -3
t-16 -2q-5 6 -4 10q40 15 51.5 27t15.5 41q10 68 10 259l1 125q0 105 -18 129q-20 26 -67 33q-7 1 -7 7zM354 741q11 0 34 -5t35 -5q22 0 46 24q10 -8 8 -10q-4 -6 -24 -26t-27 -23q-14 -7 -41 -4q-45 7 -52 7q-21 0 -37 -22q-3 -3 -11 -3q-4 0 -3 5q10 16 14.5 23.5
t14 18.5t20 15.5t23.5 4.5z" />
    <glyph glyph-name="Ograve" unicode="&#xd2;" horiz-adv-x="731" 
d="M369 646q130 0 229.5 -93t99.5 -225q0 -150 -110 -260q-46 -44 -102.5 -65t-99.5 -21q-167 0 -272 116q-37 43 -59 102t-22 117q0 146 110 239q104 90 226 90zM345 624q-89 0 -151 -68q-69 -73 -69 -222q0 -67 23 -131t63 -107q85 -90 189 -90q95 0 152.5 71.5
t57.5 213.5q0 151 -91 256q-68 77 -174 77zM306 770q10 0 103 -86q0 -2 -3.5 -5t-6.5 -3q-39 13 -126 53q-11 6 -1 16q22 25 34 25z" />
    <glyph glyph-name="Oacute" unicode="&#xd3;" horiz-adv-x="731" 
d="M369 646q130 0 229.5 -93t99.5 -225q0 -150 -110 -260q-46 -44 -102.5 -65t-99.5 -21q-167 0 -272 116q-37 43 -59 102t-22 117q0 146 110 239q104 90 226 90zM345 624q-89 0 -151 -68q-69 -73 -69 -222q0 -67 23 -131t63 -107q85 -90 189 -90q95 0 152.5 71.5
t57.5 213.5q0 151 -91 256q-68 77 -174 77zM425 765q8 0 21.5 -9.5t18.5 -16.5q3 -2 2 -5t-4 -4q-7 -4 -71 -28.5t-70 -26.5q-4 2 -6 6t0 5q50 45 104 76q1 0 3 2z" />
    <glyph glyph-name="Ocircumflex" unicode="&#xd4;" horiz-adv-x="731" 
d="M369 646q130 0 229.5 -93t99.5 -225q0 -150 -110 -260q-46 -44 -102.5 -65t-99.5 -21q-167 0 -272 116q-37 43 -59 102t-22 117q0 146 110 239q104 90 226 90zM345 624q-89 0 -151 -68q-69 -73 -69 -222q0 -67 23 -131t63 -107q85 -90 189 -90q95 0 152.5 71.5
t57.5 213.5q0 151 -91 256q-68 77 -174 77zM372 770q3 0 14.5 -11.5t33 -34t35.5 -35.5q5 -7 2 -10q-15 -8 -17 -8q-8 5 -36.5 27.5t-37.5 27.5q-4 -3 -22.5 -16t-33.5 -23t-18 -10q-12 0 -24 5q-3 1 -3.5 4t1.5 4q30 26 80 63q22 17 26 17z" />
    <glyph glyph-name="Otilde" unicode="&#xd5;" horiz-adv-x="731" 
d="M368 646q130 0 230 -93t100 -225q0 -150 -110 -260q-46 -44 -103 -65t-99 -21q-167 0 -272 116q-37 43 -59 102t-22 117q0 146 110 239q104 90 225 90zM344 624q-88 0 -150 -68q-69 -73 -69 -222q0 -67 23 -131t63 -107q85 -90 189 -90q95 0 152.5 71.5t57.5 213.5
q0 151 -91 256q-68 77 -175 77zM341 739q11 0 34 -5t35 -5q22 0 46 24q10 -8 8 -10q-3 -5 -24 -25.5t-27 -23.5q-15 -7 -41 -4q-45 7 -52 7q-21 0 -37 -22q-3 -3 -11 -3q-4 0 -3 5q10 16 14.5 23.5t14 18.5t20 15.5t23.5 4.5z" />
    <glyph glyph-name="Odieresis" unicode="&#xd6;" horiz-adv-x="731" 
d="M369 646q130 0 229.5 -93t99.5 -225q0 -150 -110 -260q-46 -44 -102.5 -65t-99.5 -21q-167 0 -272 116q-37 43 -59 102t-22 117q0 146 110 239q104 90 226 90zM345 624q-89 0 -151 -68q-69 -73 -69 -222q0 -67 23 -131t63 -107q85 -90 189 -90q95 0 152.5 71.5
t57.5 213.5q0 153 -91 256q-68 77 -174 77zM436 755h9q8 -17 24 -23q4 -2 3.5 -10t-3.5 -9q-15 -7 -22 -30q-1 -3 -11 -2t-11 6q-2 8 -6.5 12t-18.5 11q-2 1 -2.5 9t1.5 9q12 4 16.5 8.5t9.5 17.5q1 1 11 1zM294 755q5 0 5 -1q10 -16 25 -22q3 0 2.5 -8.5t-2.5 -10.5
q-14 -8 -24 -29q-1 -4 -8.5 -3.5t-9.5 3.5q-7 18 -24 21q-2 1 -3.5 9t1.5 11q17 11 21 19l2 8q1 3 15 3z" />
    <glyph glyph-name="multiply" unicode="&#xd7;" horiz-adv-x="481" 
d="M60 356l15 21q5 5 11 1q28 -22 149 -150q15 15 44.5 45t55.5 56t51 50q8 9 16 4q3 -3 11 -9t11 -9q-91 -86 -165 -162q1 -1 24.5 -25.5t56.5 -57.5l60 -60q10 -11 7 -18q-5 -7 -18 -21l-8 -3q-17 17 -73 76t-79 81q-42 -43 -139 -150q-6 -6 -10 -3q-23 23 -21 27
q12 12 47.5 48.5t64.5 66t36 37.5q-45 52 -145 142q-5 7 -2 13z" />
    <glyph glyph-name="Oslash" unicode="&#xd8;" horiz-adv-x="731" 
d="M387 -18q-105 0 -209 65l-74 -93q-4 -5 -11 2q-9 14 -3 20l66 86q-58 45 -90.5 116.5t-32.5 142.5q0 142 111 237q47 41 107.5 64.5t115.5 23.5q99 0 190 -59l57 73q4 5 15 -1q10 -5 12.5 -7t0.5 -5l-63 -78q119 -101 119 -241q0 -80 -32.5 -147t-78.5 -112
q-43 -43 -100.5 -65t-99.5 -22zM121 330q0 -127 76 -215l323 423q-77 85 -176 85q-92 0 -155 -71q-37 -40 -52.5 -102t-15.5 -120zM610 287q0 135 -72 227l-324 -418q85 -90 186 -90q94 0 152 70t58 211z" />
    <glyph glyph-name="Ugrave" unicode="&#xd9;" horiz-adv-x="695" 
d="M683 630l-4 -7q-26 -6 -35 -12q-22 -10 -24 -37q-4 -40 -9 -247q-3 -84 -14 -139t-45 -103t-94.5 -75.5t-123.5 -27.5q-108 0 -176 61q-69 64 -71 198q-2 76 2 204q3 88 2 114.5t-8 38.5q-13 16 -52 24l1 4q2 6 18 6q9 0 41.5 -2.5t43.5 -1.5q16 1 53 3.5t50 2.5
q6 0 6 -3q0 -6 -3 -9q-36 -7 -49 -16t-18 -26q-7 -28 -8 -105q-4 -220 -4 -229q0 -120 73 -181q48 -40 138 -42q108 -1 165 76q46 63 46 242q2 177 -4 220q-4 29 -22 40.5t-57 16.5q-5 1 -7.5 2t-2.5 2v2q1 0 1 2t1 2q4 6 17 4q50 -4 75 -4q12 0 31.5 1t39 3t23.5 2
q5 0 4 -4zM304 753q12 0 102 -85q1 -3 -2.5 -6t-6.5 -3q-51 17 -126 54q-11 5 -1 15q5 8 17 16.5t17 8.5z" />
    <glyph glyph-name="Uacute" unicode="&#xda;" horiz-adv-x="695" 
d="M683 630l-4 -7q-26 -6 -35 -12q-22 -10 -24 -37q-4 -40 -9 -247q-3 -84 -14 -139t-45 -103t-94.5 -75.5t-123.5 -27.5q-108 0 -176 61q-69 64 -71 198q-2 76 2 204q3 88 2 114.5t-8 38.5q-13 16 -52 24l1 4q2 6 18 6q9 0 41.5 -2.5t43.5 -1.5q16 1 53 3.5t50 2.5
q6 0 6 -3q0 -6 -3 -9q-36 -7 -49 -16t-18 -26q-7 -28 -8 -105q-4 -220 -4 -229q0 -120 73 -181q48 -40 138 -42q108 -1 165 76q46 63 46 242q2 177 -4 220q-4 29 -22 40.5t-57 16.5q-5 1 -7.5 2t-2.5 2v2q1 0 1 2t1 2q4 6 17 4q50 -4 75 -4q12 0 31.5 1t39 3t23.5 2
q5 0 4 -4zM432 752q8 0 21.5 -9.5t18.5 -16.5q8 -6 -2 -9q-7 -4 -71 -28.5t-70 -26.5q-4 2 -6 6t0 5q55 48 104 76q1 0 3 2z" />
    <glyph glyph-name="Ucircumflex" unicode="&#xdb;" horiz-adv-x="695" 
d="M683 630l-4 -7q-26 -6 -35 -12q-22 -10 -24 -37q-4 -40 -9 -247q-3 -84 -14 -139t-45 -103t-94.5 -75.5t-123.5 -27.5q-108 0 -176 61q-69 64 -71 198q-2 76 2 204q3 88 2 114.5t-8 38.5q-13 16 -52 24l1 4q2 6 18 6q9 0 41.5 -2.5t43.5 -1.5q16 1 53 3.5t50 2.5
q6 0 6 -3q0 -6 -3 -9q-36 -7 -49 -16t-18 -26q-7 -28 -8 -105q-4 -220 -4 -229q0 -120 73 -181q48 -40 138 -42q108 -1 165 76q46 63 46 242q2 177 -4 220q-4 29 -22 40.5t-57 16.5q-5 1 -7.5 2t-2.5 2v2q1 0 1 2t1 2q4 6 17 4q50 -4 75 -4q12 0 31.5 1t39 3t23.5 2
q5 0 4 -4zM378 761q3 0 14.5 -11.5t33 -34t35.5 -35.5q5 -7 1 -10q-10 -7 -17 -8q-8 5 -36.5 27.5t-36.5 27.5q-5 -3 -23.5 -16t-33.5 -23t-18 -10q-11 0 -23 5q-3 1 -3.5 4t1.5 4q4 4 21 17.5t36.5 28.5t21.5 17q22 17 27 17z" />
    <glyph glyph-name="Udieresis" unicode="&#xdc;" horiz-adv-x="695" 
d="M683 630l-4 -7q-26 -6 -35 -12q-22 -10 -24 -37q-4 -40 -9 -247q-3 -84 -14 -139t-45 -103t-94 -75.5t-123 -27.5q-109 0 -177 61q-69 64 -71 198q-2 76 2 204q3 88 2 114.5t-8 38.5q-13 16 -52 24l1 4q2 6 18 6q9 0 41.5 -2.5t43.5 -1.5q16 1 53.5 3.5t50.5 2.5
q5 0 5 -3q0 -6 -3 -9q-36 -7 -49 -16t-18 -26q-7 -28 -8 -105q-4 -220 -4 -229q0 -120 73 -181q48 -40 138 -42q108 -1 165 76q46 63 46 242q2 177 -4 220q-4 29 -22 40.5t-57 16.5q-5 1 -7.5 2t-2.5 2v2q1 0 1 2t1 2q4 6 17 4q50 -4 75 -4q12 0 31.5 1t39 3t23.5 2
q5 0 4 -4zM439 754h9q7 -16 24 -23q3 -2 2.5 -10t-2.5 -9q-15 -7 -22 -30q-1 -3 -11 -2t-11 6q-3 12 -25 23q-2 1 -2.5 9t1.5 9q12 5 16.5 9.5t9.5 16.5q1 1 11 1zM297 754q5 0 5 -1q10 -16 25 -22q3 0 2.5 -8.5t-2.5 -10.5q-14 -8 -24 -29q-1 -3 -9 -3t-9 3q-8 20 -24 21
q-2 1 -3.5 9t1.5 11q18 11 23 27q2 3 15 3z" />
    <glyph glyph-name="Yacute" unicode="&#xdd;" horiz-adv-x="602" 
d="M227 632q0 -6 -5 -9q-4 -1 -18 -5.5t-25 -7.5q-19 -6 -10 -21q16 -30 38.5 -68.5t40 -67t32.5 -53t16 -26.5q3 -4 9 -12.5t9 -12.5q6 -8 14 3q82 110 128 180q27 40 27 59q0 17 -63 31l1 4q1 4 13 4q1 0 26 -1t46 0q17 0 34.5 1t28.5 1.5t15 0.5q13 0 16 -4q2 -5 0 -6
q-33 -7 -50 -20t-49 -51q-111 -137 -158 -219q-13 -20 -13 -63v-77q0 -76 3 -122q3 -33 16 -42.5t74 -22.5q2 -3 0 -7q-3 -4 -20 -4q-10 0 -53.5 3t-73.5 3q-18 0 -48.5 -2.5t-47.5 -2.5q-8 0 -10 2q-2 4 -2 5q0 3 3 3q64 10 74 33q10 20 10 131v114q0 17 -21 55
q-118 206 -159 255q-17 20 -54 29q-8 2 -8 4q0 3 2 5q4 2 13 2q18 0 54.5 -2t47.5 -2q9 0 54 3q19 3 37 3q6 0 6 -3zM389 742q9 0 22.5 -9t18.5 -17q8 -6 -2 -9q-6 -3 -69.5 -27t-71.5 -28q-12 7 -7 12q62 52 104 75z" />
    <glyph glyph-name="Thorn" unicode="&#xde;" horiz-adv-x="518" 
d="M171 504h75q115 0 178 -48q62 -47 62 -133q0 -75 -59 -123q-75 -67 -205 -67q-9 0 -28 1.5t-24 1.5v-46t4 -31t7 -21.5t14.5 -12t22 -8.5t33.5 -6q2 -6 -3 -11q-1 -2 -10 -2q-27 0 -64.5 1t-45.5 1q-24 0 -51.5 -2t-32.5 -2q-6 0 -8 8l-1 3q35 10 45.5 18.5t12.5 26.5
q6 42 6 169v159q0 183 -5 206q-4 18 -18 24q-15 7 -34 11q-7 2 -7 3q0 2 3 5q0 1 6 3q8 0 38 -2t54 -2q28 0 88 5q10 0 11 -2q2 -5 -1 -6q-45 -11 -54 -28.5t-9 -92.5zM403 330q0 13 -3 30t-13 40t-26 41.5t-46 31.5t-69 13q-40 0 -64 -12q-10 -3 -11 -22q-2 -58 -1 -262
q0 -14 6 -21q3 -4 26.5 -9.5t41.5 -5.5q43 0 69 10q90 39 90 166z" />
    <glyph glyph-name="germandbls" unicode="&#xdf;" horiz-adv-x="439" 
d="M75 388v43q0 118 61 179q37 41 81 58q36 14 58 14q56 0 89 -35q37 -34 37 -93q0 -37 -30 -72q-6 -8 -28.5 -34.5t-31.5 -38.5q-25 -32 -25 -54q0 -16 32 -45q27 -24 44 -40.5t35.5 -47.5t18.5 -59q0 -57 -47 -104q-47 -48 -106 -67q-13 -6 -32 -6q-15 0 -28 10q-6 3 -9 9
t-1 10q1 8 11 18q6 6 12 4q27 -16 59 -16q41 0 67 35q19 26 19 67q0 30 -24.5 65t-58.5 61q-53 41 -53 64q0 14 4 26q4 9 15 20q30 28 72 82q34 46 34 95t-32.5 83t-79.5 34q-39 0 -61 -30q-25 -36 -33.5 -88.5t-8.5 -139.5v-274q0 -65 4.5 -80t27.5 -27q4 -1 1 -8
q-4 -6 -12 -6q-9 0 -27 0.5t-28 0.5q-16 0 -48 -3t-35 -3q-4 0 -6 9q34 17 42.5 23.5t10.5 16.5q8 38 7 284q-25 3 -43 6q-7 2 -4 5q5 4 43 29q7 4 7 20z" />
    <glyph glyph-name="agrave" unicode="&#xe0;" horiz-adv-x="365" 
d="M102 282l-44 -17q-9 -3 -15 -3q-11 0 -11 8q0 6 8 17q12 18 48 43t60 35q31 14 52 14q45 0 75 -34q17 -20 17 -46q0 -33 -1 -100.5t-1 -102.5q0 -73 22 -73q14 0 46 13q2 1 4.5 -2t2.5 -6l-2 -10q0 -4 -7 -8q-10 -6 -41 -14.5t-53 -8.5q-34 0 -39 50q-29 -14 -72.5 -31.5
t-49.5 -17.5q-28 0 -50 19q-27 23 -27 68q0 26 38 48q55 30 163 49q1 17 1 82q0 54 -14 70q-16 16 -60 16q-23 0 -35 -7q-10 -3 -10 -39q0 -10 -5 -12zM146 28q22 0 61 18q15 7 16 22q2 22 2 73q0 13 -7 13q-83 -15 -109 -35q-11 -9 -11 -32q0 -59 48 -59zM152 569q4 0 9 -8
q14 -30 49 -126q2 -5 -9 -10q-43 53 -85 116q-5 7 1 11q23 17 35 17z" />
    <glyph glyph-name="aacute" unicode="&#xe1;" horiz-adv-x="365" 
d="M102 282l-44 -17q-9 -3 -15 -3q-11 0 -11 8q0 6 8 17q12 18 48 43t60 35q31 14 52 14q45 0 75 -34q17 -20 17 -46q0 -33 -1 -100.5t-1 -102.5q0 -73 22 -73q14 0 46 13q2 1 4.5 -2t2.5 -6l-2 -10q0 -4 -7 -8q-10 -6 -41 -14.5t-53 -8.5q-34 0 -39 50q-29 -14 -72.5 -31.5
t-49.5 -17.5q-28 0 -50 19q-27 23 -27 68q0 26 38 48q55 30 163 49q1 17 1 82q0 54 -14 70q-16 16 -60 16q-23 0 -35 -7q-10 -3 -10 -39q0 -10 -5 -12zM146 28q22 0 61 18q15 7 16 22q2 22 2 73q0 13 -7 13q-83 -15 -109 -35q-11 -9 -11 -32q0 -59 48 -59zM232 567
q16 0 35 -17q6 -4 1 -9q-90 -98 -102 -111q-3 -3 -7 2l-5 4q4 6 14.5 26t18.5 35.5t18 33t17 27t10 9.5z" />
    <glyph glyph-name="acircumflex" unicode="&#xe2;" horiz-adv-x="365" 
d="M102 282l-44 -17q-9 -3 -15 -3q-11 0 -11 8q0 6 8 17q12 18 48 43t60 35q31 14 52 14q45 0 75 -34q17 -20 17 -46q0 -33 -1 -100.5t-1 -102.5q0 -73 22 -73q14 0 46 13q2 1 4.5 -2t2.5 -6l-2 -10q0 -4 -7 -8q-10 -6 -41 -14.5t-53 -8.5q-34 0 -39 50q-29 -14 -72.5 -31.5
t-49.5 -17.5q-28 0 -50 19q-27 23 -27 68q0 26 38 48q55 30 163 49q1 17 1 82q0 54 -14 70q-16 16 -60 16q-23 0 -35 -7q-10 -3 -10 -39q0 -10 -5 -12zM146 28q22 0 61 18q15 7 16 22q2 22 2 73q0 13 -7 13q-83 -15 -109 -35q-11 -9 -11 -32q0 -59 48 -59zM188 570
q8 0 66 -122q3 -6 -4 -9q-5 -4 -18 -9q-3 0 -6 4q-27 59 -46 89q-4 -6 -18.5 -28.5t-27.5 -42t-14 -20.5q-7 2 -13 7q-3 2 0 10q5 10 29.5 52.5t30.5 49.5q15 19 21 19z" />
    <glyph glyph-name="atilde" unicode="&#xe3;" horiz-adv-x="365" 
d="M102 282l-44 -17q-9 -3 -15 -3q-11 0 -11 8q0 6 8 17q12 18 48 43t60 35q31 14 52 14q45 0 75 -34q17 -20 17 -46q0 -33 -1 -100.5t-1 -102.5q0 -73 22 -73q14 0 46 13q2 1 4.5 -2t2.5 -6l-2 -10q0 -4 -7 -8q-10 -6 -41 -14.5t-53 -8.5q-34 0 -39 50q-29 -14 -72.5 -31.5
t-49.5 -17.5q-28 0 -50 19q-27 23 -27 68q0 26 38 48q55 30 163 49q1 17 1 82q0 54 -14 70q-16 16 -60 16q-23 0 -35 -7q-10 -3 -10 -39q0 -10 -5 -12zM146 28q22 0 61 18q15 7 16 22q2 22 2 73q0 13 -7 13q-83 -15 -109 -35q-11 -9 -11 -32q0 -59 48 -59zM164 512
q10 0 29.5 -4.5t30.5 -4.5q18 0 39 23q7 -8 6 -10q-2 -5 -19.5 -23.5t-23.5 -22.5q-12 -7 -35 -4q-38 7 -44 7q-9 0 -31 -22q-2 -2 -9 -2q-4 0 -4.5 0.5t0.5 3.5q21 42 35 51q11 8 26 8z" />
    <glyph glyph-name="adieresis" unicode="&#xe4;" horiz-adv-x="365" 
d="M102 282l-44 -17q-9 -3 -15 -3q-11 0 -11 8q0 6 8 17q12 18 48 43t60 35q31 14 52 14q45 0 75 -34q17 -20 17 -46q0 -33 -1 -100.5t-1 -102.5q0 -73 22 -73q14 0 46 13q2 1 4.5 -2t2.5 -6l-2 -10q0 -4 -7 -8q-10 -6 -41 -14.5t-53 -8.5q-34 0 -39 50q-29 -14 -72.5 -31.5
t-49.5 -17.5q-28 0 -50 19q-27 23 -27 68q0 26 38 48q55 30 163 49q1 17 1 82q0 54 -14 70q-16 16 -60 16q-23 0 -35 -7q-10 -3 -10 -39q0 -10 -5 -12zM146 28q22 0 61 18q15 7 16 22q2 22 2 73q0 13 -7 13q-83 -15 -109 -35q-11 -9 -11 -32q0 -59 48 -59zM247 529h9
q9 -16 25 -23q3 -2 2.5 -10t-2.5 -9q-17 -8 -23 -30q-1 -3 -10.5 -2t-10.5 6q-5 13 -25 23q-2 1 -2.5 9t1.5 9q17 7 26 26q1 1 10 1zM124 529q6 0 6 -1q13 -17 25 -21q3 0 2.5 -9t-2.5 -11q-16 -9 -24 -29q-1 -3 -9 -3t-9 3q-9 20 -24 21q-3 1 -4 9t2 11q9 6 11.5 8.5t5.5 7
t5 11.5q1 3 15 3z" />
    <glyph glyph-name="aring" unicode="&#xe5;" horiz-adv-x="365" 
d="M102 282l-44 -17q-9 -3 -15 -3q-11 0 -11 8q0 6 8 17q12 18 48 43t60 35q31 14 52 14q45 0 75 -34q17 -20 17 -46q0 -33 -1 -100.5t-1 -102.5q0 -73 22 -73q14 0 46 13q2 1 4.5 -2t2.5 -6l-2 -10q0 -4 -7 -8q-10 -6 -41 -14.5t-53 -8.5q-34 0 -39 50q-29 -14 -72.5 -31.5
t-49.5 -17.5q-28 0 -50 19q-27 23 -27 68q0 26 38 48q55 30 163 49q1 17 1 82q0 54 -14 70q-16 16 -60 16q-23 0 -35 -7q-10 -3 -10 -39q0 -10 -5 -12zM146 28q22 0 61 18q15 7 16 22q2 22 2 73q0 13 -7 13q-83 -15 -109 -35q-11 -9 -11 -32q0 -59 48 -59zM186 553
q25 0 41 -16.5t16 -41.5q0 -36 -33 -54q-18 -11 -32 -11q-23 0 -39.5 15.5t-16.5 40.5q0 42 41 60q14 7 23 7zM180 531q-13 0 -22 -10t-9 -27q0 -39 37 -41q31 0 31 36q0 19 -11 30.5t-26 11.5z" />
    <glyph glyph-name="ae" unicode="&#xe6;" horiz-adv-x="520" 
d="M102 329v-42q0 -6 -10.5 -11.5t-49.5 -17.5q-13 -3 -13 8q0 18 25 43q31 33 81 54q32 14 46 14q73 0 99 -56q5 4 20 14l18 12q43 28 70 28q66 0 95 -66l11 8q6 4 10 -1q6 -6 6 -16q0 -6 -30 -25q-32 -18 -105 -55.5t-87 -46.5q-3 -74 21.5 -105t80.5 -31q61 0 103 53
q7 9 12 9q8 0 8 -8q0 -7 -4 -11q-56 -58 -107 -82q-22 -11 -48 -11q-72 0 -123 70q-61 -46 -93 -59q-20 -10 -34 -10q-32 0 -54 23.5t-25 57.5q0 29 14 45q11 11 22 16q68 32 164 60q1 74 -3.5 98.5t-22.5 38.5q-21 15 -54 15q-28 0 -43 -13zM356 342q-25 0 -43 -18
q-23 -21 -24 -61q-1 -19 -1 -67q88 38 118 64q15 12 15 26q0 20 -15.5 38t-49.5 18zM148 35q22 0 67 30q9 7 9 27v74q-22 -3 -62 -15t-54 -20q-16 -10 -16 -31q0 -65 56 -65z" />
    <glyph glyph-name="ccedilla" unicode="&#xe7;" horiz-adv-x="346" 
d="M210 -6l-28 -42q51 -12 51 -43q0 -25 -32.5 -49.5t-53.5 -30.5l-12 10q19 9 37 25.5t18 26.5q0 11 -8.5 17t-31.5 11q-10 1 -10 6q0 4 4 11q35 47 41 55q-61 0 -108 39q-19 17 -35 50.5t-16 75.5q0 90 56 143q29 30 84 59q48 23 75 23q50 0 87 -30q5 -5 5 -12
q0 -11 -21 -26q-11 -8 -21 -6q-4 2 -12.5 7t-10.5 6q-34 24 -76 24q-36 0 -63 -27q-34 -39 -34 -119q0 -87 36 -123q40 -44 85 -44q48 0 97 37q8 4 8 -3t-12 -19q-16 -15 -47 -31.5t-52 -20.5z" />
    <glyph glyph-name="egrave" unicode="&#xe8;" horiz-adv-x="351" 
d="M202 375q40 0 73 -31q27 -27 37 -66q26 11 32 8q5 -5 3 -11q-7 -15 -19 -19q-31 -7 -117.5 -24.5t-107.5 -23.5q-6 -2 -6 -19q1 -77 33 -114t81 -37q75 0 119 46q6 6 6 0q0 -18 -10 -25q-46 -41 -110 -64q-16 -5 -35 -5q-62 0 -115 53q-41 44 -41 120q0 113 97 182
q41 30 80 30zM247 268q0 27 -24.5 54.5t-52.5 27.5q-14 0 -23 -8q-21 -16 -34 -49t-13 -69q33 7 138 34q9 2 9 10zM154 569q5 0 10 -8q27 -62 49 -127q0 -1 -9 -10q-46 56 -85 117q-5 7 1 11q5 4 17.5 10.5t16.5 6.5z" />
    <glyph glyph-name="eacute" unicode="&#xe9;" horiz-adv-x="351" 
d="M202 375q40 0 73 -31q27 -27 37 -66q26 11 32 8q5 -5 3 -11q-7 -15 -19 -19q-31 -7 -117.5 -24.5t-107.5 -23.5q-6 -2 -6 -19q1 -77 33 -114t81 -37q75 0 119 46q6 6 6 0q0 -18 -10 -25q-46 -41 -110 -64q-16 -5 -35 -5q-62 0 -115 53q-41 44 -41 120q0 113 97 182
q41 30 80 30zM247 268q0 27 -24.5 54.5t-52.5 27.5q-14 0 -23 -8q-21 -16 -34 -49t-13 -69q33 7 138 34q9 2 9 10zM239 567q14 0 35 -17q6 -4 1 -9q-90 -98 -102 -111q-3 -3 -8 1l-4 4q70 132 78 132z" />
    <glyph glyph-name="ecircumflex" unicode="&#xea;" horiz-adv-x="351" 
d="M202 375q40 0 73 -31q27 -27 37 -66q26 11 32 8q5 -5 3 -11q-7 -15 -19 -19q-31 -7 -117.5 -24.5t-107.5 -23.5q-6 -2 -6 -19q1 -77 33 -114t81 -37q75 0 119 46q6 6 6 0q0 -18 -10 -25q-46 -41 -110 -64q-16 -5 -35 -5q-62 0 -115 53q-41 44 -41 120q0 113 97 182
q41 30 80 30zM247 268q0 27 -24.5 54.5t-52.5 27.5q-14 0 -23 -8q-21 -16 -34 -49t-13 -69q33 7 138 34q9 2 9 10zM201 570q7 0 66 -123q3 -6 -4 -9q-7 -6 -18 -8q-4 0 -6 4q-3 5 -22 42.5t-24 46.5q-4 -5 -19 -28.5t-27.5 -43t-13.5 -20.5q-10 5 -12 8q-5 2 0 10
q4 9 28.5 52t30.5 50q15 19 21 19z" />
    <glyph glyph-name="edieresis" unicode="&#xeb;" horiz-adv-x="351" 
d="M202 375q40 0 73 -31q27 -27 37 -66q26 11 32 8q5 -5 3 -11q-7 -15 -19 -19q-31 -7 -117.5 -24.5t-107.5 -23.5q-6 -2 -6 -19q1 -77 33 -114t81 -37q75 0 119 46q6 6 6 0q0 -18 -10 -25q-46 -41 -110 -64q-16 -5 -35 -5q-62 0 -115 53q-41 44 -41 120q0 113 97 182
q41 30 80 30zM247 268q0 27 -24.5 54.5t-52.5 27.5q-14 0 -23 -8q-21 -16 -34 -49t-13 -69q33 7 138 34q9 2 9 10zM259 529h9q9 -16 25 -23q3 -2 2.5 -10t-2.5 -9q-15 -7 -23 -30q-1 -3 -10.5 -2t-10.5 6q-5 13 -25 23q-2 2 -2.5 9.5t1.5 8.5q17 7 26 26q1 1 10 1zM137 529
q5 0 5 -1q13 -17 25 -21q3 0 2.5 -9t-2.5 -11q-14 -8 -24 -29q-1 -3 -9 -3t-9 3q-9 20 -24 21q-2 1 -3.5 9t1.5 11q17 12 21 21l2 6q2 3 15 3z" />
    <glyph glyph-name="igrave" unicode="&#xec;" horiz-adv-x="207" 
d="M147 378q-9 -162 -9 -260q0 -68 1 -83q1 -11 11 -15q8 -2 16.5 -4t13.5 -3.5t6 -1.5q6 0 4 -5l-2 -4q-3 -4 -8 -4q-8 0 -30 1t-37 1q-18 0 -36.5 -1.5t-29.5 -3t-12 -1.5q-3 0 -5 3v1q-1 2 -1 3q0 3 4 4q19 7 26 14t11 26q7 28 7 151q0 54 -3 111q-1 3 -35 18q-3 1 -3 5
q1 3 7 6q34 11 98 43q4 2 5 2t1 -3zM74 569q4 0 9 -8q16 -36 49 -127q1 -3 -9 -10q-38 43 -85 117q-5 7 1 11q23 17 35 17z" />
    <glyph glyph-name="iacute" unicode="&#xed;" horiz-adv-x="207" 
d="M147 378q-9 -162 -9 -260q0 -68 1 -83q1 -11 11 -15q8 -2 16.5 -4t13.5 -3.5t6 -1.5q6 0 4 -5l-2 -4q-3 -4 -8 -4q-8 0 -30 1t-37 1q-18 0 -36.5 -1.5t-29.5 -3t-12 -1.5q-3 0 -5 3v1q-1 2 -1 3q0 3 4 4q19 7 26 14t11 26q7 28 7 151q0 54 -3 111q-1 3 -35 18q-3 1 -3 5
q1 3 7 6q34 11 98 43q4 2 5 2t1 -3zM148 567q14 0 35 -17q6 -4 1 -9q-66 -71 -102 -112q-3 -3 -7 2l-5 4q70 132 78 132z" />
    <glyph glyph-name="icircumflex" unicode="&#xee;" horiz-adv-x="207" 
d="M147 378q-9 -162 -9 -260q0 -68 1 -83q1 -11 11 -15q8 -2 16.5 -4t13.5 -3.5t6 -1.5q6 0 4 -5l-2 -4q-3 -4 -8 -4q-8 0 -30 1t-37 1q-18 0 -36.5 -1.5t-29.5 -3t-12 -1.5q-3 0 -5 3v1q-1 2 -1 3q0 3 4 4q19 7 26 14t11 26q7 28 7 151q0 54 -3 111q-1 3 -35 18q-3 1 -3 5
q1 3 7 6q34 11 98 43q4 2 5 2t1 -3zM115 570q7 0 66 -123q3 -6 -4 -9q-6 -5 -19 -9q-3 0 -5 4q-2 3 -21 41.5t-25 48.5q-4 -5 -19 -28.5t-27.5 -43t-13.5 -20.5q-7 2 -13 7q-3 2 0 10q4 10 28.5 53t31.5 50q15 19 21 19z" />
    <glyph glyph-name="idieresis" unicode="&#xef;" horiz-adv-x="207" 
d="M147 378q-9 -162 -9 -260q0 -68 1 -83q1 -11 11 -15q8 -2 16.5 -4t13.5 -3.5t6 -1.5q6 0 4 -5l-2 -4q-3 -4 -8 -4q-8 0 -30 1t-37 1q-18 0 -36.5 -1.5t-29.5 -3t-12 -1.5q-3 0 -5 3v1q-1 2 -1 3q0 3 4 4q19 7 26 14t11 26q7 28 7 151q0 54 -3 111q-1 3 -35 18q-3 1 -3 5
q1 3 7 6q34 11 98 43q4 2 5 2t1 -3zM169 529h8q9 -16 25 -23q3 -2 2.5 -10t-2.5 -9q-15 -7 -23 -30q-1 -3 -10.5 -2t-10.5 6q-5 13 -25 23q-2 1 -2.5 9t1.5 9q17 7 26 26q1 1 11 1zM46 529q5 0 5 -1q13 -17 25 -21q3 0 2.5 -9t-2.5 -11q-14 -8 -24 -29q-1 -3 -8.5 -3t-9.5 3
q-8 20 -24 21q-2 1 -3.5 9t1.5 11q1 1 3 2q16 12 20 25q1 3 15 3z" />
    <glyph glyph-name="eth" unicode="&#xf0;" horiz-adv-x="422" 
d="M29 180q0 53 27 98.5t72 68.5q20 10 53 20t47 10q34 0 87 -15q-3 37 -22.5 85.5t-45.5 86.5q-112 -71 -117 -74q-15 -9 -17 -7q-1 1 -6 8q-2 6 12 15q70 46 113 76q-32 40 -80 68.5t-91 37.5q-4 1 -2 6q5 7 11 7q44 0 102.5 -25t102.5 -65q6 4 32.5 22.5t49.5 33.5
q9 -5 14 -14q4 -7 -10 -17q-10 -7 -33.5 -22t-33.5 -22q103 -135 103 -322q0 -149 -82 -206q-23 -17 -57 -29t-57 -12q-78 0 -135 66q-37 44 -37 121zM104 198q0 -93 48 -145q33 -36 79 -36q29 0 52 20q46 46 46 198q0 33 -7 50t-29 35q-47 35 -89 35q-40 0 -62 -24
q-38 -41 -38 -133z" />
    <glyph glyph-name="ntilde" unicode="&#xf1;" horiz-adv-x="458" 
d="M29 -1l1 5q23 12 31 20.5t10 26.5q6 64 6 146q0 60 -2 94q0 11 -6 16t-31 17q-2 1 -2 4q1 5 8 8q17 7 35.5 16.5t32.5 17.5t15 9l7 3q6 0 6 -9q0 -3 -2 -58q1 -5 3 -5q17 10 37 21.5t32 18t23 12.5q22 12 45 12q37 0 68 -25q37 -30 42 -90v-19v-31v-36q0 -41 -0.5 -82.5
t-0.5 -50.5q0 -18 19 -21q13 -2 31 -4q5 -2 5 -3q0 -4 -5 -11q-2 -3 -7 -3q-47 0 -87.5 -3t-46.5 -3q-9 0 -11 3l-1 4q31 18 35 46q6 36 6 177q0 56 -28 81q-25 23 -62 23q-48 0 -84 -26q-10 -5 -11 -23q-2 -22 -2 -110.5t2 -124.5q1 -9 7.5 -13.5t32.5 -14.5q7 -5 4 -9
l-4 -5h-48q-32 0 -63 -3t-38 -3q-3 0 -2 5zM205 512q9 0 28.5 -4.5t30.5 -4.5q18 0 39 23q7 -7 7 -10q-4 -5 -21.5 -24t-22.5 -22q-12 -7 -35 -4q-39 7 -44 7q-15 0 -30 -22q-2 -2 -10 -2q-5 0 -4 4q21 41 34 51q12 8 28 8z" />
    <glyph glyph-name="ograve" unicode="&#xf2;" horiz-adv-x="424" 
d="M228 377q60 0 115.5 -51.5t55.5 -139.5q0 -42 -16.5 -79t-31.5 -53t-26 -22q-71 -42 -120 -42q-30 0 -72 18.5t-67 50.5q-40 52 -40 121q0 65 37 111q29 36 63 53q64 33 102 33zM195 350q-34 0 -57 -23q-37 -37 -37 -132q0 -80 47 -134q41 -46 90 -46q31 0 49 16
q41 43 41 119q0 50 -15 96t-42 72q-34 32 -76 32zM180 569q4 0 9 -8q23 -49 49 -127q2 -5 -9 -10q-55 71 -85 117q-5 7 1 11q23 17 35 17z" />
    <glyph glyph-name="oacute" unicode="&#xf3;" horiz-adv-x="424" 
d="M228 377q60 0 115.5 -51.5t55.5 -139.5q0 -42 -16.5 -79t-31.5 -53t-26 -22q-71 -42 -120 -42q-30 0 -72 18.5t-67 50.5q-40 52 -40 121q0 65 37 111q29 36 63 53q64 33 102 33zM195 350q-34 0 -57 -23q-37 -37 -37 -132q0 -80 47 -134q41 -46 90 -46q31 0 49 16
q41 43 41 119q0 50 -15 96t-42 72q-34 32 -76 32zM259 567q13 0 34 -17q8 -4 1 -9q-63 -68 -101 -111q-3 -3 -8 1l-4 4q70 132 78 132z" />
    <glyph glyph-name="ocircumflex" unicode="&#xf4;" horiz-adv-x="424" 
d="M228 377q60 0 115.5 -51.5t55.5 -139.5q0 -42 -16.5 -79t-31.5 -53t-26 -22q-71 -42 -120 -42q-30 0 -72 18.5t-67 50.5q-40 52 -40 121q0 65 37 111q29 36 63 53q64 33 102 33zM195 350q-34 0 -57 -23q-37 -37 -37 -132q0 -80 47 -134q41 -46 90 -46q31 0 49 16
q41 43 41 119q0 50 -15 96t-42 72q-34 32 -76 32zM224 570q7 0 66 -123q1 -5 -4 -9q-9 -6 -19 -8q-3 0 -6 4q-36 72 -46 89q-48 -80 -60 -92q-10 5 -12 7q-3 3 0 10q4 10 28.5 52.5t30.5 50.5q15 19 22 19z" />
    <glyph glyph-name="otilde" unicode="&#xf5;" horiz-adv-x="424" 
d="M228 377q60 0 115.5 -51.5t55.5 -139.5q0 -42 -16.5 -79t-31.5 -53t-26 -22q-71 -42 -120 -42q-30 0 -72 18.5t-67 50.5q-40 52 -40 121q0 65 37 111q29 36 63 53q64 33 102 33zM195 350q-34 0 -57 -23q-37 -37 -37 -132q0 -80 47 -134q41 -46 90 -46q31 0 49 16
q41 43 41 119q0 50 -15 96t-42 72q-34 32 -76 32zM190 512q10 0 29.5 -4.5t29.5 -4.5q20 0 39 23q8 -8 7 -10q-2 -5 -20 -23.5t-24 -22.5q-12 -9 -35 -4q-35 7 -43 7q-16 0 -31 -22q-2 -3 -9 -3q-5 0 -4 5q1 2 4.5 8.5t4.5 9t4 8t5 8t5 7t5.5 6.5t6.5 5t7.5 4t8.5 2t10 1z
" />
    <glyph glyph-name="odieresis" unicode="&#xf6;" horiz-adv-x="424" 
d="M228 377q60 0 115.5 -51.5t55.5 -139.5q0 -42 -16.5 -79t-31.5 -53t-26 -22q-71 -42 -120 -42q-30 0 -72 18.5t-67 50.5q-40 52 -40 121q0 65 37 111q29 36 63 53q64 33 102 33zM195 350q-34 0 -57 -23q-37 -37 -37 -132q0 -80 47 -134q41 -46 90 -46q31 0 49 16
q41 43 41 119q0 50 -15 96t-42 72q-34 32 -76 32zM277 529h9q7 -15 25 -23q3 -2 2.5 -10t-2.5 -9q-16 -7 -23 -30q-1 -3 -10.5 -2t-11.5 6q-4 13 -25 23q-2 1 -2.5 9t1.5 9q12 5 16.5 9.5t9.5 16.5q1 1 11 1zM154 529q6 0 6 -1q11 -17 24 -21q3 0 3 -8.5t-3 -11.5
q-14 -8 -23 -29q-1 -3 -9 -3t-9 3q-9 20 -24 21q-3 1 -4.5 9t1.5 11q20 14 23 27q1 3 15 3z" />
    <glyph glyph-name="divide" unicode="&#xf7;" horiz-adv-x="481" 
d="M238 284q-9 0 -10 2q-9 15 -12.5 18t-17.5 8q-4 1 -6.5 5.5t-2.5 8t1 4.5q19 9 24.5 14t7.5 17q1 4 5.5 7t8 3.5t4.5 -0.5q10 -15 13.5 -19t9 -7t16.5 -5q0 -19 -6 -22q-14 -8 -28 -31q-1 -3 -7 -3zM418 187h-365q-5 0 -2 30q0 5 11 5h363q8 0 6 -7l-3 -18q0 -10 -10 -10
zM242 33q-8 0 -11 3q-8 21 -34 36q-1 0 -2 4t-1 7v4q18 8 24 14.5t10 18.5q1 2 9.5 2t10.5 -3q7 -16 13 -20.5t20 -9.5v-3q0 -3 -1 -7v-4q-22 -12 -31 -40q-2 -2 -7 -2z" />
    <glyph glyph-name="oslash" unicode="&#xf8;" horiz-adv-x="425" 
d="M203 -10q-43 0 -95 31q-13 -16 -42 -54q-6 -7 -11 -2q-9 7 -4 18q4 5 17.5 23t19.5 28q-62 57 -62 146q0 62 37 112q25 33 64 54q60 32 101 32q42 0 92 -31q22 27 32 38q5 8 12 6q10 -3 13 -6t1 -7q-5 -6 -18.5 -23t-20.5 -27q61 -58 61 -143q0 -42 -17 -78t-31 -50
t-26 -22q-69 -45 -123 -45zM197 352q-38 0 -59 -21q-41 -41 -41 -130q0 -79 28 -119q26 35 81 109.5t84 113.5q-33 47 -93 47zM233 14q33 0 53 18q16 15 29.5 48.5t13.5 75.5q0 85 -25 126q-13 -18 -74 -98.5t-92 -124.5q44 -45 95 -45z" />
    <glyph glyph-name="ugrave" unicode="&#xf9;" horiz-adv-x="448" 
d="M123 377q9 0 11 -16q2 -14 -1 -66q-5 -110 -5 -197q0 -30 25.5 -46.5t55.5 -16.5q54 2 86 29q12 10 13 22q7 35 7 127q0 93 -9 107q-11 13 -44 24q-7 2 -9 6q-1 1 -1 3t3 3t22 3t46 4.5t44 2.5q9 0 12 -10q2 -20 1 -42q0 -6 -2 -59t-2 -81v-61q0 -55 5 -80q1 -5 3 -7.5
t4 -1.5q3 0 10.5 2t17.5 5t15 4q3 0 5 -2.5t1 -4.5q-7 -17 -11 -17q-53 -7 -105 -23q-10 -1 -12 3q-5 7 -5 12l2 49q-13 -7 -41 -24.5t-41 -24.5q-25 -15 -59 -15q-59 0 -89 45q-12 20 -12 61q0 58 1 130t1 80q-2 14 -33 38q-5 2 -7 7q-2 4 5 5q80 23 92 23zM171 569
q4 0 9 -8q18 -41 49 -126q1 -3 -9 -10q-40 46 -85 116q-5 7 1 11q23 17 35 17z" />
    <glyph glyph-name="uacute" unicode="&#xfa;" horiz-adv-x="448" 
d="M123 377q9 0 11 -16q2 -14 -1 -66q-5 -110 -5 -197q0 -30 25.5 -46.5t55.5 -16.5q54 2 86 29q12 10 13 22q7 35 7 127q0 93 -9 107q-11 13 -44 24q-7 2 -9 6q-1 1 -1 3t3 3t22 3t46 4.5t44 2.5q9 0 12 -10q2 -20 1 -42q0 -6 -2 -59t-2 -81v-61q0 -55 5 -80q1 -5 3 -7.5
t4 -1.5q3 0 10.5 2t17.5 5t15 4q3 0 5 -2.5t1 -4.5q-7 -17 -11 -17q-53 -7 -105 -23q-10 -1 -12 3q-5 7 -5 12l2 49q-13 -7 -41 -24.5t-41 -24.5q-25 -15 -59 -15q-59 0 -89 45q-12 20 -12 61q0 58 1 130t1 80q-2 14 -33 38q-5 2 -7 7q-2 4 5 5q80 23 92 23zM270 567
q16 0 35 -17q6 -4 1 -9q-90 -98 -102 -111q-2 -2 -7 2l-5 4q4 6 14.5 26t18.5 35.5t18 33t17 27t10 9.5z" />
    <glyph glyph-name="ucircumflex" unicode="&#xfb;" horiz-adv-x="448" 
d="M123 377q9 0 11 -16q2 -14 -1 -66q-5 -110 -5 -197q0 -30 25.5 -46.5t55.5 -16.5q54 2 86 29q12 10 13 22q7 35 7 127q0 93 -9 107q-11 13 -44 24q-7 2 -9 6q-1 1 -1 3t3 3t22 3t46 4.5t44 2.5q9 0 12 -10q2 -20 1 -42q0 -6 -2 -59t-2 -81v-61q0 -55 5 -80q1 -5 3 -7.5
t4 -1.5q3 0 10.5 2t17.5 5t15 4q3 0 5 -2.5t1 -4.5q-7 -17 -11 -17q-53 -7 -105 -23q-10 -1 -12 3q-5 7 -5 12l2 49q-13 -7 -41 -24.5t-41 -24.5q-25 -15 -59 -15q-59 0 -89 45q-12 20 -12 61q0 58 1 130t1 80q-2 14 -33 38q-5 2 -7 7q-2 4 5 5q80 23 92 23zM226 570
q6 0 66 -122q2 -5 -4 -9q-4 -3 -19 -9q-3 0 -5 4q-2 3 -12 23.5t-20 39.5t-15 26q-58 -90 -59 -91q-7 2 -13 7q-3 2 0 10q4 10 28.5 52.5t31.5 49.5q15 19 21 19z" />
    <glyph glyph-name="udieresis" unicode="&#xfc;" horiz-adv-x="448" 
d="M123 377q9 0 11 -16q2 -14 -1 -66q-5 -110 -5 -197q0 -30 25.5 -46.5t55.5 -16.5q54 2 86 29q12 10 13 22q7 35 7 127q0 93 -9 107q-11 13 -44 24q-7 2 -9 6q-1 1 -1 3t3 3t22 3t46 4.5t44 2.5q9 0 12 -10q2 -20 1 -42q0 -6 -2 -59t-2 -81v-61q0 -55 5 -80q1 -5 3 -7.5
t4 -1.5q3 0 10.5 2t17.5 5t15 4q3 0 5 -2.5t1 -4.5q-7 -17 -11 -17q-53 -7 -105 -23q-10 -1 -12 3q-5 7 -5 12l2 49q-13 -7 -41 -24.5t-41 -24.5q-25 -15 -59 -15q-59 0 -89 45q-12 20 -12 61q0 58 1 130t1 80q-2 14 -33 38q-5 2 -7 7q-2 4 5 5q80 23 92 23zM281 529h9
q9 -16 25 -23q3 -2 2.5 -10t-2.5 -9q-17 -8 -23 -30q-1 -3 -10.5 -2t-10.5 6q-5 13 -25 23q-2 2 -2.5 9.5t1.5 8.5q17 7 26 26q1 1 10 1zM159 529q5 0 5 -1q13 -17 25 -21q3 0 2.5 -9t-2.5 -11q-14 -8 -24 -29q-1 -3 -9 -3t-9 3q-9 20 -24 21q-2 1 -3.5 9t1.5 11q1 1 3 2
q16 12 20 25q2 3 15 3z" />
    <glyph glyph-name="yacute" unicode="&#xfd;" horiz-adv-x="400" 
d="M261 355q0 5 4 5q64 0 90 1q17 1 28 1q10 0 12 -3q3 -3 3 -7q-16 -8 -28.5 -21.5t-19.5 -25.5t-26 -49q-31 -60 -56 -113t-49 -107t-32 -71q-51 -111 -73 -195q-5 -20 -5 -41q0 -8 -5 -11q-9 -5 -19 -5q-13 0 -25 11q-11 13 -2 30q3 7 51.5 106.5t51.5 108.5q3 7 -3 33
q-53 168 -99 295q-9 25 -16 34.5t-27 17.5q-8 3 -8 5q1 2 3 4q3 3 10 3q31 0 145 3q4 0 6 -3q3 -3 3 -7q-35 -15 -42 -25.5t0 -38.5q38 -141 74 -228q48 93 98 226q9 25 1.5 36t-40.5 25q-3 1 -5 6zM266 567q14 0 35 -17q6 -4 1 -9q-90 -98 -102 -111q-3 -3 -7 1l-5 4
q70 132 78 132z" />
    <glyph glyph-name="thorn" unicode="&#xfe;" horiz-adv-x="431" 
d="M-2 -287l-2 6q31 16 39 26.5t10 34.5q10 70 10 265l-1 410q0 92 -2 128q-1 13 -10 19t-40 14q1 6 9 11q11 6 47.5 23.5t58.5 29.5q2 1 4 1q3 0 3 -6q-8 -173 -8 -354q6 3 30 14.5t38.5 18t34.5 13t33 6.5q48 0 94 -42q57 -52 57 -128q0 -85 -66 -142q-37 -32 -115 -63
q-15 -7 -31 -7q-31 0 -70 11q-6 -4 -6 -123q1 -99 5 -117q2 -14 12.5 -19.5t41.5 -9.5q4 0 6 -1t1 -3l-1 -4q-4 -6 -15 -6q-14 0 -85.5 -4t-77.5 -4q-2 0 -4 2zM339 166q0 66 -38 111q-44 53 -101 53q-40 0 -75 -23q-9 -7 -9 -22v-72q0 -93 4 -125q4 -27 19 -39
q28 -23 78 -23q42 0 81 27q41 31 41 113z" />
    <glyph glyph-name="ydieresis" unicode="&#xff;" horiz-adv-x="400" 
d="M261 355q0 5 4 5q64 0 90 1q17 1 28 1q10 0 12 -3q3 -3 3 -7q-16 -8 -28.5 -21.5t-19.5 -25.5t-26 -49q-31 -60 -56 -113t-49 -107t-32 -71q-51 -111 -73 -195q-5 -20 -5 -41q0 -8 -5 -11q-9 -5 -19 -5q-13 0 -25 11q-11 13 -2 30q3 7 51.5 106.5t51.5 108.5q3 7 -3 33
q-53 168 -99 295q-9 25 -16 34.5t-27 17.5q-8 3 -8 5q1 2 3 4q3 3 10 3q33 0 144 3q5 0 7 -3q2 -2 2 -7q-34 -15 -41 -25t0 -39q8 -33 33 -111.5t40 -116.5q54 104 98 226q9 25 2 36t-40 25q-5 2 -5 6zM280 529h9q9 -16 25 -23q3 -2 2.5 -10t-2.5 -9q-17 -8 -23 -30
q-1 -3 -10.5 -2t-11.5 6q-5 13 -25 23q-2 1 -2.5 9t1.5 9q17 7 26 26q1 1 11 1zM157 529q6 0 6 -1q13 -17 25 -21q3 0 2.5 -9t-2.5 -11q-14 -8 -24 -29q-1 -3 -8.5 -3t-9.5 3q-9 20 -24 21q-3 1 -4 9t2 11q1 1 3 2q16 12 20 25q1 3 14 3z" />
    <glyph glyph-name="Amacron" unicode="&#x100;" horiz-adv-x="665" 
d="M336 646q7 0 10 -14q19 -60 87 -234q71 -184 124 -299q2 -4 6.5 -14.5t6.5 -14.5t6.5 -12.5t7.5 -12.5t8 -10.5t10 -10t12 -7.5t15 -7t18 -5q1 -1 -0.5 -6t-2.5 -5q-31 0 -69 1.5t-50 1.5q-19 0 -49.5 -2t-33.5 -2q-4 0 -5 3q-1 2 -1 7q40 13 47 28.5t-6 51.5
q-33 93 -49 134q-7 20 -18 20q-115 2 -211 -5q-17 0 -22 -15q-50 -120 -51 -158q0 -17 12.5 -28t50.5 -24q2 -3 0.5 -6.5t-4.5 -4.5q-23 1 -51.5 2.5t-38.5 1.5q-15 0 -40 -2t-30 -2q-9 0 -9 3q-2 5 -1 8q32 10 45 25.5t39 73.5q19 41 86.5 203t107.5 264q15 39 21 57
q2 8 6 10q12 6 16 6zM220 265q1 0 11 -0.5t28.5 -0.5h39.5q50 0 94 2q16 0 11 14q-53 146 -92 238q-2 6 -5 7.5t-5 0t-4 -5.5q-56 -133 -97 -243q-5 -12 19 -12zM246 707l-1 16q0 7 6 7h157q3 -24 3 -30t-6 -7h-147q-12 0 -12 14z" />
    <glyph glyph-name="amacron" unicode="&#x101;" horiz-adv-x="365" 
d="M102 282l-44 -17q-9 -3 -15 -3q-11 0 -11 8q0 6 8 17q12 18 48 43t60 35q31 14 52 14q45 0 75 -34q17 -20 17 -46q0 -33 -1 -100.5t-1 -102.5q0 -73 22 -73q14 0 46 13q2 1 4.5 -2t2.5 -6l-2 -10q0 -4 -7 -8q-10 -6 -41 -14.5t-53 -8.5q-34 0 -39 50q-29 -14 -72.5 -31.5
t-49.5 -17.5q-28 0 -50 19q-27 23 -27 68q0 26 38 48q55 30 163 49q1 17 1 82q0 54 -14 70q-16 16 -60 16q-23 0 -35 -7q-10 -3 -10 -39q0 -10 -5 -12zM146 28q22 0 61 18q15 7 16 22q2 22 2 73q0 13 -7 13q-83 -15 -109 -35q-11 -9 -11 -32q0 -59 48 -59zM100 482l-3 20
q0 5 6 5h162q3 -12 3 -26q0 -10 -11 -10h-145q-12 0 -12 11z" />
    <glyph glyph-name="Abreve" unicode="&#x102;" horiz-adv-x="665" 
d="M336 646q7 0 10 -14q19 -60 87 -234q44 -115 123 -299q1 -3 6 -13t6 -13t5.5 -11.5t6.5 -11.5t7 -10t8.5 -10t9.5 -7.5t12 -7t13.5 -5.5t16.5 -5q1 -1 -0.5 -6t-2.5 -5q-31 0 -69 1.5t-50 1.5q-20 0 -50 -2t-33 -2q-4 0 -5 3q-1 2 -1 7q39 13 46.5 28.5t-5.5 51.5
q-8 24 -49 134q-7 20 -18 20q-116 2 -212 -5q-16 0 -21 -15q-50 -120 -51 -158q0 -18 12.5 -28.5t50.5 -23.5q4 -8 -4 -11q-23 1 -52 2.5t-39 1.5q-15 0 -39.5 -2t-29.5 -2q-9 0 -9 3q-3 3 -1 8q31 10 44 25t40 74q19 41 86.5 203t107.5 264q16 41 20 57q3 8 7 10q9 6 16 6z
M220 265q1 0 11 -0.5t28 -0.5h39q51 0 95 2q16 0 11 14q-53 146 -92 238q-2 6 -5 7.5t-5 0t-4 -5.5q-63 -149 -97 -243q-5 -12 19 -12zM325 683q-36 0 -57.5 21t-21.5 55q1 2 10 9t14 7q7 0 8 -11q3 -17 17.5 -30t34.5 -13q55 0 68 55q8 0 13 -4q3 -2 3 -6q-3 -35 -29.5 -59
t-59.5 -24z" />
    <glyph glyph-name="abreve" unicode="&#x103;" horiz-adv-x="365" 
d="M102 282l-44 -17q-9 -3 -15 -3q-11 0 -11 8q0 6 8 17q12 18 48 43t60 35q31 14 52 14q45 0 75 -34q17 -20 17 -46q0 -33 -1 -100.5t-1 -102.5q0 -73 22 -73q14 0 46 13q2 1 4.5 -2t2.5 -6l-2 -10q0 -4 -7 -8q-10 -6 -41 -14.5t-53 -8.5q-34 0 -39 50q-29 -14 -72.5 -31.5
t-49.5 -17.5q-28 0 -50 19q-27 23 -27 68q0 26 38 48q55 30 163 49q1 17 1 82q0 54 -14 70q-16 16 -60 16q-23 0 -35 -7q-10 -3 -10 -39q0 -10 -5 -12zM146 28q22 0 61 18q15 7 16 22q2 22 2 73q0 13 -7 13q-83 -15 -109 -35q-11 -9 -11 -32q0 -59 48 -59zM178 440
q-34 0 -52 24t-16 59q2 4 11.5 10.5t12.5 6.5t5 -9q7 -52 44 -52q48 0 58 62q6 0 11 -5q3 -1 3 -5q-1 -43 -22.5 -67t-54.5 -24z" />
    <glyph glyph-name="Aogonek" unicode="&#x104;" horiz-adv-x="665" 
d="M336 646q6 0 11 -14q14 -42 26 -76.5t31 -82.5t29 -74q22 -59 67 -166.5t57 -133.5q1 -3 5.5 -13t6 -13t6 -11.5t6.5 -11.5t6.5 -9.5t8.5 -9t9.5 -7t11.5 -7t13.5 -5t16.5 -4.5q1 -1 -0.5 -6.5t-2.5 -5.5q-50 3 -138 3q-53 -61 -53 -100q0 -31 37 -31q25 0 43 11q2 1 3 0
t0 -4l-6 -18q-32 -29 -68 -29q-23 0 -40.5 14t-17.5 43q0 15 10 34t19.5 30.5t28 31t21.5 22.5q15 19 10 35q-3 8 -30.5 83t-34.5 96q-6 17 -18 17q-117 2 -210 -5q-16 0 -21 -12q-2 -4 -13.5 -34t-18 -48t-13.5 -41.5t-7 -34.5q-1 -18 11 -28t52 -24q2 -2 0 -6t-5 -5
q-22 1 -51 2.5t-39 1.5q-15 0 -39.5 -2t-30.5 -2q-7 0 -9 3q-2 5 0 9q32 10 47 26.5t39 71.5q44 96 192 466q10 26 20 58q1 7 6 10q12 6 16 6zM220 266h11t28.5 -0.5t39.5 -0.5q49 0 95 2q15 0 11 13q-73 188 -94 236q-2 5 -6.5 5.5t-6.5 -4.5q-52 -122 -94 -239
q-5 -12 16 -12z" />
    <glyph glyph-name="aogonek" unicode="&#x105;" horiz-adv-x="365" 
d="M144 29q26 0 63 18q14 7 15 22q2 22 2 71q0 13 -7 13q-82 -15 -110 -36q-9 -7 -9 -30q0 -58 46 -58zM106 282l-44 -17q-9 -3 -14 -3q-11 0 -11 8q0 5 7 17q12 19 48 43.5t59 34.5q31 14 50 14q43 0 76 -35q17 -19 17 -45q0 -33 -2 -100.5t-2 -103.5q0 -74 22 -74
q14 0 46 13q2 1 4.5 -1.5t2.5 -6.5l-2 -8q0 -5 -7 -9q-8 -5 -40 -12.5t-56 -9.5q-33 -30 -48.5 -50t-15.5 -43q0 -28 37 -28q25 0 46 13q5 1 3 -3l-6 -18q-32 -29 -68 -29q-56 0 -56 50q0 42 86 114q-7 7 -8.5 9.5t-4 11t-3.5 24.5q-80 -47 -120 -47q-27 0 -54 19
q-24 18 -24 66q0 25 38 47q55 30 163 49q1 17 1 82q0 56 -15 70q-6 6 -24 11t-33 5q-16 0 -34 -6q-8 -5 -8 -40q0 -10 -6 -12z" />
    <glyph glyph-name="Cacute" unicode="&#x106;" horiz-adv-x="628" 
d="M34 309q0 135 81 227q60 66 169 94q61 16 137 16q67 0 131 -22q15 -5 40 11q2 2 5 -1q4 -2 3 -5q-25 -59 -16 -134q0 -4 -4 -5q-8 0 -10 7q-10 42 -20 57q-18 25 -35 37q-45 34 -130 34q-118 0 -193 -95q-67 -83 -67 -227q0 -34 8 -71.5t28.5 -78.5t51 -73t79.5 -53
t109 -21q80 0 142 54q24 22 48 68q3 4 7 0q4 -6 3 -14q-14 -63 -44 -107q-9 -10 -17 -10q-10 1 -63 -7t-92 -8q-72 0 -131.5 19.5t-99.5 51.5t-67.5 75t-40 88.5t-12.5 92.5zM424 761q9 0 22.5 -9t18.5 -17q3 -2 2 -5t-4 -4q-7 -4 -70 -27.5t-71 -27.5q-12 8 -6 12
q56 48 104 76z" />
    <glyph glyph-name="cacute" unicode="&#x107;" horiz-adv-x="346" 
d="M241 381q53 0 87 -31q5 -5 5 -12q0 -11 -23 -28q-10 -6 -20 -2q-7 2 -23 13q-35 24 -71 24q-38 0 -67 -29q-34 -33 -34 -119q0 -84 36 -122q41 -44 87 -44q48 0 104 40q2 2 4.5 1.5t2.5 -2.5q0 -8 -12 -20q-11 -10 -38.5 -26.5t-48.5 -23.5q-29 -9 -51 -9q-23 0 -52 10.5
t-48 26.5q-20 16 -36.5 50t-16.5 77q0 88 56 144q29 29 84 58q46 24 75 24zM267 567q15 0 34 -17q6 -4 1 -9q-63 -68 -101 -111q-3 -3 -8 1l-4 4q66 132 78 132z" />
    <glyph glyph-name="Ccaron" unicode="&#x10c;" horiz-adv-x="628" 
d="M34 309q0 135 81 227q60 66 169 94q61 16 137 16q67 0 131 -22q15 -5 40 11q2 2 5 -1q4 -2 3 -5q-25 -59 -16 -134q0 -4 -4 -5q-8 0 -10 7q-10 42 -20 57q-18 25 -35 37q-45 34 -130 34q-118 0 -193 -95q-67 -83 -67 -227q0 -34 8 -71.5t28.5 -78.5t51 -73t79.5 -53
t109 -21q80 0 142 54q24 22 48 68q3 4 7 0q4 -6 3 -14q-14 -63 -44 -107q-9 -10 -17 -10q-10 1 -63 -7t-92 -8q-72 0 -131.5 19.5t-99.5 51.5t-67.5 75t-40 88.5t-12.5 92.5zM384 677q-3 0 -84 77q-7 7 -2 10q10 10 24 12q9 -7 35 -27.5t35 -27.5q74 49 78 49q10 0 16 -6
q2 -1 2.5 -3t-1.5 -3q-5 -5 -40.5 -34t-36.5 -30q-17 -17 -26 -17z" />
    <glyph glyph-name="ccaron" unicode="&#x10d;" horiz-adv-x="346" 
d="M241 381q53 0 87 -31q5 -5 5 -12q0 -11 -23 -28q-10 -6 -20 -2q-7 2 -23 13q-35 24 -71 24q-38 0 -67 -29q-34 -33 -34 -119q0 -84 36 -122q41 -44 87 -44q48 0 104 40q2 2 4.5 1.5t2.5 -2.5q0 -8 -12 -20q-11 -10 -38.5 -26.5t-48.5 -23.5q-29 -9 -51 -9q-23 0 -52 10.5
t-48 26.5q-20 16 -36.5 50t-16.5 77q0 88 56 144q29 29 84 58q46 24 75 24zM201 430q-7 0 -67 122q-1 5 4 9q7 6 19 8q2 2 5 -4q2 -4 21.5 -41.5t25.5 -46.5q4 6 18.5 28.5t27.5 42t14 20.5q12 -7 13 -8q4 -3 0 -9q-5 -10 -29.5 -52.5t-30.5 -49.5q-15 -19 -21 -19z" />
    <glyph glyph-name="Dcaron" unicode="&#x10e;" horiz-adv-x="710" 
d="M677 316q0 -48 -22.5 -104.5t-70.5 -101.5q-77 -72 -170 -98q-52 -16 -151 -16q-25 0 -87.5 2t-65.5 2q-49 0 -75 -2q-6 3 -3 10q41 14 52.5 25t13.5 34q2 33 2 271q0 194 -6 236q-1 19 -14 27.5t-44 15.5q-4 2 -2 9l2 2q28 0 118 3q116 4 133 4q181 0 282 -90
q108 -95 108 -229zM292 616q-28 0 -63.5 -6t-43.5 -12q-6 -5 -8 -21q-3 -35 -3 -328q0 -148 13 -201q4 -16 17 -20q36 -16 80 -16q92 0 175 56q61 41 92.5 109.5t31.5 147.5q0 138 -91 221q-79 70 -200 70zM315 667q-2 0 -13.5 10t-34 32t-36.5 35q-7 7 -2 10q12 10 24 12
q2 -1 70 -55q73 49 79 49q8 0 16 -6q2 -1 2 -3t-2 -3q-12 -13 -77 -64q-17 -17 -26 -17z" />
    <glyph glyph-name="dcaron" unicode="&#x10f;" horiz-adv-x="446" 
d="M26 158q0 83 67 146q31 29 75.5 49.5t67.5 20.5q36 0 66 -10q2 -1 5.5 1t4.5 6q2 28 2 76q1 95 -4 142q-1 10 -7 15t-27 13q-10 3 -10 5l-1 3q-1 1 3 4q53 21 104 58q3 1 6 0q3 -3 3 -18q-5 -220 -5 -390v-127q0 -81 7 -119q3 -15 10 -15q10 0 42 12q6 2 9 -3q3 -7 3 -12
q0 -3 -10 -6q-86 -18 -109 -27q-5 -1 -9 3.5t-5 11.5q-2 9 -2 50q-113 -55 -140 -55q-24 0 -50.5 13t-43.5 30q-52 49 -52 123zM196 338q-44 0 -72 -28q-32 -30 -32 -98q0 -95 52 -141q37 -33 84 -33q39 0 71 19q10 4 10 16q4 39 4 112.5t-4 99.5q-1 13 -15 25
q-36 28 -98 28zM472 689q13 0 22.5 -14t9.5 -32q0 -31 -21 -60.5t-44 -46.5q-10 -6 -13 -4q-4 0 -4 4q26 36 27 53q6 21 -8 40q-4 12 -11 19q-1 4 5 8q15 6 27 25q5 8 10 8z" />
    <glyph glyph-name="Dcroat" unicode="&#x110;" horiz-adv-x="723" 
d="M109 305h-64q-22 0 -26 5q-3 4 -4.5 14t1.5 11h93q0 229 -1 239q-2 18 -14 25t-43 15q-10 3 -7 11l4 3q28 0 117 3q116 4 134 4q183 0 283 -90q108 -95 108 -230q0 -47 -22.5 -104t-70.5 -101q-47 -44 -85 -64.5t-85 -33.5q-52 -16 -152 -16q-25 0 -87.5 2t-65.5 2
q-49 0 -75 -2q-6 3 -3 10q40 14 51 25t12 32q2 52 2 240zM183 335h156q27 0 31 -8q5 -11 3 -17q-7 -4 -92 -4h-98q2 -201 13 -259q2 -11 16 -18q37 -16 83 -16q91 0 176 57q61 41 93 108t32 142q0 77 -27 134.5t-66 90.5q-87 76 -200 72q-29 -1 -64.5 -7.5t-42.5 -12.5
q-4 -3 -6 -24q-7 -103 -7 -238z" />
    <glyph glyph-name="dcroat" unicode="&#x111;" horiz-adv-x="446" 
d="M196 338q-45 0 -73 -28q-31 -31 -31 -98q0 -96 52 -142q38 -33 84 -33q39 0 71 19q10 6 10 16q5 38 5 113t-5 100q-1 13 -15 25q-36 28 -98 28zM237 374q35 0 65 -10q2 -1 5.5 1t4.5 6q6 80 1 131q-117 0 -141 1l-5 4q4 9 17 18q118 0 128 1q0 45 -2 63q-1 10 -7 15
t-27 13q-10 3 -10 5l-1 3q-1 1 3 4q53 21 104 58q3 1 6 0q3 -3 3 -18q-2 -38 -2 -143h31h22t13 0.5t7 0.5h3q3 0 3 -6q-6 -19 -17 -19h-63q-2 -100 -2 -223v-127q0 -81 7 -120q3 -14 10 -14t42 11q7 2 9 -3q3 -6 3 -11q0 -3 -9 -6q-85 -18 -110 -27q-5 -1 -9 3.5t-5 11.5
q-2 9 -2 50q-45 -23 -63 -31.5t-40 -16t-37 -7.5q-49 0 -95 42q-51 50 -51 124q0 82 69 148q26 25 68.5 46.5t73.5 21.5z" />
    <glyph glyph-name="Emacron" unicode="&#x112;" horiz-adv-x="549" 
d="M192 331h28q69 0 129 3q41 2 56 10.5t34 46.5q3 3 12 1q0 -8 -3.5 -38.5t-3.5 -47.5q0 -15 1.5 -30t3 -28t1.5 -17t-7 -4q-6 0 -8 7q-10 29 -16 39q-16 29 -65 33q-21 2 -106 2q-35 0 -55 -5q-5 -1 -8 -7q-9 -27 -9 -127q0 -101 8 -119q8 -16 30.5 -22t85.5 -6
q110 0 149.5 21t68.5 101q1 1 7 -3q2 -1 2 -5q-3 -68 -29 -131q-5 -8 -12 -8q-14 0 -46 1q-62 2 -162 2q-70 0 -238 -8q-4 2 -1 7q1 3 4 5q31 10 42.5 18.5t12.5 20.5q6 66 6 188v168q0 138 -5 185q-2 16 -14 23q-16 9 -48 13q-3 2 -3 6l1 2q0 3 13 3h28q12 0 51.5 -1.5
t71.5 -1.5h83q28 0 88.5 3t84.5 3q23 0 27 -6q4 -7 2 -16q-9 -58 -9 -112q-12 0 -14 8q-12 63 -29.5 81.5t-68.5 18.5h-79q-67 0 -95 -7q-7 -2 -9 -9t-2 -28q0 -39 0.5 -109.5t0.5 -104.5q0 -19 13 -19zM203 698l-2 16q0 7 6 7h158q3 -24 3 -30t-7 -7h-147q-11 0 -11 14z
" />
    <glyph glyph-name="emacron" unicode="&#x113;" horiz-adv-x="351" 
d="M202 375q40 0 73 -31q27 -27 37 -66q26 11 32 8q5 -5 3 -11q-7 -15 -19 -19q-31 -7 -117.5 -24.5t-107.5 -23.5q-6 -2 -6 -19q1 -77 33 -114t81 -37q75 0 119 46q6 6 6 0q0 -18 -10 -25q-46 -41 -110 -64q-16 -5 -35 -5q-62 0 -115 53q-41 44 -41 120q0 113 97 182
q41 30 80 30zM247 268q0 27 -24.5 54.5t-52.5 27.5q-14 0 -23 -8q-21 -16 -34 -49t-13 -69q33 7 138 34q9 2 9 10zM107 477l-3 20q0 5 6 5h162q3 -6 3 -26q0 -10 -11 -10h-145q-11 0 -12 11z" />
    <glyph glyph-name="Edotaccent" unicode="&#x116;" horiz-adv-x="549" 
d="M192 331h27q70 0 130 3q40 2 55.5 11t34.5 46q3 4 11 1q0 -8 -3.5 -38.5t-3.5 -47.5q0 -15 1.5 -30t3 -28t1.5 -17q1 -2 -0.5 -3t-6.5 -1t-7 7q-7 20 -16 39q-16 29 -65 33q-21 2 -106 2q-35 0 -55 -5q-5 -1 -8 -7q-9 -27 -9 -127q0 -101 8 -119q8 -16 30 -22t86 -6
q110 0 149 21t69 101q2 2 6 -3q2 -1 2 -5q-2 -70 -29 -131q-5 -8 -12 -8q-14 0 -46 1q-62 2 -162 2q-69 0 -237 -8q-4 2 -1 7q1 3 4 5q31 10 42.5 18.5t12.5 20.5q6 66 6 188v168q0 138 -5 185q-2 16 -14 23q-16 9 -48 13q-3 2 -3 6l1 2q0 3 13 3h28q12 0 51.5 -1.5
t71.5 -1.5h83q28 0 88.5 3t83.5 3q22 0 27 -6q4 -6 3 -16q-10 -58 -10 -112q-11 0 -14 8q-12 63 -29 81.5t-68 18.5h-80q-68 0 -94 -7q-7 -2 -9 -9t-2 -28q0 -39 0.5 -109.5t0.5 -104.5q0 -19 13 -19zM241 703q-3 0 -4.5 9t1.5 12q2 1 5 3.5t4.5 3.5t3.5 2.5t3.5 2.5t3 3
t2.5 4t2 4.5t2 5.5q2 5 11.5 6t12.5 -4q2 -3 4 -6.5t3 -5t2.5 -3l3 -3t4 -3t7.5 -3.5q4 0 3.5 -9t-3.5 -12q-11 -5 -14.5 -10.5t-9.5 -21.5q0 -2 -5 -2.5t-10 0.5t-5 2q-12 25 -27 25z" />
    <glyph glyph-name="edotaccent" unicode="&#x117;" horiz-adv-x="351" 
d="M202 375q40 0 73 -31q27 -27 37 -66q26 11 32 8q5 -5 3 -11q-7 -15 -19 -19q-31 -7 -117.5 -24.5t-107.5 -23.5q-6 -2 -6 -19q1 -77 33 -114t81 -37q75 0 119 46q6 6 6 0q0 -18 -10 -25q-46 -41 -110 -64q-16 -5 -35 -5q-62 0 -115 53q-41 44 -41 120q0 113 97 182
q41 30 80 30zM247 268q0 27 -24.5 54.5t-52.5 27.5q-14 0 -23 -8q-21 -16 -34 -49t-13 -69q33 7 138 34q9 2 9 10zM150 481q-3 0 -4.5 8.5t1.5 12.5q21 15 26 29q2 5 11.5 5.5t12.5 -3.5q2 -3 4 -6.5t3 -5t2.5 -3l3 -3t4 -3t7.5 -3.5q4 0 3.5 -9.5t-3.5 -11.5
q-7 -3 -11.5 -7.5t-6.5 -9t-6 -15.5q0 -2 -5 -2.5t-10 0.5t-5 2q-14 25 -27 25z" />
    <glyph glyph-name="Eogonek" unicode="&#x118;" horiz-adv-x="549" 
d="M104 231v168q0 138 -5 185q-2 16 -14 23q-16 9 -48 13q-3 2 -3 6l1 3q0 2 13 2h28q12 0 51.5 -1.5t71.5 -1.5h83q28 0 88.5 3t84.5 3q23 0 26 -6q4 -4 3 -17q-10 -63 -10 -111q-13 0 -14 8q-13 58 -31 79t-66 21h-80q-68 0 -94 -7q-7 -2 -9 -9t-2 -28q0 -39 0.5 -109.5
t0.5 -105.5q0 -18 13 -18h27q70 0 130 3q41 2 56 10.5t33 46.5q3 3 13 1q-7 -81 -7 -86q0 -15 1.5 -30t3 -28t1.5 -17t-8 -4q-4 0 -8 7q-6 23 -16 41q-14 27 -64 30q-31 3 -106 3q-43 0 -55 -3q-7 -5 -8 -9q-9 -27 -9 -126q0 -101 8 -119q8 -17 30.5 -23.5t85.5 -6.5
q110 0 148.5 21.5t66.5 101.5q6 2 9 -3q2 -1 2 -10q-2 -65 -29 -126q-5 -8 -12 -8q-20 0 -40 1q-68 -60 -68 -103q0 -32 36 -32q25 0 44 14q5 1 3 -3l-6 -18q-31 -29 -64 -29q-24 0 -41.5 13t-17.5 42q0 55 91 116q-48 2 -144 2q-70 0 -238 -8q-4 2 -1 8q1 4 4 5
q32 11 43 18.5t12 19.5q6 66 6 188z" />
    <glyph glyph-name="eogonek" unicode="&#x119;" horiz-adv-x="351" 
d="M248 270q0 27 -24.5 54t-52.5 27q-14 0 -23 -8q-22 -17 -34.5 -49.5t-11.5 -67.5q86 19 138 34q8 2 8 10zM263 -124l-6 -18q-34 -29 -67 -29q-23 0 -39.5 14t-16.5 41q0 40 71 107q-8 -1 -19 -1q-66 0 -120 51q-41 44 -41 122q0 113 97 182q41 30 80 30q40 0 73 -31
q27 -27 37 -63q29 7 32 5q5 -5 3 -11q-7 -16 -19 -20q-29 -7 -116 -24t-109 -23q-6 -2 -6 -19q1 -78 33.5 -114.5t81.5 -36.5q75 0 119 46q6 6 6 0q-2 -19 -9 -25q-57 -50 -98 -64q-52 -52 -52 -97q0 -15 11 -24t27 -9q22 0 44 14q4 1 3 -3z" />
    <glyph glyph-name="Ecaron" unicode="&#x11a;" horiz-adv-x="549" 
d="M192 331h28q69 0 129 3q41 2 56 10.5t34 46.5q3 3 12 1q0 -8 -3.5 -38.5t-3.5 -47.5q0 -15 1.5 -30t3 -28t1.5 -17t-7 -4q-6 0 -8 7q-10 29 -16 39q-16 29 -65 33q-21 2 -106 2q-35 0 -55 -5q-5 -1 -8 -7q-9 -27 -9 -127q0 -101 8 -119q8 -16 30.5 -22t85.5 -6
q110 0 149.5 21t68.5 101q1 1 7 -3q2 -1 2 -5q-3 -68 -29 -131q-5 -8 -12 -8q-14 0 -46 1q-62 2 -162 2q-70 0 -238 -8q-4 2 -1 7q1 3 4 5q31 10 42.5 18.5t12.5 20.5q6 66 6 188v168q0 138 -5 185q-2 16 -14 23q-16 9 -48 13q-3 2 -3 6l1 2q0 3 13 3h28q12 0 51.5 -1.5
t71.5 -1.5h83q28 0 88.5 3t84.5 3q23 0 27 -6q4 -7 2 -16q-9 -58 -9 -112q-12 0 -14 8q-12 63 -29.5 81.5t-68.5 18.5h-79q-67 0 -95 -7q-7 -2 -9 -9t-2 -28q0 -39 0.5 -109.5t0.5 -104.5q0 -19 13 -19zM283 667q-2 0 -13.5 10t-34 32t-36.5 35q-7 7 -2 10q12 10 24 12
q2 -1 70 -55q73 49 79 49q8 0 16 -6q2 -1 2 -3t-2 -3q-12 -13 -77 -64q-17 -17 -26 -17z" />
    <glyph glyph-name="ecaron" unicode="&#x11b;" horiz-adv-x="351" 
d="M202 375q40 0 73 -31q27 -27 37 -66q26 11 32 8q5 -5 3 -11q-7 -15 -19 -19q-31 -7 -117.5 -24.5t-107.5 -23.5q-6 -2 -6 -19q1 -77 33 -114t81 -37q75 0 119 46q6 6 6 0q0 -18 -10 -25q-46 -41 -110 -64q-16 -5 -35 -5q-62 0 -115 53q-41 44 -41 120q0 113 97 182
q41 30 80 30zM247 268q0 27 -24.5 54.5t-52.5 27.5q-14 0 -23 -8q-21 -16 -34 -49t-13 -69q33 7 138 34q9 2 9 10zM188 430q-6 0 -66 122q-2 5 4 9q7 6 18 8q4 2 6 -4q2 -4 21.5 -41.5t25.5 -46.5q58 90 59 91q10 -5 13 -8q5 -3 1 -9q-5 -10 -29.5 -52.5t-30.5 -49.5
q-15 -19 -22 -19z" />
    <glyph glyph-name="Gbreve" unicode="&#x11e;" horiz-adv-x="703" 
d="M34 319q0 142 95 229q52 49 154 78q69 19 144 19q72 0 130 -19q16 -5 17 -2l10 18q1 4 5 3l2 -1q5 -1 5 -19q0 -23 13 -117q3 -20 1 -28q-2 -5 -5 -5h-3q-2 0 -4 10q-33 139 -217 139q-87 0 -162 -65q-41 -36 -69.5 -98.5t-28.5 -146.5q0 -127 82 -209q51 -51 118 -74.5
t118 -23.5q24 0 47.5 8.5t34.5 18.5q26 22 26 134q0 75 -6.5 94.5t-34.5 24.5q-39 9 -43 10q-15 4 -16 7q-2 3 -2 7q0 2 4 2q84 -7 127 -7q11 0 91 5q3 -3 -5 -15q-18 -2 -34 -14q-8 -24 -8 -252q0 -13 -12 -25q-9 -8 -32 -8q-33 0 -65 -3q-70 -6 -98 -6q-181 0 -284 97
q-95 88 -95 234zM386 691q-36 0 -57.5 21t-21.5 55q1 2 10 9t14 7q7 0 8 -11q3 -17 17.5 -30t34.5 -13q55 0 68 55q8 0 13 -4q3 -2 3 -6q-3 -35 -29.5 -59t-59.5 -24z" />
    <glyph glyph-name="gbreve" unicode="&#x11f;" horiz-adv-x="384" 
d="M205 383q34 0 66 -20q14 -9 20 -7q6 0 38.5 7.5t44.5 7.5q11 0 15 -11q4 -5 4 -31q0 -8 -16 -9q-9 0 -76 4q30 -43 30 -95q0 -51 -31.5 -92t-89.5 -67q-67 -31 -81 -40q-9 -4 -9 -10q0 -32 50 -32q5 0 41 1t40 1q73 0 112 -29q28 -21 28 -65q0 -25 -7.5 -41.5
t-28.5 -43.5q-54 -63 -124 -88q-37 -14 -88 -14q-72 0 -106.5 28.5t-34.5 64.5q0 46 30 68q42 32 81 56q-34 17 -49.5 30.5t-15.5 31.5q0 11 7 19q11 12 102 55q-50 9 -87 41q-44 38 -44 103q0 79 77 135q57 42 102 42zM274 191q0 66 -28 111q-28 46 -80 47q-33 0 -53 -19
q-25 -25 -25 -80q0 -79 43 -122q38 -37 74 -37q25 0 47 25.5t22 74.5zM186 -249q77 0 126 38q31 23 31 69q0 37 -23 52q-28 19 -82 19q-75 0 -108 -11q-17 -6 -37 -25q-32 -31 -32 -68q0 -26 28.5 -50t96.5 -24zM186 440q-33 0 -51 24t-16 59q2 4 11 10.5t12 6.5q4 0 6 -9
q6 -52 43 -52q47 0 59 62q6 0 11 -5q3 -1 3 -5q-1 -43 -23 -67t-55 -24z" />
    <glyph glyph-name="Gcommaaccent" unicode="&#x122;" horiz-adv-x="703" 
d="M34 319q0 142 95 229q51 48 154 78q69 19 143 19q73 0 131 -19q16 -5 17 -2l10 18q1 4 5 3l2 -1q5 -1 5 -19q0 -23 13 -117q3 -20 1 -28q-2 -5 -5 -5h-3q-2 0 -4 10q-33 139 -218 139q-88 0 -161 -65q-41 -36 -69.5 -98.5t-28.5 -146.5q0 -127 82 -209q51 -51 118 -74.5
t118 -23.5q23 0 47 8.5t35 18.5q26 22 26 134q0 75 -6.5 94.5t-34.5 24.5q-39 9 -43 10q-15 4 -16 7q-2 3 -2 7q0 2 4 2q84 -7 127 -7q11 0 91 5q3 -3 -5 -15q-18 -2 -34 -14q-8 -24 -8 -252q0 -13 -12 -25q-9 -8 -32 -8q-33 0 -65 -3q-70 -6 -99 -6q-181 0 -283 97
q-95 88 -95 234zM402 -42q13 0 22.5 -14t9.5 -32q0 -31 -21 -60.5t-44 -46.5q-10 -6 -13 -4l-4 4q26 36 27 53q6 21 -8 40q-4 11 -11 20q-2 4 5 7q17 8 27 26q5 7 10 7z" />
    <glyph glyph-name="gcommaaccent" unicode="&#x123;" horiz-adv-x="384" 
d="M204 383q35 0 67 -20q14 -9 20 -7q6 0 38.5 7.5t44.5 7.5q11 0 15 -11q4 -5 4 -31q0 -8 -16 -9q-9 0 -76 4q30 -43 30 -95q0 -51 -31.5 -92t-89.5 -67q-67 -31 -81 -40q-9 -4 -9 -10q0 -32 50 -32q5 0 41 1t40 1q73 0 112 -29q28 -21 28 -65q0 -25 -7.5 -41.5
t-28.5 -43.5q-56 -63 -124 -88q-37 -14 -88 -14q-72 0 -106.5 28.5t-34.5 64.5q0 46 30 68q42 32 81 56q-34 17 -49.5 30.5t-15.5 31.5q0 11 7 19q11 12 102 55q-50 9 -87 41q-44 38 -44 103q0 79 77 135q57 42 101 42zM274 191q0 66 -28 111q-28 46 -80 47q-33 0 -53 -19
q-25 -25 -25 -80q0 -79 43 -122q38 -37 73 -37q26 0 48 25.5t22 74.5zM186 -249q77 0 126 38q31 23 31 69q0 37 -23 52q-28 19 -82 19q-75 0 -107 -11q-18 -6 -38 -25q-32 -31 -32 -68q0 -26 28.5 -50t96.5 -24zM180 465q-13 0 -21.5 13t-8.5 31q0 30 20 58t41 43q10 7 12 5
q4 -2 4 -4q-24 -33 -25 -50q-6 -20 7 -39q7 -14 11 -18q2 -3 -5 -7q-16 -6 -25 -24q-5 -8 -10 -8z" />
    <glyph glyph-name="Imacron" unicode="&#x12a;" horiz-adv-x="303" 
d="M266 629l1 -6q-41 -9 -56 -19t-17 -26q-7 -35 -7 -174v-155q0 -156 6 -195q3 -13 7 -19t15 -11q16 -7 41 -14q4 -1 4 -4q0 -1 -1 -3t-2.5 -3.5t-1.5 -2.5q-74 5 -119 3q-21 -1 -55 -4t-36 -3q-6 0 -10 4q-1 4 -1 7q65 17 71 43q8 30 8 198v170q0 129 -3 156t-20 34
q-18 10 -43 14q-6 1 -6 4q1 1 1 2t1 2q1 3 6 3q7 1 26 1q9 0 33 -1.5t45 -1.5l60 2.5t43 1.5q8 0 10 -3zM74 705l-1 16q-1 7 5 7h158q3 -24 3 -30t-7 -7h-146q-12 0 -12 14z" />
    <glyph glyph-name="imacron" unicode="&#x12b;" horiz-adv-x="207" 
d="M147 378q-9 -162 -9 -260q0 -68 1 -83q1 -11 11 -15q8 -2 16.5 -4t13.5 -3.5t6 -1.5q6 0 4 -5l-2 -4q-3 -4 -8 -4q-8 0 -30 1t-37 1q-18 0 -36.5 -1.5t-29.5 -3t-12 -1.5q-3 0 -5 3v1q-1 2 -1 3q0 3 4 4q19 7 26 14t11 26q7 28 7 151q0 54 -3 111q-1 3 -35 18q-3 1 -3 5
q1 3 7 6q34 11 98 43q4 2 5 2t1 -3zM21 482l-3 20q0 5 6 5h162q3 -6 3 -26q0 -10 -11 -10h-145q-11 0 -12 11z" />
    <glyph glyph-name="Iogonek" unicode="&#x12e;" horiz-adv-x="303" 
d="M113 245v170q0 128 -3 155t-20 34q-18 10 -43 14q-6 1 -6 4q1 0 1 2q0 1 1 2q1 3 6 3q7 1 26 1q9 0 33 -1.5t45 -1.5l60 2.5t43 1.5q8 0 10 -3l1 -6q-41 -9 -56 -19t-17 -26q-7 -35 -7 -174v-155q0 -159 7 -195q3 -14 7 -20t15 -11q13 -7 41 -14q3 0 3 -3q0 -5 -4 -9
q-75 5 -95 3q-25 -45 -25 -90q0 -21 11 -32t29 -11q20 0 43 14q2 1 3 0t0 -4l-6 -19q-35 -28 -64 -28q-25 0 -43 15t-18 44q0 42 52 111q-26 -1 -58.5 -3.5t-39.5 -2.5q-6 0 -10 4q-1 4 -1 7q65 17 71 43q8 30 8 198z" />
    <glyph glyph-name="iogonek" unicode="&#x12f;" horiz-adv-x="207" 
d="M135 590q12 0 21 -10t9 -25q0 -17 -11 -28t-25 -11q-13 0 -23.5 9.5t-10.5 24.5q0 19 12.5 29.5t27.5 10.5zM177 -124l-6 -18q-35 -29 -64 -29q-23 0 -41 15t-18 44q0 45 52 111q-16 0 -31 -1.5t-24 -2.5t-10 -1q-4 0 -5 5v2q-1 1 -1 2q-1 2 4 4q20 7 26.5 13.5
t10.5 24.5q7 28 7 152q0 56 -3 110q-1 3 -35 19q-4 1 -3 6q1 2 7 5q42 15 98 43q6 4 6 -1q-9 -162 -9 -260q0 -69 1 -83q2 -13 11 -14q31 -3 36 -4q6 0 4 -5l-3 -8q-1 -5 -7 -5l-64 1q-26 -50 -26 -91q0 -45 41 -45q19 0 43 15q2 1 3 0t0 -4z" />
    <glyph glyph-name="Idotaccent" unicode="&#x130;" horiz-adv-x="303" 
d="M266 629l1 -6q-41 -9 -56 -19t-17 -26q-7 -35 -7 -175v-155q0 -159 7 -194q3 -13 7 -19t15 -11q14 -7 40 -14q4 -1 4 -4q0 -1 -1 -3t-2.5 -3.5t-1.5 -2.5q-74 5 -118 3q-22 -1 -56 -4t-36 -3q-6 0 -10 4q-1 4 -1 7q65 17 71 43q8 30 8 198v170q0 129 -3 156t-20 34
q-17 9 -42 14q-6 1 -6 4q0 1 0.5 2t0.5 2q1 3 6 3q7 1 27 1q9 0 32.5 -1.5t44.5 -1.5l60 2.5t43 1.5q8 0 10 -3zM116 703q-3 0 -5 9t2 12q21 15 26 29q2 5 11.5 6t12.5 -4q2 -3 4 -6.5t3 -5l2 -3t3 -3t4.5 -3t7.5 -3.5q4 0 3.5 -9t-3.5 -12q-11 -5 -15 -11t-9 -21
q0 -2 -5 -2.5t-10 0.5t-5 2q-14 25 -27 25z" />
    <glyph glyph-name="dotlessi" unicode="&#x131;" horiz-adv-x="207" 
d="M147 378q-9 -162 -9 -260q0 -68 1 -83q1 -11 11 -15q8 -2 16.5 -4t13.5 -3.5t6 -1.5q6 0 4 -5l-2 -4q-3 -4 -8 -4q-8 0 -30 1t-37 1q-18 0 -36.5 -1.5t-29.5 -3t-12 -1.5q-3 0 -5 3v1q-1 2 -1 3q0 3 4 4q19 7 26 14t11 26q7 28 7 151q0 54 -3 111q-1 3 -35 18q-3 1 -3 5
q1 3 7 6q34 11 98 43q4 2 5 2t1 -3z" />
    <glyph glyph-name="Kcommaaccent" unicode="&#x136;" horiz-adv-x="670" 
d="M99 166v240q0 120 -3 151.5t-14 40.5q-10 10 -47 21q0 9 5 11q77 -2 92 -2q26 0 47 1t31.5 2t13.5 1q8 0 10 -4q0 -1 0.5 -3t0.5 -4q-33 -8 -45 -18q-11 -7 -14.5 -31t-3.5 -95v-135q0 -14 2 -17t9 0q13 5 56 41q169 143 228 210q21 23 0 29q-12 6 -39 13v3q0 8 5 8
q50 -2 72.5 -1t58.5 3t55 2q4 0 5 -0.5t0 -3.5q-2 -7 -4 -7q-10 -2 -19.5 -4.5t-18 -6t-14.5 -5.5t-14.5 -7t-11.5 -6t-12 -7.5t-10 -7t-11 -8.5l-10 -7q-73 -54 -240 -207q-8 -6 -3 -15q35 -39 250 -230q73 -65 98 -82q17 -11 58 -19q4 -2 2 -10l-3 -2q-103 2 -211 -1
l-3 10q2 1 6.5 2.5t12.5 4t16 5.5q12 6 0 20q-47 41 -108.5 96.5t-110.5 100.5t-56 51q-22 20 -29 20q-6 0 -6 -16v-86q0 -154 11 -170q6 -12 56 -25q4 -1 5 -6l-3 -7q-6 0 -36.5 1.5t-65.5 1.5q-12 0 -46.5 -1.5t-53.5 -1.5q-2 2 -2 6t2 5q33 12 39 15q12 7 16.5 32
t4.5 111zM336 -42q13 0 22.5 -14t9.5 -32q0 -31 -21.5 -60.5t-43.5 -45.5q-9 -7 -13 -5q-4 4 -4 5q26 34 27 52q6 22 -8 40q-4 11 -11 20q-2 4 5 7q17 8 27 26q5 7 10 7z" />
    <glyph glyph-name="kcommaaccent" unicode="&#x137;" horiz-adv-x="439" 
d="M14 -1l1 4q2 3 8 6q35 12 39 31q7 35 7 261q0 241 -1 276q-1 21 -8 28q-15 15 -19 20q-7 6 -4 11q3 4 42 24t50 24q2 1 3.5 1t2 -1.5t1 -5.5t0.5 -10q0 -95 -1 -144l-4 -317q1 -12 4 -11q9 0 28 16q97 90 116 113q16 21 -16 22q-2 0 -5.5 0.5t-5.5 1.5q-6 0 -4 4l3 6
q3 6 8 6q89 0 144 5q3 0 3 -4v-3q0 -3 -9 -5q-47 -11 -78 -34q-26 -20 -111 -95q-8 -8 1 -19q7 -8 127 -132q36 -36 52 -47.5t46 -18.5q6 -2 6 -10q0 -4 -8 -4q-31 0 -65 1q-18 0 -45 -1t-37 -1q-5 0 -7 5l-2 3q0 2 3 3q28 9 15 23q-25 26 -68.5 70t-63.5 65q-16 16 -25 16
q-7 0 -7 -9q-1 -15 0 -91q0 -58 9 -60q7 -5 31 -9q6 -1 6 -4q0 -4 -3 -7q-4 -4 -8 -4q-1 0 -19.5 1t-35.5 1q-18 0 -50 -2t-40 -2t-6 3zM230 -41q13 0 22.5 -14t9.5 -32q0 -32 -21.5 -61.5t-43.5 -45.5q-9 -7 -13 -5q-4 4 -4 5q26 34 27 52q6 22 -8 40q-4 11 -11 20
q-2 4 5 7q17 8 27 26q5 8 10 8z" />
    <glyph glyph-name="Lacute" unicode="&#x139;" horiz-adv-x="526" 
d="M502 139q3 0 8 -7q2 -6 -1 -15q-20 -59 -28 -103q-2 -14 -15 -17q-10 -1 -61 -1q-11 0 -39 1t-82 2t-122 1q-15 0 -105 -6q-10 -1 -19 -1q-3 5 -2 9q20 6 30.5 10t22 15t14.5 27q6 32 6 151v216q0 115 -4 159q-1 16 -11.5 23.5t-48.5 17.5q-4 1 -2 5v1q3 3 9 3
q11 0 35.5 -1t40.5 -1q18 0 60 3t64 3q4 -6 3 -10q-40 -9 -52.5 -20t-14.5 -35q-6 -47 -6 -186v-121q0 -166 4 -208q2 -20 19 -26q20 -7 88 -7q74 0 110.5 7.5t57.5 31.5q24 26 37 75q1 3 1.5 4t2.5 0zM224 752q8 0 21.5 -9.5t18.5 -17.5q8 -6 -2 -9q-6 -3 -69 -26.5
t-71 -27.5q-5 2 -7 5.5t0 5.5q62 52 104 76q1 0 3 2q1 1 2 1z" />
    <glyph glyph-name="lacute" unicode="&#x13a;" horiz-adv-x="206" 
d="M18 -6l1 5q0 2 4 4q9 3 25 11q16 9 17 36q7 165 7 410v123q0 15 -7 21.5t-32 14.5q-4 2 -3 6q2 3 9 7q6 3 41.5 20.5t57.5 29.5q2 1 4 1t2 -7q-11 -179 -11 -525q0 -86 4 -108.5t18 -24.5q5 -1 13 -2t13.5 -1.5t8.5 -1.5q5 0 4 -4q-1 -1 -3 -5q-1 -4 -7 -4
q-114 0 -162 -8q-4 0 -4 2zM169 786q9 0 22.5 -9t18.5 -17q8 -6 -2 -9q-6 -3 -69 -27t-71 -28q-3 1 -5.5 4t-2.5 5t1 3q58 48 104 75z" />
    <glyph glyph-name="Lcommaaccent" unicode="&#x13b;" horiz-adv-x="526" 
d="M502 139q6 0 8 -7q2 -6 -1 -15q-20 -64 -27 -103q-2 -14 -16 -17q-10 -1 -61 -1q-11 0 -39 1t-82 2t-122 1q-15 0 -105 -6q-10 -1 -19 -1q-3 5 -2 9q20 6 30.5 10t22 15t14.5 27q6 32 6 151v216q0 115 -4 159q-1 16 -11.5 23.5t-48.5 17.5q-4 1 -2 5v1q3 3 9 3
q11 0 35.5 -1t40.5 -1q18 0 60 3t64 3q4 -6 3 -10q-40 -9 -52.5 -20t-14.5 -35q-6 -47 -6 -186v-121q0 -166 4 -208q2 -20 19 -26q20 -7 88 -7q74 0 110.5 7.5t57.5 31.5q24 26 37 75q1 3 1.5 4t2.5 0zM287 -42q13 0 22.5 -14t9.5 -32q0 -32 -21 -61t-44 -46q-7 -5 -13 -5
q-4 4 -4 5q26 36 27 53q6 21 -8 40q-3 9 -11 19q-1 4 5 7q16 7 27 26q5 8 10 8z" />
    <glyph glyph-name="lcommaaccent" unicode="&#x13c;" horiz-adv-x="206" 
d="M18 -6l1 5q0 2 4 4q9 3 25 11q16 9 17 36q7 165 7 410v123q0 15 -7 21.5t-32 14.5q-4 2 -3 6q2 3 9 7q6 3 41.5 20.5t57.5 29.5q2 1 4 1t2 -7q-11 -179 -11 -525q0 -86 4 -108.5t18 -24.5q5 -1 13 -2t13.5 -1.5t8.5 -1.5q5 0 4 -4q-1 -1 -3 -5q-1 -4 -7 -4
q-114 0 -162 -8q-4 0 -4 2zM115 -42q13 0 22.5 -14t9.5 -32q0 -31 -21 -60.5t-44 -46.5q-9 -6 -13 -4q-4 0 -4 4q26 36 27 53q6 21 -8 40q-4 12 -11 19q-1 4 5 8q15 6 27 25q5 8 10 8z" />
    <glyph glyph-name="Lcaron" unicode="&#x13d;" horiz-adv-x="526" 
d="M502 139q3 0 8 -7q2 -6 -1 -15q-20 -59 -28 -103q-2 -14 -15 -17q-10 -1 -61 -1q-11 0 -39 1t-82 2t-122 1q-15 0 -105 -6q-10 -1 -19 -1q-3 5 -2 9q20 6 30.5 10t22 15t14.5 27q6 32 6 151v216q0 115 -4 159q-1 16 -11.5 23.5t-48.5 17.5q-4 1 -2 5v1q3 3 9 3
q11 0 35.5 -1t40.5 -1q18 0 60 3t64 3q4 -6 3 -10q-40 -9 -52.5 -20t-14.5 -35q-6 -47 -6 -186v-121q0 -166 4 -208q2 -20 19 -26q20 -7 88 -7q74 0 110.5 7.5t57.5 31.5q24 26 37 75q1 3 1.5 4t2.5 0zM146 665q-3 0 -13.5 10t-34 32.5t-35.5 34.5q-7 6 -2 10q9 9 23 12
q10 -7 36.5 -28.5t33.5 -26.5q73 49 79 49q8 0 16 -6q1 -1 1 -3t-1 -3q-5 -5 -40.5 -34t-36.5 -30q-19 -17 -26 -17z" />
    <glyph glyph-name="lcaron" unicode="&#x13e;" horiz-adv-x="206" 
d="M18 -6l1 5q0 2 4 4q9 3 25 11q16 9 17 36q7 165 7 410v123q0 15 -7 21.5t-32 14.5q-4 2 -3 6q2 3 9 7q6 3 41.5 20.5t57.5 29.5q2 1 4 1t2 -7q-11 -179 -11 -525q0 -86 4 -108.5t18 -24.5q5 -1 13 -2t13.5 -1.5t8.5 -1.5q4 0 3 -4q-1 -1 -3 -5q-1 -4 -7 -4
q-113 0 -161 -8q-4 0 -4 2zM235 686q13 0 22.5 -14t9.5 -32q0 -32 -21 -61t-44 -46q-7 -5 -13 -5q-4 4 -4 5q26 34 27 52q6 22 -8 41q-4 10 -11 19q-2 4 5 7q16 7 27 26q5 8 10 8z" />
    <glyph glyph-name="Lslash" unicode="&#x141;" horiz-adv-x="537" 
d="M192 322v-56q0 -170 4 -214q2 -20 19 -25q28 -8 88 -8q76 0 112 7t57 32q21 23 36 76q2 5 4 5q6 0 8 -7q3 -4 -1 -15q-20 -64 -27 -103q-2 -14 -16 -17q-10 -1 -61 -1q-10 0 -38.5 1t-82.5 2t-121 1q-16 0 -106 -6q-10 -1 -19 -1q-4 6 -2 9q20 6 30.5 10t22 15t14.5 27
q6 30 6 154v63l-88 -61l-16 6q-1 1 -0.5 5t1.5 5l103 78v114q0 118 -4 162q-1 16 -11.5 23.5t-48.5 16.5q-4 1 -2 6l1 1q3 3 8 3q9 0 34.5 -1t42.5 -1q18 0 60.5 3t61.5 4q5 -5 4 -10q-40 -9 -52.5 -20t-14.5 -35q-7 -58 -7 -216q118 85 122 85q5 0 12.5 -5t9.5 -10z" />
    <glyph glyph-name="lslash" unicode="&#x142;" horiz-adv-x="221" 
d="M148 351l-2 -200q-1 -59 1.5 -87.5t6.5 -35.5t14 -9l35 -5q5 0 4 -4l-3 -6q-1 -4 -7 -4q-109 0 -162 -7q-4 0 -4 3l1 4q0 2 4 5q6 3 24 11q17 9 18 34q3 54 5 248l-30 -24t-23.5 -19t-14.5 -11q-6 -6 -14 1l-1 1q-4 1 -2 5q1 3 18.5 19t39 34.5t28.5 25.5q1 62 1 113v75
t-0.5 43t-0.5 22q0 15 -7.5 21.5t-32.5 14.5q-3 2 -2 6q1 2 9 7q6 3 41.5 20.5t57.5 29.5q1 1 3 1q3 0 3 -7q-10 -167 -10 -295q52 42 78 66q10 9 16 3l7 -7q7 -7 2 -10q-14 -11 -101 -82z" />
    <glyph glyph-name="Nacute" unicode="&#x143;" horiz-adv-x="752" 
d="M21 625v7q10 0 50 -2t67 -2q12 0 17 -4q2 -3 4.5 -8t4.5 -8q7 -19 62 -79q56 -63 393 -398q5 64 3 206q-2 156 -7 211q-2 26 -7.5 38.5t-21.5 18.5q-20 10 -45 14q-5 2 -6 8v3q14 0 43 -1t44 -1q20 0 51 3.5t40 3.5t10 -4l2 -5q-34 -11 -50 -23q-13 -9 -18.5 -44
t-8.5 -136q-4 -186 -4 -292q0 -31 2.5 -79.5t2.5 -55.5q0 -9 -11 -16q-4 -1 -9 6q-17 28 -47.5 65t-54 62t-72.5 75.5t-68 70.5q-167 172 -248 253q-4 -18 -4 -155q0 -264 12 -304q5 -17 21 -25.5t59 -20.5l2 -5q2 -6 -4 -6q-24 0 -61.5 2t-53.5 2q-15 0 -29 -1t-26 -3
t-16 -2q-5 6 -4 10q40 15 51.5 27t15.5 41q10 68 10 259l1 125q0 105 -18 129q-20 26 -67 33q-7 1 -7 7zM436 750q9 0 22.5 -9t18.5 -17q3 -2 2 -5t-4 -4q-7 -4 -70 -27.5t-71 -27.5q-4 2 -6.5 6t-0.5 6q56 47 105 75z" />
    <glyph glyph-name="nacute" unicode="&#x144;" horiz-adv-x="458" 
d="M29 -1l1 5q23 12 31 20.5t10 26.5q6 64 6 146q0 60 -2 94q0 11 -6 16t-31 17q-2 1 -2 4q1 5 8 8q17 7 35.5 16.5t32.5 17.5t15 9l7 3q6 0 6 -9q0 -3 -2 -58q1 -5 3 -5q17 10 37 21.5t32 18t23 12.5q22 12 45 12q37 0 68 -25q37 -30 42 -90v-19v-31v-36q0 -41 -0.5 -82.5
t-0.5 -50.5q0 -18 19 -21q13 -2 31 -4q5 -2 5 -3q0 -4 -5 -11q-2 -3 -7 -3q-47 0 -87.5 -3t-46.5 -3q-9 0 -11 3l-1 4q31 18 35 46q6 36 6 177q0 56 -28 81q-25 23 -62 23q-48 0 -84 -26q-10 -5 -11 -23q-2 -22 -2 -110.5t2 -124.5q1 -9 7.5 -13.5t32.5 -14.5q7 -5 4 -9
l-4 -5h-48q-32 0 -63 -3t-38 -3q-3 0 -2 5zM273 567q15 0 34 -17q6 -4 1 -9q-63 -68 -101 -111q-3 -3 -8 2l-5 4q71 131 79 131z" />
    <glyph glyph-name="Ncommaaccent" unicode="&#x145;" horiz-adv-x="752" 
d="M21 625v7q10 0 50 -2t67 -2q12 0 17 -4q2 -3 4.5 -8t4.5 -8q3 -7 26.5 -37t34.5 -42q57 -63 394 -398q5 64 3 206q-2 156 -7 211q-2 26 -7.5 38.5t-21.5 18.5q-20 10 -45 14q-5 2 -6 8v3q14 0 43 -1t44 -1q20 0 51 3.5t40 3.5t10 -4l2 -5q-34 -11 -50 -23
q-13 -9 -18.5 -44t-8.5 -136q-4 -186 -4 -292q0 -31 2.5 -79.5t2.5 -55.5q0 -9 -11 -16q-4 -1 -9 6q-17 28 -48 65.5t-53 60.5t-74.5 77t-67.5 70q-124 129 -247 253q-4 -18 -4 -155q0 -264 12 -304q5 -17 21 -25.5t59 -20.5l2 -5q2 -6 -4 -6q-24 0 -61.5 2t-53.5 2
q-15 0 -29 -1t-26 -3t-16 -2q-5 6 -4 10q40 15 51.5 27t15.5 41q10 68 10 259l1 125q0 105 -18 129q-20 26 -67 33q-7 1 -7 7zM387 -42q13 0 22.5 -14t9.5 -32q0 -31 -21 -60.5t-44 -46.5q-10 -6 -13 -4l-4 4q26 36 27 53q6 21 -8 40q-4 11 -11 20q-2 4 5 7q17 8 27 26
q5 7 10 7z" />
    <glyph glyph-name="ncommaaccent" unicode="&#x146;" horiz-adv-x="458" 
d="M29 -1l1 5q23 12 31 20.5t10 26.5q6 64 6 146q0 60 -2 94q0 11 -6 16t-31 17q-2 1 -2 4q1 5 8 8q17 7 35.5 16.5t32.5 17.5t15 9l7 3q6 0 6 -9q0 -3 -2 -58q1 -5 3 -5q17 10 37 21.5t32 18t23 12.5q22 12 45 12q37 0 68 -25q37 -30 42 -90v-19v-31v-36q0 -41 -0.5 -82.5
t-0.5 -50.5q0 -18 19 -21q13 -2 31 -4q5 -2 5 -3q0 -4 -5 -11q-2 -3 -7 -3q-47 0 -87.5 -3t-46.5 -3q-9 0 -11 3l-1 4q31 18 35 46q6 36 6 177q0 56 -28 81q-25 23 -62 23q-48 0 -84 -26q-10 -5 -11 -23q-2 -22 -2 -110.5t2 -124.5q1 -9 7.5 -13.5t32.5 -14.5q7 -5 4 -9
l-4 -5h-48q-32 0 -63 -3t-38 -3q-3 0 -2 5zM240 -41q13 0 22.5 -14t9.5 -32q0 -32 -21 -61t-44 -46q-7 -5 -13 -5q-4 4 -4 5q26 34 27 52q6 22 -8 41q-4 10 -11 19q-2 4 5 7q16 7 27 26q5 8 10 8z" />
    <glyph glyph-name="Ncaron" unicode="&#x147;" horiz-adv-x="752" 
d="M21 625v7q10 0 50 -2t67 -2q12 0 17 -4q2 -3 4.5 -8t4.5 -8q7 -19 62 -79q56 -63 393 -398q5 64 3 206q-2 156 -7 211q-2 26 -7.5 38.5t-21.5 18.5q-20 10 -45 14q-5 2 -6 8v3q14 0 43 -1t44 -1q20 0 51 3.5t40 3.5t10 -4l2 -5q-34 -11 -50 -23q-13 -9 -18.5 -44
t-8.5 -136q-4 -186 -4 -292q0 -31 2.5 -79.5t2.5 -55.5q0 -9 -11 -16q-4 -1 -9 6q-17 28 -47.5 65t-54 62t-72.5 75.5t-68 70.5q-167 172 -248 253q-4 -18 -4 -155q0 -264 12 -304q5 -17 21 -25.5t59 -20.5l2 -5q2 -6 -4 -6q-24 0 -61.5 2t-53.5 2q-15 0 -29 -1t-26 -3
t-16 -2q-5 6 -4 10q40 15 51.5 27t15.5 41q10 68 10 259l1 125q0 105 -18 129q-20 26 -67 33q-7 1 -7 7zM379 667q-3 0 -84 77q-7 6 -2 10q9 9 23 12q10 -7 37.5 -28.5t33.5 -26.5q73 49 78 49q10 0 16 -6q2 -1 2.5 -3t-1.5 -3q-5 -5 -40.5 -34t-36.5 -30q-18 -17 -26 -17z
" />
    <glyph glyph-name="ncaron" unicode="&#x148;" horiz-adv-x="458" 
d="M29 -1l1 5q23 12 31 20.5t10 26.5q6 64 6 146q0 60 -2 94q0 11 -6 16t-31 17q-2 1 -2 4q1 5 8 8q17 7 35.5 16.5t32.5 17.5t15 9l7 3q6 0 6 -9q0 -3 -2 -58q1 -5 3 -5q17 10 37 21.5t32 18t23 12.5q22 12 45 12q37 0 68 -25q37 -30 42 -90v-19v-31v-36q0 -41 -0.5 -82.5
t-0.5 -50.5q0 -18 19 -21q13 -2 31 -4q5 -2 5 -3q0 -4 -5 -11q-2 -3 -7 -3q-47 0 -87.5 -3t-46.5 -3q-9 0 -11 3l-1 4q31 18 35 46q6 36 6 177q0 56 -28 81q-25 23 -62 23q-48 0 -84 -26q-10 -5 -11 -23q-2 -22 -2 -110.5t2 -124.5q1 -9 7.5 -13.5t32.5 -14.5q7 -5 4 -9
l-4 -5h-48q-32 0 -63 -3t-38 -3q-3 0 -2 5zM219 430q-6 0 -67 122q-1 5 4 9q7 6 19 8q2 2 5 -4q4 -6 23 -43t24 -45q4 6 18.5 28.5t27.5 42t14 20.5q10 -5 13 -8q5 -3 1 -9q-46 -85 -61 -102q-15 -19 -21 -19z" />
    <glyph glyph-name="Omacron" unicode="&#x14c;" horiz-adv-x="731" 
d="M369 646q130 0 229.5 -93t99.5 -225q0 -150 -110 -260q-46 -44 -102.5 -65t-99.5 -21q-167 0 -272 116q-37 43 -59 102t-22 117q0 146 110 239q104 90 226 90zM345 624q-89 0 -151 -68q-69 -73 -69 -222q0 -67 23 -131t63 -107q85 -90 189 -90q95 0 152.5 71.5
t57.5 213.5q0 151 -91 256q-68 77 -174 77zM284 705l-1 16q-1 7 5 7h158q3 -24 3 -30t-7 -7h-147q-11 0 -11 14z" />
    <glyph glyph-name="omacron" unicode="&#x14d;" horiz-adv-x="424" 
d="M228 377q60 0 115.5 -51.5t55.5 -139.5q0 -42 -16.5 -79t-31.5 -53t-26 -22q-71 -42 -120 -42q-30 0 -72 18.5t-67 50.5q-40 52 -40 121q0 65 37 111q29 36 63 53q64 33 102 33zM195 350q-34 0 -57 -23q-37 -37 -37 -132q0 -80 47 -134q41 -46 90 -46q31 0 49 16
q41 43 41 119q0 50 -15 96t-42 72q-34 32 -76 32zM130 482l-3 20q0 5 6 5h161q4 -8 4 -26q0 -10 -11 -10h-145q-12 0 -12 11z" />
    <glyph glyph-name="Ohungarumlaut" unicode="&#x150;" horiz-adv-x="731" 
d="M369 646q130 0 229.5 -93t99.5 -225q0 -150 -110 -260q-46 -44 -102.5 -65t-99.5 -21q-167 0 -272 116q-37 43 -59 102t-22 117q0 146 110 239q104 90 226 90zM345 624q-89 0 -151 -68q-69 -73 -69 -222q0 -67 23 -131t63 -107q85 -90 189 -90q95 0 152.5 71.5
t57.5 213.5q0 151 -91 256q-68 77 -174 77zM345 770q16 -6 27 -15q4 -5 -1 -10q-7 -4 -36.5 -30t-36.5 -33q-6 -6 -10 2q-5 7 -4 9q30 65 42 74q7 7 19 3zM453 769q22 -8 26 -14q6 -6 0 -10q-5 -4 -38.5 -32t-34.5 -29q-5 -4 -12 2q-4 5 0 13q35 65 41 69q5 4 18 1z" />
    <glyph glyph-name="ohungarumlaut" unicode="&#x151;" horiz-adv-x="424" 
d="M228 377q60 0 115.5 -51.5t55.5 -139.5q0 -42 -16.5 -79t-31.5 -53t-26 -22q-71 -42 -120 -42q-30 0 -72 18.5t-67 50.5q-40 52 -40 121q0 65 37 111q29 36 63 53q64 33 102 33zM195 350q-34 0 -57 -23q-37 -37 -37 -132q0 -80 47 -134q41 -46 90 -46q31 0 49 16
q41 43 41 119q0 50 -15 96t-42 72q-34 32 -76 32zM159 435l-10 7q28 91 47 122q6 10 20 4q15 -5 25 -17q-10 -13 -43 -60.5t-39 -55.5zM252 430l-9 8q23 76 46 122q6 11 21 4q19 -6 25 -17q-61 -88 -83 -117z" />
    <glyph glyph-name="OE" unicode="&#x152;" horiz-adv-x="1063" 
d="M869 608h-80q-70 0 -95 -9q-7 -3 -9.5 -9t-1.5 -26q1 -41 2.5 -112t1.5 -103q0 -19 13 -19q105 0 157 4q42 3 56.5 11.5t32.5 45.5q2 2 5 2q5 0 7 -2q0 -9 -3 -39t-2 -47q0 -15 1.5 -29.5t3 -27.5t1.5 -17q1 -3 -0.5 -4t-6.5 -1t-8 8q-15 41 -28.5 53.5t-52.5 16.5
q-21 1 -106 1q-50 0 -58 -4q-14 -6 -12 -132q0 -101 9 -119q7 -16 29.5 -22t87.5 -6q108 0 146.5 22t66.5 100q6 1 10 -3q2 -1 2 -11q-3 -66 -28 -125q-5 -8 -12 -8q-34 0 -103.5 1.5t-104.5 1.5q-28 0 -89 -3t-73 -3q-10 0 -8 37q0 11 -0.5 29.5t0.5 30.5q-36 -50 -102 -79
t-131 -29q-74 0 -146 31.5t-122 85.5q-81 89 -84 219q-2 141 107 241q45 40 105.5 63t120.5 23q155 0 246 -119q-4 76 -4 85q-1 19 8 19q3 0 32 -1.5t59 -0.5l78 -1q29 -1 90 2.5t82 3.5q22 0 27 -6q4 -6 3 -16q-9 -58 -9 -109q-2 -2 -4 -2q-8 0 -10 7q-14 58 -31.5 79
t-65.5 21zM343 626q-86 0 -148 -70q-69 -81 -67 -218q2 -148 87 -241q88 -95 190 -95q86 0 148.5 78t61.5 225q-1 86 -21.5 143.5t-68.5 106.5q-71 71 -182 71z" />
    <glyph glyph-name="oe" unicode="&#x153;" horiz-adv-x="649" 
d="M624 86l3 -2q5 -5 1 -11q-34 -39 -78 -62.5t-81 -23.5t-70.5 20t-54.5 53q-27 -32 -67 -51.5t-73 -19.5q-28 0 -65 15t-67 48q-46 53 -46 129q0 102 77 152q25 15 59.5 30t50.5 15q49 0 88.5 -24.5t59.5 -62.5q34 42 83 66q37 19 64 19q47 0 77.5 -29t31.5 -64l22 5
q4 -9 2 -18q-3 -9 -15 -13q-36 -9 -117 -27t-121 -29q-6 -165 122 -165q57 0 114 50zM103 193q0 -97 44 -149q32 -35 75 -35q13 0 32 9.5t32 26.5q36 43 36 136q0 82 -35 127.5t-92 45.5q-32 0 -55 -26q-37 -40 -37 -135zM482 349q-28 0 -52 -23q-33 -32 -38 -105
q103 24 155 38q7 3 7 11q0 27 -20 53t-52 26z" />
    <glyph glyph-name="Racute" unicode="&#x154;" horiz-adv-x="616" 
d="M36 614l-2 8q1 3 6 4q98 2 129 6q54 5 88 5q99 0 162 -44q69 -48 69 -128q0 -29 -10 -53t-30 -42.5t-33 -27.5t-37 -23q-13 -8 -10 -17q9 -38 73 -137q43 -65 80.5 -104.5t89.5 -63.5q11 -4 8 -12q-2 -3 -14 -2q-102 9 -179 82q-53 49 -110 160q-19 35 -34.5 46.5
t-51.5 11.5t-47 -3q-12 -4 -12 -15q0 -123 5 -201q1 -23 11 -31q14 -13 55 -28q0 -1 -1 -2q-2 -2 -2 -3q-1 -2 -8 -2q-5 0 -45 1t-61 1q-22 0 -46 -2t-33 -2q-11 0 -12 2q-3 3 -2 6q3 2 13.5 6.5t17 7t14 8t10.5 10.5q12 16 12 121v90q0 129 -4 317q-1 23 -10.5 32t-48.5 18
zM403 464q0 63 -41.5 109t-114.5 46q-40 0 -60 -13q-9 -4 -12 -19q-3 -29 -3 -213q0 -68 7 -72q12 -3 28 -3q119 0 158 51q38 49 38 114zM327 760q8 0 21.5 -9t19.5 -17q2 -2 1 -5t-4 -4q-6 -4 -69.5 -27.5t-70.5 -27.5q-5 2 -7 6t0 6q58 48 104 75z" />
    <glyph glyph-name="racute" unicode="&#x155;" horiz-adv-x="314" 
d="M37 -1l3 7q21 11 27 18.5t7 22.5q2 19 2 122v97q0 20 -4.5 27.5t-21.5 16.5q-11 6 -11 11q53 27 92 55q7 6 10 6t3 -11q-5 -67 -4 -86q6 3 94 74q14 12 23 12q17 0 30.5 -12.5t13.5 -25.5q0 -11 -24 -39q-10 -10 -15 -10q-4 0 -11 7q-16 18 -36 18q-13 0 -32 -12t-29 -22
q-9 -9 -11.5 -18t-2.5 -33v-100q0 -63 2 -83q3 -20 32 -21l32 -2q9 -2 9 -9l-6 -9q-21 1 -63 1q-29 0 -68 -3l-40 -3q-3 0 -1 4zM223 567q13 0 34 -17q6 -4 1 -9q-63 -68 -101 -111q-3 -3 -8 1l-4 4q70 132 78 132z" />
    <glyph glyph-name="Rcommaaccent" unicode="&#x156;" horiz-adv-x="616" 
d="M36 614l-2 8q1 3 6 4q98 2 129 6q54 5 87 5q99 0 163 -44q69 -48 69 -128q0 -29 -10 -53t-30 -42.5t-33 -27.5t-37 -23q-13 -8 -10 -17q9 -38 73 -137q43 -65 80.5 -104.5t89.5 -63.5q11 -4 8 -12q-2 -3 -14 -2q-102 9 -179 82q-52 48 -111 160q-18 35 -33.5 46.5
t-51.5 11.5t-47 -3q-12 -4 -12 -15q0 -123 5 -201q1 -23 11 -31q14 -13 55 -28q0 -1 -1 -2q-2 -2 -2 -3q-1 -2 -8 -2q-5 0 -45 1t-61 1q-22 0 -46 -2t-33 -2q-11 0 -12 2q-3 3 -2 6q3 2 13.5 6.5t17 7t14 8t10.5 10.5q12 16 12 121v90q0 129 -4 317q-1 23 -10.5 32t-48.5 18
zM403 464q0 63 -41.5 109t-114.5 46q-40 0 -60 -13q-9 -4 -12 -19q-3 -29 -3 -213q0 -68 7 -72q12 -3 28 -3q118 0 158 51q38 49 38 114zM319 -41q13 0 22.5 -14.5t9.5 -32.5q0 -31 -21.5 -60.5t-43.5 -45.5q-9 -7 -13 -5q-4 4 -4 5q26 34 27 52q6 22 -8 40q-4 11 -11 20
q-2 4 5 7q17 8 27 26q5 8 10 8z" />
    <glyph glyph-name="rcommaaccent" unicode="&#x157;" horiz-adv-x="314" 
d="M37 -1l3 7q21 11 27 18.5t7 22.5q2 19 2 122v97q0 20 -4.5 27.5t-21.5 16.5q-11 6 -11 11q53 27 92 55q7 6 10 6t3 -11q-5 -67 -4 -86q6 3 94 74q14 12 23 12q17 0 30.5 -12.5t13.5 -25.5q0 -11 -24 -39q-10 -10 -15 -10q-4 0 -11 7q-16 18 -36 18q-13 0 -32 -12t-29 -22
q-9 -9 -11.5 -18t-2.5 -33v-100q0 -63 2 -83q3 -20 32 -21l32 -2q9 -2 9 -9l-6 -9q-21 1 -63 1q-29 0 -68 -3l-40 -3q-3 0 -1 4zM122 -41q13 0 22.5 -14t9.5 -32q0 -31 -21 -60.5t-44 -46.5q-9 -6 -13 -4q-4 0 -4 4q26 36 27 53q6 21 -8 40q-4 12 -11 19q-1 4 5 8
q15 6 27 25q5 8 10 8z" />
    <glyph glyph-name="Rcaron" unicode="&#x158;" horiz-adv-x="616" 
d="M36 614l-2 8q1 3 6 4q98 2 129 6q54 5 88 5q99 0 162 -44q69 -48 69 -128q0 -29 -10 -53t-30 -42.5t-33 -27.5t-37 -23q-13 -8 -10 -17q9 -38 73 -137q43 -65 80.5 -104.5t89.5 -63.5q11 -4 8 -12q-2 -3 -14 -2q-102 9 -179 82q-53 49 -110 160q-19 35 -34.5 46.5
t-51.5 11.5t-47 -3q-12 -4 -12 -15q0 -123 5 -201q1 -23 11 -31q14 -13 55 -28q0 -1 -1 -2q-2 -2 -2 -3q-1 -2 -8 -2q-5 0 -45 1t-61 1q-22 0 -46 -2t-33 -2q-11 0 -12 2q-3 3 -2 6q3 2 13.5 6.5t17 7t14 8t10.5 10.5q12 16 12 121v90q0 129 -4 317q-1 23 -10.5 32t-48.5 18
zM403 464q0 63 -41.5 109t-114.5 46q-40 0 -60 -13q-9 -4 -12 -19q-3 -29 -3 -213q0 -68 7 -72q12 -3 28 -3q119 0 158 51q38 49 38 114zM256 670q-3 0 -84 77q-7 7 -2 10q12 10 24 12q10 -7 36.5 -28.5t33.5 -26.5q74 49 78 49q9 0 17 -6q1 -1 1 -3t-1 -3q-5 -5 -40.5 -34
t-36.5 -30q-17 -17 -26 -17z" />
    <glyph glyph-name="rcaron" unicode="&#x159;" horiz-adv-x="314" 
d="M37 -1l3 7q21 11 27 18.5t7 22.5q2 19 2 122v97q0 20 -4.5 27.5t-21.5 16.5q-11 6 -11 11q53 27 92 55q7 6 10 6t3 -11q-5 -67 -4 -86q6 3 94 74q14 12 23 12q17 0 30.5 -12.5t13.5 -25.5q0 -11 -24 -39q-10 -10 -15 -10q-4 0 -11 7q-16 18 -36 18q-13 0 -32 -12t-29 -22
q-9 -9 -11.5 -18t-2.5 -33v-100q0 -63 2 -83q3 -20 32 -21l32 -2q9 -2 9 -9l-6 -9q-21 1 -63 1q-29 0 -68 -3l-40 -3q-3 0 -1 4zM155 430q-6 0 -66 122q-3 6 4 9q7 6 18 8q3 1 6 -4q3 -4 21.5 -41.5t24.5 -46.5q4 6 18.5 28.5t27.5 42t14 20.5q8 -4 13 -8q5 -3 1 -9
q-7 -13 -31.5 -54t-29.5 -48q-15 -19 -21 -19z" />
    <glyph glyph-name="Sacute" unicode="&#x15a;" horiz-adv-x="488" 
d="M66 -23q-4 0 -8 6q-5 9 -6 42q-3 73 -13 117q-2 16 -1 17q3 2 8 2t7 -11q6 -36 30 -70q23 -34 64 -55.5t94 -21.5q60 0 100 43t40 104q0 46 -44 82q-30 22 -110 58q-102 46 -138 91q-32 39 -32 100q0 88 78 131q19 11 55 21.5t71 10.5q51 0 88 -8q25 -5 34 -5q6 1 23 22
q4 1 9 -2q-3 -84 8 -133q1 -10 -1 -13q-2 -4 -6 -4q-1 -1 -1.5 0t-2.5 4q-15 46 -43 74q-45 45 -128 45q-51 0 -83.5 -35t-32.5 -83q0 -45 25 -76q24 -29 117 -71q41 -18 61 -27t42.5 -23.5t38.5 -30.5q46 -45 46 -110q0 -100 -84 -147q-29 -18 -74 -28t-73 -10
q-40 0 -115 14q-9 3 -17 -3q-3 -1 -15 -11q-6 -6 -11 -6zM325 766q8 0 21.5 -9t19.5 -17q2 -2 1 -5t-4 -4q-7 -4 -70 -27.5t-71 -27.5q-4 2 -6 6.5t0 5.5q52 45 104 75q3 3 5 3z" />
    <glyph glyph-name="sacute" unicode="&#x15b;" horiz-adv-x="308" 
d="M283 96q0 -47 -48 -77q-42 -27 -90 -27q-11 0 -74 9q-18 5 -38 -2q-2 0 -3 2q-3 3 -2 10q6 44 1 98q0 5 4 8l1 1h2q14 -45 45 -78q32 -32 78 -32q22 0 41 18t19 51q0 14 -6 25.5t-17.5 20.5t-20 14.5t-24 12.5t-18.5 9q-59 32 -78 61q-15 23 -15 49q0 46 43 79
q36 27 84 27q8 0 25 -1.5t27 -1.5t18 2q3 2 6 -1q2 -2 2 -7q2 -47 16 -87q2 -9 -3 -9q-6 0 -16 16q-39 70 -96 70q-20 0 -34 -15t-14 -47q0 -17 5 -29t20.5 -23t21.5 -14l30 -15q1 -1 11 -5.5t16 -7.5t17.5 -10t19 -13t16.5 -15t14.5 -18.5t9.5 -22t4 -25.5zM205 567
q14 0 35 -17q6 -4 1 -9q-30 -30 -102 -111q-3 -3 -8 2l-4 4q4 6 14.5 26t18.5 35.5t18 33t17 27t10 9.5z" />
    <glyph glyph-name="Scedilla" unicode="&#x15e;" horiz-adv-x="488" 
d="M264 -15l-30 -41q51 -13 51 -44q0 -25 -32 -49.5t-54 -31.5l-12 10q19 9 37 26.5t18 27.5t-8.5 16t-31.5 12q-10 2 -10 6t4 11q1 1 18 23t25 31q-50 -1 -132 15q-8 3 -17 -3q-7 -3 -16 -12q-6 -6 -11 -5q-4 0 -8 5q-5 14 -6 42q-1 60 -11 123q-4 15 -1 16q3 3 7 3
q5 0 7 -12q7 -34 29 -69q24 -37 65.5 -61t94.5 -24q60 0 101.5 44t40.5 106q0 53 -45 86q-26 22 -109 56q-99 41 -138 89q-32 39 -32 100q0 87 79 132q58 32 127 32q51 0 88 -8q25 -5 34 -5q6 1 23 22q3 1 9 -1q-4 -74 7 -145q3 -10 0 -12q-3 -3 -7 -5q-1 -1 -1.5 0t-1.5 4
q-9 43 -46 84q-43 47 -125 47q-51 0 -84 -36t-33 -84q0 -45 24 -75q25 -32 117 -70q59 -25 89 -41t53 -39q45 -44 45 -113q1 -99 -85 -149q-43 -25 -106 -34z" />
    <glyph glyph-name="scedilla" unicode="&#x15f;" horiz-adv-x="306" 
d="M169 -5l-31 -44q51 -13 51 -43q0 -25 -31.5 -49.5t-54.5 -31.5l-12 10q20 9 37.5 26t17.5 27q0 11 -8 16.5t-32 11.5q-10 3 -10 6q0 4 4 11q1 1 46 58q-24 0 -76 8q-19 5 -38 -2q-3 0 -4 2q-2 3 -1 10q6 52 0 98q2 7 4 8q1 0 2.5 0.5t2.5 0.5q13 -47 44 -78t78 -31
q22 0 41 17t19 50q0 12 -5 22.5t-10.5 17.5t-17 14.5t-17.5 11t-19 9.5t-15 7q-1 0 -10 5t-12.5 7t-13 7.5t-14 10t-12.5 11.5t-12 14t-9 15.5t-7 18t-2 20.5q0 46 45 80q34 27 77 27q5 0 24 -1.5t30 -0.5q10 0 18 2q4 2 6 -2q2 -2 2 -7q2 -46 16 -87q3 -9 -3 -9
q-7 0 -17 17q-38 69 -95 69q-18 0 -31.5 -14t-13.5 -46q0 -17 5 -29.5t19.5 -23.5t21.5 -14.5t30 -15.5q1 0 10 -4.5t13.5 -7t15 -8t16.5 -10t15 -12t14.5 -15t11 -17t8 -20.5t2.5 -23q0 -46 -48 -77q-34 -21 -65 -23z" />
    <glyph glyph-name="Scaron" unicode="&#x160;" horiz-adv-x="488" 
d="M66 -23q-4 0 -8 6q-5 9 -6 42q-3 73 -13 117q-2 16 -1 17q3 2 8 2t7 -11q6 -36 30 -70q23 -34 64 -55.5t94 -21.5q60 0 100 43t40 104q0 46 -44 82q-30 22 -110 58q-102 46 -138 91q-32 39 -32 100q0 88 78 131q19 11 55 21.5t71 10.5q51 0 88 -8q25 -5 34 -5q6 1 23 22
q3 1 9 -1q-3 -85 8 -134q1 -10 -1 -13q-2 -4 -6 -4q-1 -1 -1.5 0t-2.5 4q-15 46 -43 74q-45 45 -128 45q-51 0 -83.5 -35t-32.5 -83q0 -45 25 -76q24 -29 117 -71q41 -18 61 -27t42.5 -23.5t38.5 -30.5q46 -45 46 -110q0 -100 -84 -147q-29 -18 -74 -28t-73 -10
q-40 0 -115 14q-9 3 -17 -3q-3 -1 -15 -11q-6 -6 -11 -6zM257 674q-2 0 -13.5 10t-34 32t-36.5 35q-7 7 -2 10q12 10 24 12q2 -1 70 -55q73 49 79 49q8 0 16 -6q2 -1 2 -3t-2 -3q-12 -13 -77 -64q-17 -17 -26 -17z" />
    <glyph glyph-name="scaron" unicode="&#x161;" horiz-adv-x="308" 
d="M283 96q0 -47 -48 -77q-42 -27 -90 -27q-11 0 -74 9q-18 5 -38 -2q-2 0 -3 2q-3 3 -2 10q6 44 1 98q0 5 4 8l1 1h2q14 -45 45 -78q32 -32 78 -32q22 0 41 18t19 51q0 14 -6 25.5t-17.5 20.5t-20 14.5t-24 12.5t-18.5 9q-59 32 -78 61q-15 23 -15 49q0 46 43 79
q36 27 84 27q8 0 25 -1.5t27 -1.5t18 2q3 2 6 -1q2 -2 2 -7q2 -47 16 -87q2 -9 -3 -9q-6 0 -16 16q-39 70 -96 70q-20 0 -34 -15t-14 -47q0 -17 5 -29t20.5 -23t21.5 -14l30 -15q1 -1 11 -5.5t16 -7.5t17.5 -10t19 -13t16.5 -15t14.5 -18.5t9.5 -22t4 -25.5zM154 430
q-6 0 -66 122q-3 6 4 9q7 6 18 8q4 2 6 -4q1 -3 21 -41t26 -47q58 90 59 91q8 -4 13 -8q5 -3 1 -9q-44 -83 -60 -102q-15 -19 -22 -19z" />
    <glyph glyph-name="Tcommaaccent" unicode="&#x162;" horiz-adv-x="674" 
d="M194 0v6q32 5 56 14q34 10 39 41q5 27 5 225v101q0 217 -4 220h-80q-95 0 -131 -18q-24 -14 -52 -74q-2 -6 -6 -2q-5 4 -5 12q35 85 46 146q3 2 7 -1q4 -1 5 -6q4 -25 13 -28q10 -6 43 -6q35 -2 157 -2q147 0 263 4q43 1 57 8q17 5 27 27q3 4 5 4q3 0 5 -7q3 -3 -1 -11
q-17 -49 -24 -132q0 -7 -3 -7q-4 0 -6 2q-4 2 -4 10q-4 39 -6 48q-3 16 -15 22q-26 13 -128 13h-63q-18 0 -20 -24q-5 -90 -5 -206v-102q0 -161 5 -206q3 -23 16 -35q17 -16 86 -26q5 -2 4 -4l-1 -3q-3 -6 -17 -6q-13 0 -60.5 1.5t-71.5 1.5q-22 0 -62.5 -3.5t-57.5 -3.5
q-15 0 -16 7zM346 -42q13 0 22.5 -14t9.5 -32q0 -31 -21 -60.5t-44 -46.5q-10 -6 -13 -4l-4 4q26 36 27 53q6 21 -8 40q-4 11 -11 20q-2 3 5 7q17 8 27 26q5 7 10 7z" />
    <glyph glyph-name="tcommaaccent" unicode="&#x163;" horiz-adv-x="275" 
d="M141 435q3 0 3 -5q0 -6 -1.5 -37t-1.5 -34q24 0 67.5 2.5t54.5 2.5q7 0 8.5 -1t0.5 -6q-2 -17 -5 -25q-4 -8 -16 -8q-25 -1 -107 -1q-5 0 -6 -12q-2 -37 -2 -215q0 -30 18 -47.5t45 -17.5q31 0 60 20q5 5 9 2q2 -4 2 -8t-12 -12q-68 -45 -108 -45q-41 0 -66 30
q-16 20 -13 71q1 28 2 121t1 105q1 3 -2 5.5t-6 2.5q-25 0 -32 1q-3 0 -5 1t-2 2.5t1 2.5q58 54 103 99q6 6 10 6zM155 -42q13 0 22.5 -14t9.5 -32q0 -31 -21.5 -60.5t-43.5 -45.5q-9 -7 -13 -5l-4 4q26 36 27 53q6 22 -8 40q-6 14 -11 20q-4 4 4 7q18 7 28 26q3 7 10 7z
" />
    <glyph glyph-name="Tcaron" unicode="&#x164;" horiz-adv-x="674" 
d="M194 0v6q32 5 56 14q34 10 39 41q5 27 5 225v101q0 217 -4 220h-80q-95 0 -131 -18q-24 -14 -52 -74q-2 -6 -6 -2q-5 4 -5 12q35 85 46 146q4 2 7 -1q4 -1 5 -6q4 -25 13 -28q10 -6 43 -6q35 -2 157 -2q147 0 263 4q43 1 57 8q17 5 27 27q3 4 5 4q3 0 5 -6q3 -3 -1 -12
q-17 -49 -24 -132q0 -7 -3 -7q-4 0 -6 2q-4 2 -4 10q-4 39 -6 48q-3 16 -15 22q-26 13 -128 13h-63q-18 0 -20 -24q-5 -90 -5 -206v-102q0 -161 5 -206q3 -23 16 -35q17 -16 86 -26q5 -2 4 -4l-1 -3q-3 -6 -17 -6q-13 0 -60.5 1.5t-71.5 1.5q-22 0 -62.5 -3.5t-57.5 -3.5
q-15 0 -16 7zM338 665q-3 0 -84 77q-7 7 -2 10q12 10 24 12q10 -7 36.5 -28.5t33.5 -26.5q73 49 79 49q8 0 16 -6q2 -1 2 -3t-2 -3q-19 -19 -77 -64q-17 -17 -26 -17z" />
    <glyph glyph-name="tcaron" unicode="&#x165;" horiz-adv-x="275" 
d="M141 435q3 0 3 -5q0 -6 -1.5 -37t-1.5 -34q24 0 67.5 2.5t54.5 2.5q7 0 8.5 -1t0.5 -6q-2 -17 -5 -25q-4 -8 -16 -8q-25 -1 -107 -1q-5 0 -6 -12q-2 -37 -2 -215q0 -30 17.5 -47.5t44.5 -17.5q32 0 60 20q7 5 10 2q2 -4 2 -8t-12 -12q-68 -45 -108 -45q-41 0 -66 30
q-16 20 -13 71q1 28 2 121t1 105q1 3 -2 5.5t-6 2.5q-25 0 -32 1q-3 0 -5 1t-2 2.5t1 2.5q58 54 103 99q6 6 10 6zM244 632q13 0 22.5 -14t9.5 -32q0 -32 -21 -61t-44 -46q-9 -7 -13 -5q-4 4 -4 5q26 34 27 52q6 22 -8 41q-4 10 -11 19q-2 4 5 7q16 7 27 26q5 8 10 8z" />
    <glyph glyph-name="Umacron" unicode="&#x16a;" horiz-adv-x="695" 
d="M683 630l-4 -7q-26 -6 -35 -12q-22 -10 -24 -37q-4 -40 -9 -247q-3 -84 -14 -139t-45 -103t-94.5 -75.5t-123.5 -27.5q-108 0 -176 61q-69 64 -71 198q-2 76 2 204q3 88 2 114.5t-8 38.5q-13 16 -52 24l1 4q2 6 18 6q9 0 41.5 -2.5t43.5 -1.5q16 1 53 3.5t50 2.5
q6 0 6 -3q0 -6 -3 -9q-36 -7 -49 -16t-18 -26q-7 -28 -8 -105q-4 -220 -4 -229q0 -120 73 -181q48 -40 138 -42q108 -1 165 76q46 63 46 242q2 177 -4 220q-4 29 -22 40.5t-57 16.5q-5 1 -7.5 2t-2.5 2v2q1 0 1 2t1 2q4 6 17 4q50 -4 75 -4q12 0 31.5 1t39 3t23.5 2
q5 0 4 -4zM281 710l-1 16q-1 7 5 7h158q3 -24 3 -30t-7 -7h-147q-11 0 -11 14z" />
    <glyph glyph-name="umacron" unicode="&#x16b;" horiz-adv-x="448" 
d="M123 377q9 0 11 -16q2 -14 -1 -66q-5 -110 -5 -197q0 -30 25.5 -46.5t55.5 -16.5q54 2 86 29q12 10 13 22q7 35 7 127q0 93 -9 107q-11 13 -44 24q-7 2 -9 6q-1 1 -1 3t3 3t22 3t46 4.5t44 2.5q9 0 12 -10q2 -20 1 -42q0 -6 -2 -59t-2 -81v-61q0 -55 5 -80q1 -5 3 -7.5
t4 -1.5q3 0 10.5 2t17.5 5t15 4q3 0 5 -2.5t1 -4.5q-7 -17 -11 -17q-53 -7 -105 -23q-10 -1 -12 3q-5 7 -5 12l2 49q-13 -7 -41 -24.5t-41 -24.5q-25 -15 -59 -15q-59 0 -89 45q-12 20 -12 61q0 58 1 130t1 80q-2 14 -33 38q-5 2 -7 7q-2 4 5 5q80 23 92 23zM141 482l-3 20
q0 5 7 5h161q3 -6 3 -26q0 -10 -11 -10h-144q-12 0 -13 11z" />
    <glyph glyph-name="Uring" unicode="&#x16e;" horiz-adv-x="695" 
d="M683 630l-4 -7q-26 -6 -35 -12q-22 -10 -24 -37q-4 -40 -9 -247q-3 -84 -14 -139t-45 -103t-94 -75.5t-123 -27.5q-109 0 -177 61q-69 64 -71 198q-2 76 2 204q3 88 2 114.5t-8 38.5q-13 16 -52 24l1 4q2 6 18 6q9 0 41.5 -2.5t43.5 -1.5q17 1 54 3.5t49 2.5q6 0 6 -3
q0 -6 -3 -9q-36 -7 -49 -16t-18 -26q-7 -28 -8 -105q-4 -220 -4 -229q0 -120 73 -181q48 -40 138 -42q108 -1 165 76q46 63 46 242q2 177 -4 220q-4 29 -22 40.5t-57 16.5q-5 1 -7.5 2t-2.5 2v2q1 0 1 2t1 2q4 6 17 4q50 -4 75 -4q12 0 31.5 1t39 3t23.5 2q5 0 4 -4z
M374 779q23 0 39 -16t16 -40q0 -33 -33 -52q-21 -11 -31 -11q-23 0 -39 15t-16 38q0 42 41 59q15 7 23 7zM367 758q-12 0 -21 -9.5t-9 -23.5q0 -41 37 -43q15 -1 22 9t7 26q0 19 -11 30t-25 11z" />
    <glyph glyph-name="uring" unicode="&#x16f;" horiz-adv-x="448" 
d="M123 377q9 0 11 -16q2 -14 -1 -66q-5 -110 -5 -197q0 -30 25.5 -46.5t55.5 -16.5q54 2 86 29q12 10 13 22q7 35 7 127q0 93 -9 107q-11 13 -44 24q-7 2 -9 6q-1 1 -1 3t3 3t22 3t46 4.5t44 2.5q9 0 12 -10q2 -20 1 -42q0 -6 -2 -59t-2 -81v-61q0 -55 5 -80q1 -5 3 -7.5
t4 -1.5q3 0 10.5 2t17.5 5t15 4q3 0 5 -2.5t1 -4.5q-7 -17 -11 -17q-53 -7 -105 -23q-10 -1 -12 3q-5 7 -5 12l2 49q-13 -7 -41 -24.5t-41 -24.5q-25 -15 -59 -15q-59 0 -89 45q-12 20 -12 61q0 58 1 130t1 80q-2 14 -33 38q-5 2 -7 7q-2 4 5 5q80 23 92 23zM228 553
q25 0 41 -16.5t16 -41.5q0 -36 -33 -54q-18 -11 -32 -11q-23 0 -39.5 15.5t-16.5 40.5q0 42 41 60q12 7 23 7zM222 531q-13 0 -22 -10t-9 -27q0 -39 37 -41q31 0 31 36q0 19 -11 30.5t-26 11.5z" />
    <glyph glyph-name="Uhungarumlaut" unicode="&#x170;" horiz-adv-x="695" 
d="M683 630l-4 -7q-26 -6 -35 -12q-22 -10 -24 -37q-4 -40 -9 -247q-3 -84 -14 -139t-45 -103t-94.5 -75.5t-123.5 -27.5q-108 0 -176 61q-69 64 -71 198q-2 76 2 204q3 88 2 114.5t-8 38.5q-13 16 -52 24l1 4q2 6 18 6q9 0 41.5 -2.5t43.5 -1.5q16 1 53 3.5t50 2.5
q6 0 6 -3q0 -6 -3 -9q-36 -7 -49 -16t-18 -26q-7 -28 -8 -105q-4 -220 -4 -229q0 -120 73 -181q48 -40 138 -42q108 -1 165 76q46 63 46 242q2 177 -4 220q-4 29 -22 40.5t-57 16.5q-5 1 -7.5 2t-2.5 2v2q1 0 1 2t1 2q4 6 17 4q50 -4 75 -4q12 0 31.5 1t39 3t23.5 2
q5 0 4 -4zM350 755q18 -7 26 -15q4 -4 -1 -10q-4 -3 -20 -17t-34 -29.5t-19 -16.5q-5 -5 -9 2q-5 5 -4 9q27 62 42 74q6 6 19 3zM457 754q24 -9 27 -14q5 -5 0 -10q-4 -3 -37.5 -31t-36.5 -30q-5 -4 -11 2q-4 5 0 13q31 63 40 69q7 4 18 1z" />
    <glyph glyph-name="uhungarumlaut" unicode="&#x171;" horiz-adv-x="448" 
d="M123 377q9 0 11 -16q2 -14 -1 -66q-5 -110 -5 -197q0 -30 25.5 -46.5t55.5 -16.5q54 2 86 29q12 10 13 22q7 35 7 127q0 93 -9 107q-11 13 -44 24q-7 2 -9 6q-1 1 -1 3t3 3t22 3t46 4.5t44 2.5q9 0 12 -10q2 -20 1 -42q0 -6 -2 -59t-2 -81v-61q0 -55 5 -80q1 -5 3 -7.5
t4 -1.5q3 0 10.5 2t17.5 5t15 4q3 0 5 -2.5t1 -4.5q-7 -17 -11 -17q-53 -7 -105 -23q-10 -1 -12 3q-5 7 -5 12l2 49q-13 -7 -41 -24.5t-41 -24.5q-25 -15 -59 -15q-59 0 -89 45q-12 20 -12 61q0 58 1 130t1 80q-2 14 -33 38q-5 2 -7 7q-2 4 5 5q80 23 92 23zM165 435l-9 8
q29 95 46 122q7 10 21 4q14 -5 25 -17q-10 -13 -43 -60.5t-40 -56.5zM258 430l-9 9q26 84 46 121q7 10 21 5q19 -6 25 -17q-31 -46 -83 -118z" />
    <glyph glyph-name="Uogonek" unicode="&#x172;" horiz-adv-x="695" 
d="M434 -126l-6 -17q-37 -35 -72 -35q-22 0 -40.5 13.5t-18.5 40.5q0 41 74 108q-12 -1 -28 -1q-124 4 -186 61q-68 63 -70 197q-2 76 2 204q3 87 2 113.5t-8 38.5q-13 16 -52 24l1 4q2 6 18 6q11 0 43 -2t42 -2q16 1 53.5 3.5t50.5 2.5q5 0 5 -3q0 -6 -3 -9
q-35 -7 -48.5 -16.5t-18.5 -26.5q-7 -26 -8 -104q-4 -216 -4 -232q0 -118 73 -176q50 -40 140 -40q108 0 163 74q44 57 44 241q2 177 -5 219q-4 29 -20 40t-56 16q-7 1 -9 3t-1 4l1 1q1 2 2 3q4 6 16 4q50 -4 76 -4q12 0 31 1t38.5 3t23.5 2q7 0 4 -4l-4 -8q-26 -6 -34 -12
q-20 -9 -22 -36q-6 -37 -12 -246q-2 -83 -13.5 -138t-45.5 -103q-29 -39 -76.5 -65.5t-77.5 -31.5q-52 -53 -52 -93q0 -32 35 -32q25 0 50 14q2 1 3 0t0 -4z" />
    <glyph glyph-name="uogonek" unicode="&#x173;" horiz-adv-x="448" 
d="M123 377q9 0 11 -15t-1 -66q-5 -113 -5 -198q0 -30 25.5 -46.5t55.5 -16.5q54 2 86 29q12 10 13 22q7 35 7 127q0 93 -9 107q-12 12 -44 23q-7 2 -9 7q-1 1 -1 3t3 3t22 3t46 4.5t44 2.5q9 0 12 -11q2 -18 1 -41q0 -6 -2 -59t-2 -81v-61q0 -54 5 -79q1 -5 3 -7.5t4 -1.5
q3 1 20 5.5t23 5.5q3 0 5 -2.5t1 -4.5q-7 -18 -11 -18q-50 -5 -87 -16q-56 -61 -56 -95q0 -31 36 -31q29 0 48 11q5 2 3 -3l-6 -19q-34 -29 -67 -29q-25 0 -41.5 13t-16.5 38q0 46 74 109q-7 1 -7 21v41q-14 -8 -42.5 -25.5t-38.5 -23.5q-28 -14 -60 -14q-59 0 -89 45
q-12 20 -12 61q0 58 1 130t1 80q-2 14 -33 37q-5 3 -7 8q-1 3 5 5q80 23 92 23z" />
    <glyph glyph-name="Ydieresis" unicode="&#x178;" horiz-adv-x="602" 
d="M227 632q0 -6 -5 -9q-4 -1 -18 -5.5t-25 -7.5q-19 -6 -10 -21q16 -30 38.5 -68.5t40 -67t32.5 -53t16 -26.5q3 -4 9 -12.5t9 -12.5q6 -8 14 3q82 110 128 180q27 38 27 59q0 17 -62 31l1 4q2 5 13 5q2 0 26 -1.5t45 -0.5q17 0 34.5 1t28.5 1.5t15 0.5q13 0 16 -4
q2 -5 0 -6q-33 -7 -50 -20t-49 -51q-111 -137 -158 -219q-13 -20 -13 -64v-76q0 -81 4 -122q3 -33 16 -42.5t74 -22.5q1 -3 -1 -7q-3 -4 -20 -4q-10 0 -53.5 3t-73.5 3q-18 0 -48 -2.5t-48 -2.5q-8 0 -10 2q-2 4 -2 5q0 3 3 3q64 10 74 33q10 20 10 131v114q0 17 -21 55
q-116 205 -158 255q-17 20 -55 29q-7 2 -7 4q0 3 2 5t12 2q18 0 55 -2t48 -2q9 0 54 3q18 3 37 3q5 -1 5 -3zM397 734h8q9 -16 25 -23q3 -2 2.5 -10t-2.5 -9q-15 -7 -23 -30q-1 -3 -10.5 -2t-10.5 6q-5 13 -25 23q-2 2 -2.5 9.5t1.5 8.5q17 7 26 26q1 1 11 1zM254 734
q6 0 6 -1q9 -16 24 -22q4 0 3.5 -8.5t-3.5 -10.5q-14 -8 -23 -29q-1 -3 -9 -3t-9 3q-9 20 -24 21q-3 1 -4.5 9t1.5 11q19 12 23 27q1 3 15 3z" />
    <glyph glyph-name="Zacute" unicode="&#x179;" horiz-adv-x="677" 
d="M372 0h-122q-53 0 -96.5 -1t-66 -2t-25.5 -1q-14 0 -22 8q-4 4 2 10q78 91 103 122q52 63 177 222t176 227q4 5 1.5 11t-8.5 7q-37 4 -155 4t-166 -5q-46 -7 -75 -44q-14 -16 -40 -67l-4 1q-7 0 -4 15q4 21 27 78.5t28 74.5q3 7 7 7t6 -1q5 -33 12 -34q17 -4 140 -4h145
q66 0 186 5q13 1 22 1q6 0 3 -8q-2 -8 -26 -37q-94 -110 -232 -287q-183 -237 -206 -270q22 -11 200 -11q108 0 152.5 9t64.5 30q30 36 48 83q4 7 9 7q6 0 5 -7q-20 -91 -41 -150q-6 -21 -9 -21q-4 -2 -9 -2q-6 27 -9 27q-21 3 -198 3zM411 759q8 0 22 -9.5t19 -16.5
q6 -6 -2 -9q-7 -4 -71 -28.5t-70 -26.5q-4 2 -6.5 6t-0.5 6q51 43 104 75z" />
    <glyph glyph-name="zacute" unicode="&#x17a;" horiz-adv-x="378" 
d="M275 310h-46q-126 0 -150 -3q-15 -1 -23.5 -12.5t-19.5 -41.5q-3 -10 -6 -10q-5 0 -8 7q-4 7 -1 14q60 125 65 135q1 0 7 -3q3 -3 3 -9v-21q0 -6 19 -6q160 0 228 4q12 1 20 1q9 0 11 -10q-2 -7 -57 -62q-88 -92 -195 -224q-9 -10 3 -14q24 -4 120 -4q60 0 82 7
q10 4 30 33q9 15 13 15q3 0 6 -12q1 -4 -2 -11q-21 -39 -59 -136q-7 2 -11 6q0 2 -0.5 4.5t-0.5 3.5q0 2 5 32q-30 8 -198 7q-22 0 -40 -1t-27.5 -2t-11.5 -1q-3 0 -6 2q-5 3 -7 9q147 140 266 288q11 15 -9 15zM253 567q12 0 35 -17q6 -4 1 -9q-30 -30 -102 -111
q-3 -3 -8 1l-4 4q70 132 78 132z" />
    <glyph glyph-name="Zdotaccent" unicode="&#x17b;" horiz-adv-x="677" 
d="M373 0h-123q-53 0 -96.5 -1t-66 -2t-25.5 -1q-14 0 -21 8q-5 4 1 10q23 23 104 122q190 233 353 449q3 5 1 11t-9 7q-37 4 -155 4q-119 0 -165 -5q-47 -6 -76 -44q-15 -18 -40 -67l-4 1q-7 0 -4 15q5 21 27 77.5t28 75.5q4 7 7 7q5 0 6 -1q5 -32 13 -34q16 -4 140 -4h145
q66 0 186 5q12 1 21 1q5 0 4 -8q-2 -8 -26 -37q-94 -110 -232 -287q-174 -222 -207 -270q22 -11 201 -11q108 0 152.5 9t64.5 30q27 32 48 83q3 7 8 7q7 0 6 -7q-18 -84 -41 -150q-6 -21 -9 -21q-6 -2 -10 -2q-5 27 -8 27q-21 3 -198 3zM303 703q-3 0 -4.5 9t1.5 12
q21 15 26 29q2 5 11.5 6t12.5 -4q2 -3 4 -6.5t3 -5t2.5 -3l3 -3t4 -3t7.5 -3.5q4 0 3.5 -9t-3.5 -12q-11 -5 -14.5 -10.5t-9.5 -21.5q0 -2 -5 -2.5t-10 0.5t-5 2q-12 25 -27 25z" />
    <glyph glyph-name="zdotaccent" unicode="&#x17c;" horiz-adv-x="378" 
d="M275 310h-46q-126 0 -150 -3q-15 -1 -23.5 -12.5t-19.5 -41.5q-3 -10 -6 -10q-5 0 -8 7q-4 7 -1 14q60 125 65 135q1 0 7 -3q3 -3 3 -9v-21q0 -6 19 -6q160 0 228 4q12 1 20 1q9 0 11 -10q-2 -7 -57 -62q-88 -92 -195 -224q-9 -10 3 -14q24 -4 120 -4q60 0 82 7
q10 4 30 33q9 15 13 15q3 0 6 -12q1 -4 -2 -11q-21 -39 -59 -136q-7 2 -11 6q0 2 -0.5 4.5t-0.5 3.5q0 2 5 32q-30 8 -198 7q-22 0 -40 -1t-27.5 -2t-11.5 -1q-3 0 -6 2q-5 3 -7 9q147 140 266 288q11 15 -9 15zM172 481q-3 0 -4.5 8.5t1.5 12.5q21 15 26 29q2 5 11.5 5.5
t12.5 -3.5q2 -3 4 -6.5t3 -5t2.5 -3l3 -3t4 -3t7.5 -3.5q4 0 3.5 -9.5t-3.5 -11.5q-7 -3 -11.5 -7.5t-6.5 -9t-6 -15.5q0 -2 -5 -2.5t-10 0.5t-5 2q-14 25 -27 25z" />
    <glyph glyph-name="Zcaron" unicode="&#x17d;" horiz-adv-x="677" 
d="M372 0h-122q-53 0 -96.5 -1t-66 -2t-25.5 -1q-14 0 -22 8q-4 4 2 10q78 91 103 122q52 63 177 222t176 227q4 5 1.5 11t-8.5 7q-37 4 -155 4t-166 -5q-46 -7 -75 -44q-14 -16 -40 -67l-4 1q-7 0 -4 15q4 21 27 78.5t28 74.5q3 7 7 7t6 -1q5 -33 12 -34q17 -4 140 -4h145
q66 0 186 5q13 1 22 1q6 0 3 -8q-2 -8 -26 -37q-94 -110 -232 -287q-183 -237 -206 -270q22 -11 200 -11q108 0 152.5 9t64.5 30q30 36 48 83q4 7 9 7q6 0 5 -7q-20 -91 -41 -150q-6 -21 -9 -21q-4 -2 -9 -2q-6 27 -9 27q-21 3 -198 3zM350 668q-2 0 -83 77q-7 6 -2 10
q9 9 23 12q2 -1 70 -55q13 10 44.5 29.5t34.5 19.5q8 0 16 -6q2 -1 2 -3t-2 -3q-19 -19 -77 -64q-19 -17 -26 -17z" />
    <glyph glyph-name="zcaron" unicode="&#x17e;" horiz-adv-x="378" 
d="M275 310h-46q-126 0 -150 -3q-15 -1 -23.5 -12.5t-19.5 -41.5q-3 -10 -6 -10q-5 0 -8 7q-4 7 -1 14q60 125 65 135q1 0 7 -3q3 -3 3 -9v-21q0 -6 19 -6q160 0 228 4q12 1 20 1q9 0 11 -10q-2 -7 -57 -62q-88 -92 -195 -224q-9 -10 3 -14q24 -4 120 -4q60 0 82 7
q10 4 30 33q9 15 13 15q3 0 6 -12q1 -4 -2 -11q-21 -39 -59 -136q-7 2 -11 6q0 2 -0.5 4.5t-0.5 3.5q0 2 5 32q-30 8 -198 7q-22 0 -40 -1t-27.5 -2t-11.5 -1q-3 0 -6 2q-5 3 -7 9q147 140 266 288q11 15 -9 15zM205 430q-6 0 -66 122q-3 6 4 9q7 6 18 8q3 1 6 -4
q3 -4 21.5 -41.5t24.5 -46.5q4 6 18.5 28.5t27.5 42t14 20.5q8 -4 13 -8q5 -3 1 -9q-7 -13 -31.5 -54t-29.5 -48q-15 -19 -21 -19z" />
    <glyph glyph-name="longs" unicode="&#x17f;" horiz-adv-x="208" 
d="M138 374v-279q0 -41 4 -53.5t16 -18.5q3 -1 33 -10q8 -2 8 -8q0 -5 -9 -5h-32h-31.5h-23.5q-12 0 -43 -2.5t-36 -2.5t-4 5q4 8 9 9q15 6 21.5 10t12.5 9.5t7.5 21.5t2 32.5t0.5 54.5v174q0 18 -11 19l-29 5q-7 0 -5 6l4 4q7 7 11 8q2 1 7 2.5t12.5 3.5t10.5 3v56
q0 65 11.5 105.5t44.5 76.5q39 42 95 69q27 12 49 12q35 0 60 -29q6 -8 6 -16q0 -9 -18 -25q-8 -7 -17 -3q-2 1 -35 22q-21 12 -47 12t-46 -23t-29 -75t-9 -170z" />
    <glyph glyph-name="florin" unicode="&#x192;" horiz-adv-x="442" 
d="M137 304h-64q2 9 7 10q11 8 76 24q7 57 10.5 80.5t17.5 63t37 63.5q39 39 95 68q32 15 48 15q25 0 41 -14q10 -10 10 -18q0 -11 -19 -28q-7 -7 -15 -3q-41 27 -65 27q-31 0 -52 -55q-27 -73 -34 -196q8 0 57 2.5t53 2.5q7 -7 8 -12l-12 -23l-112 -3q-9 -97 -24 -205
q-16 -115 -68 -170q-23 -25 -62 -51t-63 -26q-37 0 -49 25q-3 10 4 17q21 23 29 23q6 0 12 -5q28 -17 53 -17q20 0 35 18t20 48q19 88 40 329q0 4 -2 6t-5 3t-7 1z" />
    <glyph glyph-name="Scommaaccent" unicode="&#x218;" horiz-adv-x="488" 
d="M66 -23q-4 0 -8 6q-5 9 -6 42q-3 73 -13 117q-2 16 -1 17q3 2 8 2t7 -11q6 -36 30 -70q23 -34 64 -55.5t94 -21.5q60 0 100 43t40 104q0 46 -44 82q-30 22 -110 58q-102 46 -138 91q-32 39 -32 100q0 88 78 131q19 11 55 21.5t71 10.5q51 0 88 -8q25 -5 34 -5q6 1 23 22
q4 1 9 -2q-3 -84 8 -133q1 -10 -1 -13q-2 -4 -6 -4q-1 -1 -1.5 0t-2.5 4q-15 46 -43 74q-45 45 -128 45q-51 0 -83.5 -35t-32.5 -83q0 -45 25 -76q24 -29 117 -71q41 -18 61 -27t42.5 -23.5t38.5 -30.5q46 -45 46 -110q0 -100 -84 -147q-29 -18 -74 -28t-73 -10
q-40 0 -115 14q-9 3 -17 -3q-3 -1 -15 -11q-6 -6 -11 -6zM253 -42q13 0 22.5 -14t9.5 -32q0 -31 -21 -60.5t-44 -46.5q-10 -6 -13 -4l-4 4q26 36 27 53q6 21 -8 40q-4 11 -11 20q-2 4 5 7q17 8 27 26q5 7 10 7z" />
    <glyph glyph-name="scommaaccent" unicode="&#x219;" horiz-adv-x="308" 
d="M283 96q0 -47 -48 -77q-42 -27 -90 -27q-11 0 -74 9q-18 5 -38 -2q-2 0 -3 2q-3 3 -2 10q6 44 1 98q0 5 4 8l1 1h2q14 -45 45 -78q32 -32 78 -32q22 0 41 18t19 51q0 14 -6 25.5t-17.5 20.5t-20 14.5t-24 12.5t-18.5 9q-59 32 -78 61q-15 23 -15 49q0 46 43 79
q36 27 84 27q8 0 25 -1.5t27 -1.5t18 2q3 2 6 -1q2 -2 2 -7q2 -47 16 -87q2 -9 -3 -9q-6 0 -16 16q-39 70 -96 70q-20 0 -34 -15t-14 -47q0 -17 5 -29t20.5 -23t21.5 -14l30 -15q1 -1 11 -5.5t16 -7.5t17.5 -10t19 -13t16.5 -15t14.5 -18.5t9.5 -22t4 -25.5zM165 -41
q13 0 22.5 -14t9.5 -32q0 -32 -21.5 -61.5t-43.5 -45.5q-9 -7 -13 -5q-4 4 -4 5q26 34 27 52q6 22 -8 40q-4 14 -11 20q-2 4 5 7q17 8 27 26q5 8 10 8z" />
    <glyph glyph-name="uni021A" unicode="&#x21a;" horiz-adv-x="674" 
d="M194 0v6q32 5 56 14q34 10 39 41q5 27 5 225v101q0 217 -4 220h-80q-95 0 -131 -18q-24 -14 -52 -74q-2 -6 -6 -2q-5 4 -5 12q35 85 46 146q3 2 7 -1q4 -1 5 -6q4 -25 13 -28q10 -6 43 -6q35 -2 157 -2q147 0 263 4q43 1 57 8q17 5 27 27q3 4 5 4q3 0 5 -7q3 -3 -1 -11
q-17 -49 -24 -132q0 -7 -3 -7q-4 0 -6 2q-4 2 -4 10q-4 39 -6 48q-3 16 -15 22q-26 13 -128 13h-63q-18 0 -20 -24q-5 -90 -5 -206v-102q0 -161 5 -206q3 -23 16 -35q17 -16 86 -26q5 -2 4 -4l-1 -3q-3 -6 -17 -6q-13 0 -60.5 1.5t-71.5 1.5q-22 0 -62.5 -3.5t-57.5 -3.5
q-15 0 -16 7zM346 -42q13 0 22.5 -14t9.5 -32q0 -31 -21 -60.5t-44 -46.5q-10 -6 -13 -4l-4 4q26 36 27 53q6 21 -8 40q-4 11 -11 20q-2 3 5 7q17 8 27 26q5 7 10 7z" />
    <glyph glyph-name="uni021B" unicode="&#x21b;" horiz-adv-x="275" 
d="M141 435q3 0 3 -5q0 -6 -1.5 -37t-1.5 -34q24 0 67.5 2.5t54.5 2.5q7 0 8.5 -1t0.5 -6q-2 -17 -5 -25q-4 -8 -16 -8q-25 -1 -107 -1q-5 0 -6 -12q-2 -37 -2 -215q0 -30 18 -47.5t45 -17.5q31 0 60 20q5 5 9 2q2 -4 2 -8t-12 -12q-68 -45 -108 -45q-41 0 -66 30
q-16 20 -13 71q1 28 2 121t1 105q1 3 -2 5.5t-6 2.5q-25 0 -32 1q-3 0 -5 1t-2 2.5t1 2.5q58 54 103 99q6 6 10 6zM155 -42q13 0 22.5 -14t9.5 -32q0 -31 -21.5 -60.5t-43.5 -45.5q-9 -7 -13 -5l-4 4q26 36 27 53q6 22 -8 40q-6 14 -11 20q-4 4 4 7q18 7 28 26q3 7 10 7z
" />
    <glyph glyph-name="circumflex" unicode="&#x2c6;" horiz-adv-x="400" 
d="M211 570q6 0 66 -122q2 -5 -4 -9q-3 -3 -19 -9q-3 0 -5 4q-2 3 -21.5 41.5t-25.5 47.5q-56 -87 -60 -91q-6 2 -12 7q-3 2 0 10q4 10 28.5 52.5t31.5 49.5q15 19 21 19z" />
    <glyph glyph-name="caron" unicode="&#x2c7;" horiz-adv-x="400" 
d="M190 430q-6 0 -66 122q-2 5 4 9q7 6 18 8q4 2 6 -4q1 -3 21 -41t26 -47q58 90 59 91q10 -5 13 -8q5 -3 1 -9q-44 -83 -60 -102q-15 -19 -22 -19z" />
    <glyph glyph-name="uni02C9" unicode="&#x2c9;" horiz-adv-x="400" 
d="M117 482l-3 20q0 5 6 5h162q3 -12 3 -26q0 -10 -11 -10h-145q-12 0 -12 11z" />
    <glyph glyph-name="breve" unicode="&#x2d8;" horiz-adv-x="400" 
d="M195 440q-34 0 -52 24t-16 59q2 4 11.5 10.5t12.5 6.5t5 -9q7 -52 43 -52q49 0 59 62q6 0 11 -5q3 -1 3 -5q-1 -43 -22.5 -67t-54.5 -24z" />
    <glyph glyph-name="dotaccent" unicode="&#x2d9;" horiz-adv-x="400" 
d="M165 481q-3 0 -5 8.5t2 12.5q21 15 25 29q2 5 12 5.5t13 -3.5q2 -3 4 -6.5t3 -5l2 -3t3 -3l4 -3t7 -3.5q4 0 4 -9.5t-4 -11.5q-10 -5 -14 -11t-9 -21q-1 -3 -10.5 -2.5t-10.5 2.5q-13 25 -26 25z" />
    <glyph glyph-name="ring" unicode="&#x2da;" horiz-adv-x="400" 
d="M204 553q25 0 41 -16.5t16 -41.5q0 -36 -33 -54q-18 -11 -33 -11q-23 0 -39.5 15.5t-16.5 40.5q0 42 41 60q12 7 24 7zM197 531q-12 0 -21.5 -10.5t-9.5 -26.5q0 -39 38 -41q31 0 31 36q0 19 -11.5 30.5t-26.5 11.5z" />
    <glyph glyph-name="ogonek" unicode="&#x2db;" horiz-adv-x="400" 
d="M265 -125l-6 -17q-34 -29 -64 -29q-23 0 -41 15t-18 45q0 45 56 116h15q-30 -52 -30 -95q0 -22 11.5 -34t30.5 -12t43 15q2 1 3 0t0 -4z" />
    <glyph glyph-name="tilde" unicode="&#x2dc;" horiz-adv-x="400" 
d="M174 512q10 0 29.5 -4.5t29.5 -4.5q19 0 40 23q7 -8 6 -10q-2 -5 -20 -23.5t-24 -22.5q-11 -7 -35 -4q-35 7 -43 7q-9 0 -31 -22q-2 -2 -9 -2q-5 0 -4 4q21 42 35 51q11 8 26 8z" />
    <glyph glyph-name="hungarumlaut" unicode="&#x2dd;" horiz-adv-x="400" 
d="M141 435l-10 8q29 91 47 121q7 10 20 4q15 -5 25 -17q-10 -13 -43 -60.5t-39 -55.5zM234 430l-9 9q23 75 46 121q7 10 21 4q19 -6 25 -16q-48 -73 -83 -118z" />
    <glyph glyph-name="pi" unicode="&#x3c0;" horiz-adv-x="500" 
d="M149 365q7 0 65.5 -0.5t120 -1t85.5 -0.5q19 0 40 21q3 4 7 3.5t5 -3.5q-1 -23 -17 -50t-31 -27q-18 -1 -54 -1q-21 -55 -21 -159q0 -51 18.5 -79.5t46.5 -28.5q15 0 42 16q5 3 5 -3q0 -10 -9 -26q-7 -13 -26 -26.5t-43 -13.5q-78 0 -78 120q0 77 44 200h-49
q-20 0 -57.5 1.5t-52.5 1.5q-1 -19 0 -59t1 -62q0 -104 -29.5 -155t-69.5 -51q-21 0 -36.5 20t-16.5 41q0 2 3.5 3.5t5.5 0.5q9 -5 28 -5q17 0 39 19t32 52q23 79 17 197h-32q-48 -2 -85 -44q-13 -13 -15 -13l-5 5q-2 7 4 17q23 44 57 67t61 23z" />
    <glyph glyph-name="uni2010" unicode="&#x2010;" horiz-adv-x="249" 
d="M36 167q0 17 16 29q20 14 157 55q11 4 13 -1q3 -5 2 -10q-13 -42 -19 -44q-141 -31 -163 -37q-2 -1 -4 1t-2 7z" />
    <glyph glyph-name="figuredash" unicode="&#x2012;" horiz-adv-x="347" 
d="M58 319l250 -1q9 0 9 -7q0 -3 -4 -39l-270 2q-1 0 -3 2t-1 5l8 31q1 7 11 7z" />
    <glyph glyph-name="endash" unicode="&#x2013;" horiz-adv-x="514" 
d="M55 223h402q9 0 9 -5q0 -6 -3.5 -19.5t-6.5 -13.5l-403 2q-7 0 -6 9z" />
    <glyph glyph-name="emdash" unicode="&#x2014;" horiz-adv-x="754" 
d="M55 223h642q9 0 9 -5q0 -6 -3.5 -19.5t-6.5 -13.5l-643 2q-7 0 -6 9z" />
    <glyph glyph-name="quoteleft" unicode="&#x2018;" horiz-adv-x="173" 
d="M69 493q-16 0 -26.5 16t-10.5 36q0 35 25.5 69.5t52.5 52.5q9 6 14 4t3 -5q-39 -49 -39 -82q0 -22 22 -39q5 -3 5 -8q-1 -4 -7 -6q-15 -5 -28 -29q-4 -9 -11 -9z" />
    <glyph glyph-name="quoteright" unicode="&#x2019;" horiz-adv-x="173" 
d="M105 667q16 0 26.5 -16t10.5 -36q0 -35 -26 -69.5t-52 -52.5q-9 -6 -14 -4q-4 4 -3 5q39 51 39 83q0 23 -22 38q-5 3 -5 9q2 4 7 5q16 7 28 29q4 9 11 9z" />
    <glyph glyph-name="quotesinglbase" unicode="&#x201a;" horiz-adv-x="147" 
d="M80 108q17 0 28 -17t11 -37q0 -36 -27 -72.5t-54 -54.5q-11 -7 -18 -3l-2 2q0 2 1 3q41 48 41 84q0 24 -22 37q-7 6 -6 12q2 6 7 7q16 6 29 30q4 9 12 9z" />
    <glyph glyph-name="quotedblleft" unicode="&#x201c;" horiz-adv-x="292" 
d="M69 493q-16 0 -26.5 16t-10.5 36q0 35 25.5 69.5t52.5 52.5q9 6 15 4q4 -2 2 -5q-39 -49 -39 -82q0 -23 23 -39q5 -4 4 -8q0 -3 -7 -6q-15 -5 -28 -29q-4 -9 -11 -9zM189 493q-16 0 -26.5 16t-10.5 36q0 35 25.5 69.5t52.5 52.5q9 6 14 4t3 -5q-39 -49 -39 -82
q0 -22 22 -39q5 -3 5 -8q-1 -4 -7 -6q-15 -5 -28 -29q-4 -9 -11 -9z" />
    <glyph glyph-name="quotedblright" unicode="&#x201d;" horiz-adv-x="292" 
d="M104 667q16 0 26.5 -16t10.5 -36q0 -35 -26 -69.5t-52 -52.5q-9 -6 -14 -4q-4 4 -3 5q39 51 39 83q0 23 -22 38q-5 3 -5 9q2 4 7 5q16 7 28 29q4 9 11 9zM224 667q16 0 26.5 -16t10.5 -36q0 -35 -26 -69.5t-52 -52.5q-9 -6 -15 -4q-4 3 -2 5q39 51 39 83q0 23 -23 38
q-5 4 -4 9q0 4 7 5q16 7 28 29q4 9 11 9z" />
    <glyph glyph-name="quotedblbase" unicode="&#x201e;" horiz-adv-x="275" 
d="M80 109q17 0 28 -17t11 -37q0 -36 -27 -72.5t-54 -54.5q-10 -8 -18 -4l-1 1q-1 1 -1 2q0 2 1 3q41 50 41 84q0 22 -22 38q-8 6 -6 11t7 6q18 8 29 31q4 9 12 9zM209 109q17 0 28 -17t11 -37q0 -36 -27.5 -72.5t-53.5 -53.5q-11 -8 -18 -5q-1 0 -1 1t-1 2q0 2 1 3
q41 50 41 84q0 21 -23 39q-6 4 -6 9q1 6 8 7q18 8 29 31q5 9 12 9z" />
    <glyph glyph-name="dagger" unicode="&#x2020;" horiz-adv-x="357" 
d="M196 467q4 0 4 -4q0 -18 -1.5 -45.5t-3.5 -59.5t-3 -44q9 0 61 1.5t57 1.5q8 0 10 -6q2 -8 2 -26q0 -3 -21 -3h-109q-3 -66 -6 -334q0 -17 -6 -18q-12 -4 -19 -4q-5 0 -5 6q1 2 0 176v175q-8 0 -60.5 -0.5t-56.5 -0.5q-7 0 -7 5v24q0 5 5 5q29 0 119 -2v45v52.5v43.5
q0 5 5 8q13 4 35 4z" />
    <glyph glyph-name="daggerdbl" unicode="&#x2021;" horiz-adv-x="357" 
d="M160 452q0 9 5 9q17 0 30 -3q9 -2 7 -8q-4 -60 -4 -123q18 0 57.5 1t58.5 1q6 0 5 -10l-3 -18q-2 -5 -13 -5q-60 2 -108 2q-5 -60 -3 -137q42 1 123 1q8 0 8 -5q0 -7 -3 -17.5t-5 -10.5l-124 1l-4 -198q-6 -10 -24 -10q-5 0 -5 11q0 130 -2 197h-117q-7 21 -7 29
q0 4 11 4q4 0 54.5 -1t60.5 -1q2 46 2 136q-11 0 -46 -0.5t-56 -1.5q-15 0 -15 6l-1 23q0 5 8 5q20 0 57 -1t53 -1v125z" />
    <glyph glyph-name="bullet" unicode="&#x2022;" horiz-adv-x="279" 
d="M149 333q5 0 10 -8q9 -27 11 -31q7 -12 13 -17t25 -16q18 -10 18 -20q0 -5 -6 -7q-32 -11 -41 -21t-24 -52q-3 -7 -10 -7q-15 0 -37 52q-7 14 -38 28q-17 8 -17 17q0 3 8 9.5t16 8.5q23 8 31.5 14.5t18.5 27.5q12 22 22 22z" />
    <glyph glyph-name="onedotenleader" unicode="&#x2024;" horiz-adv-x="500" 
d="M257 107q3 0 12 -21q7 -17 30 -30q10 -6 10 -12q0 -2 -5 -5q-20 -7 -26 -14t-17 -36q-3 -5 -7 -5q-7 0 -26 35q-4 10 -26 19q-11 5 -11 12q0 5 17 12q15 6 20.5 11t14.5 20q7 14 14 14z" />
    <glyph glyph-name="twodotenleader" unicode="&#x2025;" horiz-adv-x="500" 
d="M132 107q2 0 11 -21q7 -17 30 -30q11 -6 11 -12q0 -3 -6 -5q-20 -7 -25.5 -14t-16.5 -36q-2 -5 -7 -5q-9 0 -26 35q-6 11 -27 19q-11 5 -11 12q0 5 17 12q16 6 21.5 11t13.5 20q7 14 15 14zM384 107q3 0 12 -21q4 -10 9 -15.5t21 -14.5q10 -6 10 -12q0 -2 -5 -5
q-20 -7 -26 -14t-17 -36q-2 -5 -7 -5q-7 0 -26 35q-4 10 -26 19q-12 5 -12 12q0 5 17 12q16 6 21.5 11t13.5 20q8 14 15 14z" />
    <glyph glyph-name="ellipsis" unicode="&#x2026;" horiz-adv-x="730" 
d="M133 107q2 0 12 -21q7 -17 30 -30q10 -6 10 -12q0 -2 -5 -5q-20 -7 -26 -14t-17 -35q-2 -6 -7 -6q-7 0 -26 35q-4 10 -26 19q-11 5 -11 12q0 5 17 12q15 6 20.5 11t14.5 20q7 14 14 14zM374 107q2 0 12 -21q7 -17 30 -30q10 -6 10 -12q0 -2 -5 -5q-20 -7 -26 -14t-17 -35
q-2 -6 -7 -6q-7 0 -26 35q-4 10 -26 19q-11 5 -11 12q0 5 17 12q15 6 20.5 11t14.5 20q7 14 14 14zM612 107q2 0 12 -21q7 -17 30 -30q10 -6 10 -12q0 -2 -5 -5q-20 -7 -26 -14t-17 -35q-2 -6 -7 -6q-7 0 -26 35q-4 10 -26 19q-11 5 -11 12q0 5 17 12q15 6 20.5 11t14.5 20
q7 14 14 14z" />
    <glyph glyph-name="perthousand" unicode="&#x2030;" horiz-adv-x="803" 
d="M454 614q10 0 18 -13q-225 -337 -359 -559q-3 -7 -8 -7q-2 0 -9.5 7t-9.5 10q128 202 355 553q6 9 13 9zM259 463q0 -83 -45 -122q-32 -28 -73 -28q-46 0 -75.5 35t-29.5 97q0 75 43 118q39 35 79 35q53 0 77 -40.5t24 -94.5zM153 332q19 0 32 11q26 26 26 105
q0 61 -18 96t-49 35q-21 0 -36 -17q-24 -26 -24 -106q0 -52 20 -88t49 -36zM395 51q-49 0 -76.5 37t-27.5 93q0 84 46 125q36 31 77 31q44 0 73 -36t29 -100q0 -78 -39 -115q-35 -35 -82 -35zM650 51q-49 0 -76.5 37t-27.5 93q0 84 46 125q38 31 78 31q44 0 73 -36t29 -100
q0 -78 -39 -115q-35 -35 -83 -35zM407 69q25 0 37 14q24 24 24 105q0 56 -16.5 94.5t-51.5 38.5q-28 0 -44.5 -35t-16.5 -92q0 -62 20.5 -93.5t47.5 -31.5zM662 70q27 0 38 13q24 26 24 105q0 56 -16.5 94t-51.5 38q-29 0 -45.5 -35t-16.5 -91q0 -61 21 -92.5t47 -31.5z" />
    <glyph glyph-name="guilsinglleft" unicode="&#x2039;" horiz-adv-x="249" 
d="M176 338q4 0 11.5 -8t9.5 -13q1 -4 -2 -11q-71 -77 -107 -122q17 -20 53 -62l48 -56q7 -7 3 -11q-24 -18 -26 -19q-78 87 -119 141q-4 6 9 22t36 44t41.5 50t34.5 41q2 4 8 4z" />
    <glyph glyph-name="guilsinglright" unicode="&#x203a;" horiz-adv-x="249" 
d="M73 35q-4 0 -11 7.5t-10 13.5q0 7 3 10q54 58 107 123q-24 30 -59.5 71t-41.5 49q-3 4 -1 9q2 2 13.5 10.5t12.5 9.5q45 -52 117 -141q4 -6 -10 -22q-12 -14 -51.5 -62.5t-60.5 -73.5q-3 -4 -8 -4z" />
    <glyph glyph-name="fraction" unicode="&#x2044;" horiz-adv-x="84" 
d="M213 619q3 0 9 -5t8 -9q-219 -337 -352 -568q-3 -5 -9 -1q-3 1 -8.5 7.5t-4.5 9.5q133 219 344 557q5 9 13 9z" />
    <glyph glyph-name="zero.superior" unicode="&#x2070;" 
d="M142 704q53 0 80 -46q21 -35 21 -92q0 -83 -40 -123q-40 -35 -79 -35q-44 0 -68 29q-33 37 -33 105q0 98 56 138q33 24 63 24zM131 685q-14 0 -23 -7q-34 -24 -34 -123q0 -60 17.5 -92.5t47.5 -32.5q21 0 33 14q21 24 21 109q0 87 -27 117q-15 15 -35 15z" />
    <glyph glyph-name="four.superior" unicode="&#x2074;" 
d="M142 497l-137 5q0 12 3 19q26 34 75 89.5t64 70.5q2 2 9 8t11.5 10t11.5 7.5t12 3.5q6 0 5 -49q-3 -131 -3 -133q28 0 36.5 3.5t21.5 19.5l3 -1q2 -2 4 -4.5t2 -3.5q-14 -40 -22 -45q-4 -2 -8 -2h-37q0 -43 2 -87q-5 -3 -25 -6.5t-24 -3.5q-3 0 -5.5 3.5t-2.5 5.5z
M44 527h101l4 132q-60 -63 -105 -132z" />
    <glyph glyph-name="five.superior" unicode="&#x2075;" 
d="M227 512q0 -35 -30 -64t-71 -41q-34 -12 -65 -12q-5 0 -13 2q-5 5 -2 8q4 5 12 7q58 11 83 30q35 28 35 59q0 40 -57 48q-38 5 -59 1q-6 -1 -12 2q-6 9 6 46q3 13 18.5 52t21.5 50q3 5 10 3q17 -6 85 -17q7 -1 13 3l6 6l8.5 8.5l5.5 5.5q2 3 6 -1q2 -4 0 -7
q-2 -6 -15 -27.5t-16 -24.5q-5 -5 -12 -5q-26 0 -77 9q-6 0 -11 -7q-11 -19 -20 -43q90 -19 113 -32q37 -21 37 -59z" />
    <glyph glyph-name="six.superior" unicode="&#x2076;" 
d="M154 605q37 0 60.5 -26t23.5 -60q0 -40 -29 -71q-11 -12 -37.5 -25.5t-44.5 -13.5q-36 0 -63 24q-36 36 -36 92q0 88 68 143q55 44 109 44q4 0 8 -4q3 -3 3 -7q-20 -2 -55 -21t-55 -49q-18 -25 -23 -59q50 33 71 33zM128 572q-26 0 -44 -15q-5 -5 -5 -22q0 -50 16 -73
q22 -31 54 -31q19 0 31.5 17t12.5 49t-16.5 53.5t-48.5 21.5z" />
    <glyph glyph-name="seven.superior" unicode="&#x2077;" 
d="M24 621q0 4 11 33.5t16 38.5t11 9q2 0 16 -2q21 -3 81 -3q51 0 76 5q6 0 6 -4q0 -8 -3 -14q-63 -122 -110 -235q-18 -41 -20 -44q-3 -6 -8 -6q-3 0 -19 8q-7 5 -4 15q5 13 47 88q45 82 66 126q4 13 2 16q-3 5 -60 5q-45 0 -58.5 -3t-23.5 -14q-11 -13 -17 -26
q0 -1 -2.5 0t-4.5 3.5t-2 3.5z" />
    <glyph glyph-name="eight.superior" unicode="&#x2078;" 
d="M140 705q35 0 58.5 -20t23.5 -52q0 -15 -8.5 -28t-16.5 -19t-26 -18q20 -10 30.5 -17t21.5 -22t11 -34q0 -33 -33 -60q-42 -27 -73 -27q-38 0 -66.5 21.5t-28.5 56.5q0 12 6 22.5t10.5 15t20.5 15.5t19 13q-44 28 -44 66q0 54 64 80q19 7 31 7zM127 686
q-20 0 -29.5 -12.5t-9.5 -30.5q0 -24 17 -40t54 -28q24 14 24 51q0 29 -16 44.5t-40 15.5zM143 429q46 0 46 41q0 46 -85 74q-10 -4 -18.5 -18.5t-8.5 -30.5q0 -29 20 -47.5t46 -18.5z" />
    <glyph glyph-name="nine.superior" unicode="&#x2079;" 
d="M141 704q39 0 67 -28q32 -33 32 -97q0 -83 -54 -133q-26 -25 -63 -38.5t-64 -13.5q-11 0 -23 5q-1 1 -0.5 5.5t2.5 4.5q53 9 90 36q19 14 35 37t21 41q-57 -17 -75 -17q-32 0 -57.5 23.5t-25.5 65.5q0 41 30 69q15 15 39.5 27.5t45.5 12.5zM114 681q-17 0 -29.5 -19
t-12.5 -49q-1 -35 23.5 -57.5t62.5 -22.5q14 0 29 6q4 13 4 43q0 43 -20.5 71t-56.5 28z" />
    <glyph glyph-name="parenleft.superior" unicode="&#x207d;" horiz-adv-x="181" 
d="M148 761v-11q0 -5 -8 -14q-27 -31 -47 -82.5t-20 -109.5q-1 -110 60 -174q8 -8 8 -12q-1 -15 -8 -24q-4 -4 -14 3q-31 23 -54.5 76t-23.5 125q0 67 27.5 127t68.5 93q11 9 11 3z" />
    <glyph glyph-name="parenright.superior" unicode="&#x207e;" horiz-adv-x="181" 
d="M136 560q0 -132 -83 -226q-7 -6 -11 -3q-1 1 -3.5 2.5t-3.5 2.5q0 5 4 10q27 36 46 91t19 115q0 111 -69 176q0 10 2 28q2 10 8 6q36 -22 63.5 -78.5t27.5 -123.5z" />
    <glyph glyph-name="n.superior" unicode="&#x207f;" horiz-adv-x="297" 
d="M183 314l-3 7l1 4q13 5 18 9.5t6 15.5q2 23 2 84q0 41 -12 52q-14 14 -38 14q-26 0 -46 -14q-6 -5 -6 -19v-117q0 -9 5.5 -13t26.5 -8q1 -1 0.5 -3.5t-2.5 -5.5t-4 -3q-62 0 -98 -4q-1 0 -1.5 3t0.5 6t2 3q10 6 13.5 8t7 7.5t3.5 14.5q2 21 2 70q0 33 -3 58q-2 9 -23 14
q-1 0 -1.5 2t0.5 4.5t2 3.5q11 6 24 14.5t21 13.5t9 5q2 0 4 1t3 1q4 0 5 -6q3 -21 3 -41q13 7 29.5 16t21.5 12q14 9 32 9q58 0 64 -72q1 -16 1 -114q0 -8 7 -12q9 -4 27 -6q1 0 0.5 -3t-2 -6.5t-2.5 -3.5q-58 0 -89 -2q-10 0 -10 1z" />
    <glyph glyph-name="zero.inferior" unicode="&#x2080;" 
d="M142 187q53 0 80 -46q21 -35 21 -92q0 -82 -40 -122q-40 -35 -79 -35q-44 0 -68 29q-33 37 -33 104q0 98 56 138q33 24 63 24zM131 168q-14 0 -23 -7q-34 -24 -34 -122q0 -60 17.5 -92.5t47.5 -32.5q21 0 33 14q21 24 21 108q0 87 -27 117q-15 15 -35 15z" />
    <glyph glyph-name="one.inferior" unicode="&#x2081;" 
d="M173 -82l39 -3q1 -3 -2 -9.5t-6 -6.5q-73 0 -136 -8q-9 0 -4 5q8 9 41 19q3 1 4.5 6.5t2.5 29.5t1 76q0 87 -2 99q0 9 -9 9q-4 0 -11.5 -0.5t-17 -1.5t-14.5 -1q-5 8 -3 9q27 8 59.5 23.5t41.5 22.5q3 2 6 0t2 -5q-5 -60 -5 -128q0 -81 6 -123q1 -13 7 -13z" />
    <glyph glyph-name="two.inferior" unicode="&#x2082;" 
d="M133 189q35 0 58 -25t23 -61q0 -39 -31 -76q-19 -23 -85 -79q-3 -2 -2.5 -4.5t4.5 -2.5q58 0 94 3q3 0 5.5 1t4.5 2t4 3l3.5 3.5t3.5 4.5t3.5 5t4 6t3.5 6q2 5 4 3q3 -1 5 -4.5t1 -5.5q-2 -7 -18 -39t-18 -32q-105 3 -167 3q-7 0 -3 8q5 10 15 20q42 26 81.5 73t39.5 88
q0 21 -14.5 39t-40.5 18q-37 0 -59 -39q-4 -4 -9 -4t-4 4q10 35 30 55q29 27 64 27z" />
    <glyph glyph-name="three.inferior" unicode="&#x2083;" 
d="M140 188q29 0 49 -19t19 -47q0 -31 -54 -69q73 -14 73 -71q0 -45 -56 -81q-38 -23 -85 -25q-29 0 -38 9q-4 3 -3 6q1 6 5 6q52 2 87.5 19.5t35.5 55.5q0 23 -16.5 34.5t-38.5 11.5q-24 0 -36 -3q-6 -1 -6 4q0 6 7 12.5t17 9.5q65 21 65 66q0 16 -12.5 29t-34.5 12
q-32 0 -66 -39q-6 2 -6 9q0 5 4 12q39 58 90 58z" />
    <glyph glyph-name="four.inferior" unicode="&#x2084;" 
d="M142 -20l-137 5q0 12 3 19q26 34 75 89.5t64 70.5q2 2 9 8t11.5 10t11.5 7.5t12 3.5q6 0 5 -49q-3 -131 -3 -133q28 0 36.5 3.5t21.5 19.5q0 1 2.5 -0.5t4.5 -4.5t2 -4q-14 -40 -22 -45q-4 -2 -8 -2h-37q0 -43 2 -87q-5 -3 -25 -6.5t-24 -3.5q-3 0 -5.5 3.5t-2.5 5.5z
M44 10h101l4 132q-60 -63 -105 -132z" />
    <glyph glyph-name="five.inferior" unicode="&#x2085;" 
d="M227 -5q0 -35 -30 -64t-71 -41q-34 -12 -65 -12q-5 0 -13 2q-5 5 -2 8q4 4 12 7q58 11 83 30q35 28 35 59q0 40 -57 48q-38 5 -59 1q-6 -1 -12 2q-6 9 6 46q3 13 18.5 52t21.5 50q3 5 10 3q17 -6 85 -17q7 -1 13 3l6 6l8.5 8.5l5.5 5.5q2 3 6 -1q2 -4 0 -7
q-2 -6 -15 -27.5t-16 -24.5q-5 -5 -12 -5q-26 0 -77 9q-6 0 -11 -7q-11 -19 -20 -43q90 -19 113 -32q37 -21 37 -59z" />
    <glyph glyph-name="six.inferior" unicode="&#x2086;" 
d="M154 88q37 0 60.5 -26t23.5 -60q0 -40 -29 -71q-11 -12 -37.5 -25.5t-44.5 -13.5q-36 0 -63 24q-36 36 -36 92q0 88 68 143q55 44 109 44q4 0 8 -4q3 -3 3 -7q-20 -2 -55 -21t-55 -49q-18 -25 -23 -59q49 33 71 33zM128 55q-26 0 -44 -15q-5 -5 -5 -22q0 -50 16 -73
q22 -31 54 -31q19 0 31.5 17t12.5 49t-16.5 53.5t-48.5 21.5z" />
    <glyph glyph-name="seven.inferior" unicode="&#x2087;" 
d="M24 104q0 4 11 33.5t16 38.5t11 9q2 0 16 -2q21 -3 81 -3q51 0 76 5q6 0 6 -4q0 -8 -3 -14q-63 -122 -110 -235q-18 -41 -20 -44q-3 -6 -8 -6q-3 0 -19 8q-7 5 -4 15q5 13 47 88q45 82 66 126q4 13 2 16q-3 5 -60 5q-45 0 -58.5 -3t-23.5 -14q-11 -13 -17 -26
q0 -1 -2.5 0t-4.5 3.5t-2 3.5z" />
    <glyph glyph-name="eight.inferior" unicode="&#x2088;" 
d="M140 188q35 0 58.5 -19.5t23.5 -51.5q0 -15 -8.5 -28t-16.5 -19.5t-26 -18.5q20 -11 30.5 -17t21.5 -21.5t11 -34.5q0 -32 -33 -60q-42 -27 -73 -27q-38 0 -66.5 21.5t-28.5 57.5q0 9 3 17t9.5 15t11.5 11t16 11t16 11q-44 28 -44 67q0 53 64 79q14 7 31 7zM127 169
q-20 0 -29.5 -12.5t-9.5 -30.5q0 -24 17 -40t54 -28q24 14 24 51q0 29 -15.5 44.5t-40.5 15.5zM143 -88q46 0 46 42q0 44 -85 74q-10 -4 -18.5 -19t-8.5 -31q0 -29 20 -47.5t46 -18.5z" />
    <glyph glyph-name="nine.inferior" unicode="&#x2089;" 
d="M141 187q39 0 67 -28q32 -33 32 -97q0 -83 -54 -133q-26 -25 -63 -39t-64 -14q-11 0 -23 6q-1 1 -0.5 5t2.5 4q53 9 90 36q19 14 35 37.5t21 41.5q-3 -1 -20.5 -5.5t-34 -8t-20.5 -3.5q-32 0 -57.5 23.5t-25.5 66.5q0 40 30 68q15 15 39.5 27.5t45.5 12.5zM114 164
q-17 0 -29.5 -19t-12.5 -49q-1 -35 23.5 -57.5t62.5 -22.5q14 0 29 6q4 13 4 43q0 43 -20.5 71t-56.5 28z" />
    <glyph glyph-name="parenleft.inferior" unicode="&#x208d;" horiz-adv-x="181" 
d="M148 244v-11q0 -5 -8 -14q-27 -31 -47 -82.5t-20 -109.5q-1 -110 60 -174q8 -8 8 -12q-1 -15 -8 -24q-4 -4 -14 3q-31 23 -54.5 76t-23.5 125q0 67 27.5 127t68.5 93q11 9 11 3z" />
    <glyph glyph-name="parenright.inferior" unicode="&#x208e;" horiz-adv-x="181" 
d="M136 43q0 -132 -83 -226q-7 -6 -11 -3q-1 1 -3.5 2.5t-3.5 2.5q0 5 4 10q27 36 46 91t19 115q0 111 -69 176q0 10 2 28q2 10 8 6q36 -22 63.5 -78.5t27.5 -123.5z" />
    <glyph glyph-name="colonmonetary" unicode="&#x20a1;" horiz-adv-x="486" 
d="M372 581l-73 -552q54 0 94 37q25 23 51 76l3 -2q3 -2 5 -4t2 -5q-10 -54 -38 -99q-4 -7 -13 -9q-6 0 -43 -7t-64 -7q-9 -69 -9 -75q-2 -12 -6 -12l-19 8l10 81q-35 1 -57 11l-15 -100q-19 2 -23 8l15 101q-82 30 -120.5 102.5t-36.5 166.5q2 130 70 211q61 72 164 91
l11 87q2 6 6 6q7 -1 19 -9l-11 -80q7 1 61 1l12 84q0 5 6 4q1 -1 7 -5t8 -6l-11 -80q21 -4 42 -13q14 -4 37 10q3 -1 5 -3.5t1 -4.5q-20 -61 -15 -121q0 -5 -5 -3q-7 0 -10 9q-11 51 -21 69.5t-39 33.5zM115 295q-1 -71 20.5 -136.5t62.5 -97.5q11 82 34 254.5t35 266.5
q-78 -26 -114.5 -106t-37.5 -181zM220 48q20 -11 56 -17q30 208 73 554q-36 6 -58 2q-56 -405 -71 -539z" />
    <glyph glyph-name="Euro" unicode="&#x20ac;" horiz-adv-x="442" 
d="M38 357h22q26 187 168 236q35 11 78 11q27 0 74 -18q10 -4 30 9q2 1 4 -1t2 -5q-20 -52 -12 -112q0 -4 -4 -5q-6 0 -9 6q-5 27 -15 46q-11 19 -23 32q-29 27 -69 27q-57 0 -99 -64.5t-49 -160.5l227 3q27 0 27 -5l-1 -3q-4 -11 -10 -15q-5 -3 -57 -3l-188 -1
q-1 -8 -1.5 -25.5t0.5 -25.5l195 1q27 0 27 -5l-1 -3q-1 -4 -3.5 -7t-5.5 -5.5t-4 -3.5q-5 -2 -47 -2l-160 1q2 -28 7.5 -56t17.5 -61t28.5 -57.5t43.5 -41t60 -16.5q40 0 79 42q15 17 33 55q1 2 4 2t4 -2q4 -6 3 -14q-9 -37 -34 -83q-9 -12 -13 -12q-6 0 -32.5 -6.5
t-48.5 -6.5q-205 0 -228 258h-26q-15 0 -22 4q-1 2 2 6t6.5 8t4.5 5l33 1q-2 19 1 50h-10q-16 0 -21 5q-3 3 2 10.5t10 7.5z" />
    <glyph glyph-name="uni2113" unicode="&#x2113;" horiz-adv-x="403" 
d="M159 426v-96q1 -11 9 -6q51 38 87 100.5t36 134.5q0 52 -21.5 79.5t-47.5 27.5q-63 0 -63 -240zM95 272v132q0 103 17 159t51 87q38 37 81 37q44 0 69.5 -36t25.5 -94q0 -136 -160 -261q-20 -16 -20 -28v-106q0 -65 25 -97.5t66 -32.5q70 0 112 83q4 4 5 4q8 -2 8 -12
q-21 -55 -61.5 -88t-94.5 -33q-60 0 -92 38t-32 125v89l-2 3q-34 -18 -63 -26q-7 0 -7 7q0 6 5 7q39 21 67 43z" />
    <glyph glyph-name="uni2116" unicode="&#x2116;" horiz-adv-x="795" 
d="M44 588v7q96 -3 98 -3q13 0 15 -6q1 -1 2.5 -5t3.5 -8q15 -37 35 -72q7 -11 46 -76.5t85.5 -139.5t98.5 -151q3 45 3 184q-1 138 -4 198q-4 41 -18 53q-8 5 -38 13q-3 4 -4 9v3q7 0 31 -1t39 -1q12 0 35.5 3t29.5 3t7 -4l1 -4q-31 -13 -39 -22q-8 -8 -11 -38.5t-6 -131.5
q-3 -261 -3 -274q0 -29 1.5 -74.5t1.5 -52.5q0 -9 -9 -16q-3 -1 -5 -0.5t-2.5 1t-2.5 2t-5 3.5q-30 68 -152 265q-26 41 -72 117t-72 118q-4 -37 -4 -150q0 -241 6 -288q3 -16 14.5 -23.5t44.5 -18.5l3 -5q1 -7 -3 -7q-14 0 -40.5 2.5t-46.5 2.5q-5 0 -53 -6q-3 6 -3 11
q32 13 41 24.5t11 38.5q5 65 5 245v117q1 99 -10 121q-13 25 -50 31q-5 1 -5 6zM645 542q41 0 76.5 -36t35.5 -96q0 -72 -54 -112q-38 -26 -75 -26q-21 0 -45.5 11.5t-40.5 31.5q-27 36 -27 89q0 79 59 115q37 23 71 23zM624 522q-20 0 -35.5 -24.5t-15.5 -79.5
q0 -71 27 -101q19 -23 49 -23q22 0 37 29.5t15 75.5q0 68 -29 100q-23 23 -48 23zM548 176q0 14 16 23q27 13 162 38q7 3 12 -1q4 -6 3 -8q-13 -31 -20 -31q-133 -21 -167 -28q-6 0 -6 7z" />
    <glyph glyph-name="trademark" unicode="&#x2122;" horiz-adv-x="218" 
d="M15 551q0 11 10 23q1 0 3 -0.5t3 -0.5q1 -6 4 -6h23h26q6 1 8 6q8 0 8 -2q-3 -6 -3 -22h-8q0 9 -2 9q-5 1 -17 1q-2 0 -2 -4q0 -1 -0.5 -11.5t-0.5 -18.5q0 -10 0.5 -13.5t3 -5.5t9.5 -2q2 0 2 -4t-2 -4h-18h-23q-1 0 -1 6q9 2 11 5.5t2 20.5v30q-20 0 -23 -3
q0 -1 -1.5 -3t-2.5 -4h-2l-4 2zM214 497h-19q-1 0 -7 -0.5t-8 -0.5q-1 0 -1 6q0 2 1 2q8 1 8 5v42q0 1 -1 1.5t-2 -0.5q-3 -6 -12.5 -25.5t-11.5 -24.5q-3 -5 -5 -5t-2 1q-3 6 -23 51q-3 3 -3 0q0 -37 1 -39q0 -4 8 -6q1 0 1 -4t-1 -4q-9 1 -29 1q-1 7 0 7q10 1 10 8
q1 9 1 46q0 2 -11 3q0 1 1 4t1 4h29q1 -5 22 -47q23 42 25 47h25q1 -1 1 -4t-1 -4q-8 -1 -8 -5q0 -33 1 -44q0 -7 9 -7q0 -1 1 -5v-3z" />
    <glyph glyph-name="Omega" unicode="&#x2126;" horiz-adv-x="806" 
d="M410 644q121 0 213 -82t92 -209q0 -55 -14 -99t-44 -79t-58 -58t-74 -54q-2 -1 -1.5 -5t3.5 -4q84 0 161 7q28 4 43.5 17.5t33.5 50.5q7 2 10 -4q1 -1 1 -14q0 -5 -9.5 -41.5t-17.5 -60.5q-4 -9 -11 -9h-41q-223 0 -246 -1q-15 0 -7 15l15 27q3 3 13.5 8t14.5 8
q59 39 101 109t42 174q0 125 -79 211q-67 72 -153 72q-99 0 -155 -67q-67 -76 -67 -217q0 -94 43 -169.5t95 -106.5q23 -12 39 -22l-15 -27q-10 -16 -21 -15q-66 2 -105 2q-57 -1 -170 -1q-7 0 -11 10q-1 19 -1 101q0 13 2 14q2 6 8 4q10 -36 29.5 -51.5t51.5 -18.5
q60 -5 163 -5q3 5 -2 7q-191 101 -191 281q0 60 27 119.5t82 104.5q95 78 210 78z" />
    <glyph glyph-name="estimated" unicode="&#x212e;" horiz-adv-x="759" 
d="M731 293h-566q-5 0 -5 -4v-171q0 -11 8 -19q88 -93 214 -93q134 0 226 104h50q-48 -57 -121 -90t-156 -33q-145 0 -247 92t-102 223q0 130 102 222t247 92t247.5 -91.5t102.5 -222.5v-9zM603 315v173q0 12 -9 21q-89 89 -212 89q-124 0 -213 -92q-9 -9 -9 -22v-169
q0 -4 5 -4h434q4 0 4 4z" />
    <glyph glyph-name="onethird" unicode="&#x2153;" horiz-adv-x="576" 
d="M454 620q8 0 17 -13q-199 -306 -355 -570q-3 -4 -9 -1q-11 6 -11 17q135 223 345 558q6 9 13 9zM167 336l38 -2q2 -2 -1 -9.5t-7 -7.5q-72 0 -135 -8q-3 0 -4.5 2t0.5 4q8 9 41 18q3 1 4.5 6.5t2.5 29.5t1 76q0 88 -2 98q0 9 -9 9q-4 0 -11.5 -0.5t-17 -1.5t-14.5 -1
q-5 8 -3 9q27 9 60 24.5t41 21.5q3 2 6.5 0t2.5 -5q-6 -72 -6 -128q0 -86 6 -122q1 -13 7 -13zM442 350q29 0 49 -18t19 -47q0 -13 -8.5 -25.5t-16.5 -18.5t-30 -22q76 -16 76 -75q0 -49 -57 -83q-30 -21 -83 -23q-30 0 -43 10q-5 3 -4 7q0 6 5 6q54 -2 91 16t37 58
q0 25 -16 37.5t-38 12.5q-16 0 -36 -4q-7 -3 -7 4q0 16 26 23q61 23 61 63q0 15 -12.5 27.5t-33.5 11.5q-32 0 -65 -39q-8 2 -8 9q0 2 4 12q38 58 90 58z" />
    <glyph glyph-name="twothirds" unicode="&#x2154;" horiz-adv-x="576" 
d="M473 620q7 0 16 -13q-206 -317 -354 -570q-3 -5 -10 -1q-11 6 -11 17q89 146 345 558q6 9 14 9zM144 606q35 0 58 -25t23 -61q0 -39 -31 -76q-17 -21 -85 -79q-3 -1 -2.5 -4t4.5 -3q46 0 94 4q7 0 13 5t8.5 9t9.5 16q2 3 4 3q3 -1 5.5 -5t1.5 -6q-2 -6 -18 -38.5
t-18 -32.5q-105 3 -167 3q-7 0 -3 8q6 15 15 22q44 28 82.5 73.5t38.5 86.5q0 23 -14 40.5t-40 17.5q-36 0 -58 -40q-4 -4 -11 -4q-5 0 -4 4q11 38 30 55q29 27 64 27zM451 350q29 0 49 -18t19 -47q0 -13 -8.5 -25.5t-16.5 -18.5t-30 -22q76 -16 76 -75q0 -49 -57 -83
q-30 -21 -83 -23q-30 0 -43 10q-5 3 -4 7q0 6 5 6q54 -2 91 16t37 58q0 25 -16 37.5t-38 12.5q-16 0 -36 -4q-7 -3 -7 4q0 16 26 23q61 23 61 63q0 15 -12.5 27.5t-33.5 11.5q-32 0 -65 -39q-8 2 -8 9q0 2 4 12q38 58 90 58z" />
    <glyph glyph-name="oneeighth" unicode="&#x215b;" horiz-adv-x="576" 
d="M454 620q10 0 16 -13q-214 -333 -353 -570q-3 -4 -9 -1q-10 5 -12 17q188 308 345 558q6 9 13 9zM168 336l38 -2q2 -2 -1 -9.5t-7 -7.5q-72 0 -135 -8q-3 0 -4.5 2t0.5 4q8 9 41 18q3 1 4.5 6.5t2.5 29.5t1 76q0 88 -2 98q0 9 -9 9q-4 0 -11.5 -0.5t-17 -1.5t-14.5 -1
q-5 8 -3 9q27 9 60 24.5t41 21.5q3 2 6.5 0t2.5 -5q-6 -72 -6 -128q0 -86 6 -122q1 -13 7 -13zM427 351q33 0 57.5 -20.5t24.5 -51.5q0 -15 -8.5 -27.5t-17 -19.5t-25.5 -18q62 -31 62 -75q0 -36 -32 -59q-42 -27 -73 -27q-36 0 -65.5 21t-29.5 56q0 12 6 23t11 16t20.5 16
t18.5 13q-44 28 -44 66q0 53 62 80q19 7 33 7zM414 330q-39 0 -39 -41q0 -24 16.5 -40t52.5 -28q24 14 24 50q0 29 -15 44t-39 15zM429 75q46 0 46 41q0 47 -84 73q-9 -3 -17.5 -18t-8.5 -32q0 -27 19.5 -45.5t44.5 -18.5z" />
    </font>
</defs>
</svg>
