<?xml version="1.0" encoding="utf-8"?>
<!-- Generator: Adobe Illustrator 23.1.1, SVG Export Plug-In . SVG Version: 6.00 Build 0)  -->
<svg version="1.1" id="Layer_1" xmlns="http://www.w3.org/2000/svg" xmlns:xlink="http://www.w3.org/1999/xlink" x="0px" y="0px"
	 viewBox="0 0 100.6 12.3" style="enable-background:new 0 0 100.6 12.3;" xml:space="preserve">
<g>
	<path d="M2.3,10.4H1.4V1.9h2.5c0.4,0,0.8,0,1.2,0.1C5.4,2.1,5.7,2.2,6,2.4c0.3,0.2,0.5,0.4,0.6,0.7s0.2,0.6,0.2,1.1
		c0,0.3-0.1,0.6-0.2,0.9C6.5,5.3,6.4,5.5,6.2,5.7C6,5.9,5.8,6,5.5,6.1C5.2,6.2,5,6.3,4.6,6.3l2.5,4H6.1l-2.4-4H2.3V10.4z M2.3,5.7
		h1.5c0.7,0,1.2-0.1,1.6-0.4C5.8,5,5.9,4.6,5.9,4.1c0-0.3-0.1-0.5-0.2-0.7C5.7,3.2,5.5,3.1,5.4,3C5.2,2.8,5,2.8,4.7,2.7
		C4.4,2.6,4.1,2.6,3.8,2.6H2.3V5.7z"/>
	<path d="M17.5,6.1c0,0.6-0.1,1.2-0.3,1.8s-0.5,1-0.9,1.4c-0.4,0.4-0.9,0.7-1.4,0.9s-1.1,0.3-1.8,0.3c-0.6,0-1.2-0.1-1.8-0.3
		s-1-0.5-1.4-0.9C9.6,8.9,9.2,8.5,9,7.9C8.8,7.4,8.7,6.8,8.7,6.1S8.8,4.9,9,4.3c0.2-0.5,0.5-1,0.9-1.4c0.4-0.4,0.9-0.7,1.4-0.9
		s1.1-0.3,1.8-0.3c0.6,0,1.2,0.1,1.8,0.3s1,0.5,1.4,0.9c0.4,0.4,0.7,0.9,0.9,1.4S17.5,5.5,17.5,6.1z M16.6,6.1c0-0.5-0.1-1-0.2-1.4
		S16,3.9,15.7,3.5c-0.3-0.3-0.7-0.6-1.1-0.8c-0.4-0.2-0.9-0.3-1.5-0.3c-0.5,0-1,0.1-1.5,0.3c-0.4,0.2-0.8,0.5-1.1,0.8
		C10.2,3.9,10,4.3,9.8,4.7C9.7,5.2,9.6,5.6,9.6,6.1s0.1,1,0.2,1.4C10,8,10.2,8.4,10.5,8.7c0.3,0.3,0.7,0.6,1.1,0.8
		c0.4,0.2,0.9,0.3,1.5,0.3c0.5,0,1-0.1,1.5-0.3c0.4-0.2,0.8-0.5,1.1-0.8C16,8.4,16.2,8,16.4,7.5S16.6,6.6,16.6,6.1z"/>
	<path d="M19.9,1.9h2.5c0.3,0,0.6,0,1,0.1C23.7,2,24,2.2,24.3,2.3c0.3,0.2,0.5,0.4,0.6,0.7s0.2,0.6,0.2,1.1c0,0.4-0.1,0.8-0.4,1.2
		s-0.6,0.6-1.1,0.7v0c0.6,0.1,1,0.3,1.4,0.6c0.4,0.4,0.5,0.9,0.5,1.5c0,0.4-0.1,0.7-0.2,1c-0.1,0.3-0.4,0.5-0.6,0.7
		c-0.3,0.2-0.6,0.4-1,0.5s-0.8,0.2-1.3,0.2h-2.5V1.9z M20.7,5.6h1.7c0.2,0,0.4,0,0.6-0.1c0.2,0,0.4-0.1,0.6-0.2
		C23.9,5.2,24,5,24.1,4.8c0.1-0.2,0.2-0.4,0.2-0.7c0-0.3-0.1-0.5-0.2-0.7C24,3.2,23.9,3.1,23.7,3c-0.2-0.1-0.4-0.2-0.6-0.3
		c-0.2-0.1-0.5-0.1-0.8-0.1h-1.5V5.6z M20.7,9.6h1.6c0.3,0,0.6,0,0.9-0.1c0.3-0.1,0.5-0.2,0.7-0.3s0.4-0.3,0.5-0.5s0.2-0.5,0.2-0.8
		c0-0.6-0.2-1-0.6-1.3c-0.4-0.3-0.9-0.4-1.6-0.4h-1.8V9.6z"/>
	<path d="M28.9,9.6h4.5v0.8h-5.4V1.9h5.3v0.8h-4.4v2.9H33v0.8h-4.1V9.6z"/>
	<path d="M36.6,10.4h-0.9V1.9h2.5c0.4,0,0.8,0,1.2,0.1c0.4,0.1,0.7,0.2,0.9,0.4c0.3,0.2,0.5,0.4,0.6,0.7s0.2,0.6,0.2,1.1
		c0,0.3-0.1,0.6-0.2,0.9c-0.1,0.3-0.3,0.5-0.5,0.7c-0.2,0.2-0.4,0.3-0.7,0.5c-0.3,0.1-0.6,0.2-0.9,0.2l2.5,4h-1.1l-2.4-4h-1.4V10.4z
		 M36.6,5.7h1.5c0.7,0,1.2-0.1,1.6-0.4C40,5,40.2,4.6,40.2,4.1c0-0.3-0.1-0.5-0.2-0.7C40,3.2,39.8,3.1,39.6,3
		c-0.2-0.1-0.4-0.2-0.7-0.3c-0.3-0.1-0.6-0.1-0.9-0.1h-1.5V5.7z"/>
	<path d="M46,10.4h-0.9V2.6h-2.8V1.9h6.6v0.8H46V10.4z"/>
	<path d="M53.9,1.9h2.5c0.3,0,0.6,0,1,0.1C57.7,2,58,2.2,58.3,2.3s0.5,0.4,0.6,0.7c0.2,0.3,0.2,0.6,0.2,1.1c0,0.4-0.1,0.8-0.4,1.2
		s-0.6,0.6-1.1,0.7v0c0.6,0.1,1,0.3,1.4,0.6s0.5,0.9,0.5,1.5c0,0.4-0.1,0.7-0.2,1c-0.1,0.3-0.4,0.5-0.6,0.7c-0.3,0.2-0.6,0.4-1,0.5
		c-0.4,0.1-0.8,0.2-1.3,0.2h-2.5V1.9z M54.8,5.6h1.7c0.2,0,0.4,0,0.6-0.1c0.2,0,0.4-0.1,0.6-0.2C57.9,5.2,58,5,58.2,4.8
		c0.1-0.2,0.2-0.4,0.2-0.7c0-0.3-0.1-0.5-0.2-0.7C58,3.2,57.9,3.1,57.7,3c-0.2-0.1-0.4-0.2-0.6-0.3s-0.5-0.1-0.8-0.1h-1.5V5.6z
		 M54.8,9.6h1.6c0.3,0,0.6,0,0.9-0.1s0.5-0.2,0.7-0.3s0.4-0.3,0.5-0.5s0.2-0.5,0.2-0.8c0-0.6-0.2-1-0.6-1.3
		c-0.4-0.3-0.9-0.4-1.6-0.4h-1.8V9.6z"/>
	<path d="M63,10.4h-0.9V1.9H63V10.4z"/>
	<path d="M69.9,3.2c-0.2-0.3-0.4-0.5-0.7-0.6s-0.6-0.2-1-0.2c-0.2,0-0.4,0-0.6,0.1c-0.2,0.1-0.4,0.2-0.6,0.3
		c-0.2,0.1-0.3,0.3-0.4,0.5c-0.1,0.2-0.2,0.4-0.2,0.7c0,0.3,0.1,0.5,0.2,0.7c0.1,0.2,0.2,0.3,0.4,0.5c0.2,0.1,0.4,0.2,0.6,0.3
		c0.2,0.1,0.4,0.2,0.7,0.2C68.4,5.8,68.7,5.9,69,6c0.3,0.1,0.6,0.3,0.8,0.4c0.2,0.2,0.4,0.4,0.6,0.7c0.2,0.3,0.2,0.6,0.2,1
		c0,0.4-0.1,0.8-0.2,1.1C70.2,9.5,70,9.8,69.8,10c-0.3,0.2-0.6,0.3-0.9,0.4c-0.3,0.1-0.7,0.1-1,0.1c-0.3,0-0.5,0-0.8-0.1
		s-0.5-0.1-0.7-0.2c-0.2-0.1-0.4-0.2-0.6-0.4s-0.4-0.3-0.5-0.6L66,8.8c0.2,0.3,0.4,0.6,0.8,0.8s0.7,0.3,1.2,0.3c0.2,0,0.4,0,0.7-0.1
		c0.2-0.1,0.4-0.2,0.6-0.3c0.2-0.1,0.3-0.3,0.4-0.5s0.2-0.4,0.2-0.7c0-0.3-0.1-0.5-0.2-0.7c-0.1-0.2-0.3-0.4-0.5-0.5
		c-0.2-0.1-0.4-0.2-0.7-0.3c-0.2-0.1-0.5-0.2-0.8-0.3c-0.3-0.1-0.6-0.2-0.8-0.3c-0.3-0.1-0.5-0.3-0.7-0.4c-0.2-0.2-0.4-0.4-0.5-0.7
		c-0.1-0.3-0.2-0.6-0.2-1c0-0.4,0.1-0.8,0.2-1.1s0.4-0.5,0.6-0.7c0.3-0.2,0.6-0.3,0.9-0.4c0.3-0.1,0.6-0.1,0.9-0.1
		c0.6,0,1.1,0.1,1.5,0.3s0.7,0.4,0.9,0.7L69.9,3.2z"/>
	<path d="M77.2,3.2C77,3,76.8,2.8,76.5,2.6s-0.6-0.2-1-0.2c-0.2,0-0.4,0-0.6,0.1c-0.2,0.1-0.4,0.2-0.6,0.3c-0.2,0.1-0.3,0.3-0.4,0.5
		c-0.1,0.2-0.2,0.4-0.2,0.7c0,0.3,0.1,0.5,0.2,0.7C73.9,4.8,74,5,74.2,5.1c0.2,0.1,0.4,0.2,0.6,0.3c0.2,0.1,0.4,0.2,0.7,0.2
		C75.7,5.8,76,5.9,76.3,6c0.3,0.1,0.6,0.3,0.8,0.4c0.2,0.2,0.4,0.4,0.6,0.7c0.2,0.3,0.2,0.6,0.2,1c0,0.4-0.1,0.8-0.2,1.1
		c-0.2,0.3-0.4,0.6-0.6,0.8c-0.3,0.2-0.6,0.3-0.9,0.4c-0.3,0.1-0.7,0.1-1,0.1c-0.3,0-0.5,0-0.8-0.1s-0.5-0.1-0.7-0.2
		c-0.2-0.1-0.4-0.2-0.6-0.4s-0.4-0.3-0.5-0.6l0.7-0.6c0.2,0.3,0.4,0.6,0.8,0.8s0.7,0.3,1.2,0.3c0.2,0,0.4,0,0.7-0.1
		c0.2-0.1,0.4-0.2,0.6-0.3c0.2-0.1,0.3-0.3,0.4-0.5s0.2-0.4,0.2-0.7c0-0.3-0.1-0.5-0.2-0.7c-0.1-0.2-0.3-0.4-0.5-0.5
		c-0.2-0.1-0.4-0.2-0.7-0.3c-0.2-0.1-0.5-0.2-0.8-0.3c-0.3-0.1-0.6-0.2-0.8-0.3c-0.3-0.1-0.5-0.3-0.7-0.4c-0.2-0.2-0.4-0.4-0.5-0.7
		c-0.1-0.3-0.2-0.6-0.2-1c0-0.4,0.1-0.8,0.2-1.1s0.4-0.5,0.6-0.7c0.3-0.2,0.6-0.3,0.9-0.4c0.3-0.1,0.6-0.1,0.9-0.1
		c0.6,0,1.1,0.1,1.5,0.3s0.7,0.4,0.9,0.7L77.2,3.2z"/>
	<path d="M81.2,9.6h4.5v0.8h-5.4V1.9h5.3v0.8h-4.4v2.9h4.1v0.8h-4.1V9.6z"/>
	<path d="M88.9,9.6h4v0.8H88V1.9h0.9V9.6z"/>
	<path d="M95.5,9.6h4v0.8h-4.8V1.9h0.9V9.6z"/>
</g>
</svg>
