<?xml version="1.0" encoding="utf-8"?>
<!-- Generator: Adobe Illustrator 23.1.1, SVG Export Plug-In . SVG Version: 6.00 Build 0)  -->
<svg version="1.1" id="Layer_1" xmlns="http://www.w3.org/2000/svg" xmlns:xlink="http://www.w3.org/1999/xlink" x="0px" y="0px"
	 viewBox="0 0 100.6 12.3" style="enable-background:new 0 0 100.6 12.3;" xml:space="preserve">
<style type="text/css">
	.st0{fill:#FFFFFF;}
</style>
<path class="st0" d="M2.8,10.5H2V2h2.6c0.9,0,1.5,0.2,2,0.6C7.1,3,7.4,3.5,7.4,4.3c0,0.6-0.2,1.1-0.6,1.5S5.9,6.4,5.2,6.5l2.5,4H6.6
	l-2.3-4H2.8V10.5z M2.8,5.8h1.5c0.4,0,0.7,0,1-0.1S5.8,5.5,6,5.3s0.3-0.3,0.3-0.5s0.1-0.4,0.1-0.6c0-0.2,0-0.4-0.1-0.6
	C6.3,3.5,6.2,3.4,6,3.3C5.8,3.1,5.6,3,5.3,2.9s-0.6-0.1-1-0.1H2.8V5.8z"/>
<path class="st0" d="M17.9,6.3c0,0.7-0.1,1.2-0.3,1.8c-0.2,0.5-0.5,1-0.9,1.4s-0.9,0.7-1.4,0.9s-1.1,0.3-1.8,0.3s-1.2-0.1-1.8-0.3
	c-0.5-0.2-1-0.5-1.4-0.9S9.6,8.6,9.4,8.1C9.2,7.5,9.1,6.9,9.1,6.3S9.2,5,9.4,4.5c0.2-0.5,0.5-1,0.9-1.4s0.9-0.7,1.4-0.9
	s1.1-0.3,1.8-0.3s1.2,0.1,1.8,0.3c0.5,0.2,1,0.5,1.4,0.9c0.4,0.4,0.7,0.9,0.9,1.4C17.8,5,17.9,5.6,17.9,6.3z M17,6.3
	c0-0.5-0.1-0.9-0.2-1.4s-0.4-0.8-0.7-1.2c-0.3-0.3-0.7-0.6-1.1-0.8s-0.9-0.3-1.5-0.3s-1,0.1-1.5,0.3S11.3,3.4,11,3.7
	c-0.3,0.3-0.5,0.7-0.7,1.2S10,5.8,10,6.3s0.1,0.9,0.2,1.4c0.2,0.4,0.4,0.8,0.7,1.2c0.3,0.3,0.7,0.6,1.1,0.8S13,10,13.5,10
	s1-0.1,1.5-0.3s0.8-0.5,1.1-0.8c0.3-0.3,0.5-0.7,0.7-1.2C16.9,7.2,17,6.8,17,6.3z"/>
<path class="st0" d="M20,2h2.5c0.4,0,0.7,0,1,0.1s0.6,0.2,0.9,0.4c0.3,0.2,0.5,0.4,0.6,0.7c0.1,0.3,0.2,0.6,0.2,1
	c0,0.5-0.1,0.9-0.4,1.2S24.2,5.9,23.7,6v0c0.6,0.1,1.1,0.3,1.4,0.6s0.5,0.9,0.5,1.5c0,0.1,0,0.3-0.1,0.6s-0.2,0.5-0.4,0.8
	c-0.2,0.3-0.5,0.5-0.9,0.7s-1,0.3-1.6,0.3H20V2z M20.8,5.8h1.7c0.2,0,0.4,0,0.6-0.1c0.2-0.1,0.4-0.1,0.5-0.3
	c0.2-0.1,0.3-0.3,0.4-0.5s0.2-0.4,0.2-0.7c0-0.1,0-0.2,0-0.4c0-0.2-0.1-0.3-0.2-0.5c-0.1-0.2-0.3-0.3-0.5-0.4
	c-0.2-0.1-0.6-0.2-1-0.2h-1.7C20.8,2.8,20.8,5.8,20.8,5.8z M20.8,9.7h1.7c0.3,0,0.6,0,0.9-0.1c0.3-0.1,0.5-0.2,0.7-0.3
	c0.2-0.1,0.4-0.3,0.5-0.5c0.1-0.2,0.2-0.4,0.2-0.7c0-0.6-0.2-1-0.5-1.2s-0.9-0.4-1.6-0.4h-1.8V9.7z"/>
<path class="st0" d="M28.9,9.7h4.6v0.8h-5.4V2h5.3v0.8h-4.4v2.9h4.1v0.8h-4.1L28.9,9.7L28.9,9.7z"/>
<path class="st0" d="M36.6,10.5h-0.9V2h2.6c0.9,0,1.5,0.2,2,0.6c0.5,0.4,0.8,0.9,0.8,1.7c0,0.6-0.2,1.1-0.6,1.5S39.7,6.4,39,6.5
	l2.5,4h-1.1l-2.3-3.9h-1.4L36.6,10.5L36.6,10.5z M36.6,5.8h1.5c0.4,0,0.7,0,1-0.1s0.5-0.2,0.6-0.3s0.3-0.3,0.3-0.5s0.1-0.4,0.1-0.6
	c0-0.2,0-0.4-0.1-0.6s-0.2-0.3-0.3-0.5c-0.2-0.1-0.4-0.2-0.6-0.3s-0.6-0.1-1-0.1h-1.5V5.8z"/>
<path class="st0" d="M46.2,10.5h-0.9V2.8h-2.8V2h6.5v0.8h-2.8L46.2,10.5L46.2,10.5z"/>
<path class="st0" d="M53.7,2h2.5c0.3,0,0.7,0,1,0.1s0.6,0.2,0.9,0.4c0.3,0.2,0.5,0.4,0.6,0.7s0.2,0.6,0.2,1c0,0.5-0.1,0.9-0.4,1.2
	S58,5.9,57.5,6v0c0.6,0.1,1.1,0.3,1.4,0.6s0.5,0.9,0.5,1.5c0,0.1,0,0.3-0.1,0.6s-0.2,0.5-0.4,0.8s-0.5,0.5-0.9,0.7s-1,0.3-1.6,0.3
	h-2.6V2z M54.6,5.8h1.7c0.2,0,0.4,0,0.6-0.1c0.2-0.1,0.4-0.1,0.5-0.3c0.2-0.1,0.3-0.3,0.4-0.5c0.1-0.2,0.2-0.4,0.2-0.7
	c0-0.1,0-0.2,0-0.4c0-0.2-0.1-0.3-0.2-0.5c-0.1-0.2-0.3-0.3-0.5-0.4c-0.2-0.1-0.6-0.2-1-0.2h-1.7V5.8z M54.6,9.7h1.7
	c0.3,0,0.6,0,0.9-0.1c0.3-0.1,0.5-0.2,0.7-0.3s0.4-0.3,0.5-0.5c0.1-0.2,0.2-0.4,0.2-0.7c0-0.6-0.2-1-0.5-1.2s-0.9-0.4-1.6-0.4h-1.8
	L54.6,9.7L54.6,9.7z"/>
<path class="st0" d="M62.7,10.5h-0.9V2h0.9V10.5z"/>
<path class="st0" d="M69.6,3.4c-0.4-0.5-0.9-0.8-1.6-0.8c-0.2,0-0.4,0-0.7,0.1S66.9,2.9,66.7,3c-0.2,0.1-0.3,0.3-0.4,0.5
	s-0.2,0.4-0.2,0.7c0,0.4,0.1,0.7,0.3,0.9c0.2,0.2,0.5,0.4,0.8,0.5c0.3,0.1,0.7,0.3,1.1,0.4s0.7,0.2,1.1,0.4s0.6,0.4,0.8,0.7
	s0.3,0.7,0.3,1.2c0,0.4-0.1,0.7-0.2,1c-0.2,0.3-0.4,0.6-0.7,0.8c-0.3,0.2-0.6,0.4-0.9,0.5s-0.7,0.2-1,0.2c-0.5,0-1-0.1-1.5-0.3
	c-0.5-0.2-0.9-0.5-1.2-1l0.8-0.6c0.2,0.3,0.4,0.6,0.8,0.8s0.7,0.3,1.2,0.3c0.2,0,0.4,0,0.7-0.1c0.2-0.1,0.4-0.2,0.6-0.3
	s0.3-0.3,0.4-0.5c0.1-0.2,0.2-0.4,0.2-0.7c0-0.3-0.1-0.5-0.2-0.7c-0.1-0.2-0.3-0.4-0.5-0.5s-0.4-0.2-0.7-0.3
	c-0.3-0.1-0.5-0.2-0.8-0.3c-0.3-0.1-0.5-0.2-0.8-0.3c-0.3-0.1-0.5-0.2-0.7-0.4s-0.4-0.4-0.5-0.7c-0.1-0.3-0.2-0.6-0.2-1
	c0-0.4,0.1-0.8,0.2-1.1c0.2-0.3,0.4-0.6,0.6-0.8C66.3,2.2,66.6,2,67,1.9c0.3-0.1,0.7-0.1,1-0.1c0.5,0,0.9,0.1,1.3,0.2
	s0.8,0.4,1.1,0.8L69.6,3.4z"/>
<path class="st0" d="M76.9,3.4c-0.4-0.5-0.9-0.8-1.6-0.8c-0.2,0-0.4,0-0.7,0.1S74.2,2.9,74,3c-0.2,0.1-0.3,0.3-0.4,0.5
	c-0.1,0.2-0.2,0.4-0.2,0.7c0,0.4,0.1,0.7,0.3,0.9c0.2,0.2,0.5,0.4,0.8,0.5c0.3,0.1,0.7,0.3,1.1,0.4s0.7,0.2,1.1,0.4s0.6,0.4,0.8,0.7
	s0.3,0.7,0.3,1.2c0,0.4-0.1,0.7-0.2,1c-0.2,0.3-0.4,0.6-0.7,0.8c-0.3,0.2-0.6,0.4-0.9,0.5s-0.7,0.2-1,0.2c-0.5,0-1-0.1-1.5-0.3
	c-0.5-0.2-0.9-0.5-1.2-1l0.8-0.6c0.2,0.3,0.4,0.6,0.8,0.8c0.3,0.2,0.7,0.3,1.2,0.3c0.2,0,0.4,0,0.7-0.1c0.2-0.1,0.4-0.2,0.6-0.3
	s0.3-0.3,0.4-0.5c0.1-0.2,0.2-0.4,0.2-0.7c0-0.3-0.1-0.5-0.2-0.7c-0.1-0.2-0.3-0.4-0.5-0.5s-0.4-0.2-0.7-0.3
	c-0.3-0.1-0.5-0.2-0.8-0.3c-0.3-0.1-0.5-0.2-0.8-0.3S73.4,6,73.1,5.8s-0.4-0.4-0.5-0.7c-0.1-0.3-0.2-0.6-0.2-1
	c0-0.4,0.1-0.8,0.2-1.1c0.2-0.3,0.4-0.6,0.6-0.8s0.6-0.3,0.9-0.4c0.3-0.1,0.7-0.1,1-0.1c0.5,0,0.9,0.1,1.3,0.2s0.8,0.4,1.1,0.8
	L76.9,3.4z"/>
<path class="st0" d="M80.9,9.7h4.6v0.8h-5.4V2h5.3v0.8h-4.4v2.9h4.1v0.8h-4.1L80.9,9.7L80.9,9.7z"/>
<path class="st0" d="M88.6,9.7h4v0.8h-4.8V2h0.9V9.7z"/>
<path class="st0" d="M95.2,9.7h4v0.8h-4.8V2h0.9V9.7z"/>
</svg>
