<?xml version="1.0" encoding="utf-8"?>
<!-- Generator: Adobe Illustrator 23.1.1, SVG Export Plug-In . SVG Version: 6.00 Build 0)  -->
<svg version="1.1" id="Layer_1" xmlns="http://www.w3.org/2000/svg" xmlns:xlink="http://www.w3.org/1999/xlink" x="0px" y="0px"
	 viewBox="0 0 94.7 12.28" style="enable-background:new 0 0 94.7 12.28;" xml:space="preserve">
<style type="text/css">
	.st0{opacity:0.69;}
	.st1{fill:#171717;}
</style>
<g class="st0">
	<path class="st1" d="M2.84,10.53H1.98v-8.5h2.62c0.86,0,1.55,0.19,2.05,0.56c0.5,0.38,0.75,0.94,0.75,1.7
		c0,0.59-0.19,1.09-0.56,1.49S5.92,6.43,5.22,6.5l2.45,4.03H6.61L4.28,6.58H2.84V10.53z M2.84,5.79h1.54c0.38,0,0.71-0.04,0.98-0.12
		S5.84,5.48,6,5.35c0.16-0.13,0.28-0.29,0.35-0.47S6.45,4.51,6.45,4.3c0-0.2-0.04-0.39-0.11-0.57C6.27,3.55,6.16,3.39,6,3.26
		C5.84,3.12,5.62,3.01,5.35,2.94S4.76,2.82,4.38,2.82H2.84V5.79z"/>
	<path class="st1" d="M17.37,6.28c0,0.65-0.11,1.24-0.34,1.79c-0.22,0.54-0.53,1.01-0.93,1.41c-0.4,0.4-0.86,0.71-1.4,0.93
		c-0.54,0.22-1.13,0.34-1.76,0.34s-1.22-0.11-1.76-0.34c-0.54-0.22-1.01-0.53-1.4-0.93S9.08,8.61,8.85,8.07
		C8.63,7.52,8.52,6.93,8.52,6.28s0.11-1.24,0.34-1.79c0.22-0.54,0.53-1.01,0.93-1.41s0.86-0.71,1.4-0.93s1.13-0.34,1.76-0.34
		s1.22,0.11,1.76,0.34c0.54,0.22,1.01,0.53,1.4,0.93c0.4,0.4,0.71,0.87,0.93,1.41C17.26,5.04,17.37,5.63,17.37,6.28z M16.44,6.28
		c0-0.49-0.08-0.95-0.24-1.4s-0.39-0.83-0.69-1.17c-0.3-0.34-0.67-0.6-1.1-0.8c-0.43-0.2-0.92-0.3-1.46-0.3s-1.03,0.1-1.46,0.3
		c-0.43,0.2-0.8,0.47-1.1,0.8c-0.3,0.34-0.53,0.73-0.69,1.17s-0.24,0.91-0.24,1.4c0,0.49,0.08,0.95,0.24,1.4
		c0.16,0.44,0.39,0.83,0.69,1.17c0.3,0.34,0.67,0.6,1.1,0.8c0.43,0.2,0.92,0.3,1.46,0.3s1.03-0.1,1.46-0.3
		c0.43-0.2,0.8-0.47,1.1-0.8c0.3-0.34,0.53-0.73,0.69-1.17C16.36,7.23,16.44,6.77,16.44,6.28z"/>
	<path class="st1" d="M19.1,2.03h2.53c0.35,0,0.69,0.04,1.02,0.11c0.33,0.07,0.62,0.19,0.88,0.36c0.26,0.17,0.46,0.39,0.61,0.66
		c0.15,0.27,0.23,0.61,0.23,1.01c0,0.46-0.13,0.86-0.39,1.19c-0.26,0.33-0.63,0.55-1.11,0.67v0.02c0.6,0.05,1.07,0.26,1.41,0.63
		c0.34,0.37,0.51,0.87,0.51,1.49c0,0.14-0.03,0.34-0.1,0.6s-0.21,0.53-0.43,0.79c-0.22,0.26-0.53,0.49-0.94,0.68
		s-0.95,0.29-1.63,0.29H19.1V2.03z M19.96,5.75h1.74c0.21,0,0.41-0.03,0.62-0.08c0.2-0.05,0.39-0.14,0.55-0.26
		c0.16-0.12,0.3-0.27,0.4-0.46c0.1-0.19,0.16-0.42,0.16-0.69c0-0.09-0.02-0.21-0.05-0.37c-0.04-0.16-0.12-0.32-0.24-0.48
		c-0.12-0.16-0.31-0.3-0.55-0.41c-0.24-0.12-0.56-0.17-0.97-0.17h-1.66V5.75z M19.96,9.74h1.66c0.31,0,0.6-0.03,0.88-0.1
		C22.77,9.58,23,9.48,23.2,9.35c0.2-0.13,0.36-0.3,0.47-0.5c0.12-0.2,0.17-0.44,0.17-0.72c0-0.56-0.18-0.98-0.54-1.25
		c-0.36-0.27-0.89-0.41-1.58-0.41h-1.76V9.74z"/>
	<path class="st1" d="M27.52,9.74h4.55v0.79h-5.41v-8.5h5.27v0.79h-4.4v2.89h4.12v0.79h-4.12V9.74z"/>
	<path class="st1" d="M34.64,10.53h-0.86v-8.5h2.62c0.86,0,1.55,0.19,2.05,0.56c0.5,0.38,0.75,0.94,0.75,1.7
		c0,0.59-0.19,1.09-0.56,1.49s-0.91,0.64-1.61,0.7l2.45,4.03h-1.06l-2.33-3.95h-1.44V10.53z M34.64,5.79h1.54
		c0.38,0,0.71-0.04,0.98-0.12s0.48-0.19,0.64-0.32c0.16-0.13,0.28-0.29,0.35-0.47s0.11-0.37,0.11-0.58c0-0.2-0.04-0.39-0.11-0.57
		c-0.07-0.18-0.19-0.34-0.35-0.47c-0.16-0.14-0.37-0.24-0.64-0.32s-0.59-0.11-0.98-0.11h-1.54V5.79z"/>
	<path class="st1" d="M43.69,10.53h-0.86v-7.7h-2.84V2.03h6.55v0.79h-2.84V10.53z"/>
	<path class="st1" d="M51.19,2.03h2.53c0.35,0,0.69,0.04,1.02,0.11c0.33,0.07,0.62,0.19,0.88,0.36c0.26,0.17,0.46,0.39,0.61,0.66
		c0.15,0.27,0.23,0.61,0.23,1.01c0,0.46-0.13,0.86-0.39,1.19c-0.26,0.33-0.63,0.55-1.11,0.67v0.02c0.6,0.05,1.07,0.26,1.41,0.63
		c0.34,0.37,0.51,0.87,0.51,1.49c0,0.14-0.03,0.34-0.1,0.6s-0.21,0.53-0.43,0.79c-0.22,0.26-0.53,0.49-0.94,0.68
		s-0.95,0.29-1.63,0.29h-2.59V2.03z M52.05,5.75h1.74c0.21,0,0.41-0.03,0.62-0.08c0.2-0.05,0.39-0.14,0.55-0.26
		c0.16-0.12,0.3-0.27,0.4-0.46c0.1-0.19,0.16-0.42,0.16-0.69c0-0.09-0.02-0.21-0.05-0.37c-0.04-0.16-0.12-0.32-0.24-0.48
		C55.1,3.25,54.92,3.11,54.68,3c-0.24-0.12-0.56-0.17-0.97-0.17h-1.66V5.75z M52.05,9.74h1.66c0.31,0,0.6-0.03,0.88-0.1
		c0.27-0.06,0.51-0.16,0.71-0.29c0.2-0.13,0.36-0.3,0.47-0.5c0.12-0.2,0.17-0.44,0.17-0.72c0-0.56-0.18-0.98-0.54-1.25
		c-0.36-0.27-0.89-0.41-1.58-0.41h-1.76V9.74z"/>
	<path class="st1" d="M59.61,10.53h-0.86v-8.5h0.86V10.53z"/>
	<path class="st1" d="M65.94,3.44c-0.38-0.55-0.92-0.83-1.64-0.83c-0.22,0-0.44,0.03-0.66,0.09c-0.22,0.06-0.41,0.15-0.58,0.28
		c-0.17,0.12-0.31,0.28-0.41,0.48c-0.1,0.2-0.16,0.43-0.16,0.69c0,0.38,0.11,0.68,0.32,0.89c0.22,0.21,0.48,0.39,0.8,0.52
		c0.32,0.14,0.67,0.26,1.05,0.37s0.73,0.25,1.05,0.43c0.32,0.18,0.59,0.42,0.8,0.71s0.32,0.7,0.32,1.21c0,0.38-0.08,0.73-0.25,1.04
		c-0.16,0.31-0.38,0.57-0.65,0.77c-0.27,0.21-0.57,0.37-0.9,0.48c-0.33,0.11-0.67,0.17-1,0.17c-0.52,0-1.01-0.1-1.48-0.29
		c-0.47-0.2-0.87-0.52-1.19-0.97l0.79-0.56c0.18,0.31,0.44,0.56,0.77,0.75c0.33,0.19,0.71,0.28,1.16,0.28c0.22,0,0.43-0.03,0.65-0.1
		c0.22-0.07,0.41-0.17,0.58-0.3s0.31-0.29,0.42-0.49c0.11-0.19,0.17-0.41,0.17-0.66c0-0.3-0.06-0.54-0.19-0.74
		c-0.12-0.2-0.29-0.36-0.49-0.49s-0.44-0.24-0.7-0.33c-0.26-0.09-0.53-0.18-0.8-0.26c-0.28-0.09-0.54-0.19-0.8-0.3
		c-0.26-0.11-0.49-0.25-0.7-0.43s-0.37-0.39-0.49-0.65c-0.12-0.26-0.19-0.59-0.19-0.98c0-0.41,0.08-0.76,0.23-1.07
		c0.16-0.3,0.36-0.56,0.62-0.76c0.26-0.2,0.55-0.35,0.88-0.44c0.33-0.1,0.66-0.14,1.01-0.14c0.48,0,0.92,0.08,1.31,0.23
		s0.76,0.42,1.09,0.8L65.94,3.44z"/>
	<path class="st1" d="M72.61,3.44c-0.38-0.55-0.92-0.83-1.64-0.83c-0.22,0-0.44,0.03-0.66,0.09c-0.22,0.06-0.41,0.15-0.58,0.28
		c-0.17,0.12-0.31,0.28-0.41,0.48c-0.1,0.2-0.16,0.43-0.16,0.69c0,0.38,0.11,0.68,0.32,0.89c0.22,0.21,0.48,0.39,0.8,0.52
		c0.32,0.14,0.67,0.26,1.05,0.37s0.73,0.25,1.05,0.43c0.32,0.18,0.59,0.42,0.8,0.71s0.32,0.7,0.32,1.21c0,0.38-0.08,0.73-0.25,1.04
		c-0.16,0.31-0.38,0.57-0.65,0.77c-0.27,0.21-0.57,0.37-0.9,0.48c-0.33,0.11-0.67,0.17-1,0.17c-0.52,0-1.01-0.1-1.48-0.29
		c-0.47-0.2-0.87-0.52-1.19-0.97l0.79-0.56c0.18,0.31,0.44,0.56,0.77,0.75c0.33,0.19,0.71,0.28,1.16,0.28c0.22,0,0.43-0.03,0.65-0.1
		c0.22-0.07,0.41-0.17,0.58-0.3s0.31-0.29,0.42-0.49c0.11-0.19,0.17-0.41,0.17-0.66c0-0.3-0.06-0.54-0.19-0.74
		c-0.12-0.2-0.29-0.36-0.49-0.49s-0.44-0.24-0.7-0.33c-0.26-0.09-0.53-0.18-0.8-0.26c-0.28-0.09-0.54-0.19-0.8-0.3
		c-0.26-0.11-0.49-0.25-0.7-0.43s-0.37-0.39-0.49-0.65c-0.12-0.26-0.19-0.59-0.19-0.98c0-0.41,0.08-0.76,0.23-1.07
		c0.16-0.3,0.36-0.56,0.62-0.76c0.26-0.2,0.55-0.35,0.88-0.44c0.33-0.1,0.66-0.14,1.01-0.14c0.48,0,0.92,0.08,1.31,0.23
		s0.76,0.42,1.09,0.8L72.61,3.44z"/>
	<path class="st1" d="M76.12,9.74h4.55v0.79h-5.41v-8.5h5.27v0.79h-4.4v2.89h4.12v0.79h-4.12V9.74z"/>
	<path class="st1" d="M83.24,9.74h3.96v0.79h-4.82v-8.5h0.86V9.74z"/>
	<path class="st1" d="M89.24,9.74h3.96v0.79h-4.82v-8.5h0.86V9.74z"/>
</g>
</svg>
