<?xml version="1.0" encoding="utf-8"?>
<!-- Generator: Adobe Illustrator 23.1.1, SVG Export Plug-In . SVG Version: 6.00 Build 0)  -->
<svg version="1.1" id="Layer_1" xmlns="http://www.w3.org/2000/svg" xmlns:xlink="http://www.w3.org/1999/xlink" x="0px" y="0px"
	 viewBox="0 0 94.7 12.3" style="enable-background:new 0 0 94.7 12.3;" xml:space="preserve">
<style type="text/css">
	.st0{opacity:0.69;}
	.st1{fill:#FFFFFF;}
</style>
<g class="st0">
	<path class="st1" d="M2.8,10.5H2V2h2.6c0.9,0,1.5,0.2,2,0.6C7.1,3,7.4,3.5,7.4,4.3c0,0.6-0.2,1.1-0.6,1.5S5.9,6.4,5.2,6.5l2.5,4
		H6.6l-2.3-4H2.8V10.5z M2.8,5.8h1.5c0.4,0,0.7,0,1-0.1S5.8,5.5,6,5.3s0.3-0.3,0.3-0.5s0.1-0.4,0.1-0.6c0-0.2,0-0.4-0.1-0.6
		C6.3,3.5,6.2,3.4,6,3.3C5.8,3.1,5.6,3,5.3,2.9s-0.6-0.1-1-0.1H2.8V5.8z"/>
	<path class="st1" d="M17.4,6.3c0,0.7-0.1,1.2-0.3,1.8c-0.2,0.5-0.5,1-0.9,1.4s-0.9,0.7-1.4,0.9s-1.1,0.3-1.8,0.3s-1.2-0.1-1.8-0.3
		c-0.5-0.2-1-0.5-1.4-0.9S9.1,8.6,8.9,8.1C8.6,7.5,8.5,6.9,8.5,6.3S8.6,5,8.9,4.5c0.2-0.5,0.5-1,0.9-1.4s0.9-0.7,1.4-0.9
		s1.1-0.3,1.8-0.3s1.2,0.1,1.8,0.3c0.5,0.2,1,0.5,1.4,0.9C16.5,3.5,16.8,4,17,4.5C17.3,5,17.4,5.6,17.4,6.3z M16.4,6.3
		c0-0.5-0.1-0.9-0.2-1.4s-0.4-0.8-0.7-1.2c-0.3-0.3-0.7-0.6-1.1-0.8S13.5,2.6,13,2.6s-1,0.1-1.5,0.3s-0.8,0.5-1.1,0.8
		c-0.3,0.3-0.5,0.7-0.7,1.2S9.5,5.8,9.5,6.3s0.1,0.9,0.2,1.4c0.2,0.4,0.4,0.8,0.7,1.2c0.3,0.3,0.7,0.6,1.1,0.8S12.4,10,13,10
		s1-0.1,1.5-0.3s0.8-0.5,1.1-0.8c0.3-0.3,0.5-0.7,0.7-1.2C16.4,7.2,16.4,6.8,16.4,6.3z"/>
	<path class="st1" d="M19.1,2h2.5c0.4,0,0.7,0,1,0.1s0.6,0.2,0.9,0.4c0.3,0.2,0.5,0.4,0.6,0.7c0.1,0.3,0.2,0.6,0.2,1
		c0,0.5-0.1,0.9-0.4,1.2S23.4,5.9,22.9,6v0c0.6,0.1,1.1,0.3,1.4,0.6s0.5,0.9,0.5,1.5c0,0.1,0,0.3-0.1,0.6s-0.2,0.5-0.4,0.8
		c-0.2,0.3-0.5,0.5-0.9,0.7s-1,0.3-1.6,0.3h-2.6V2z M20,5.8h1.7c0.2,0,0.4,0,0.6-0.1c0.2-0.1,0.4-0.1,0.5-0.3
		c0.2-0.1,0.3-0.3,0.4-0.5s0.2-0.4,0.2-0.7c0-0.1,0-0.2,0-0.4c0-0.2-0.1-0.3-0.2-0.5C23,3.2,22.8,3.1,22.6,3c-0.2-0.1-0.6-0.2-1-0.2
		H20C20,2.8,20,5.8,20,5.8z M20,9.7h1.7c0.3,0,0.6,0,0.9-0.1c0.3-0.1,0.5-0.2,0.7-0.3c0.2-0.1,0.4-0.3,0.5-0.5
		c0.1-0.2,0.2-0.4,0.2-0.7c0-0.6-0.2-1-0.5-1.2s-0.9-0.4-1.6-0.4H20V9.7z"/>
	<path class="st1" d="M27.5,9.7h4.5v0.8h-5.4V2h5.3v0.8h-4.4v2.9h4.1v0.8h-4.1L27.5,9.7L27.5,9.7z"/>
	<path class="st1" d="M34.6,10.5h-0.9V2h2.6c0.9,0,1.5,0.2,2,0.6c0.5,0.4,0.8,0.9,0.8,1.7c0,0.6-0.2,1.1-0.6,1.5S37.7,6.4,37,6.5
		l2.5,4h-1.1l-2.3-3.9h-1.4L34.6,10.5L34.6,10.5z M34.6,5.8h1.5c0.4,0,0.7,0,1-0.1s0.5-0.2,0.6-0.3s0.3-0.3,0.3-0.5s0.1-0.4,0.1-0.6
		c0-0.2,0-0.4-0.1-0.6S38,3.4,37.8,3.3c-0.2-0.1-0.4-0.2-0.6-0.3s-0.6-0.1-1-0.1h-1.5V5.8z"/>
	<path class="st1" d="M43.7,10.5h-0.9V2.8H40V2h6.5v0.8h-2.8L43.7,10.5L43.7,10.5z"/>
	<path class="st1" d="M51.2,2h2.5c0.3,0,0.7,0,1,0.1s0.6,0.2,0.9,0.4c0.3,0.2,0.5,0.4,0.6,0.7s0.2,0.6,0.2,1c0,0.5-0.1,0.9-0.4,1.2
		S55.4,5.9,55,6v0c0.6,0.1,1.1,0.3,1.4,0.6s0.5,0.9,0.5,1.5c0,0.1,0,0.3-0.1,0.6s-0.2,0.5-0.4,0.8s-0.5,0.5-0.9,0.7s-1,0.3-1.6,0.3
		h-2.6V2z M52,5.8h1.7c0.2,0,0.4,0,0.6-0.1c0.2-0.1,0.4-0.1,0.5-0.3c0.2-0.1,0.3-0.3,0.4-0.5c0.1-0.2,0.2-0.4,0.2-0.7
		c0-0.1,0-0.2,0-0.4c0-0.2-0.1-0.3-0.2-0.5c-0.1-0.2-0.3-0.3-0.5-0.4c-0.2-0.1-0.6-0.2-1-0.2H52V5.8z M52,9.7h1.7
		c0.3,0,0.6,0,0.9-0.1c0.3-0.1,0.5-0.2,0.7-0.3s0.4-0.3,0.5-0.5c0.1-0.2,0.2-0.4,0.2-0.7c0-0.6-0.2-1-0.5-1.2s-0.9-0.4-1.6-0.4h-1.8
		L52,9.7L52,9.7z"/>
	<path class="st1" d="M59.6,10.5h-0.9V2h0.9V10.5z"/>
	<path class="st1" d="M65.9,3.4c-0.4-0.5-0.9-0.8-1.6-0.8c-0.2,0-0.4,0-0.7,0.1S63.2,2.9,63.1,3c-0.2,0.1-0.3,0.3-0.4,0.5
		s-0.2,0.4-0.2,0.7c0,0.4,0.1,0.7,0.3,0.9c0.2,0.2,0.5,0.4,0.8,0.5c0.3,0.1,0.7,0.3,1.1,0.4s0.7,0.2,1.1,0.4s0.6,0.4,0.8,0.7
		s0.3,0.7,0.3,1.2c0,0.4-0.1,0.7-0.2,1c-0.2,0.3-0.4,0.6-0.7,0.8c-0.3,0.2-0.6,0.4-0.9,0.5s-0.7,0.2-1,0.2c-0.5,0-1-0.1-1.5-0.3
		c-0.5-0.2-0.9-0.5-1.2-1l0.8-0.6c0.2,0.3,0.4,0.6,0.8,0.8s0.7,0.3,1.2,0.3c0.2,0,0.4,0,0.7-0.1c0.2-0.1,0.4-0.2,0.6-0.3
		s0.3-0.3,0.4-0.5c0.1-0.2,0.2-0.4,0.2-0.7c0-0.3-0.1-0.5-0.2-0.7c-0.1-0.2-0.3-0.4-0.5-0.5s-0.4-0.2-0.7-0.3
		c-0.3-0.1-0.5-0.2-0.8-0.3c-0.3-0.1-0.5-0.2-0.8-0.3S62.4,6,62.2,5.8s-0.4-0.4-0.5-0.7c-0.1-0.3-0.2-0.6-0.2-1
		c0-0.4,0.1-0.8,0.2-1.1c0.2-0.3,0.4-0.6,0.6-0.8s0.5-0.3,0.9-0.4c0.3-0.1,0.7-0.1,1-0.1c0.5,0,0.9,0.1,1.3,0.2s0.8,0.4,1.1,0.8
		L65.9,3.4z"/>
	<path class="st1" d="M72.6,3.4c-0.4-0.5-0.9-0.8-1.6-0.8c-0.2,0-0.4,0-0.7,0.1S69.9,2.9,69.7,3c-0.2,0.1-0.3,0.3-0.4,0.5
		c-0.1,0.2-0.2,0.4-0.2,0.7c0,0.4,0.1,0.7,0.3,0.9c0.2,0.2,0.5,0.4,0.8,0.5c0.3,0.1,0.7,0.3,1.1,0.4s0.7,0.2,1.1,0.4
		s0.6,0.4,0.8,0.7s0.3,0.7,0.3,1.2c0,0.4-0.1,0.7-0.2,1c-0.2,0.3-0.4,0.6-0.7,0.8c-0.3,0.2-0.6,0.4-0.9,0.5s-0.7,0.2-1,0.2
		c-0.5,0-1-0.1-1.5-0.3c-0.5-0.2-0.9-0.5-1.2-1l0.8-0.6c0.2,0.3,0.4,0.6,0.8,0.8c0.3,0.2,0.7,0.3,1.2,0.3c0.2,0,0.4,0,0.7-0.1
		c0.2-0.1,0.4-0.2,0.6-0.3s0.3-0.3,0.4-0.5c0.1-0.2,0.2-0.4,0.2-0.7c0-0.3-0.1-0.5-0.2-0.7c-0.1-0.2-0.3-0.4-0.5-0.5
		s-0.4-0.2-0.7-0.3c-0.3-0.1-0.5-0.2-0.8-0.3c-0.3-0.1-0.5-0.2-0.8-0.3S69.1,6,68.9,5.8s-0.4-0.4-0.5-0.7c-0.1-0.3-0.2-0.6-0.2-1
		c0-0.4,0.1-0.8,0.2-1.1c0.2-0.3,0.4-0.6,0.6-0.8s0.6-0.3,0.9-0.4c0.3-0.1,0.7-0.1,1-0.1c0.5,0,0.9,0.1,1.3,0.2s0.8,0.4,1.1,0.8
		L72.6,3.4z"/>
	<path class="st1" d="M76.1,9.7h4.6v0.8h-5.4V2h5.3v0.8h-4.4v2.9h4.1v0.8h-4.1L76.1,9.7L76.1,9.7z"/>
	<path class="st1" d="M83.2,9.7h4v0.8h-4.8V2h0.9V9.7z"/>
	<path class="st1" d="M89.2,9.7h4v0.8h-4.8V2h0.9V9.7z"/>
</g>
</svg>
